<svg xmlns="http://www.w3.org/2000/svg" viewBox="0 0 736 355" width="736" height="355"><g fill="none"><title>Processes inside a container</title><title>Layer 1</title><title>zone internal - blue</title><path fill="#e2f3ec" d="M112.438 89.877h243.75V291h-243.75z"/><text transform="translate(127.438 99.877)" fill="#666"><tspan font-family="Roboto" font-size="12" font-weight="400" x="0" y="14">Container</tspan></text><text transform="translate(195.813 57)" fill="#666"><tspan font-family="Roboto" font-size="12" font-weight="400" x="0" y="14">Good example</tspan></text><text transform="translate(466.688 57)" fill="#666"><tspan font-family="Roboto" font-size="12" font-weight="400" x="0" y="14">Bad example</tspan></text><title>zone internal - blue</title><path fill="#ffd7d6" d="M379.813 89.877h243.75V291h-243.75z"/><text transform="translate(394.813 99.877)" fill="#666"><tspan font-family="Roboto" font-size="12" font-weight="400" x="0" y="14">Container</tspan></text><text transform="translate(128 133)" fill="#000"><tspan font-family="Courier New" font-size="12" font-weight="400" x="0" y="13">parent process</tspan></text><text transform="translate(149.876 156.593)" fill="#000"><tspan font-family="Courier New" font-size="12" font-weight="400" x="0" y="13">child process 1</tspan></text><text transform="translate(171 180.185)" fill="#000"><tspan font-family="Courier New" font-size="12" font-weight="400" x="0" y="13">child process 1.1</tspan></text><text transform="translate(171 203.778)" fill="#000"><tspan font-family="Courier New" font-size="12" font-weight="400" x="0" y="13">child process 1.2</tspan></text><text transform="translate(149.876 227.37)" fill="#000"><tspan font-family="Courier New" font-size="12" font-weight="400" x="0" y="13">child process 2</tspan></text><text transform="translate(171 250.963)" fill="#000"><tspan font-family="Courier New" font-size="12" font-weight="400" x="0" y="13">child process 2.1</tspan></text><title>path solid</title><path d="M136.808 152v14.791h11.068" stroke="#000" stroke-linecap="round" stroke-linejoin="round" stroke-width=".75"/><title>path solid</title><path d="M136.808 163.332v75.103h11.068" stroke="#000" stroke-linecap="round" stroke-linejoin="round" stroke-width=".75"/><title>path solid</title><path d="M158.794 175.593v15.505l10.206-.05" stroke="#000" stroke-linecap="round" stroke-linejoin="round" stroke-width=".75"/><title>path solid</title><path d="M158.794 191.098v23.334H169" stroke="#000" stroke-linecap="round" stroke-linejoin="round" stroke-width=".75"/><title>path solid</title><path d="M158.46 246.37v14.728H169" stroke="#000" stroke-linecap="round" stroke-linejoin="round" stroke-width=".75"/><text transform="translate(398 133)" fill="#000"><tspan font-family="Courier New" font-size="12" font-weight="400" x="0" y="13">parent process 1</tspan></text><text transform="translate(419.124 156.593)" fill="#000"><tspan font-family="Courier New" font-size="12" font-weight="400" x="0" y="13">child process 1.1</tspan></text><text transform="translate(419.124 180.185)" fill="#000"><tspan font-family="Courier New" font-size="12" font-weight="400" x="0" y="13">child process 1.2</tspan></text><text transform="translate(398 203.778)" fill="#000"><tspan font-family="Courier New" font-size="12" font-weight="400" x="0" y="13">parent process 2</tspan></text><text transform="translate(419.124 227.37)" fill="#000"><tspan font-family="Courier New" font-size="12" font-weight="400" x="0" y="13">child process 2.1</tspan></text><title>path solid</title><path d="M406.918 152v15.506l10.206-.052" stroke="#000" stroke-linecap="round" stroke-linejoin="round" stroke-width=".75"/><title>path solid</title><path d="M406.918 167.506v23.333h10.206" stroke="#000" stroke-linecap="round" stroke-linejoin="round" stroke-width=".75"/><title>path solid</title><path d="M407.195 222.778V237.7h9.929" stroke="#000" stroke-linecap="round" stroke-linejoin="round" stroke-width=".75"/><g><text transform="translate(419.124 250.963)" fill="#000"><tspan font-family="Courier New" font-size="12" font-weight="400" x="0" y="13">child process 2.2</tspan></text></g><g><title>path solid</title><path d="M407.195 237.7v24.011h9.929" stroke="#000" stroke-linecap="round" stroke-linejoin="round" stroke-width=".75"/></g></g></svg>