<svg xmlns="http://www.w3.org/2000/svg" viewBox="0 0 736 355" width="736" height="355"><defs><clipPath id="a"><path d="M69 104h107v42H69z"/></clipPath><clipPath id="b"><path d="M69 242.75h107v42H69z"/></clipPath><clipPath id="c"><path d="M221 172.5h107v42H221z"/></clipPath><clipPath id="d"><path d="M530.5 172.5h107v42h-107z"/></clipPath><marker orient="auto" overflow="visible" id="e" stroke-miterlimit="10" viewBox="-1 -5 10 10" markerWidth="10" markerHeight="10" color="#616161"><path d="M8 0H0m4-4l4 4-4 4" fill="none" stroke="currentColor"/></marker><marker orient="auto" overflow="visible" id="f" stroke-miterlimit="10" viewBox="-1 -5 10 10" markerWidth="10" markerHeight="10" color="#616161"><path d="M8 0H0m4-4l4 4-4 4" fill="none" stroke="currentColor"/></marker></defs><g fill="none"><title>Docker multi-stage build process</title><title>Layer 1</title><title>zone external - grey</title><path fill="#eaedef" d="M27 55h330v250H27z"/><text transform="translate(37 70)" fill="#757575"><tspan font-family="Roboto" font-size="10" font-weight="400" x="0" y="9">Build container</tspan></text><title>zone external - grey</title><path fill="#eaedef" d="M468 55h232v250H468z"/><text transform="translate(478 70)" fill="#757575"><tspan font-family="Roboto" font-size="10" font-weight="400" x="0" y="9">Final container image</tspan></text><path fill="#fff" d="M69 104h107v42H69z"/><path stroke="#dfdfdf" stroke-linecap="round" stroke-linejoin="round" stroke-width="2" clip-path="url(#a)" d="M69 104h107v42H69z"/><text transform="translate(94 118)" fill="#212121"><tspan font-family="Roboto" font-size="12" font-weight="400" x=".322" y="11">Build tools</tspan></text><title>zone internal - green</title><path fill="#e2f3ec" d="M484 109.5h200v175.25H484z"/><path stroke="#fff" stroke-linecap="round" stroke-linejoin="round" stroke-width="2" d="M484 109.5h200v175.25H484z"/><text transform="translate(494 124.5)" fill="#757575"><tspan font-family="Roboto" font-size="10" font-weight="400" x="0" y="9">Runtime environment</tspan></text><path d="M122.5 162l66.5 31.5-66.5 31.5L56 193.5z" fill="#e1f6fd"/><path d="M122.5 162l66.5 31.5-66.5 31.5L56 193.5z" stroke="#fff" stroke-linecap="round" stroke-linejoin="round"/><text transform="translate(78.955 185.87)" fill="#212121"><tspan font-family="Roboto" font-size="12" font-weight="400" x="8.726" y="11">Build process</tspan></text><path fill="#fff" d="M69 242.75h107v42H69z"/><path stroke="#dfdfdf" stroke-linecap="round" stroke-linejoin="round" stroke-width="2" clip-path="url(#b)" d="M69 242.75h107v42H69z"/><text transform="translate(89 256.75)" fill="#212121"><tspan font-family="Roboto" font-size="12" font-weight="400" x=".251" y="11">Source code</tspan></text><path fill="#fff" d="M221 172.5h107v42H221z"/><path stroke="#dfdfdf" stroke-linecap="round" stroke-linejoin="round" stroke-width="2" clip-path="url(#c)" d="M221 172.5h107v42H221z"/><text transform="translate(232 186.5)" fill="#212121"><tspan font-family="Roboto" font-size="12" font-weight="400" x=".139" y="11">Built application</tspan></text><g><path fill="#fff" d="M530.5 172.5h107v42h-107z"/><path stroke="#dfdfdf" stroke-linecap="round" stroke-linejoin="round" stroke-width="2" clip-path="url(#d)" d="M530.5 172.5h107v42h-107z"/><text transform="translate(541.5 186.5)" fill="#212121"><tspan font-family="Roboto" font-size="12" font-weight="400" x=".139" y="11">Built application</tspan></text></g><g><title>path w/ description</title><title>path</title><path d="M328 193.441l125.75-.177 66.85.133" marker-end="url(#e)" stroke="#616161" stroke-linecap="round" stroke-linejoin="round"/><text transform="translate(399.5 174.632)" fill="#757575"><tspan font-family="Roboto" font-size="10" font-weight="400" x="0" y="9">COPY</tspan></text></g><g><title>path arrow - grey primary</title><path marker-end="url(#f)" stroke="#616161" stroke-linecap="round" stroke-linejoin="round" d="M122.5 146v6.1"/></g><g><title>path arrow - grey primary</title><path d="M189 193.5h22.1" marker-end="url(#f)" stroke="#616161" stroke-linecap="round" stroke-linejoin="round"/></g><g><title>path arrow - grey primary</title><path marker-end="url(#f)" stroke="#616161" stroke-linecap="round" stroke-linejoin="round" d="M122.5 242.75v-7.85"/></g></g></svg>