<svg xmlns="http://www.w3.org/2000/svg" viewBox="0 0 736 580" width="736" height="580"><defs><clipPath id="a"><path d="M526.5 135.25h112v56h-112z"/></clipPath><clipPath id="b"><path d="M325.5 95.5H407v56h-81.5z"/></clipPath><clipPath id="c"><path d="M326.5 173.5H408v56h-81.5z"/></clipPath><clipPath id="d"><path d="M528.5 386.5h112v56h-112z"/></clipPath><clipPath id="e"><path d="M326.5 344.25H408v56h-81.5z"/></clipPath><clipPath id="f"><path d="M326.75 424.25h81.5v56h-81.5z"/></clipPath><clipPath id="g"><path d="M84.5 260.5h117v56h-117z"/></clipPath></defs><g fill="none"><title>ConfigMap</title><path fill="#fff" d="M0 0h736v580H0z"/><title>Layer 1</title><title>zone internal - blue</title><path fill="#e1f6fe" d="M285 55.5h167V271H285z"/><path stroke="#fff" stroke-linecap="round" stroke-linejoin="round" stroke-width="2" d="M285 55.5h167V271H285z"/><text transform="translate(295 70.5)" fill="#757575"><tspan font-family="Roboto" font-size="11" font-weight="400" x="0" y="10">Deployment V1</tspan></text><title>zone internal - green</title><path fill="#e2f3ec" d="M285 303.75h167v215.5H285z"/><path stroke="#fff" stroke-linecap="round" stroke-linejoin="round" stroke-width="2" d="M285 303.75h167v215.5H285z"/><text transform="translate(295 318.75)" fill="#757575"><tspan font-family="Roboto" font-size="10" font-weight="400" x="0" y="9">Deployment V2</tspan></text><path fill="#fff" d="M526.5 135.25h112v56h-112z"/><path stroke="#dfdfdf" stroke-linecap="round" stroke-linejoin="round" stroke-width="2" clip-path="url(#a)" d="M526.5 135.25h112v56h-112z"/><text transform="translate(544.5 156.25)" fill="#212121"><tspan font-family="Roboto" font-size="12" font-weight="400" x=".134" y="11">ConfigMap V1</tspan></text><path fill="#fff" d="M325.5 95.5H407v56h-81.5z"/><path stroke="#dfdfdf" stroke-linecap="round" stroke-linejoin="round" stroke-width="2" clip-path="url(#b)" d="M325.5 95.5H407v56h-81.5z"/><text transform="translate(350.5 116.5)" fill="#212121"><tspan font-family="Roboto" font-size="12" font-weight="400" x=".048" y="11">Pod A</tspan></text><text transform="translate(468.5 416.961)" fill="#757575"><tspan font-family="Roboto" font-size="10" font-weight="400" x="0" y="9">Used as</tspan> <tspan font-family="Roboto" font-size="10" font-weight="400" x="0" y="21">config file</tspan></text><path fill="#fff" d="M326.5 173.5H408v56h-81.5z"/><path stroke="#dfdfdf" stroke-linecap="round" stroke-linejoin="round" stroke-width="2" clip-path="url(#c)" d="M326.5 173.5H408v56h-81.5z"/><text transform="translate(351.5 194.5)" fill="#212121"><tspan font-family="Roboto" font-size="12" font-weight="400" x=".227" y="11">Pod B</tspan></text><path fill="#fff" d="M528.5 386.5h112v56h-112z"/><path stroke="#dfdfdf" stroke-linecap="round" stroke-linejoin="round" stroke-width="2" clip-path="url(#d)" d="M528.5 386.5h112v56h-112z"/><text transform="translate(546.5 407.5)" fill="#212121"><tspan font-family="Roboto" font-size="12" font-weight="400" x=".134" y="11">ConfigMap V2</tspan></text><path fill="#fff" d="M326.5 344.25H408v56h-81.5z"/><path stroke="#dfdfdf" stroke-linecap="round" stroke-linejoin="round" stroke-width="2" clip-path="url(#e)" d="M326.5 344.25H408v56h-81.5z"/><text transform="translate(351.5 365.25)" fill="#212121"><tspan font-family="Roboto" font-size="12" font-weight="400" x=".057" y="11">Pod C</tspan></text><path fill="#fff" d="M326.75 424.25h81.5v56h-81.5z"/><path stroke="#dfdfdf" stroke-linecap="round" stroke-linejoin="round" stroke-width="2" clip-path="url(#f)" d="M326.75 424.25h81.5v56h-81.5z"/><text transform="translate(351.75 445.25)" fill="#212121"><tspan font-family="Roboto" font-size="12" font-weight="400" x=".027" y="11">Pod D</tspan></text><path fill="#fff" d="M84.5 260.5h117v56h-117z"/><path stroke="#dfdfdf" stroke-linecap="round" stroke-linejoin="round" stroke-width="2" clip-path="url(#g)" d="M84.5 260.5h117v56h-117z"/><text transform="translate(108.5 281.5)" fill="#212121"><tspan font-family="Roboto" font-size="12" font-weight="400" x=".222" y="11">foo/bar:1.2.3</tspan></text><text transform="translate(469.5 168.211)" fill="#757575"><tspan font-family="Roboto" font-size="10" font-weight="400" x="0" y="9">Used as</tspan> <tspan font-family="Roboto" font-size="10" font-weight="400" x="0" y="21">config file</tspan></text><text transform="translate(223 128.711)" fill="#757575"><tspan font-family="Roboto" font-size="10" font-weight="400" x="0" y="9">Docker image</tspan> <tspan font-family="Roboto" font-size="10" font-weight="400" x="0" y="21">used</tspan></text><text transform="translate(223 206.211)" fill="#757575"><tspan font-family="Roboto" font-size="10" font-weight="400" x="0" y="9">Docker image</tspan> <tspan font-family="Roboto" font-size="10" font-weight="400" x="0" y="21">used</tspan></text><text transform="translate(224 376.539)" fill="#757575"><tspan font-family="Roboto" font-size="10" font-weight="400" x="0" y="9">Docker image</tspan> <tspan font-family="Roboto" font-size="10" font-weight="400" x="0" y="21">used</tspan></text><text transform="translate(225 456.711)" fill="#757575"><tspan font-family="Roboto" font-size="10" font-weight="400" x="0" y="9">Docker image</tspan> <tspan font-family="Roboto" font-size="10" font-weight="400" x="0" y="21">used</tspan></text><text transform="translate(513 273.711)" fill="#757575"><tspan font-family="Roboto" font-size="10" font-weight="400" x="0" y="9">Update the reference</tspan> <tspan font-family="Roboto" font-size="10" font-weight="400" x="0" y="21">to the ConfigMap</tspan></text><path d="M315.6 123H213a.5.5 0 0 0-.5.5v78a.5.5 0 0 0 .5.5h103.6a.5.5 0 0 0 0-1H213l.5.5v-78l-.5.5h102.6a.5.5 0 0 0 0-1zm9 78h-8v1h8zm-4.354-3.146l4 4v-.708l-4 4 .708.708 4-4 .353-.354-.353-.354-4-4zM323.6 123h-8v1h8zm-4.354-3.146l4 4v-.708l-4 4 .708.708 4-4 .353-.354-.353-.354-4-4z" fill="#616161"/><path d="M212.5 164v11.9l.498-.5-49.52.198H143a.5.5 0 0 0-.5.5V250.6a.5.5 0 0 0 1 0v-74.502l-.5.5h20.48l49.522-.198a.5.5 0 0 0 .498-.5V164a.5.5 0 1 0-1 0zm-69 94.6v-8h-1v8zm3.146-4.354l-4 4h.708l-4-4-.708.708 4 4 .354.353.354-.353 4-4zM416.9 124h45.6l-.5-.5v78l.5-.5h-44.6a.5.5 0 0 0 0 1h44.6a.5.5 0 0 0 .5-.5v-78a.5.5 0 0 0-.5-.5h-45.6a.5.5 0 0 0 0 1zm-7 78h8v-1h-8zm4.354 3.146l-4-4v.708l4-4-.708-.708-4 4-.353.354.353.354 4 4zM408.9 124h8v-1h-8zm4.354 3.146l-4-4v.708l4-4-.708-.708-4 4-.353.354.353.354 4 4z" fill="#616161"/><path d="M463.5 163.5H525a.5.5 0 0 0 0-1h-61.5a.5.5 0 0 0 0 1zM452 235.211h50.274l-.5-.5v101l.5-.5H462.9a.5.5 0 1 0 0 1h39.375a.5.5 0 0 0 .5-.5v-101a.5.5 0 0 0-.5-.5H452a.5.5 0 1 0 0 1zm2.9 101h8v-1h-8zm4.354 3.147l-4-4v.707l4-4-.708-.707-4 4-.353.353.353.354 4 4zM214.5 422.5v-11.9a.5.5 0 0 0-.497-.5l-38.078-.229H143l.5.5V326.4a.5.5 0 0 0-1 0v83.971a.5.5 0 0 0 .5.5h32.922l38.075.229-.497-.5v11.9a.5.5 0 0 0 1 0zm-72-104.1v8h1v-8zm-3.146 4.354l4-4h-.708l4 4 .708-.708-4-4-.354-.353-.354.353-4 4z" fill="#616161"/><path d="M316.6 371.75H214a.5.5 0 0 0-.5.5v80a.5.5 0 0 0 .5.5h102.85a.5.5 0 0 0 0-1H214l.5.5v-80l-.5.5h102.6a.5.5 0 0 0 0-1zm8.25 80h-8v1h8zm-4.354-3.146l4 4v-.708l-4 4 .708.708 4-4 .353-.354-.353-.354-4-4zm4.104-76.854h-8v1h8zm-4.354-3.146l4 4v-.708l-4 4 .708.708 4-4 .353-.354-.353-.354-4-4z" fill="#616161"/><g><path d="M417.9 372.75h44.6l-.5-.5v80l.5-.5h-44.35a.5.5 0 0 0 0 1h44.35a.5.5 0 0 0 .5-.5v-80a.5.5 0 0 0-.5-.5h-44.6a.5.5 0 0 0 0 1zm-7.75 80h8v-1h-8zm4.354 3.146l-4-4v.708l4-4-.708-.708-4 4-.353.354.353.354 4 4zM409.9 372.75h8v-1h-8zm4.354 3.146l-4-4v.708l4-4-.708-.708-4 4-.353.354.353.354 4 4z" fill="#616161"/></g><g><path d="M464.5 411.5H526a.5.5 0 0 0 0-1h-61.5a.5.5 0 0 0 0 1z" fill="#616161"/></g></g></svg>