<svg xmlns="http://www.w3.org/2000/svg" viewBox="0 0 736 500" width="736" height="500"><defs><clipPath id="a"><path d="M141 123.5h124v56H141z"/></clipPath><clipPath id="b"><path d="M141 348h124v56H141z"/></clipPath><clipPath id="c"><path d="M541.331 336.5h124v56h-124z"/></clipPath><marker orient="auto" overflow="visible" id="d" stroke-miterlimit="10" viewBox="-1 -5 10 10" markerWidth="10" markerHeight="10" color="#616161"><path d="M8 0H0m4-4l4 4-4 4" fill="none" stroke="currentColor"/></marker></defs><g fill="none"><title>monitoring</title><path fill="#fff" d="M0 0h736v500H0z"/><title>Layer 1</title><title>zone internal - blue</title><path fill="#e1f6fe" d="M77.5 46.5h248v404h-248z"/><path stroke="#fff" stroke-linecap="round" stroke-linejoin="round" stroke-width="2" d="M77.5 46.5h248v404h-248z"/><text transform="translate(87.5 61.5)" fill="#757575"><tspan font-family="Roboto" font-size="11" font-weight="400" x="0" y="10">Kubernetes pod</tspan></text><title>zone internal - yellow</title><path fill="#fef7e0" d="M119.5 87.5H285v105H119.5z"/><path stroke="#fff" stroke-linecap="round" stroke-linejoin="round" stroke-width="2" d="M119.5 87.5H285v105H119.5z"/><text transform="translate(129.5 102.5)" fill="#757575"><tspan font-family="Roboto" font-size="10" font-weight="400" x="0" y="9">Main container</tspan></text><path fill="#fff" d="M141 123.5h124v56H141z"/><path stroke="#dfdfdf" stroke-linecap="round" stroke-linejoin="round" stroke-width="2" clip-path="url(#a)" d="M141 123.5h124v56H141z"/><text transform="translate(159 144.5)" fill="#212121"><tspan font-family="Roboto" font-size="12" font-weight="400" x=".373" y="11">Java application</tspan></text><title>zone internal - yellow</title><path fill="#fef7e0" d="M119.5 312H285v105H119.5z"/><path stroke="#fff" stroke-linecap="round" stroke-linejoin="round" stroke-width="2" d="M119.5 312H285v105H119.5z"/><text transform="translate(129.5 327)" fill="#757575"><tspan font-family="Roboto" font-size="10" font-weight="400" x="0" y="9">Sidecar container</tspan></text><path fill="#fff" d="M141 348h124v56H141z"/><path stroke="#dfdfdf" stroke-linecap="round" stroke-linejoin="round" stroke-width="2" clip-path="url(#b)" d="M141 348h124v56H141z"/><text transform="translate(168 369)" fill="#212121"><tspan font-family="Roboto" font-size="12" font-weight="400" x=".342" y="11">jmx_exporter</tspan></text><text transform="translate(362.744 108.5)" fill="#757575"><tspan font-family="Roboto" font-size="10" font-weight="400" x="0" y="9">0.0.0.0: XXXX</tspan> <tspan font-family="Roboto" font-size="10" font-weight="400" x="0" y="21">Application listening port</tspan></text><text transform="translate(363.663 353)" fill="#757575"><tspan font-family="Roboto" font-size="10" font-weight="400" x="0" y="9">0.0.0.0: YYYY</tspan> <tspan font-family="Roboto" font-size="10" font-weight="400" x="0" y="21">/metrics endpoint </tspan> <tspan font-family="Roboto" font-size="10" font-weight="400" x="0" y="33">(Read-only)</tspan></text><text transform="translate(167.581 224)" fill="#757575"><tspan font-family="Roboto" font-size="10" font-weight="400" x="0" y="9">127.0.0.1: ZZZZ</tspan> <tspan font-family="Roboto" font-size="10" font-weight="400" x="0" y="21">JMX listening port</tspan> <tspan font-family="Roboto" font-size="10" font-weight="400" x="0" y="33">(Read/Write)</tspan></text><text transform="translate(141 295)" fill="#757575"><tspan font-family="Roboto" font-size="10" font-weight="400" x="0" y="9">Reads from</tspan></text><path fill="#fff" d="M541.331 336.5h124v56h-124z"/><path stroke="#dfdfdf" stroke-linecap="round" stroke-linejoin="round" stroke-width="2" clip-path="url(#c)" d="M541.331 336.5h124v56h-124z"/><text transform="translate(571.331 357.5)" fill="#212121"><tspan font-family="Roboto" font-size="12" font-weight="400" x=".08" y="11">Prometheus</tspan></text><title>path w/ description</title><title>path</title><path d="M541.331 364l-44.127.161-34.228.126" marker-end="url(#d)" stroke="#616161" stroke-linecap="round" stroke-linejoin="round"/><text transform="translate(482.331 347.943)" fill="#757575"><tspan font-family="Roboto" font-size="10" font-weight="400" x="0" y="9">Reads from</tspan></text><g><path d="M202 179.511l.375 16.5.375 16.5a.5.5 0 0 0 1-.022l-.375-16.5-.375-16.5a.5.5 0 0 0-1 .022z" fill="#616161"/></g><g><path d="M288.081 120h63.413a.5.5 0 0 0 0-1h-63.413a.5.5 0 0 0 0 1z" fill="#616161"/></g><g><path d="M202.792 311.5l.026-31.6a.5.5 0 0 0-1 0l-.026 31.6a.5.5 0 1 0 1 0zm-.968-39.6l-.006 8h1l.006-8zm-3.15 4.35l4.003-3.996h-.707l3.997 4.002.708-.706-3.997-4.003-.353-.354-.354.353-4.003 3.997z" fill="#616161"/></g><g><path d="M288.837 364.5h63.413a.5.5 0 0 0 0-1h-63.413a.5.5 0 1 0 0 1z" fill="#616161"/></g></g></svg>