<svg xmlns="http://www.w3.org/2000/svg" viewBox="0 0 736 420" width="736" height="420"><g fill="none"><title>virtual machines vs. containers</title><path fill="#fff" d="M0 0h736v420H0z"/><title>Layer 1</title><title>zone external - purple</title><path fill="#ede7f7" d="M203.75 39.5h152V255h-152z"/><text transform="translate(213.75 54.5)" fill="#757575"><tspan font-family="Roboto" font-size="10" font-weight="400" x="0" y="9">Virtual Machine 2</tspan></text><title>zone internal - blue</title><path fill="#e1f6fe" d="M541.25 114h154v142h-154z"/><path stroke="#fff" stroke-linecap="round" stroke-linejoin="round" stroke-width="2" d="M541.25 114h154v142h-154z"/><text transform="translate(551.25 129)" fill="#757575"><tspan font-family="Roboto" font-size="10" font-weight="400" x="0" y="9">Container 2</tspan></text><title>zone external - purple</title><path fill="#ede7f7" d="M49.75 39.5h152V255h-152z"/><text transform="translate(59.75 54.5)" fill="#757575"><tspan font-family="Roboto" font-size="10" font-weight="400" x="0" y="9">Virtual Machine 1</tspan></text><title>zone internal - blue</title><path fill="#e1f6fe" d="M387.25 114h154v142h-154z"/><path stroke="#fff" stroke-linecap="round" stroke-linejoin="round" stroke-width="2" d="M387.25 114h154v142h-154z"/><text transform="translate(397.25 129)" fill="#757575"><tspan font-family="Roboto" font-size="10" font-weight="400" x="0" y="9">Container 1</tspan></text><title>zone internal - yellow</title><path fill="#fef7e0" d="M71.75 115h110v38.5h-110z"/><path stroke="#fff" stroke-linecap="round" stroke-linejoin="round" stroke-width="2" d="M71.75 115h110v38.5h-110z"/><text transform="translate(81.75 130)" fill="#757575"><tspan font-family="Roboto" font-size="10" font-weight="400" x="0" y="9">Application 1</tspan></text><title>zone internal - yellow</title><path fill="#fef7e0" d="M225 114.25h110v38.5H225z"/><path stroke="#fff" stroke-linecap="round" stroke-linejoin="round" stroke-width="2" d="M225 114.25h110v38.5H225z"/><text transform="translate(235 129.25)" fill="#757575"><tspan font-family="Roboto" font-size="10" font-weight="400" x="0" y="9">Application 2</tspan></text><title>zone internal - yellow</title><path fill="#fef7e0" d="M71.75 154h110v38.5h-110z"/><path stroke="#fff" stroke-linecap="round" stroke-linejoin="round" stroke-width="2" d="M71.75 154h110v38.5h-110z"/><text transform="translate(81.75 169)" fill="#757575"><tspan font-family="Roboto" font-size="10" font-weight="400" x="0" y="9">Libraries</tspan></text><title>zone internal - yellow</title><path fill="#fef7e0" d="M225 153.25h110v38.5H225z"/><path stroke="#fff" stroke-linecap="round" stroke-linejoin="round" stroke-width="2" d="M225 153.25h110v38.5H225z"/><text transform="translate(235 168.25)" fill="#757575"><tspan font-family="Roboto" font-size="10" font-weight="400" x="0" y="9">Libraries</tspan></text><title>zone internal - green</title><path fill="#e2f3ec" d="M71.75 193h110v40h-110z"/><path stroke="#fff" stroke-linecap="round" stroke-linejoin="round" stroke-width="2" d="M71.75 193h110v40h-110z"/><text transform="translate(81.75 208)" fill="#757575"><tspan font-family="Roboto" font-size="10" font-weight="400" x="0" y="9">Guest kernel</tspan></text><title>zone internal - green</title><path fill="#e2f3ec" d="M225 192.25h110v40H225z"/><path stroke="#fff" stroke-linecap="round" stroke-linejoin="round" stroke-width="2" d="M225 192.25h110v40H225z"/><text transform="translate(235 207.25)" fill="#757575"><tspan font-family="Roboto" font-size="10" font-weight="400" x="0" y="9">Guest kernel</tspan></text><g><title>zone internal - blue</title><path fill="#e1f6fe" d="M48.75 256.5h308v40h-308z"/><path stroke="#fff" stroke-linecap="round" stroke-linejoin="round" stroke-width="2" d="M48.75 256.5h308v40h-308z"/><text transform="translate(58.75 271.5)" fill="#757575"><tspan font-family="Roboto" font-size="10" font-weight="400" x="0" y="9">Hypervisor</tspan></text></g><g><title>zone internal - green</title><path fill="#e2f3ec" d="M48.75 297h308v40h-308z"/><path stroke="#fff" stroke-linecap="round" stroke-linejoin="round" stroke-width="2" d="M48.75 297h308v40h-308z"/><text transform="translate(58.75 312)" fill="#757575"><tspan font-family="Roboto" font-size="10" font-weight="400" x="0" y="9">Host kernel</tspan></text></g><g><title>zone internal - purple</title><path fill="#d4e5fe" d="M48.75 337.5h308v40h-308z"/><path stroke="#fff" stroke-linecap="round" stroke-linejoin="round" stroke-width="2" d="M48.75 337.5h308v40h-308z"/><text transform="translate(58.75 352.5)" fill="#757575"><tspan font-family="Roboto" font-size="10" font-weight="400" x="0" y="9">Hardware</tspan></text></g><g><title>zone internal - yellow</title><path fill="#fef7e0" d="M409.25 156h110v38.5h-110z"/><path stroke="#fff" stroke-linecap="round" stroke-linejoin="round" stroke-width="2" d="M409.25 156h110v38.5h-110z"/><text transform="translate(419.25 171)" fill="#757575"><tspan font-family="Roboto" font-size="10" font-weight="400" x="0" y="9">Application 1</tspan></text></g><g><title>zone internal - yellow</title><path fill="#fef7e0" d="M560 156h110v38.5H560z"/><path stroke="#fff" stroke-linecap="round" stroke-linejoin="round" stroke-width="2" d="M560 156h110v38.5H560z"/><text transform="translate(570 171)" fill="#757575"><tspan font-family="Roboto" font-size="10" font-weight="400" x="0" y="9">Application 2</tspan></text></g><g><title>zone internal - yellow</title><path fill="#fef7e0" d="M409.25 195h110v38.5h-110z"/><path stroke="#fff" stroke-linecap="round" stroke-linejoin="round" stroke-width="2" d="M409.25 195h110v38.5h-110z"/><text transform="translate(419.25 210)" fill="#757575"><tspan font-family="Roboto" font-size="10" font-weight="400" x="0" y="9">Libraries</tspan></text></g><g><title>zone internal - yellow</title><path fill="#fef7e0" d="M560 195h110v38.5H560z"/><path stroke="#fff" stroke-linecap="round" stroke-linejoin="round" stroke-width="2" d="M560 195h110v38.5H560z"/><text transform="translate(570 210)" fill="#757575"><tspan font-family="Roboto" font-size="10" font-weight="400" x="0" y="9">Libraries</tspan></text></g><g><title>zone internal - green</title><path fill="#e2f3ec" d="M387.25 297h308v40h-308z"/><path stroke="#fff" stroke-linecap="round" stroke-linejoin="round" stroke-width="2" d="M387.25 297h308v40h-308z"/><text transform="translate(397.25 312)" fill="#757575"><tspan font-family="Roboto" font-size="10" font-weight="400" x="0" y="9">Host kernel</tspan></text></g><g><title>zone internal - grey</title><path fill="#eaedef" d="M387.25 256.5h308v40h-308z"/><path stroke="#fff" stroke-linecap="round" stroke-linejoin="round" stroke-width="2" d="M387.25 256.5h308v40h-308z"/><text transform="translate(397.25 271.5)" fill="#757575"><tspan font-family="Roboto" font-size="10" font-weight="400" x="0" y="9">Container runtime</tspan></text></g><g><title>zone internal - purple</title><path fill="#d4e5ff" d="M387.25 337.5h308v40h-308z"/><path stroke="#fff" stroke-linecap="round" stroke-linejoin="round" stroke-width="2" d="M387.25 337.5h308v40h-308z"/><text transform="translate(397.25 352.5)" fill="#757575"><tspan font-family="Roboto" font-size="10" font-weight="400" x="0" y="9">(Virtualized) hardware</tspan></text></g></g></svg>