<svg xmlns="http://www.w3.org/2000/svg" viewBox="0 0 736 460" width="736" height="460"><defs><clipPath id="a"><path d="M406 127h124v56H406z"/></clipPath><clipPath id="b"><path d="M216.5 127h124v56h-124z"/></clipPath><clipPath id="c"><path d="M240.5 319.75h124v56h-124z"/></clipPath><clipPath id="d"><path d="M384.5 319.75h124v56h-124z"/></clipPath></defs><g fill="none"><title>logmanagement</title><path fill="#fff" d="M0 0h736v460H0z"/><title>Layer 1</title><title>zone internal - blue</title><path fill="#e1f6fe" d="M159 49h426v186H159z"/><path stroke="#fff" stroke-linecap="round" stroke-linejoin="round" stroke-width="2" d="M159 49h426v186H159z"/><text transform="translate(169 64)" fill="#757575"><tspan font-family="Roboto" font-size="11" font-weight="400" x="0" y="10">Pod</tspan></text><title>zone internal - green</title><path fill="#e2f3ec" d="M201 278.25h347v137.5H201z"/><path stroke="#fff" stroke-linecap="round" stroke-linejoin="round" stroke-width="2" d="M201 278.25h347v137.5H201z"/><text transform="translate(211 293.25)" fill="#757575"><tspan font-family="Roboto" font-size="10" font-weight="400" x="0" y="9">emptyDir volume</tspan></text><title>zone internal - yellow</title><path fill="#fef7e0" d="M384.5 91H550v105H384.5z"/><path stroke="#fff" stroke-linecap="round" stroke-linejoin="round" stroke-width="2" d="M384.5 91H550v105H384.5z"/><text transform="translate(394.5 106)" fill="#757575"><tspan font-family="Roboto" font-size="10" font-weight="400" x="0" y="9">Logging agent container</tspan></text><path fill="#fff" d="M406 127h124v56H406z"/><path stroke="#dfdfdf" stroke-linecap="round" stroke-linejoin="round" stroke-width="2" clip-path="url(#a)" d="M406 127h124v56H406z"/><text transform="translate(428 148)" fill="#212121"><tspan font-family="Roboto" font-size="12" font-weight="400" x="1.77" y="11">Logging agent</tspan></text><title>zone internal - yellow</title><path fill="#fef7e0" d="M195 91h165.5v105H195z"/><path stroke="#fff" stroke-linecap="round" stroke-linejoin="round" stroke-width="2" d="M195 91h165.5v105H195z"/><text transform="translate(205 106)" fill="#757575"><tspan font-family="Roboto" font-size="10" font-weight="400" x="0" y="9">Main container</tspan></text><path fill="#fff" d="M216.5 127h124v56h-124z"/><path stroke="#dfdfdf" stroke-linecap="round" stroke-linejoin="round" stroke-width="2" clip-path="url(#b)" d="M216.5 127h124v56h-124z"/><text transform="translate(233.5 148)" fill="#212121"><tspan font-family="Roboto" font-size="12" font-weight="400" x=".261" y="11">Main application</tspan></text><path fill="#fff" d="M240.5 319.75h124v56h-124z"/><path stroke="#dfdfdf" stroke-linecap="round" stroke-linejoin="round" stroke-width="2" clip-path="url(#c)" d="M240.5 319.75h124v56h-124z"/><text transform="translate(281.5 340.75)" fill="#212121"><tspan font-family="Roboto" font-size="12" font-weight="400" x=".351" y="11">file1.log</tspan></text><g><path fill="#fff" d="M384.5 319.75h124v56h-124z"/><path stroke="#dfdfdf" stroke-linecap="round" stroke-linejoin="round" stroke-width="2" clip-path="url(#d)" d="M384.5 319.75h124v56h-124z"/><text transform="translate(425.5 340.75)" fill="#212121"><tspan font-family="Roboto" font-size="12" font-weight="400" x=".351" y="11">file2.log</tspan></text></g><g><text transform="translate(474.726 242.793)" fill="#757575"><tspan font-family="Roboto" font-size="10" font-weight="400" x="0" y="9">reads</tspan></text></g><g><text transform="translate(288 241.106)" fill="#757575"><tspan font-family="Roboto" font-size="10" font-weight="400" x="0" y="9">writes</tspan></text></g><g><path d="M334.5 318.5v-22l-.5.5h144l-.5-.5v22a.5.5 0 0 0 1 0v-22a.5.5 0 0 0-.5-.5H334a.5.5 0 0 0-.5.5v22a.5.5 0 0 0 1 0z" fill="#616161"/></g><g><path d="M440.5 309.85V302a.5.5 0 0 0-1 0v7.85a.5.5 0 0 0 1 0zm0-18.85v-32.789a.5.5 0 0 0-.5-.5H296a.5.5 0 0 0-.5.5v51.639a.5.5 0 0 0 1 0v-51.639l-.5.5h144l-.5-.5V291a.5.5 0 0 0 1 0zm-144 26.85v-8h-1v8zm3.146-4.354l-4 4h.708l-4-4-.708.708 4 4 .354.353.354-.353 4-4zM440.5 317.85v-8h-1v8zm3.146-4.354l-4 4h.708l-4-4-.708.708 4 4 .354.353.354-.353 4-4z" fill="#616161"/></g><g><path d="M384.467 297H434.5a.5.5 0 0 0 0-1h-50.033a.5.5 0 1 0 0 1zm61.033 0h20.945a.5.5 0 0 0 .5-.5V192.9a.5.5 0 1 0-1 0v103.6l.5-.5H445.5a.5.5 0 0 0 0 1zm20.445-112.1v8h1v-8zm-3.146 4.354l4-4h-.707l4 4 .707-.708-4-4-.354-.353-.353.353-4 4z" fill="#616161"/></g><g><path d="M326.5 195v63.211a.5.5 0 1 0 1 0V195a.5.5 0 0 0-1 0z" fill="#616161"/></g></g></svg>