<svg xmlns="http://www.w3.org/2000/svg" xmlns:xlink="http://www.w3.org/1999/xlink" xmlns:lucid="lucid" width="2112.08" height="1370.29"><g transform="translate(0 0)" lucid:page-tab-id="0_0"><path d="M20.63 22c0-1.1.9-2 2-2H2078c1.1 0 2 .9 2 2v1316c0 1.1-.9 2-2 2H22.63c-1.1 0-2-.9-2-2z" fill="#eceff1"/><path d="M1118.5 391.1l-26.36-45.3c-2.05-3.64-5.63-5.7-9.86-5.8h-52.48c-4.22.1-7.8 2.16-9.85 5.8l-26.37 45.18c-2.05 3.53-2.05 7.62 0 11.26l26.37 45.52c2.04 3.75 5.5 5.92 9.85 6.03h52.48c4.23-.12 7.8-2.3 9.86-6.04l26.37-45.18c2.05-3.75 2.05-7.85 0-11.5z" stroke="#000" stroke-opacity="0" fill="#4285f4"/><path d="M1088.04 378.57l-12.35-3-1.86 1.92 9.4 9.4.1 12.8-19.45-19.3h-15.87l-9.95-9.9-10.5 8.82-3.6 35.8 39 38.6h19.35c4.24-.16 7.83-2.32 9.86-5.98l23.96-41.37z" stroke="#000" stroke-opacity="0" fill-opacity=".07"/><path d="M1048.04 389.58l8 4.58 8-4.58v-9.15l-8-4.57-8 4.57v9.15zM1059.03 408.26l8 4.58 8-4.58v-9.15l-8-4.56-8 4.57v9.16zM1037.05 408.5l8 4.58 8-4.57v-9.14l-8-4.58-8 4.58v9.15z" stroke="#000" stroke-opacity="0" fill="#fff"/><path d="M1038.05 377.53l-8 4.6v29.5l8 4.6v7l-14-8v-36.7l14-8v7zM1074.02 377.53l8 4.6v29.5l-8 4.6v7l14-8v-36.7l-14-8v7z" stroke="#000" stroke-opacity="0" fill="#fff"/><use xlink:href="#a" transform="matrix(1,0,0,1,992.0415743791732,458.79) translate(25.074999999999996 14.4)"/><use xlink:href="#b" transform="matrix(1,0,0,1,992.0415743791732,458.79) translate(31.074999999999996 36)"/><path d="M44.14 162.37c0-1.1.9-2 2-2h296c1.1 0 2 .9 2 2V778.5c0 1.1-.9 2-2 2h-296c-1.1 0-2-.9-2-2zM1746.3 162.37c0-1.1.9-2 2-2h296c1.1 0 2 .9 2 2V778.5c0 1.1-.9 2-2 2h-296c-1.1 0-2-.9-2-2z" fill="#fff"/><use xlink:href="#c" transform="matrix(1,0,0,1,1762.3063447560219,176.36974528763506) translate(0 17.06666666666667)"/><path d="M1300.8 163.58c0-1.1.9-2 2-2h296c1.12 0 2 .9 2 2V778.5c0 1.1-.88 2-2 2h-296c-1.1 0-2-.9-2-2zM481.97 163.58c0-1.1.9-2 2-2h296c1.1 0 2 .9 2 2V778.5c0 1.1-.9 2-2 2h-296c-1.1 0-2-.9-2-2z" fill="#fff"/><use xlink:href="#c" transform="matrix(1,0,0,1,497.96821113464307,177.57840158831635) translate(0 17.06666666666667)"/><path d="M64.14 182.5c0-1.1.9-2 2-2H317.8c1.1 0 2 .9 2 2v98.04c0 1.1-.9 2-2 2H66.14c-1.1 0-2-.9-2-2z" fill="#e1f5fe"/><use xlink:href="#d" transform="matrix(1,0,0,1,80.13727794533241,196.5050682550994) translate(33.015625 24.739583333333336)"/><use xlink:href="#e" transform="matrix(1,0,0,1,80.13727794533241,196.5050682550994) translate(108.39322916666667 24.739583333333336)"/><use xlink:href="#f" transform="matrix(1,0,0,1,80.13727794533241,196.5050682550994) translate(38.015625 55.98958333333334)"/><path d="M64.14 321.5c0-1.12.9-2 2-2H317.8c1.1 0 2 .88 2 2v98.02c0 1.1-.9 2-2 2H66.14c-1.1 0-2-.9-2-2z" fill="#e1f5fe"/><use xlink:href="#g" transform="matrix(1,0,0,1,80.13727794533241,335.48923492170786) translate(70.99088541666666 24.739583333333336)"/><path d="M66.3 462.5c0-1.1.9-2 2-2h251.67c1.1 0 2 .9 2 2v98.04c0 1.1-.9 2-2 2H68.3c-1.1 0-2-.9-2-2z" fill="#e1f5fe"/><use xlink:href="#h" transform="matrix(1,0,0,1,82.30634475602182,476.50506825509945) translate(56.25130208333333 24.739583333333336)"/><path d="M64.14 603.52c0-1.1.9-2 2-2H317.8c1.1 0 2 .9 2 2v136c0 1.1-.9 2-2 2H66.14c-1.1 0-2-.9-2-2z" fill="#e1f5fe"/><use xlink:href="#i" transform="matrix(1,0,0,1,80.13727794533241,617.5209015884909) translate(85.681640625 61.848958333333336)"/><path d="M504.14 182.5c0-1.1.9-2 2-2H757.8c1.1 0 2 .9 2 2v98.04c0 1.1-.9 2-2 2H506.14c-1.1 0-2-.9-2-2z" fill="#e1f5fe"/><use xlink:href="#d" transform="matrix(1,0,0,1,520.1372779453325,196.5050682550994) translate(44.66927083333333 24.739583333333336)"/><use xlink:href="#j" transform="matrix(1,0,0,1,520.1372779453325,196.5050682550994) translate(120.046875 24.739583333333336)"/><path d="M504.14 321.5c0-1.12.9-2 2-2H757.8c1.1 0 2 .88 2 2v98.02c0 1.1-.9 2-2 2H506.14c-1.1 0-2-.9-2-2z" fill="#e1f5fe"/><use xlink:href="#k" transform="matrix(1,0,0,1,520.1372779453325,335.48923492170786) translate(61.1796875 24.739583333333336)"/><path d="M504.14 603.52c0-1.1.9-2 2-2H757.8c1.1 0 2 .9 2 2v136c0 1.1-.9 2-2 2H506.14c-1.1 0-2-.9-2-2z" fill="#e1f5fe"/><use xlink:href="#i" transform="matrix(1,0,0,1,520.1372779453325,617.5209015884909) translate(85.681640625 61.848958333333336)"/><path d="M1322.98 182.5c0-1.1.9-2 2-2h251.66c1.1 0 2 .9 2 2v98.04c0 1.1-.9 2-2 2h-251.66c-1.1 0-2-.9-2-2z" fill="#e1f5fe"/><use xlink:href="#l" transform="matrix(1,0,0,1,1338.9826119987795,196.5050682550995) translate(53.295572916666664 24.739583333333336)"/><path d="M1768.48 182.5c0-1.1.9-2 2-2h251.66c1.1 0 2 .9 2 2v98.04c0 1.1-.9 2-2 2h-251.66c-1.1 0-2-.9-2-2z" fill="#e1f5fe"/><use xlink:href="#m" transform="matrix(1,0,0,1,1784.4754115667113,196.5050682550995) translate(14.408854166666657 24.739583333333336)"/><use xlink:href="#n" transform="matrix(1,0,0,1,1784.4754115667113,196.5050682550995) translate(129.44791666666666 24.739583333333336)"/><path d="M1768.48 312.25c0-1.1.9-2 2-2h251.66c1.1 0 2 .9 2 2v98.03c0 1.1-.9 2-2 2h-251.66c-1.1 0-2-.9-2-2z" fill="#e1f5fe"/><use xlink:href="#o" transform="matrix(1,0,0,1,1784.4754115667113,326.2525341275498) translate(69.9296875 24.739583333333336)"/><use xlink:href="#p" transform="matrix(1,0,0,1,1784.4754115667113,326.2525341275498) translate(1.296875 55.98958333333334)"/><use xlink:href="#n" transform="matrix(1,0,0,1,1784.4754115667113,326.2525341275498) translate(142.55989583333334 55.98958333333334)"/><path d="M1768.48 442c0-1.1.9-2 2-2h251.66c1.1 0 2 .9 2 2v98.03c0 1.1-.9 2-2 2h-251.66c-1.1 0-2-.9-2-2z" fill="#e1f5fe"/><use xlink:href="#q" transform="matrix(1,0,0,1,1784.4754115667113,456) translate(44.96875 24.739583333333336)"/><use xlink:href="#r" transform="matrix(1,0,0,1,1784.4754115667113,456) translate(98.88802083333334 24.739583333333336)"/><path d="M1322.98 603.52c0-1.1.9-2 2-2h251.66c1.1 0 2 .9 2 2v136c0 1.1-.9 2-2 2h-251.66c-1.1 0-2-.9-2-2z" fill="#e1f5fe"/><use xlink:href="#i" transform="matrix(1,0,0,1,1338.9826119987795,617.5209015884909) translate(85.681640625 61.848958333333336)"/><path d="M1768.48 603.52c0-1.1.9-2 2-2h251.66c1.1 0 2 .9 2 2v136c0 1.1-.9 2-2 2h-251.66c-1.1 0-2-.9-2-2z" fill="#e1f5fe"/><use xlink:href="#i" transform="matrix(1,0,0,1,1784.4754115667113,617.5209015884909) translate(85.681640625 61.848958333333336)"/><path d="M640 942c0-1.1.9-2 2-2h796c1.1 0 2 .9 2 2v356c0 1.1-.9 2-2 2H642c-1.1 0-2-.9-2-2z" fill="#fff"/><use xlink:href="#s" transform="matrix(1,0,0,1,656,956) translate(125.50911458333331 24.739583333333336)"/><use xlink:href="#t" transform="matrix(1,0,0,1,656,956) translate(249.06380208333331 24.739583333333336)"/><use xlink:href="#u" transform="matrix(1,0,0,1,656,956) translate(365.3138020833333 24.739583333333336)"/><use xlink:href="#v" transform="matrix(1,0,0,1,656,956) translate(479.24609375 24.739583333333336)"/><use xlink:href="#w" transform="matrix(1,0,0,1,656,956) translate(530.10546875 24.739583333333336)"/><path d="M665.63 1022c0-1.1.9-2 2-2h316c1.1 0 2 .9 2 2v57.4c0 1.12-.9 2-2 2h-316c-1.1 0-2-.88-2-2z" fill="#e1f5fe"/><use xlink:href="#x" transform="matrix(1,0,0,1,681.6285839447223,1036) translate(0 24.739583333333336)"/><path d="M665.63 1112c0-1.1.9-2 2-2h316c1.1 0 2 .9 2 2v57.4c0 1.12-.9 2-2 2h-316c-1.1 0-2-.88-2-2z" fill="#e1f5fe"/><use xlink:href="#y" transform="matrix(1,0,0,1,681.6285839447223,1126) translate(0 24.739583333333336)"/><use xlink:href="#z" transform="matrix(1,0,0,1,681.6285839447223,1126) translate(65.88541666666666 24.739583333333336)"/><path d="M660 1202c0-1.1.9-2 2-2h316c1.1 0 2 .9 2 2v57.4c0 1.12-.9 2-2 2H662c-1.1 0-2-.88-2-2z" fill="#e1f5fe"/><use xlink:href="#A" transform="matrix(1,0,0,1,676,1216) translate(0 24.739583333333336)"/><use xlink:href="#B" transform="matrix(1,0,0,1,676,1216) translate(42.6171875 24.739583333333336)"/><use xlink:href="#C" transform="matrix(1,0,0,1,676,1216) translate(73.68489583333334 24.739583333333336)"/><path d="M1101.5 1022c0-1.1.9-2 2-2h316c1.1 0 2 .9 2 2v57.4c0 1.12-.9 2-2 2h-316c-1.1 0-2-.88-2-2z" fill="#e1f5fe"/><use xlink:href="#D" transform="matrix(1,0,0,1,1117.4913059993896,1036) translate(0 24.739583333333336)"/><use xlink:href="#E" transform="matrix(1,0,0,1,1117.4913059993896,1036) translate(65.5859375 24.739583333333336)"/><path d="M1101.5 1112c0-1.1.9-2 2-2h316c1.1 0 2 .9 2 2v57.4c0 1.12-.9 2-2 2h-316c-1.1 0-2-.88-2-2z" fill="#e1f5fe"/><use xlink:href="#F" transform="matrix(1,0,0,1,1117.4913059993896,1126) translate(0 24.739583333333336)"/><use xlink:href="#G" transform="matrix(1,0,0,1,1117.4913059993896,1126) translate(70.859375 24.739583333333336)"/><path d="M1101.5 1202c0-1.1.9-2 2-2h316c1.1 0 2 .9 2 2v57.4c0 1.12-.9 2-2 2h-316c-1.1 0-2-.88-2-2z" fill="#e1f5fe"/><use xlink:href="#H" transform="matrix(1,0,0,1,1117.4913059993896,1216) translate(0 24.739583333333336)"/><path d="M1058.53 939.72l-4.42-.83m-5.9-1.12l-8.83-1.67m-5.9-1.1l-8.83-1.66m-5.9-1.1l-8.84-1.68m-5.9-1.1l-8.83-1.67m-5.9-1.12l-8.84-1.67m-5.9-1.1l-8.83-1.66m-5.9-1.1l-8.84-1.68m-5.9-1.1l-8.83-1.67m-5.9-1.12l-8.84-1.67m-5.9-1.1l-8.84-1.66m-5.9-1.1l-8.84-1.68m-5.9-1.1l-8.83-1.67m-5.9-1.12l-8.85-1.67m-5.9-1.1l-8.83-1.66m-5.9-1.1l-8.84-1.68m-5.9-1.1l-8.83-1.67m-5.9-1.12l-8.84-1.67m-5.88-1.1l-8.84-1.66m-5.9-1.1l-8.84-1.68m-5.9-1.1l-8.83-1.67m-5.9-1.12l-8.83-1.67m-5.9-1.1l-8.83-1.66m-5.9-1.1l-8.84-1.68m-5.9-1.1l-8.83-1.67m-5.9-1.12l-8.84-1.67m-5.9-1.1l-8.83-1.66m-5.9-1.1l-8.84-1.68m-5.9-1.1l-8.83-1.67m-5.9-1.12l-8.84-1.67m-5.9-1.1l-8.84-1.66m-5.9-1.1l-8.84-1.68m-5.9-1.1l-8.83-1.67m-5.9-1.12l-8.85-1.67m-5.9-1.1l-8.83-1.66m-5.9-1.1l-8.84-1.68m-5.9-1.1l-8.83-1.67m-5.9-1.12l-8.84-1.67m-5.88-1.1l-8.84-1.66m-5.9-1.1l-8.84-1.68m-5.9-1.1l-8.83-1.67m-5.9-1.12l-8.83-1.67m-5.9-1.1l-8.83-1.66m-5.9-1.1l-8.84-1.68m-5.9-1.1l-8.83-1.67m-5.9-1.12l-8.84-1.67m-5.9-1.1l-8.83-1.66m-5.9-1.1l-8.84-1.68m-5.9-1.1l-8.83-1.67m-5.9-1.12l-8.84-1.67m-5.9-1.1l-8.84-1.66m-5.9-1.1l-8.84-1.68m-5.9-1.1l-8.83-1.67m-5.9-1.12l-8.85-1.67m-5.9-1.1l-8.83-1.66m-5.9-1.1l-8.84-1.68m-5.9-1.1l-4.4-.84M1058.5 939.72l1.5.28" stroke="#333" stroke-width="3" fill="none"/><path d="M217.87 781.4l14.88-1.9-1.72 9.1z" stroke="#333" stroke-width="3" fill="#333"/><path d="M1059.25 938.7l-2.23-3.85m-2.96-5.13l-4.45-7.7m-2.96-5.12l-4.45-7.7m-2.97-5.13l-4.45-7.7m-2.97-5.12l-4.44-7.7m-2.96-5.13l-4.45-7.7m-2.97-5.12l-4.45-7.7m-2.96-5.13l-4.45-7.7m-2.97-5.12l-4.45-7.7m-2.97-5.13l-4.45-7.7m-2.96-5.12l-4.45-7.7m-2.97-5.13l-4.45-7.7m-2.96-5.12l-4.46-7.7m-2.97-5.13l-4.45-7.7m-2.96-5.12l-4.45-7.7m-2.96-5.13l-4.45-7.7m-2.97-5.12l-4.45-7.7m-2.97-5.13l-4.44-7.7M928 711.7l-4.46-7.7m-2.96-5.13l-4.45-7.7m-2.97-5.12l-4.45-7.7m-2.95-5.13l-4.45-7.7m-2.97-5.12l-4.45-7.7m-2.96-5.13l-4.45-7.7m-2.97-5.12l-4.45-7.7m-2.96-5.13l-4.46-7.7m-2.97-5.12l-4.45-7.7m-2.97-5.13l-4.45-7.7m-2.96-5.12l-4.45-7.7m-2.98-5.13l-4.45-7.7M839 557.8l-4.44-7.7m-2.97-5.13l-4.46-7.7m-2.96-5.12l-4.45-7.7m-2.97-5.13l-4.45-7.7m-2.95-5.12l-4.45-7.7m-2.97-5.13l-4.45-7.7m-2.97-5.12l-2.2-3.85M1059.23 938.67l.77 1.33" stroke="#333" stroke-width="3" fill="none"/><path d="M784.4 463.35l11.15 10.03-8.02 4.64z" stroke="#333" stroke-width="3" fill="#333"/><path d="M1060.66 938.66l1.98-4m2.65-5.35l3.95-8m2.64-5.34l3.95-8m2.64-5.35l3.95-8m2.64-5.33l3.95-8m2.64-5.35l3.95-8m2.64-5.35l3.95-8m2.64-5.35l3.95-8m2.64-5.35l3.95-8m2.64-5.35l3.95-8m2.64-5.35l3.95-8m2.64-5.34l3.95-8m2.64-5.35l3.95-8m2.64-5.35l3.95-8m2.64-5.35l3.95-8m2.64-5.35l3.95-8m2.64-5.35l3.95-8m2.64-5.35l3.95-8m2.64-5.34l3.95-8.02m2.64-5.34l3.95-8m2.64-5.35l3.95-8.02m2.64-5.34l3.95-8m2.64-5.35l3.95-8.02m2.64-5.34l3.95-8m2.64-5.35l3.95-8m2.64-5.35l3.95-8m2.64-5.35l3.95-8m2.64-5.35l3.95-8m2.64-5.35l3.95-8m2.64-5.35l3.95-8m2.64-5.35l3.95-8m2.64-5.34l3.95-8m2.64-5.35l3.95-8m2.64-5.34l3.95-8m2.64-5.35l3.95-8m2.64-5.34l1.97-4M1060.68 938.62L1060 940" stroke="#333" stroke-width="3" fill="none"/><path d="M1298.66 457.32l-2.17 14.85-8.32-4.1z" stroke="#333" stroke-width="3" fill="#333"/><path d="M1061.47 939.72l4.4-.84m5.83-1.1l8.77-1.68m5.84-1.1l8.78-1.68m5.85-1.12l8.76-1.67m5.84-1.1l8.77-1.68m5.85-1.1l8.77-1.68m5.84-1.12l8.77-1.67m5.84-1.1l8.77-1.68m5.85-1.1l8.75-1.68m5.85-1.1l8.76-1.68m5.85-1.12l8.78-1.67m5.84-1.1l8.77-1.68m5.83-1.1l8.77-1.68m5.85-1.13l8.76-1.67m5.86-1.1l8.76-1.68m5.85-1.1l8.77-1.68m5.84-1.12l8.77-1.67m5.84-1.1l8.76-1.68m5.85-1.1l8.77-1.68m5.85-1.13l8.76-1.67m5.85-1.1l8.77-1.68m5.84-1.1l8.77-1.68m5.85-1.12l8.77-1.67m5.85-1.1l8.76-1.68m5.85-1.1l8.76-1.68m5.85-1.13l8.76-1.67m5.84-1.1l8.77-1.68m5.84-1.1l8.78-1.68m5.85-1.12l8.76-1.67m5.84-1.1l8.76-1.68m5.85-1.1l8.77-1.68m5.84-1.13l8.77-1.67m5.84-1.1l8.77-1.68m5.85-1.1l8.75-1.68m5.85-1.12l8.76-1.67m5.85-1.1l8.78-1.68m5.84-1.1l8.77-1.68m5.83-1.13l8.77-1.67m5.85-1.1l8.76-1.68m5.86-1.1l8.76-1.68m5.85-1.12l8.77-1.66m5.84-1.12l8.77-1.67m5.84-1.1l8.76-1.68m5.84-1.12l8.77-1.67m5.85-1.1l8.76-1.68m5.85-1.1l8.77-1.68m5.84-1.1l8.77-1.68m5.85-1.12l8.77-1.67m5.84-1.1l8.77-1.68m5.85-1.12l8.76-1.67m5.85-1.1l8.76-1.68m5.84-1.1l8.77-1.68m5.84-1.1l8.78-1.68m5.84-1.12l8.77-1.67m5.84-1.1l8.76-1.68m5.85-1.12l8.77-1.67m5.84-1.1l4.38-.84M1061.5 939.7l-1.5.3" stroke="#333" stroke-width="3" fill="none"/><path d="M1895.23 780.9l-13.14 7.23-1.75-9.1z" stroke="#333" stroke-width="3" fill="#333"/><path d="M34.14 32c0-1.1.9-2 2-2h316c1.1 0 2 .9 2 2v96c0 1.1-.9 2-2 2h-316c-1.1 0-2-.9-2-2z" fill="#fff"/><use xlink:href="#I" transform="matrix(1,0,0,1,50.137277945332414,46) translate(94.88758680555554 28.862847222222225)"/><path d="M461.97 32c0-1.1.9-2 2-2h316c1.1 0 2 .9 2 2v96c0 1.1-.9 2-2 2h-316c-1.1 0-2-.9-2-2z" fill="#fff"/><use xlink:href="#J" transform="matrix(1,0,0,1,477.96821113464307,45.99999999999999) translate(64.93858506944444 28.862847222222225)"/><use xlink:href="#K" transform="matrix(1,0,0,1,477.96821113464307,45.99999999999999) translate(69.40473090277777 65.32118055555556)"/><path d="M1290.8 32c0-1.1.9-2 2-2h316c1.12 0 2 .9 2 2v96c0 1.1-.88 2-2 2h-316c-1.1 0-2-.9-2-2z" fill="#fff"/><g><use xlink:href="#L" transform="matrix(1,0,0,1,1306.81354518809,46.00000000000001) translate(0 28.862847222222225)"/><use xlink:href="#M" transform="matrix(1,0,0,1,1306.81354518809,46.00000000000001) translate(165.82465277777777 28.862847222222225)"/></g><path d="M1736.3 32c0-1.1.9-2 2-2h316c1.1 0 2 .9 2 2v96c0 1.1-.9 2-2 2h-316c-1.1 0-2-.9-2-2z" fill="#fff"/><g><use xlink:href="#N" transform="matrix(1,0,0,1,1752.3063447560219,46.00000000000001) translate(99.23980034722221 28.862847222222225)"/></g><path d="M876.4 42c0-1.1.9-2 2-2h316c1.1 0 2 .9 2 2v76c0 1.1-.9 2-2 2h-316c-1.1 0-2-.9-2-2z" fill="#fff"/><g><use xlink:href="#O" transform="matrix(1,0,0,1,892.3908781613666,56) translate(55.960720486111114 28.862847222222225)"/></g><path d="M356.14 80h83.1" stroke="#99d2f2" stroke-width="4" fill="none"/><path d="M356.2 82h-2.06v-4h2.05z" fill="#99d2f2"/><path d="M455.5 80l-14.27 4.64v-9.28z" stroke="#99d2f2" stroke-width="4" fill="#99d2f2"/><path d="M802.6 80h53.17" stroke="#99d2f2" stroke-width="3" fill="none"/><path d="M786.82 80l14.27-4.64v9.28zM871.54 80l-14.27 4.64v-9.28z" stroke="#99d2f2" stroke-width="3" fill="#99d2f2"/><path d="M1198.4 80h69.68" stroke="#99d2f2" stroke-width="4" fill="none"/><path d="M1198.44 82h-2.05v-4h2.04z" fill="#99d2f2"/><path d="M1284.34 80l-14.26 4.64v-9.28z" stroke="#99d2f2" stroke-width="4" fill="#99d2f2"/><path d="M1612.8 80h100.77" stroke="#99d2f2" stroke-width="4" fill="none"/><path d="M1612.86 82h-2.05v-4h2.06z" fill="#99d2f2"/><path d="M1729.83 80l-14.26 4.64v-9.28z" stroke="#99d2f2" stroke-width="4" fill="#99d2f2"/><defs><path d="M212-179c-10-28-35-45-73-45-59 0-87 40-87 99 0 60 29 101 89 101 43 0 62-24 78-52l27 14C228-24 195 4 139 4 59 4 22-46 18-125c-6-104 99-153 187-111 19 9 31 26 39 46" id="P"/><path d="M100-194c62-1 85 37 85 99 1 63-27 99-86 99S16-35 15-95c0-66 28-99 85-99zM99-20c44 1 53-31 53-75 0-43-8-75-51-75s-53 32-53 75 10 74 51 75" id="Q"/><path d="M117-194c89-4 53 116 60 194h-32v-121c0-31-8-49-39-48C34-167 62-67 57 0H25l-1-190h30c1 10-1 24 2 32 11-22 29-35 61-36" id="R"/><path d="M59-47c-2 24 18 29 38 22v24C64 9 27 4 27-40v-127H5v-23h24l9-43h21v43h35v23H59v120" id="S"/><path d="M141-36C126-15 110 5 73 4 37 3 15-17 15-53c-1-64 63-63 125-63 3-35-9-54-41-54-24 1-41 7-42 31l-33-3c5-37 33-52 76-52 45 0 72 20 72 64v82c-1 20 7 32 28 27v20c-31 9-61-2-59-35zM48-53c0 20 12 33 32 33 41-3 63-29 60-74-43 2-92-5-92 41" id="T"/><path d="M24-231v-30h32v30H24zM24 0v-190h32V0H24" id="U"/><path d="M100-194c63 0 86 42 84 106H49c0 40 14 67 53 68 26 1 43-12 49-29l28 8c-11 28-37 45-77 45C44 4 14-33 15-96c1-61 26-98 85-98zm52 81c6-60-76-77-97-28-3 7-6 17-6 28h103" id="V"/><path d="M114-163C36-179 61-72 57 0H25l-1-190h30c1 12-1 29 2 39 6-27 23-49 58-41v29" id="W"/><g id="a"><use transform="matrix(0.05,0,0,0.05,0,0)" xlink:href="#P"/><use transform="matrix(0.05,0,0,0.05,12.950000000000001,0)" xlink:href="#Q"/><use transform="matrix(0.05,0,0,0.05,22.950000000000003,0)" xlink:href="#R"/><use transform="matrix(0.05,0,0,0.05,32.95,0)" xlink:href="#S"/><use transform="matrix(0.05,0,0,0.05,37.95,0)" xlink:href="#T"/><use transform="matrix(0.05,0,0,0.05,47.95,0)" xlink:href="#U"/><use transform="matrix(0.05,0,0,0.05,51.900000000000006,0)" xlink:href="#R"/><use transform="matrix(0.05,0,0,0.05,61.900000000000006,0)" xlink:href="#V"/><use transform="matrix(0.05,0,0,0.05,71.9,0)" xlink:href="#W"/></g><path d="M233-177c-1 41-23 64-60 70L243 0h-38l-65-103H63V0H30v-248c88 3 205-21 203 71zM63-129c60-2 137 13 137-47 0-61-80-42-137-45v92" id="X"/><path d="M177-190C167-65 218 103 67 71c-23-6-38-20-44-43l32-5c15 47 100 32 89-28v-30C133-14 115 1 83 1 29 1 15-40 15-95c0-56 16-97 71-98 29-1 48 16 59 35 1-10 0-23 2-32h30zM94-22c36 0 50-32 50-73 0-42-14-75-50-75-39 0-46 34-46 75s6 73 46 73" id="Y"/><path d="M135-143c-3-34-86-38-87 0 15 53 115 12 119 90S17 21 10-45l28-5c4 36 97 45 98 0-10-56-113-15-118-90-4-57 82-63 122-42 12 7 21 19 24 35" id="Z"/><path d="M179-190L93 31C79 59 56 82 12 73V49c39 6 53-20 64-50L1-190h34L92-34l54-156h33" id="aa"/><g id="b"><use transform="matrix(0.05,0,0,0.05,0,0)" xlink:href="#X"/><use transform="matrix(0.05,0,0,0.05,12.950000000000001,0)" xlink:href="#V"/><use transform="matrix(0.05,0,0,0.05,22.950000000000003,0)" xlink:href="#Y"/><use transform="matrix(0.05,0,0,0.05,32.95,0)" xlink:href="#U"/><use transform="matrix(0.05,0,0,0.05,36.900000000000006,0)" xlink:href="#Z"/><use transform="matrix(0.05,0,0,0.05,45.900000000000006,0)" xlink:href="#S"/><use transform="matrix(0.05,0,0,0.05,50.900000000000006,0)" xlink:href="#W"/><use transform="matrix(0.05,0,0,0.05,56.85,0)" xlink:href="#aa"/></g><path d="M688-137c238 0 323-102 359-325h193c-32 297-228 482-552 482-361 0-569-299-569-680 0-197 8-360 73-497 88-186 257-317 513-319 316-2 509 195 535 488h-193c-31-212-118-330-342-330-272 0-397 224-393 523v141c-3 282 115 517 376 517" id="ab"/><path d="M341 0H156v-1536h185V0" id="ac"/><path d="M584 20C278 26 81-227 91-551c10-320 175-545 491-551 308-5 503 247 494 573-9 322-175 543-492 549zm-2-970c-208 0-305 185-305 421 0 216 106 398 307 398 211 0 307-186 307-420 0-214-109-399-309-399" id="ad"/><path d="M491 20c-241-1-355-148-355-398v-704h185v699c0 164 67 246 200 246 141 0 235-53 282-158v-787h185V0H812l-4-107C736-22 630 20 491 20" id="ae"/><path d="M520 20C244 20 95-247 95-550c0-298 151-550 427-552 127 0 227 43 301 130v-564h185V0H838l-9-116C755-25 652 20 520 20zm48-965c-210 0-288 177-288 416 0 218 87 392 286 392 117 0 203-53 257-158v-497c-55-102-140-153-255-153" id="af"/><g id="d"><use transform="matrix(0.013020833333333334,0,0,0.013020833333333334,0,0)" xlink:href="#ab"/><use transform="matrix(0.013020833333333334,0,0,0.013020833333333334,17.356770833333336,0)" xlink:href="#ac"/><use transform="matrix(0.013020833333333334,0,0,0.013020833333333334,23.828125000000004,0)" xlink:href="#ad"/><use transform="matrix(0.013020833333333334,0,0,0.013020833333333334,39.036458333333336,0)" xlink:href="#ae"/><use transform="matrix(0.013020833333333334,0,0,0.013020833333333334,53.73697916666667,0)" xlink:href="#af"/></g><path d="M631-137c179 0 314-70 314-231 0-71-25-127-75-166s-141-77-272-115c-165-47-285-106-360-175s-112-154-112-255c0-245 231-397 495-397 206 0 369 89 449 218 43 68 65 142 65 223H942c0-184-129-283-321-283-172 0-299 76-301 236 0 59 26 109 76 150s135 78 256 113c205 59 345 116 436 256 35 53 50 119 50 193-2 256-231 398-507 390C333 12 90-129 80-422h193c0 187 160 285 358 285" id="ag"/><path d="M663-916c-163-27-288 18-338 148V0H140v-1082h180l3 125c61-97 147-145 258-145 36 0 63 5 82 14v172" id="ah"/><path d="M277-555c0 244 77 420 297 424 127 2 249-93 255-210h175C980-127 805 20 574 20 258 20 81-222 92-562c11-319 164-533 481-540 237-5 426 165 431 392H829c-7-133-115-242-256-240-209 4-296 166-296 395" id="ai"/><path d="M599-131c141 0 220-65 285-146l113 88C906-50 770 20 589 20 281 21 93-214 93-545c0-223 93-397 233-485 74-48 154-72 240-72 300 2 449 218 445 537v77H278c0 197 129 357 321 357zm227-509c-3-180-88-310-260-310-170 0-264 140-282 310h542" id="aj"/><g id="e"><use transform="matrix(0.013020833333333334,0,0,0.013020833333333334,0,0)" xlink:href="#ag"/><use transform="matrix(0.013020833333333334,0,0,0.013020833333333334,15.8203125,0)" xlink:href="#ad"/><use transform="matrix(0.013020833333333334,0,0,0.013020833333333334,31.028645833333336,0)" xlink:href="#ae"/><use transform="matrix(0.013020833333333334,0,0,0.013020833333333334,45.72916666666667,0)" xlink:href="#ah"/><use transform="matrix(0.013020833333333334,0,0,0.013020833333333334,54.505208333333336,0)" xlink:href="#ai"/><use transform="matrix(0.013020833333333334,0,0,0.013020833333333334,68.46354166666667,0)" xlink:href="#aj"/></g><path d="M1161-1018c0 201-122 330-278 388l342 618V0h-206L703-589H361V0H168v-1456h482c310-2 511 139 511 438zm-193 0c0-187-120-280-313-280H361v552h295c179 3 313-101 312-272" id="ak"/><path d="M632-1102c291 0 422 251 422 573 0 297-141 548-419 549-131 0-235-42-310-125v521H140v-1498h169l9 120c75-93 180-140 314-140zm-53 971c207 0 290-180 290-419 0-218-92-395-292-395-112 0-196 50-252 149v517c55 99 140 148 254 148" id="al"/><path d="M538-131c121 0 232-49 232-156 0-50-20-88-56-117-73-60-334-92-420-143-92-55-162-110-162-238 0-190 192-317 400-317 223 0 414 129 413 338H759c0-108-110-186-227-186-119 0-215 53-215 159 0 45 18 78 53 101 76 52 331 90 416 139 98 57 169 115 169 251C955-92 760 20 538 20c-176 0-314-68-386-174-38-55-57-115-57-179h185c6 129 116 202 258 202" id="am"/><path d="M341 0H156v-1082h185V0zm-91-1264c-68 0-108-42-109-105 0-62 41-107 109-107s110 44 110 107-42 105-110 105" id="an"/><path d="M456 20C285 20 205-92 206-268v-671H9v-143h197v-262h185v262h202v143H391v671c-9 125 92 149 207 118V0c-49 13-96 20-142 20" id="ao"/><g id="f"><use transform="matrix(0.013020833333333334,0,0,0.013020833333333334,0,0)" xlink:href="#ak"/><use transform="matrix(0.013020833333333334,0,0,0.013020833333333334,16.419270833333336,0)" xlink:href="#aj"/><use transform="matrix(0.013020833333333334,0,0,0.013020833333333334,30.546875,0)" xlink:href="#al"/><use transform="matrix(0.013020833333333334,0,0,0.013020833333333334,45.5078125,0)" xlink:href="#ad"/><use transform="matrix(0.013020833333333334,0,0,0.013020833333333334,60.716145833333336,0)" xlink:href="#am"/><use transform="matrix(0.013020833333333334,0,0,0.013020833333333334,74.46614583333334,0)" xlink:href="#an"/><use transform="matrix(0.013020833333333334,0,0,0.013020833333333334,80.93750000000001,0)" xlink:href="#ao"/><use transform="matrix(0.013020833333333334,0,0,0.013020833333333334,89.38802083333334,0)" xlink:href="#ad"/><use transform="matrix(0.013020833333333334,0,0,0.013020833333333334,104.59635416666667,0)" xlink:href="#ah"/><use transform="matrix(0.013020833333333334,0,0,0.013020833333333334,113.61979166666667,0)" xlink:href="#an"/><use transform="matrix(0.013020833333333334,0,0,0.013020833333333334,120.09114583333334,0)" xlink:href="#aj"/><use transform="matrix(0.013020833333333334,0,0,0.013020833333333334,134.21875,0)" xlink:href="#am"/></g><path d="M730-137c145 0 253-29 323-105v-327H716v-156h528v534C1148-51 964 20 729 20c-394 0-598-279-607-678v-127c-5-410 194-690 585-691 310-1 499 171 537 447h-192c-36-193-151-289-344-289-285 0-393 220-393 528v119c-5 296 140 534 415 534" id="ap"/><path d="M1288 0h-193v-673H361V0H169v-1456h192v626h734v-626h193V0" id="aq"/><path d="M634-1102c292 0 422 254 422 573 0 298-143 547-420 549-137 0-242-48-317-145L310 0H140v-1536h185v573c75-93 178-139 309-139zm-44 965c207 0 281-175 281-413 0-224-79-395-283-395-122 0-210 57-263 170v468c57 113 145 170 265 170" id="ar"/><g id="g"><use transform="matrix(0.013020833333333334,0,0,0.013020833333333334,0,0)" xlink:href="#ap"/><use transform="matrix(0.013020833333333334,0,0,0.013020833333333334,18.1640625,0)" xlink:href="#an"/><use transform="matrix(0.013020833333333334,0,0,0.013020833333333334,24.635416666666668,0)" xlink:href="#ao"/><use transform="matrix(0.013020833333333334,0,0,0.013020833333333334,33.34635416666667,0)" xlink:href="#aq"/><use transform="matrix(0.013020833333333334,0,0,0.013020833333333334,52.35677083333334,0)" xlink:href="#ae"/><use transform="matrix(0.013020833333333334,0,0,0.013020833333333334,67.05729166666667,0)" xlink:href="#ar"/></g><path d="M1160-420C1159-145 963 0 674 0H169v-1456h476c294-1 476 112 476 388 0 153-99 253-216 302 146 38 255 167 255 346zM678-157c171 2 289-95 289-261 0-175-95-263-286-263H361v524h317zm250-912c-2-172-104-229-283-229H361v463h290c157 3 278-84 277-234" id="as"/><path d="M442-501L326-380V0H141v-1536h185v929c135-169 291-317 436-475h225L566-630 1036 0H819" id="at"/><g id="h"><use transform="matrix(0.013020833333333334,0,0,0.013020833333333334,0,0)" xlink:href="#as"/><use transform="matrix(0.013020833333333334,0,0,0.013020833333333334,16.6015625,0)" xlink:href="#an"/><use transform="matrix(0.013020833333333334,0,0,0.013020833333333334,23.072916666666668,0)" xlink:href="#ao"/><use transform="matrix(0.013020833333333334,0,0,0.013020833333333334,31.783854166666668,0)" xlink:href="#ar"/><use transform="matrix(0.013020833333333334,0,0,0.013020833333333334,46.74479166666667,0)" xlink:href="#ae"/><use transform="matrix(0.013020833333333334,0,0,0.013020833333333334,61.4453125,0)" xlink:href="#ai"/><use transform="matrix(0.013020833333333334,0,0,0.013020833333333334,75.40364583333334,0)" xlink:href="#at"/><use transform="matrix(0.013020833333333334,0,0,0.013020833333333334,88.65885416666667,0)" xlink:href="#aj"/><use transform="matrix(0.013020833333333334,0,0,0.013020833333333334,102.78645833333334,0)" xlink:href="#ao"/></g><path d="M258 11c-71 0-114-43-114-108 0-67 42-112 114-112s116 45 116 112c-1 65-45 108-116 108" id="au"/><g id="i"><use transform="matrix(0.032552083333333336,0,0,0.032552083333333336,0,0)" xlink:href="#au"/><use transform="matrix(0.032552083333333336,0,0,0.032552083333333336,17.545572916666668,0)" xlink:href="#au"/><use transform="matrix(0.032552083333333336,0,0,0.032552083333333336,35.091145833333336,0)" xlink:href="#au"/></g><g id="j"><use transform="matrix(0.013020833333333334,0,0,0.013020833333333334,0,0)" xlink:href="#as"/><use transform="matrix(0.013020833333333334,0,0,0.013020833333333334,16.6015625,0)" xlink:href="#ae"/><use transform="matrix(0.013020833333333334,0,0,0.013020833333333334,31.302083333333336,0)" xlink:href="#an"/><use transform="matrix(0.013020833333333334,0,0,0.013020833333333334,37.7734375,0)" xlink:href="#ac"/><use transform="matrix(0.013020833333333334,0,0,0.013020833333333334,44.244791666666664,0)" xlink:href="#af"/></g><path d="M703-1476c426 0 599 333 586 795-11 408-187 701-584 701-422 0-587-333-587-793 0-282 106-507 280-617 89-56 190-86 305-86zm2 1333c312 0 393-279 393-632 0-308-116-536-395-536-269 0-394 232-394 523v107c-4 298 123 538 396 538" id="av"/><path d="M589-945c-131 0-219 81-264 174V0H140v-1082h175l6 136c83-104 191-156 324-156 229 0 346 129 346 387V0H806v-716c-2-153-65-229-217-229" id="aw"/><path d="M525-543H37v-151h488v151" id="ax"/><path d="M1240-945c-141 0-250 95-250 227V0H804v-709c0-157-77-236-231-236-121 0-204 52-249 155V0H139v-1082h175l5 120c79-93 186-140 321-140 151 0 254 58 309 174 69-98 181-174 345-174 237 0 362 126 362 377V0h-185v-714c-2-159-67-231-231-231" id="ay"/><g id="k"><use transform="matrix(0.013020833333333334,0,0,0.013020833333333334,0,0)" xlink:href="#av"/><use transform="matrix(0.013020833333333334,0,0,0.013020833333333334,18.333333333333336,0)" xlink:href="#aw"/><use transform="matrix(0.013020833333333334,0,0,0.013020833333333334,33.046875,0)" xlink:href="#ax"/><use transform="matrix(0.013020833333333334,0,0,0.013020833333333334,40.403645833333336,0)" xlink:href="#al"/><use transform="matrix(0.013020833333333334,0,0,0.013020833333333334,55.364583333333336,0)" xlink:href="#ah"/><use transform="matrix(0.013020833333333334,0,0,0.013020833333333334,64.140625,0)" xlink:href="#aj"/><use transform="matrix(0.013020833333333334,0,0,0.013020833333333334,78.26822916666667,0)" xlink:href="#ay"/></g><path d="M1222-777c17 480-206 763-650 777H169v-1456h411c408 9 627 269 642 679zm-190 4c3-312-149-522-447-525H361v1141h202c308 0 473-209 469-531v-85" id="az"/><path d="M494-271l252-811h198L509 167C425 381 299 474 84 421V271c167 16 242-37 283-173l41-110L22-1082h202" id="aA"/><g id="l"><use transform="matrix(0.013020833333333334,0,0,0.013020833333333334,0,0)" xlink:href="#az"/><use transform="matrix(0.013020833333333334,0,0,0.013020833333333334,17.486979166666668,0)" xlink:href="#aj"/><use transform="matrix(0.013020833333333334,0,0,0.013020833333333334,31.614583333333336,0)" xlink:href="#al"/><use transform="matrix(0.013020833333333334,0,0,0.013020833333333334,46.575520833333336,0)" xlink:href="#ac"/><use transform="matrix(0.013020833333333334,0,0,0.013020833333333334,53.046875,0)" xlink:href="#ad"/><use transform="matrix(0.013020833333333334,0,0,0.013020833333333334,68.05989583333333,0)" xlink:href="#aA"/><use transform="matrix(0.013020833333333334,0,0,0.013020833333333334,80.5078125,0)" xlink:href="#aj"/><use transform="matrix(0.013020833333333334,0,0,0.013020833333333334,94.63541666666667,0)" xlink:href="#ah"/><use transform="matrix(0.013020833333333334,0,0,0.013020833333333334,103.65885416666667,0)" xlink:href="#am"/></g><g id="m"><use transform="matrix(0.013020833333333334,0,0,0.013020833333333334,0,0)" xlink:href="#ab"/><use transform="matrix(0.013020833333333334,0,0,0.013020833333333334,17.356770833333336,0)" xlink:href="#ad"/><use transform="matrix(0.013020833333333334,0,0,0.013020833333333334,32.56510416666667,0)" xlink:href="#ay"/><use transform="matrix(0.013020833333333334,0,0,0.013020833333333334,55.9375,0)" xlink:href="#al"/><use transform="matrix(0.013020833333333334,0,0,0.013020833333333334,70.8984375,0)" xlink:href="#ae"/><use transform="matrix(0.013020833333333334,0,0,0.013020833333333334,85.59895833333333,0)" xlink:href="#ao"/><use transform="matrix(0.013020833333333334,0,0,0.013020833333333334,94.30989583333333,0)" xlink:href="#aj"/></g><path d="M992-673H361v516h733V0H169v-1456h915v158H361v468h631v157" id="aB"/><path d="M521 20C240 20 96-239 96-550c0-303 147-552 427-552 132 0 235 47 309 140l9-120h169V-26c4 277-183 454-459 452-165-1-334-81-400-187l96-111c79 98 176 147 291 147 180 1 288-109 286-290v-93C750-23 649 20 521 20zm48-965c-209 0-287 178-287 416 0 217 86 392 285 392 117 0 202-53 257-159v-494c-57-103-142-155-255-155" id="aC"/><g id="n"><use transform="matrix(0.013020833333333334,0,0,0.013020833333333334,0,0)" xlink:href="#aB"/><use transform="matrix(0.013020833333333334,0,0,0.013020833333333334,15.15625,0)" xlink:href="#aw"/><use transform="matrix(0.013020833333333334,0,0,0.013020833333333334,29.869791666666668,0)" xlink:href="#aC"/><use transform="matrix(0.013020833333333334,0,0,0.013020833333333334,44.83072916666667,0)" xlink:href="#an"/><use transform="matrix(0.013020833333333334,0,0,0.013020833333333334,51.302083333333336,0)" xlink:href="#aw"/><use transform="matrix(0.013020833333333334,0,0,0.013020833333333334,66.015625,0)" xlink:href="#aj"/></g><g id="o"><use transform="matrix(0.013020833333333334,0,0,0.013020833333333334,0,0)" xlink:href="#ap"/><use transform="matrix(0.013020833333333334,0,0,0.013020833333333334,18.1640625,0)" xlink:href="#ad"/><use transform="matrix(0.013020833333333334,0,0,0.013020833333333334,33.372395833333336,0)" xlink:href="#ad"/><use transform="matrix(0.013020833333333334,0,0,0.013020833333333334,48.58072916666667,0)" xlink:href="#aC"/><use transform="matrix(0.013020833333333334,0,0,0.013020833333333334,63.54166666666667,0)" xlink:href="#ac"/><use transform="matrix(0.013020833333333334,0,0,0.013020833333333334,70.01302083333334,0)" xlink:href="#aj"/></g><path d="M539-677L361-492V0H169v-1456h192v720l647-720h232L667-813 1285 0h-230" id="aD"/><g id="p"><use transform="matrix(0.013020833333333334,0,0,0.013020833333333334,0,0)" xlink:href="#aD"/><use transform="matrix(0.013020833333333334,0,0,0.013020833333333334,16.419270833333332,0)" xlink:href="#ae"/><use transform="matrix(0.013020833333333334,0,0,0.013020833333333334,31.11979166666666,0)" xlink:href="#ar"/><use transform="matrix(0.013020833333333334,0,0,0.013020833333333334,46.080729166666664,0)" xlink:href="#aj"/><use transform="matrix(0.013020833333333334,0,0,0.013020833333333334,60.20833333333332,0)" xlink:href="#ah"/><use transform="matrix(0.013020833333333334,0,0,0.013020833333333334,69.23177083333333,0)" xlink:href="#aw"/><use transform="matrix(0.013020833333333334,0,0,0.013020833333333334,83.9453125,0)" xlink:href="#aj"/><use transform="matrix(0.013020833333333334,0,0,0.013020833333333334,98.07291666666667,0)" xlink:href="#ao"/><use transform="matrix(0.013020833333333334,0,0,0.013020833333333334,106.78385416666667,0)" xlink:href="#aj"/><use transform="matrix(0.013020833333333334,0,0,0.013020833333333334,120.91145833333334,0)" xlink:href="#am"/></g><path d="M973-380H363L226 0H28l556-1456h168L1309 0h-197zM421-538h495l-248-681" id="aE"/><g id="q"><use transform="matrix(0.013020833333333334,0,0,0.013020833333333334,0,0)" xlink:href="#aE"/><use transform="matrix(0.013020833333333334,0,0,0.013020833333333334,17.395833333333336,0)" xlink:href="#al"/><use transform="matrix(0.013020833333333334,0,0,0.013020833333333334,32.356770833333336,0)" xlink:href="#al"/></g><g id="r"><use transform="matrix(0.013020833333333334,0,0,0.013020833333333334,0,0)" xlink:href="#aB"/><use transform="matrix(0.013020833333333334,0,0,0.013020833333333334,15.15625,0)" xlink:href="#aw"/><use transform="matrix(0.013020833333333334,0,0,0.013020833333333334,29.869791666666668,0)" xlink:href="#aC"/><use transform="matrix(0.013020833333333334,0,0,0.013020833333333334,44.83072916666667,0)" xlink:href="#an"/><use transform="matrix(0.013020833333333334,0,0,0.013020833333333334,51.302083333333336,0)" xlink:href="#aw"/><use transform="matrix(0.013020833333333334,0,0,0.013020833333333334,66.015625,0)" xlink:href="#aj"/></g><path d="M687-225c189-1 272-84 286-260h300c-19 311-251 505-586 505C296 20 86-277 86-686c0-466 174-782 605-790 340-6 557 198 584 514H975c-15-183-92-268-284-268-100 0-173 38-225 108-63 84-76 264-76 443 0 157 24 272 72 345s122 109 225 109" id="aF"/><path d="M579 20C257 20 58-214 66-551c8-331 182-551 511-551 324 0 514 231 514 572 0 319-198 550-512 550zm-2-888c-169 0-222 141-222 338 0 181 61 317 224 317 170 0 223-137 223-338 0-178-64-317-225-317" id="aG"/><path d="M750-692c-1-124-48-174-173-175-81 0-142 35-183 104V0H105v-1082h272l9 125c77-97 181-145 311-145 244 0 342 151 342 403V0H750v-692" id="aH"/><path d="M457-330c2 83 25 111 111 112 32 0 60-2 85-7V-6c-57 17-115 26-175 26-203 0-310-102-310-307v-583H10v-212h158v-266h289v266h185v212H457v540" id="aI"/><path d="M552-1102c254-4 435 134 435 383v469c1 103 15 180 43 233V0H738c-13-26-23-58-29-97C639-19 548 20 436 20 238 20 64-113 68-304c5-258 212-357 496-357h133c11-137-29-227-160-227-90 0-156 45-156 131H92c15-231 213-342 460-345zM357-325c0 76 61 124 142 124 88 0 168-45 198-105v-186H589c-152 2-232 51-232 167" id="aJ"/><path d="M416 0H126v-1082h290V0zM271-1212c-92 0-162-61-162-150s68-149 162-149c93 0 162 60 162 149s-70 150-162 150" id="aK"/><path d="M1031-175C952-60 797 20 609 20 287 20 60-206 72-543c12-330 180-559 505-559 309 0 482 214 477 537v118H365c15 134 115 234 263 234 111 0 198-40 261-121zM770-644c5-139-62-226-194-224-130 1-191 97-208 224h402" id="aL"/><path d="M719-811c-143-24-279 1-319 103V0H111v-1082h273l8 129c74-124 180-175 331-136" id="aM"/><g id="s"><use transform="matrix(0.013020833333333334,0,0,0.013020833333333334,0,0)" xlink:href="#aF"/><use transform="matrix(0.013020833333333334,0,0,0.013020833333333334,17.447916666666668,0)" xlink:href="#aG"/><use transform="matrix(0.013020833333333334,0,0,0.013020833333333334,32.52604166666667,0)" xlink:href="#aH"/><use transform="matrix(0.013020833333333334,0,0,0.013020833333333334,47.46093750000001,0)" xlink:href="#aI"/><use transform="matrix(0.013020833333333334,0,0,0.013020833333333334,56.47135416666667,0)" xlink:href="#aJ"/><use transform="matrix(0.013020833333333334,0,0,0.013020833333333334,70.76822916666667,0)" xlink:href="#aK"/><use transform="matrix(0.013020833333333334,0,0,0.013020833333333334,77.83854166666667,0)" xlink:href="#aH"/><use transform="matrix(0.013020833333333334,0,0,0.013020833333333334,92.7734375,0)" xlink:href="#aL"/><use transform="matrix(0.013020833333333334,0,0,0.013020833333333334,107.1875,0)" xlink:href="#aM"/></g><path d="M952-300H426L326 0H7l542-1456h278L1372 0h-319zM507-543h364l-183-545" id="aN"/><path d="M416 0H126v-1536h290V0" id="aO"/><path d="M515-409l200-673h310L590 168c-66 202-236 321-472 250V199c127 7 198-15 230-107l34-89L3-1082h311" id="aP"/><path d="M529-185c94 0 168-33 168-114 0-35-18-63-53-83s-91-39-168-55C219-491 90-600 90-765c0-208 203-337 432-337 246 0 451 124 453 349H686c-2-91-62-143-165-143-86 0-151 41-153 117 0 32 16 57 46 77 63 43 257 69 335 100 151 60 229 153 229 291C978-13 554 93 282-28 162-81 60-190 56-344h274c5 106 86 159 199 159" id="aQ"/><path d="M288 11c-91 0-163-63-163-153 0-91 73-155 163-155 91 0 164 64 164 155S380 11 288 11zm0-819c-91 0-163-63-163-153 0-91 73-155 163-155 91 0 164 64 164 155s-72 153-164 153" id="aR"/><g id="t"><use transform="matrix(0.013020833333333334,0,0,0.013020833333333334,0,0)" xlink:href="#aN"/><use transform="matrix(0.013020833333333334,0,0,0.013020833333333334,17.942708333333336,0)" xlink:href="#aH"/><use transform="matrix(0.013020833333333334,0,0,0.013020833333333334,32.87760416666667,0)" xlink:href="#aJ"/><use transform="matrix(0.013020833333333334,0,0,0.013020833333333334,47.17447916666667,0)" xlink:href="#aO"/><use transform="matrix(0.013020833333333334,0,0,0.013020833333333334,54.24479166666667,0)" xlink:href="#aP"/><use transform="matrix(0.013020833333333334,0,0,0.013020833333333334,67.63020833333334,0)" xlink:href="#aQ"/><use transform="matrix(0.013020833333333334,0,0,0.013020833333333334,81.34114583333334,0)" xlink:href="#aK"/><use transform="matrix(0.013020833333333334,0,0,0.013020833333333334,88.41145833333334,0)" xlink:href="#aQ"/><use transform="matrix(0.013020833333333334,0,0,0.013020833333333334,102.12239583333334,0)" xlink:href="#aR"/></g><path d="M561-1102c238-4 403 126 403 351v498c0 99 13 178 38 237V0H808c-11-21-19-59-26-114C696-25 593 20 474 20c-199 0-368-130-365-320 4-251 214-359 490-356h180v-85c-1-135-86-212-229-212-115 0-232 67-233 171H131c20-205 206-316 430-320zM294-326c0 117 90 185 207 185 122 0 239-75 278-162v-222H634c-227 0-340 66-340 199" id="aS"/><g id="u"><use transform="matrix(0.013020833333333334,0,0,0.013020833333333334,0,0)" xlink:href="#aE"/><use transform="matrix(0.013020833333333334,0,0,0.013020833333333334,17.395833333333336,0)" xlink:href="#aw"/><use transform="matrix(0.013020833333333334,0,0,0.013020833333333334,32.109375,0)" xlink:href="#aS"/><use transform="matrix(0.013020833333333334,0,0,0.013020833333333334,46.614583333333336,0)" xlink:href="#ac"/><use transform="matrix(0.013020833333333334,0,0,0.013020833333333334,53.0859375,0)" xlink:href="#aA"/><use transform="matrix(0.013020833333333334,0,0,0.013020833333333334,65.703125,0)" xlink:href="#am"/><use transform="matrix(0.013020833333333334,0,0,0.013020833333333334,79.453125,0)" xlink:href="#aj"/><use transform="matrix(0.013020833333333334,0,0,0.013020833333333334,93.58072916666667,0)" xlink:href="#am"/></g><g id="v"><use transform="matrix(0.013020833333333334,0,0,0.013020833333333334,0,0)" xlink:href="#aS"/><use transform="matrix(0.013020833333333334,0,0,0.013020833333333334,14.505208333333334,0)" xlink:href="#aw"/><use transform="matrix(0.013020833333333334,0,0,0.013020833333333334,29.21875,0)" xlink:href="#af"/></g><path d="M417-1456L893-268l476-1188h249V0h-192c-4-403 4-794 18-1179L966 0H819L342-1176c15 384 23 773 19 1176H169v-1456h248" id="aT"/><g id="w"><use transform="matrix(0.013020833333333334,0,0,0.013020833333333334,0,0)" xlink:href="#aT"/><use transform="matrix(0.013020833333333334,0,0,0.013020833333333334,23.28125,0)" xlink:href="#aj"/><use transform="matrix(0.013020833333333334,0,0,0.013020833333333334,37.40885416666667,0)" xlink:href="#ao"/><use transform="matrix(0.013020833333333334,0,0,0.013020833333333334,46.11979166666667,0)" xlink:href="#aS"/><use transform="matrix(0.013020833333333334,0,0,0.013020833333333334,60.625,0)" xlink:href="#af"/><use transform="matrix(0.013020833333333334,0,0,0.013020833333333334,75.6640625,0)" xlink:href="#aS"/><use transform="matrix(0.013020833333333334,0,0,0.013020833333333334,90.16927083333333,0)" xlink:href="#ao"/><use transform="matrix(0.013020833333333334,0,0,0.013020833333333334,98.88020833333333,0)" xlink:href="#aS"/></g><path d="M651-255l416-1201h210L737 0H567L28-1456h209" id="aU"/><g id="x"><use transform="matrix(0.013020833333333334,0,0,0.013020833333333334,0,0)" xlink:href="#aU"/><use transform="matrix(0.013020833333333334,0,0,0.013020833333333334,16.601562500000004,0)" xlink:href="#ae"/><use transform="matrix(0.013020833333333334,0,0,0.013020833333333334,31.302083333333336,0)" xlink:href="#ac"/><use transform="matrix(0.013020833333333334,0,0,0.013020833333333334,37.7734375,0)" xlink:href="#aw"/><use transform="matrix(0.013020833333333334,0,0,0.013020833333333334,52.48697916666667,0)" xlink:href="#aj"/><use transform="matrix(0.013020833333333334,0,0,0.013020833333333334,66.61458333333334,0)" xlink:href="#ah"/><use transform="matrix(0.013020833333333334,0,0,0.013020833333333334,75.11718750000001,0)" xlink:href="#aS"/><use transform="matrix(0.013020833333333334,0,0,0.013020833333333334,89.62239583333334,0)" xlink:href="#ar"/><use transform="matrix(0.013020833333333334,0,0,0.013020833333333334,104.58333333333334,0)" xlink:href="#an"/><use transform="matrix(0.013020833333333334,0,0,0.013020833333333334,111.0546875,0)" xlink:href="#ac"/><use transform="matrix(0.013020833333333334,0,0,0.013020833333333334,117.5260416666667,0)" xlink:href="#an"/><use transform="matrix(0.013020833333333334,0,0,0.013020833333333334,123.99739583333336,0)" xlink:href="#ao"/><use transform="matrix(0.013020833333333334,0,0,0.013020833333333334,132.70833333333337,0)" xlink:href="#an"/><use transform="matrix(0.013020833333333334,0,0,0.013020833333333334,139.17968750000003,0)" xlink:href="#aj"/><use transform="matrix(0.013020833333333334,0,0,0.013020833333333334,153.30729166666669,0)" xlink:href="#am"/></g><g id="y"><use transform="matrix(0.013020833333333334,0,0,0.013020833333333334,0,0)" xlink:href="#as"/><use transform="matrix(0.013020833333333334,0,0,0.013020833333333334,16.6015625,0)" xlink:href="#ae"/><use transform="matrix(0.013020833333333334,0,0,0.013020833333333334,31.302083333333336,0)" xlink:href="#an"/><use transform="matrix(0.013020833333333334,0,0,0.013020833333333334,37.7734375,0)" xlink:href="#ac"/><use transform="matrix(0.013020833333333334,0,0,0.013020833333333334,44.244791666666664,0)" xlink:href="#af"/></g><path d="M704-1390c-164-38-297 28-288 194v114h231v143H416V0H231v-939H60v-143h171v-111c-12-274 208-416 483-347" id="aV"/><g id="z"><use transform="matrix(0.013020833333333334,0,0,0.013020833333333334,0,0)" xlink:href="#an"/><use transform="matrix(0.013020833333333334,0,0,0.013020833333333334,6.471354166666667,0)" xlink:href="#aw"/><use transform="matrix(0.013020833333333334,0,0,0.013020833333333334,21.184895833333336,0)" xlink:href="#aV"/><use transform="matrix(0.013020833333333334,0,0,0.013020833333333334,30.442708333333336,0)" xlink:href="#ad"/></g><g id="A"><use transform="matrix(0.013020833333333334,0,0,0.013020833333333334,0,0)" xlink:href="#as"/><use transform="matrix(0.013020833333333334,0,0,0.013020833333333334,16.6015625,0)" xlink:href="#an"/><use transform="matrix(0.013020833333333334,0,0,0.013020833333333334,23.072916666666668,0)" xlink:href="#ac"/><use transform="matrix(0.013020833333333334,0,0,0.013020833333333334,29.544270833333336,0)" xlink:href="#ac"/></g><g id="B"><use transform="matrix(0.013020833333333334,0,0,0.013020833333333334,0,0)" xlink:href="#ad"/><use transform="matrix(0.013020833333333334,0,0,0.013020833333333334,15.208333333333334,0)" xlink:href="#aV"/></g><g id="C"><use transform="matrix(0.013020833333333334,0,0,0.013020833333333334,0,0)" xlink:href="#aT"/><use transform="matrix(0.013020833333333334,0,0,0.013020833333333334,23.28125,0)" xlink:href="#aS"/><use transform="matrix(0.013020833333333334,0,0,0.013020833333333334,37.786458333333336,0)" xlink:href="#ao"/><use transform="matrix(0.013020833333333334,0,0,0.013020833333333334,46.497395833333336,0)" xlink:href="#aj"/><use transform="matrix(0.013020833333333334,0,0,0.013020833333333334,60.625,0)" xlink:href="#ah"/><use transform="matrix(0.013020833333333334,0,0,0.013020833333333334,69.6484375,0)" xlink:href="#an"/><use transform="matrix(0.013020833333333334,0,0,0.013020833333333334,76.11979166666667,0)" xlink:href="#aS"/><use transform="matrix(0.013020833333333334,0,0,0.013020833333333334,90.625,0)" xlink:href="#ac"/><use transform="matrix(0.013020833333333334,0,0,0.013020833333333334,97.09635416666667,0)" xlink:href="#am"/></g><g id="D"><use transform="matrix(0.013020833333333334,0,0,0.013020833333333334,0,0)" xlink:href="#as"/><use transform="matrix(0.013020833333333334,0,0,0.013020833333333334,16.6015625,0)" xlink:href="#aS"/><use transform="matrix(0.013020833333333334,0,0,0.013020833333333334,31.106770833333336,0)" xlink:href="#am"/><use transform="matrix(0.013020833333333334,0,0,0.013020833333333334,44.856770833333336,0)" xlink:href="#aj"/></g><path d="M375 0H183v-1456h192V0" id="aW"/><g id="E"><use transform="matrix(0.013020833333333334,0,0,0.013020833333333334,0,0)" xlink:href="#aW"/><use transform="matrix(0.013020833333333334,0,0,0.013020833333333334,7.252604166666667,0)" xlink:href="#ay"/><use transform="matrix(0.013020833333333334,0,0,0.013020833333333334,30.625,0)" xlink:href="#aS"/><use transform="matrix(0.013020833333333334,0,0,0.013020833333333334,45.130208333333336,0)" xlink:href="#aC"/><use transform="matrix(0.013020833333333334,0,0,0.013020833333333334,60.091145833333336,0)" xlink:href="#aj"/></g><path d="M362-157h690V0H169v-1456h193v1299" id="aX"/><g id="F"><use transform="matrix(0.013020833333333334,0,0,0.013020833333333334,0,0)" xlink:href="#aX"/><use transform="matrix(0.013020833333333334,0,0,0.013020833333333334,14.348958333333334,0)" xlink:href="#aS"/><use transform="matrix(0.013020833333333334,0,0,0.013020833333333334,28.658854166666668,0)" xlink:href="#aA"/><use transform="matrix(0.013020833333333334,0,0,0.013020833333333334,41.106770833333336,0)" xlink:href="#aj"/><use transform="matrix(0.013020833333333334,0,0,0.013020833333333334,55.234375,0)" xlink:href="#ah"/></g><g id="G"><use transform="matrix(0.013020833333333334,0,0,0.013020833333333334,0,0)" xlink:href="#ag"/><use transform="matrix(0.013020833333333334,0,0,0.013020833333333334,15.8203125,0)" xlink:href="#ai"/><use transform="matrix(0.013020833333333334,0,0,0.013020833333333334,29.778645833333336,0)" xlink:href="#aS"/><use transform="matrix(0.013020833333333334,0,0,0.013020833333333334,44.28385416666667,0)" xlink:href="#aw"/><use transform="matrix(0.013020833333333334,0,0,0.013020833333333334,58.99739583333335,0)" xlink:href="#am"/></g><g id="H"><use transform="matrix(0.013020833333333334,0,0,0.013020833333333334,0,0)" xlink:href="#ab"/><use transform="matrix(0.013020833333333334,0,0,0.013020833333333334,17.356770833333336,0)" xlink:href="#ad"/><use transform="matrix(0.013020833333333334,0,0,0.013020833333333334,32.56510416666667,0)" xlink:href="#ay"/><use transform="matrix(0.013020833333333334,0,0,0.013020833333333334,55.9375,0)" xlink:href="#al"/><use transform="matrix(0.013020833333333334,0,0,0.013020833333333334,70.8984375,0)" xlink:href="#ac"/><use transform="matrix(0.013020833333333334,0,0,0.013020833333333334,77.36979166666667,0)" xlink:href="#an"/><use transform="matrix(0.013020833333333334,0,0,0.013020833333333334,83.84114583333334,0)" xlink:href="#aS"/><use transform="matrix(0.013020833333333334,0,0,0.013020833333333334,98.34635416666667,0)" xlink:href="#aw"/><use transform="matrix(0.013020833333333334,0,0,0.013020833333333334,113.05989583333334,0)" xlink:href="#ai"/><use transform="matrix(0.013020833333333334,0,0,0.013020833333333334,127.01822916666667,0)" xlink:href="#aj"/></g><path d="M658-217c127 0 227-49 227-165 0-57-21-98-60-130-79-64-370-142-463-196-162-95-248-210-248-361 0-280 246-403 537-407 213-3 383 84 467 216 45 69 68 147 68 234H886c0-139-96-211-240-211-129 0-232 55-232 169 0 47 24 87 72 119s117 62 210 90c171 51 295 115 373 191s117 171 117 284c-2 272-237 411-528 404C331 13 78-135 69-458h301c0 161 96 241 288 241" id="aY"/><path d="M463 20c-241-1-359-147-359-393v-709h289v699c0 113 51 169 154 169 98 0 165-34 202-102v-766h290V0H767l-8-110C688-23 589 20 463 20" id="aZ"/><path d="M355-556c-2 203 30 338 206 343 102 3 181-63 182-161h271C1001-128 821 17 566 20 242 24 66-212 66-554c0-320 184-548 498-548 262 0 451 167 450 423H743c-1-108-75-193-184-189-162 6-202 123-204 312" id="ba"/><g id="I"><use transform="matrix(0.015190972222222224,0,0,0.015190972222222224,0,0)" xlink:href="#aY"/><use transform="matrix(0.015190972222222224,0,0,0.015190972222222224,19.12543402777778,0)" xlink:href="#aG"/><use transform="matrix(0.015190972222222224,0,0,0.015190972222222224,36.716579861111114,0)" xlink:href="#aZ"/><use transform="matrix(0.015190972222222224,0,0,0.015190972222222224,54.125434027777786,0)" xlink:href="#aM"/><use transform="matrix(0.015190972222222224,0,0,0.015190972222222224,65.18446180555557,0)" xlink:href="#ba"/><use transform="matrix(0.015190972222222224,0,0,0.015190972222222224,81.40842013888891,0)" xlink:href="#aL"/></g><g id="J"><use transform="matrix(0.015190972222222224,0,0,0.015190972222222224,0,0)" xlink:href="#ab"/><use transform="matrix(0.015190972222222224,0,0,0.015190972222222224,20.249565972222225,0)" xlink:href="#ad"/><use transform="matrix(0.015190972222222224,0,0,0.015190972222222224,37.992621527777786,0)" xlink:href="#aw"/><use transform="matrix(0.015190972222222224,0,0,0.015190972222222224,55.1584201388889,0)" xlink:href="#ao"/><use transform="matrix(0.015190972222222224,0,0,0.015190972222222224,65.32118055555557,0)" xlink:href="#an"/><use transform="matrix(0.015190972222222224,0,0,0.015190972222222224,72.87109375000001,0)" xlink:href="#aw"/><use transform="matrix(0.015190972222222224,0,0,0.015190972222222224,90.03689236111113,0)" xlink:href="#ae"/><use transform="matrix(0.015190972222222224,0,0,0.015190972222222224,107.18750000000001,0)" xlink:href="#ad"/><use transform="matrix(0.015190972222222224,0,0,0.015190972222222224,124.93055555555557,0)" xlink:href="#ae"/><use transform="matrix(0.015190972222222224,0,0,0.015190972222222224,142.08116319444446,0)" xlink:href="#am"/></g><g id="K"><use transform="matrix(0.015190972222222224,0,0,0.015190972222222224,0,0)" xlink:href="#aW"/><use transform="matrix(0.015190972222222224,0,0,0.015190972222222224,8.461371527777779,0)" xlink:href="#aw"/><use transform="matrix(0.015190972222222224,0,0,0.015190972222222224,25.627170138888893,0)" xlink:href="#ao"/><use transform="matrix(0.015190972222222224,0,0,0.015190972222222224,35.78993055555556,0)" xlink:href="#aj"/><use transform="matrix(0.015190972222222224,0,0,0.015190972222222224,52.27213541666667,0)" xlink:href="#aC"/><use transform="matrix(0.015190972222222224,0,0,0.015190972222222224,69.7265625,0)" xlink:href="#ah"/><use transform="matrix(0.015190972222222224,0,0,0.015190972222222224,79.64626736111111,0)" xlink:href="#aS"/><use transform="matrix(0.015190972222222224,0,0,0.015190972222222224,96.56901041666667,0)" xlink:href="#ao"/><use transform="matrix(0.015190972222222224,0,0,0.015190972222222224,106.73177083333334,0)" xlink:href="#an"/><use transform="matrix(0.015190972222222224,0,0,0.015190972222222224,114.28168402777779,0)" xlink:href="#ad"/><use transform="matrix(0.015190972222222224,0,0,0.015190972222222224,132.02473958333334,0)" xlink:href="#aw"/></g><g id="L"><use transform="matrix(0.015190972222222224,0,0,0.015190972222222224,0,0)" xlink:href="#ab"/><use transform="matrix(0.015190972222222224,0,0,0.015190972222222224,20.249565972222225,0)" xlink:href="#ad"/><use transform="matrix(0.015190972222222224,0,0,0.015190972222222224,37.992621527777786,0)" xlink:href="#aw"/><use transform="matrix(0.015190972222222224,0,0,0.015190972222222224,55.1584201388889,0)" xlink:href="#ao"/><use transform="matrix(0.015190972222222224,0,0,0.015190972222222224,65.32118055555557,0)" xlink:href="#an"/><use transform="matrix(0.015190972222222224,0,0,0.015190972222222224,72.87109375000001,0)" xlink:href="#aw"/><use transform="matrix(0.015190972222222224,0,0,0.015190972222222224,90.03689236111113,0)" xlink:href="#ae"/><use transform="matrix(0.015190972222222224,0,0,0.015190972222222224,107.18750000000001,0)" xlink:href="#ad"/><use transform="matrix(0.015190972222222224,0,0,0.015190972222222224,124.93055555555557,0)" xlink:href="#ae"/><use transform="matrix(0.015190972222222224,0,0,0.015190972222222224,142.08116319444446,0)" xlink:href="#am"/></g><path d="M497-251l268-831h189L566 0H425L33-1082h189" id="bb"/><g id="M"><use transform="matrix(0.015190972222222224,0,0,0.015190972222222224,0,0)" xlink:href="#az"/><use transform="matrix(0.015190972222222224,0,0,0.015190972222222224,20.401475694444446,0)" xlink:href="#aj"/><use transform="matrix(0.015190972222222224,0,0,0.015190972222222224,36.88368055555556,0)" xlink:href="#ac"/><use transform="matrix(0.015190972222222224,0,0,0.015190972222222224,44.43359375,0)" xlink:href="#an"/><use transform="matrix(0.015190972222222224,0,0,0.015190972222222224,51.98350694444444,0)" xlink:href="#bb"/><use transform="matrix(0.015190972222222224,0,0,0.015190972222222224,66.85546875,0)" xlink:href="#aj"/><use transform="matrix(0.015190972222222224,0,0,0.015190972222222224,83.33767361111111,0)" xlink:href="#ah"/><use transform="matrix(0.015190972222222224,0,0,0.015190972222222224,94.13845486111111,0)" xlink:href="#aA"/></g><path d="M1226-1213H780V0H480v-1213H40v-243h1186v243" id="bc"/><path d="M505 20C221 18 69-239 69-549c0-302 153-553 438-553 119 0 211 41 277 122l12-102h262V-36c-8 305-208 458-520 462-160 1-335-76-403-170L263 80c72 81 159 121 262 121 172 1 260-107 243-294C701-18 614 20 505 20zm76-887c-165 0-223 147-223 339 0 172 66 314 221 314 88 0 151-33 189-99v-455c-39-66-101-99-187-99" id="bd"/><g id="N"><use transform="matrix(0.015190972222222224,0,0,0.015190972222222224,0,0)" xlink:href="#bc"/><use transform="matrix(0.015190972222222224,0,0,0.015190972222222224,16.694878472222225,0)" xlink:href="#aJ"/><use transform="matrix(0.015190972222222224,0,0,0.015190972222222224,33.37456597222223,0)" xlink:href="#aM"/><use transform="matrix(0.015190972222222224,0,0,0.015190972222222224,44.43359375000001,0)" xlink:href="#bd"/><use transform="matrix(0.015190972222222224,0,0,0.015190972222222224,62.191840277777786,0)" xlink:href="#aL"/><use transform="matrix(0.015190972222222224,0,0,0.015190972222222224,79.00824652777779,0)" xlink:href="#aI"/></g><path d="M1209-1016c0 219-100 334-260 407l315 595V0H942L669-533H430V0H130v-1456h541c318-3 538 141 538 440zm-300 24c-1-144-85-221-238-221H430v437h242c144 2 238-77 237-216" id="be"/><path d="M663-1102c295 0 422 250 422 571 0 300-141 549-420 551-109 0-198-38-265-114v510H111v-1498h268l10 106c70-84 161-126 274-126zm133 550c0-175-53-315-209-315-91 0-153 35-187 104v443c35 71 98 107 189 107 138 0 207-113 207-339" id="bf"/><g id="O"><use transform="matrix(0.015190972222222224,0,0,0.015190972222222224,0,0)" xlink:href="#be"/><use transform="matrix(0.015190972222222224,0,0,0.015190972222222224,19.854600694444446,0)" xlink:href="#aL"/><use transform="matrix(0.015190972222222224,0,0,0.015190972222222224,36.67100694444444,0)" xlink:href="#bf"/><use transform="matrix(0.015190972222222224,0,0,0.015190972222222224,54.18619791666667,0)" xlink:href="#aG"/><use transform="matrix(0.015190972222222224,0,0,0.015190972222222224,71.77734375,0)" xlink:href="#aQ"/><use transform="matrix(0.015190972222222224,0,0,0.015190972222222224,87.7734375,0)" xlink:href="#aK"/><use transform="matrix(0.015190972222222224,0,0,0.015190972222222224,96.02213541666667,0)" xlink:href="#aI"/><use transform="matrix(0.015190972222222224,0,0,0.015190972222222224,106.07855902777777,0)" xlink:href="#aG"/><use transform="matrix(0.015190972222222224,0,0,0.015190972222222224,123.66970486111111,0)" xlink:href="#aM"/><use transform="matrix(0.015190972222222224,0,0,0.015190972222222224,135.01736111111111,0)" xlink:href="#aK"/><use transform="matrix(0.015190972222222224,0,0,0.015190972222222224,143.26605902777777,0)" xlink:href="#aL"/><use transform="matrix(0.015190972222222224,0,0,0.015190972222222224,160.08246527777777,0)" xlink:href="#aQ"/></g></defs></g></svg>