<svg width="736" height="414" viewBox="0 0 736 414" xmlns="http://www.w3.org/2000/svg"><title>Headless Service</title><g fill="none" fill-rule="evenodd"><path d="M75 168.09c-1.105 0-2-.404-2-.902v-50.513c0-.498.895-.902 2-.902h140c1.105 0 2 .404 2 .902v50.513c0 .498-.895.902-2 .902H75z" stroke="#E0E0E0" fill="#FFF"/><path d="M498 326.773c-1.105 0-2-.447-2-1v-88c0-.552.895-1 2-1h164c1.105 0 2 .448 2 1v88c0 .553-.895 1-2 1H498z" stroke="#FAFAFA" stroke-width="2" fill="#E1F6FE"/><path d="M510 299.09c-1.105 0-2-.404-2-.902v-50.513c0-.498.895-.902 2-.902h140c1.105 0 2 .404 2 .902v50.513c0 .498-.895.902-2 .902H510z" stroke="#E0E0E0" fill="#FFF"/><path d="M567.344 266.413v2.642h-1.236v-7.11h2.72c.413 0 .78.056 1.101.169.32.112.592.27.813.471.222.202.39.441.506.718.115.276.173.578.173.903 0 .345-.058.654-.173.928a1.838 1.838 0 0 1-.506.693 2.299 2.299 0 0 1-.813.435c-.32.1-.688.151-1.1.151h-1.485zm0-.991h1.484c.238 0 .442-.03.613-.088.17-.059.312-.142.422-.249a.956.956 0 0 0 .242-.383c.05-.148.076-.31.076-.486 0-.166-.026-.326-.076-.479a1.095 1.095 0 0 0-.242-.407 1.176 1.176 0 0 0-.422-.284 1.614 1.614 0 0 0-.613-.105h-1.484v2.48zm4.756.942c0-.384.056-.74.168-1.067.112-.327.273-.61.483-.852.21-.24.467-.43.77-.566a2.477 2.477 0 0 1 1.03-.205c.387 0 .734.068 1.04.205.306.137.564.325.774.566.21.241.37.525.48.852.111.328.167.683.167 1.067v.103c0 .384-.056.74-.166 1.07a2.47 2.47 0 0 1-.481.851c-.21.24-.467.427-.772.562a2.52 2.52 0 0 1-1.032.202c-.388 0-.734-.067-1.038-.202a2.197 2.197 0 0 1-.772-.562 2.5 2.5 0 0 1-.483-.852 3.288 3.288 0 0 1-.168-1.07v-.102zm1.186.103c0 .237.025.462.073.674.05.211.126.396.23.554.104.158.237.282.398.373.16.092.352.137.574.137.218 0 .407-.045.568-.137.161-.09.293-.215.396-.373a1.79 1.79 0 0 0 .23-.554 2.93 2.93 0 0 0 .075-.674v-.103c0-.234-.025-.456-.076-.666a1.724 1.724 0 0 0-.232-.552 1.195 1.195 0 0 0-.398-.378 1.115 1.115 0 0 0-.573-.142c-.222 0-.411.047-.57.142-.157.094-.288.22-.392.378-.104.158-.18.342-.23.552-.048.21-.073.432-.073.666v.103zm4.507-.093c0-.4.048-.767.144-1.099.096-.332.234-.616.415-.854.18-.238.4-.422.657-.552.257-.13.547-.195.869-.195.293 0 .55.05.774.151.223.101.417.246.583.435v-2.705h1.187v7.5h-1.074l-.059-.547c-.17.205-.37.364-.603.476a1.863 1.863 0 0 1-.818.168c-.319 0-.606-.067-.862-.202a1.95 1.95 0 0 1-.652-.56 2.656 2.656 0 0 1-.415-.847 3.716 3.716 0 0 1-.146-1.066v-.103zm1.186.103c0 .234.022.454.066.661.044.207.114.388.21.545.096.156.22.279.369.368.15.09.332.135.547.135.267 0 .486-.06.657-.179.17-.118.306-.276.407-.47v-2.257a1.2 1.2 0 0 0-.41-.464 1.145 1.145 0 0 0-.644-.17 1.05 1.05 0 0 0-.55.136 1.094 1.094 0 0 0-.37.371 1.75 1.75 0 0 0-.213.55 3.16 3.16 0 0 0-.069.671v.103zm8.59 2.578h-1.231v-7.11h1.23v7.11zm2.753-2.642v2.642h-1.235v-7.11h2.72c.413 0 .78.056 1.1.169.321.112.592.27.814.471.221.202.39.441.505.718.116.276.173.578.173.903 0 .345-.057.654-.173.928a1.838 1.838 0 0 1-.505.693 2.299 2.299 0 0 1-.813.435 3.7 3.7 0 0 1-1.101.151h-1.485zm0-.991h1.485c.237 0 .441-.03.612-.088a1.13 1.13 0 0 0 .423-.249.956.956 0 0 0 .241-.383c.05-.148.076-.31.076-.486 0-.166-.025-.326-.076-.479a1.095 1.095 0 0 0-.241-.407 1.176 1.176 0 0 0-.423-.284 1.614 1.614 0 0 0-.612-.105h-1.485v2.48zm-31.577 16.351h-1.182v-5.708l-1.743.596v-1l2.774-1.021h.151v7.133zm7.105-2.993c0 .563-.056 1.041-.166 1.433-.111.393-.267.712-.47.957a1.756 1.756 0 0 1-.73.535c-.284.11-.602.166-.954.166-.348 0-.665-.055-.952-.166a1.789 1.789 0 0 1-.737-.535c-.205-.245-.364-.564-.476-.957-.113-.392-.169-.87-.169-1.433v-1.147c0-.563.056-1.04.166-1.43.111-.391.268-.708.471-.95.204-.243.449-.418.735-.525.287-.108.604-.162.953-.162.351 0 .67.054.957.162.286.107.531.282.734.524.204.243.36.56.472.95.11.39.166.868.166 1.43v1.148zm-1.187-1.328a4.57 4.57 0 0 0-.076-.91 1.747 1.747 0 0 0-.222-.596.87.87 0 0 0-.359-.327 1.127 1.127 0 0 0-.485-.1 1.12 1.12 0 0 0-.486.1.87.87 0 0 0-.36.327 1.77 1.77 0 0 0-.221.596c-.05.245-.076.549-.076.91v1.5c0 .357.026.662.078.912.052.25.127.454.225.61a.9.9 0 0 0 .361.342c.143.072.306.108.488.108.186 0 .349-.036.489-.108a.899.899 0 0 0 .354-.341 1.84 1.84 0 0 0 .217-.61 4.86 4.86 0 0 0 .073-.914v-1.499zm2.363 3.73c0-.188.06-.345.181-.47.12-.126.29-.189.508-.189.221 0 .392.063.513.188.12.126.18.283.18.472a.63.63 0 0 1-.18.461c-.12.122-.292.183-.513.183a.818.818 0 0 1-.29-.049.598.598 0 0 1-.352-.342.684.684 0 0 1-.047-.253zm7.3-2.402c0 .563-.055 1.041-.166 1.433-.11.393-.267.712-.469.957a1.756 1.756 0 0 1-.73.535c-.284.11-.603.166-.954.166-.348 0-.666-.055-.952-.166a1.789 1.789 0 0 1-.738-.535c-.205-.245-.363-.564-.476-.957-.112-.392-.168-.87-.168-1.433v-1.147c0-.563.055-1.04.166-1.43.11-.391.268-.708.471-.95.204-.243.448-.418.735-.525.286-.108.604-.162.952-.162.352 0 .67.054.957.162.287.107.532.282.735.524.203.243.36.56.471.95.11.39.166.868.166 1.43v1.148zm-1.186-1.328c0-.361-.026-.665-.076-.91a1.747 1.747 0 0 0-.222-.596.87.87 0 0 0-.36-.327 1.127 1.127 0 0 0-.485-.1c-.182 0-.344.033-.486.1a.87.87 0 0 0-.359.327 1.77 1.77 0 0 0-.222.596c-.05.245-.076.549-.076.91v1.5c0 .357.027.662.079.912.052.25.127.454.224.61.098.157.218.27.362.342.143.072.306.108.488.108.185 0 .348-.036.488-.108a.899.899 0 0 0 .354-.341 1.84 1.84 0 0 0 .217-.61 4.86 4.86 0 0 0 .074-.914v-1.499zm2.363 3.73c0-.188.06-.345.18-.47.121-.126.29-.189.508-.189.222 0 .393.063.513.188.12.126.18.283.18.472a.63.63 0 0 1-.18.461c-.12.122-.291.183-.513.183a.818.818 0 0 1-.29-.049.598.598 0 0 1-.352-.342.684.684 0 0 1-.046-.253zm7.3-2.402c0 .563-.056 1.041-.166 1.433-.111.393-.267.712-.469.957a1.756 1.756 0 0 1-.73.535c-.285.11-.603.166-.955.166-.348 0-.665-.055-.952-.166a1.789 1.789 0 0 1-.737-.535c-.205-.245-.364-.564-.476-.957-.112-.392-.169-.87-.169-1.433v-1.147c0-.563.056-1.04.166-1.43.111-.391.268-.708.472-.95.203-.243.448-.418.734-.525.287-.108.604-.162.953-.162.351 0 .67.054.957.162.286.107.531.282.735.524.203.243.36.56.47.95.111.39.167.868.167 1.43v1.148zm-1.187-1.328c0-.361-.025-.665-.075-.91a1.747 1.747 0 0 0-.223-.596.87.87 0 0 0-.359-.327 1.127 1.127 0 0 0-.485-.1 1.12 1.12 0 0 0-.486.1.87.87 0 0 0-.36.327 1.77 1.77 0 0 0-.221.596c-.05.245-.076.549-.076.91v1.5c0 .357.026.662.078.912.052.25.127.454.225.61a.9.9 0 0 0 .361.342c.143.072.306.108.488.108.186 0 .349-.036.489-.108a.899.899 0 0 0 .354-.341 1.84 1.84 0 0 0 .217-.61 4.86 4.86 0 0 0 .073-.914v-1.499zm2.363 3.73c0-.188.06-.345.181-.47.12-.126.29-.189.508-.189.221 0 .392.063.513.188.12.126.18.283.18.472a.63.63 0 0 1-.18.461c-.12.122-.292.183-.513.183a.818.818 0 0 1-.29-.049.598.598 0 0 1-.352-.342.684.684 0 0 1-.047-.253zm5.88.591h-1.182v-5.708l-1.743.596v-1l2.773-1.021h.151v7.133zm7.104-2.993c0 .563-.055 1.041-.166 1.433-.11.393-.267.712-.469.957a1.756 1.756 0 0 1-.73.535 2.63 2.63 0 0 1-.954.166 2.62 2.62 0 0 1-.953-.166 1.789 1.789 0 0 1-.737-.535c-.205-.245-.364-.564-.476-.957-.112-.392-.168-.87-.168-1.433v-1.147c0-.563.055-1.04.166-1.43.11-.391.267-.708.47-.95a1.75 1.75 0 0 1 .736-.525c.286-.108.603-.162.952-.162.351 0 .67.054.957.162.286.107.531.282.735.524.203.243.36.56.47.95.112.39.167.868.167 1.43v1.148zm-1.187-1.328c0-.361-.025-.665-.075-.91a1.747 1.747 0 0 0-.222-.596.87.87 0 0 0-.36-.327 1.127 1.127 0 0 0-.485-.1c-.183 0-.344.033-.486.1a.87.87 0 0 0-.359.327c-.098.151-.172.35-.222.596-.05.245-.076.549-.076.91v1.5c0 .357.026.662.078.912.052.25.127.454.225.61.098.157.218.27.361.342.144.072.306.108.489.108.185 0 .348-.036.488-.108a.899.899 0 0 0 .354-.341 1.84 1.84 0 0 0 .217-.61 4.86 4.86 0 0 0 .073-.914v-1.499zm5.45 4.321h-1.182v-5.708l-1.743.596v-1l2.773-1.021h.152v7.133z" fill="#000"/><path d="M280 326.773c-1.105 0-2-.447-2-1v-88c0-.552.895-1 2-1h164c1.105 0 2 .448 2 1v88c0 .553-.895 1-2 1H280z" stroke="#FAFAFA" stroke-width="2" fill="#E1F6FE"/><path d="M292 299.09c-1.105 0-2-.404-2-.902v-50.513c0-.498.895-.902 2-.902h140c1.105 0 2 .404 2 .902v50.513c0 .498-.895.902-2 .902H292z" stroke="#E0E0E0" fill="#FFF"/><path d="M349.344 266.413v2.642h-1.236v-7.11h2.72c.413 0 .78.056 1.101.169.32.112.592.27.813.471.222.202.39.441.506.718.115.276.173.578.173.903 0 .345-.058.654-.173.928a1.838 1.838 0 0 1-.506.693 2.299 2.299 0 0 1-.813.435c-.32.1-.688.151-1.1.151h-1.485zm0-.991h1.484c.238 0 .442-.03.613-.088.17-.059.312-.142.422-.249a.956.956 0 0 0 .242-.383c.05-.148.076-.31.076-.486 0-.166-.026-.326-.076-.479a1.095 1.095 0 0 0-.242-.407 1.176 1.176 0 0 0-.422-.284 1.614 1.614 0 0 0-.613-.105h-1.484v2.48zm4.756.942c0-.384.056-.74.168-1.067.112-.327.273-.61.483-.852.21-.24.467-.43.77-.566a2.477 2.477 0 0 1 1.03-.205c.387 0 .734.068 1.04.205.306.137.564.325.774.566.21.241.37.525.48.852.111.328.167.683.167 1.067v.103c0 .384-.056.74-.166 1.07a2.47 2.47 0 0 1-.481.851c-.21.24-.467.427-.772.562a2.52 2.52 0 0 1-1.032.202c-.388 0-.734-.067-1.038-.202a2.197 2.197 0 0 1-.772-.562 2.5 2.5 0 0 1-.483-.852 3.288 3.288 0 0 1-.168-1.07v-.102zm1.186.103c0 .237.025.462.073.674.05.211.126.396.23.554.104.158.237.282.398.373.16.092.352.137.574.137.218 0 .407-.045.568-.137.161-.09.293-.215.396-.373a1.79 1.79 0 0 0 .23-.554 2.93 2.93 0 0 0 .075-.674v-.103c0-.234-.025-.456-.076-.666a1.724 1.724 0 0 0-.232-.552 1.195 1.195 0 0 0-.398-.378 1.115 1.115 0 0 0-.573-.142c-.222 0-.411.047-.57.142-.157.094-.288.22-.392.378-.104.158-.18.342-.23.552-.048.21-.073.432-.073.666v.103zm4.507-.093c0-.4.048-.767.144-1.099.096-.332.234-.616.415-.854.18-.238.4-.422.657-.552.257-.13.547-.195.869-.195.293 0 .55.05.774.151.223.101.417.246.583.435v-2.705h1.187v7.5h-1.074l-.059-.547c-.17.205-.37.364-.603.476a1.863 1.863 0 0 1-.818.168c-.319 0-.606-.067-.862-.202a1.95 1.95 0 0 1-.652-.56 2.656 2.656 0 0 1-.415-.847 3.716 3.716 0 0 1-.146-1.066v-.103zm1.186.103c0 .234.022.454.066.661.044.207.114.388.21.545.096.156.22.279.369.368.15.09.332.135.547.135.267 0 .486-.06.657-.179.17-.118.306-.276.407-.47v-2.257a1.2 1.2 0 0 0-.41-.464 1.145 1.145 0 0 0-.644-.17 1.05 1.05 0 0 0-.55.136 1.094 1.094 0 0 0-.37.371 1.75 1.75 0 0 0-.213.55 3.16 3.16 0 0 0-.069.671v.103zm8.59 2.578h-1.231v-7.11h1.23v7.11zm2.753-2.642v2.642h-1.235v-7.11h2.72c.413 0 .78.056 1.1.169.321.112.592.27.814.471.221.202.39.441.505.718.116.276.173.578.173.903 0 .345-.057.654-.173.928a1.838 1.838 0 0 1-.505.693 2.299 2.299 0 0 1-.813.435 3.7 3.7 0 0 1-1.101.151h-1.485zm0-.991h1.485c.237 0 .441-.03.612-.088a1.13 1.13 0 0 0 .423-.249.956.956 0 0 0 .241-.383c.05-.148.076-.31.076-.486 0-.166-.025-.326-.076-.479a1.095 1.095 0 0 0-.241-.407 1.176 1.176 0 0 0-.423-.284 1.614 1.614 0 0 0-.612-.105h-1.485v2.48zm-31.577 16.351h-1.182v-5.708l-1.743.596v-1l2.774-1.021h.151v7.133zm7.105-2.993c0 .563-.056 1.041-.166 1.433-.111.393-.267.712-.47.957a1.756 1.756 0 0 1-.73.535c-.284.11-.602.166-.954.166-.348 0-.665-.055-.952-.166a1.789 1.789 0 0 1-.737-.535c-.205-.245-.364-.564-.476-.957-.113-.392-.169-.87-.169-1.433v-1.147c0-.563.056-1.04.166-1.43.111-.391.268-.708.471-.95.204-.243.449-.418.735-.525.287-.108.604-.162.953-.162.351 0 .67.054.957.162.286.107.531.282.734.524.204.243.36.56.472.95.11.39.166.868.166 1.43v1.148zm-1.187-1.328a4.57 4.57 0 0 0-.076-.91 1.747 1.747 0 0 0-.222-.596.87.87 0 0 0-.359-.327 1.127 1.127 0 0 0-.485-.1 1.12 1.12 0 0 0-.486.1.87.87 0 0 0-.36.327 1.77 1.77 0 0 0-.221.596c-.05.245-.076.549-.076.91v1.5c0 .357.026.662.078.912.052.25.127.454.225.61a.9.9 0 0 0 .361.342c.143.072.306.108.488.108.186 0 .349-.036.489-.108a.899.899 0 0 0 .354-.341 1.84 1.84 0 0 0 .217-.61 4.86 4.86 0 0 0 .073-.914v-1.499zm2.363 3.73c0-.188.06-.345.181-.47.12-.126.29-.189.508-.189.221 0 .392.063.513.188.12.126.18.283.18.472a.63.63 0 0 1-.18.461c-.12.122-.292.183-.513.183a.818.818 0 0 1-.29-.049.598.598 0 0 1-.352-.342.684.684 0 0 1-.047-.253zm7.3-2.402c0 .563-.055 1.041-.166 1.433-.11.393-.267.712-.469.957a1.756 1.756 0 0 1-.73.535c-.284.11-.603.166-.954.166-.348 0-.666-.055-.952-.166a1.789 1.789 0 0 1-.738-.535c-.205-.245-.363-.564-.476-.957-.112-.392-.168-.87-.168-1.433v-1.147c0-.563.055-1.04.166-1.43.11-.391.268-.708.471-.95.204-.243.448-.418.735-.525.286-.108.604-.162.952-.162.352 0 .67.054.957.162.287.107.532.282.735.524.203.243.36.56.471.95.11.39.166.868.166 1.43v1.148zm-1.186-1.328c0-.361-.026-.665-.076-.91a1.747 1.747 0 0 0-.222-.596.87.87 0 0 0-.36-.327 1.127 1.127 0 0 0-.485-.1c-.182 0-.344.033-.486.1a.87.87 0 0 0-.359.327 1.77 1.77 0 0 0-.222.596c-.05.245-.076.549-.076.91v1.5c0 .357.027.662.079.912.052.25.127.454.224.61.098.157.218.27.362.342.143.072.306.108.488.108.185 0 .348-.036.488-.108a.899.899 0 0 0 .354-.341 1.84 1.84 0 0 0 .217-.61 4.86 4.86 0 0 0 .074-.914v-1.499zm2.363 3.73c0-.188.06-.345.18-.47.121-.126.29-.189.508-.189.222 0 .393.063.513.188.12.126.18.283.18.472a.63.63 0 0 1-.18.461c-.12.122-.291.183-.513.183a.818.818 0 0 1-.29-.049.598.598 0 0 1-.352-.342.684.684 0 0 1-.046-.253zm7.3-2.402c0 .563-.056 1.041-.166 1.433-.111.393-.267.712-.469.957a1.756 1.756 0 0 1-.73.535c-.285.11-.603.166-.955.166-.348 0-.665-.055-.952-.166a1.789 1.789 0 0 1-.737-.535c-.205-.245-.364-.564-.476-.957-.112-.392-.169-.87-.169-1.433v-1.147c0-.563.056-1.04.166-1.43.111-.391.268-.708.472-.95.203-.243.448-.418.734-.525.287-.108.604-.162.953-.162.351 0 .67.054.957.162.286.107.531.282.735.524.203.243.36.56.47.95.111.39.167.868.167 1.43v1.148zm-1.187-1.328c0-.361-.025-.665-.075-.91a1.747 1.747 0 0 0-.223-.596.87.87 0 0 0-.359-.327 1.127 1.127 0 0 0-.485-.1 1.12 1.12 0 0 0-.486.1.87.87 0 0 0-.36.327 1.77 1.77 0 0 0-.221.596c-.05.245-.076.549-.076.91v1.5c0 .357.026.662.078.912.052.25.127.454.225.61a.9.9 0 0 0 .361.342c.143.072.306.108.488.108.186 0 .349-.036.489-.108a.899.899 0 0 0 .354-.341 1.84 1.84 0 0 0 .217-.61 4.86 4.86 0 0 0 .073-.914v-1.499zm2.363 3.73c0-.188.06-.345.181-.47.12-.126.29-.189.508-.189.221 0 .392.063.513.188.12.126.18.283.18.472a.63.63 0 0 1-.18.461c-.12.122-.292.183-.513.183a.818.818 0 0 1-.29-.049.598.598 0 0 1-.352-.342.684.684 0 0 1-.047-.253zm5.88.591h-1.182v-5.708l-1.743.596v-1l2.773-1.021h.151v7.133zm7.104-2.993c0 .563-.055 1.041-.166 1.433-.11.393-.267.712-.469.957a1.756 1.756 0 0 1-.73.535 2.63 2.63 0 0 1-.954.166 2.62 2.62 0 0 1-.953-.166 1.789 1.789 0 0 1-.737-.535c-.205-.245-.364-.564-.476-.957-.112-.392-.168-.87-.168-1.433v-1.147c0-.563.055-1.04.166-1.43.11-.391.267-.708.47-.95a1.75 1.75 0 0 1 .736-.525c.286-.108.603-.162.952-.162.351 0 .67.054.957.162.286.107.531.282.735.524.203.243.36.56.47.95.112.39.167.868.167 1.43v1.148zm-1.187-1.328c0-.361-.025-.665-.075-.91a1.747 1.747 0 0 0-.222-.596.87.87 0 0 0-.36-.327 1.127 1.127 0 0 0-.485-.1c-.183 0-.344.033-.486.1a.87.87 0 0 0-.359.327c-.098.151-.172.35-.222.596-.05.245-.076.549-.076.91v1.5c0 .357.026.662.078.912.052.25.127.454.225.61.098.157.218.27.361.342.144.072.306.108.489.108.185 0 .348-.036.488-.108a.899.899 0 0 0 .354-.341 1.84 1.84 0 0 0 .217-.61 4.86 4.86 0 0 0 .073-.914v-1.499zm6.87 1.328c0 .563-.055 1.041-.166 1.433-.11.393-.266.712-.468.957a1.756 1.756 0 0 1-.73.535c-.285.11-.603.166-.955.166-.348 0-.666-.055-.952-.166a1.789 1.789 0 0 1-.737-.535c-.205-.245-.364-.564-.476-.957-.113-.392-.169-.87-.169-1.433v-1.147c0-.563.056-1.04.166-1.43.11-.391.268-.708.471-.95.204-.243.449-.418.735-.525.287-.108.604-.162.952-.162.352 0 .671.054.957.162.287.107.532.282.735.524.204.243.36.56.471.95.111.39.166.868.166 1.43v1.148zm-1.186-1.328a4.57 4.57 0 0 0-.076-.91 1.747 1.747 0 0 0-.222-.596.87.87 0 0 0-.359-.327 1.127 1.127 0 0 0-.486-.1c-.182 0-.344.033-.485.1a.87.87 0 0 0-.36.327 1.77 1.77 0 0 0-.222.596c-.05.245-.075.549-.075.91v1.5c0 .357.026.662.078.912.052.25.127.454.225.61.097.157.218.27.36.342.144.072.307.108.49.108.185 0 .347-.036.487-.108a.899.899 0 0 0 .354-.341 1.84 1.84 0 0 0 .218-.61 4.86 4.86 0 0 0 .073-.914v-1.499z" fill="#000"/><path d="M392 180.773c-1.105 0-2-.532-2-1.188V74.962c0-.657.895-1.189 2-1.189h164c1.105 0 2 .532 2 1.19v104.622c0 .656-.895 1.188-2 1.188H392z" stroke="#FAFAFA" stroke-width="2" fill="#E1F6FE"/><path d="M219.992 125.302L386 126" stroke="#616262"/><path fill="#616262" d="M222.812 121.884l.565.602-2.971 2.778 2.988 2.76-.561.606-3.638-3.363z"/><path d="M404 164.773c-1.105 0-2-.462-2-1.034v-57.931c0-.572.895-1.035 2-1.035h140c1.105 0 2 .463 2 1.035v57.931c0 .572-.895 1.034-2 1.034H404z" stroke="#E0E0E0" fill="#FFF"/><path d="M461.344 137.413v2.642h-1.236v-7.11h2.72c.413 0 .78.056 1.101.169.32.112.592.27.813.471.222.202.39.441.506.718.115.276.173.578.173.903 0 .345-.058.654-.173.928a1.838 1.838 0 0 1-.506.693 2.299 2.299 0 0 1-.813.435c-.32.1-.688.151-1.1.151h-1.485zm0-.991h1.484c.238 0 .442-.03.613-.088.17-.059.312-.142.422-.249a.956.956 0 0 0 .242-.383c.05-.148.076-.31.076-.486 0-.166-.026-.326-.076-.479a1.095 1.095 0 0 0-.242-.407 1.176 1.176 0 0 0-.422-.284 1.614 1.614 0 0 0-.613-.105h-1.484v2.48zm4.756.942c0-.384.056-.74.168-1.067.112-.327.273-.61.483-.852.21-.24.467-.43.77-.566a2.477 2.477 0 0 1 1.03-.205c.387 0 .734.068 1.04.205.306.137.564.325.774.566.21.241.37.525.48.852.111.328.167.683.167 1.067v.103c0 .384-.056.74-.166 1.07a2.47 2.47 0 0 1-.481.851c-.21.24-.467.427-.772.562a2.52 2.52 0 0 1-1.032.202c-.388 0-.734-.067-1.038-.202a2.197 2.197 0 0 1-.772-.562 2.5 2.5 0 0 1-.483-.852 3.288 3.288 0 0 1-.168-1.07v-.102zm1.186.103c0 .237.025.462.073.674.05.211.126.396.23.554.104.158.237.282.398.373.16.092.352.137.574.137.218 0 .407-.045.568-.137.161-.09.293-.215.396-.373a1.79 1.79 0 0 0 .23-.554 2.93 2.93 0 0 0 .075-.674v-.103c0-.234-.025-.456-.076-.666a1.724 1.724 0 0 0-.232-.552 1.195 1.195 0 0 0-.398-.378 1.115 1.115 0 0 0-.573-.142c-.222 0-.411.047-.57.142-.157.094-.288.22-.392.378-.104.158-.18.342-.23.552-.048.21-.073.432-.073.666v.103zm4.507-.093c0-.4.048-.767.144-1.099.096-.332.234-.616.415-.854.18-.238.4-.422.657-.552.257-.13.547-.195.869-.195.293 0 .55.05.774.151.223.101.417.246.583.435v-2.705h1.187v7.5h-1.074l-.059-.547c-.17.205-.37.364-.603.476a1.863 1.863 0 0 1-.818.168c-.319 0-.606-.067-.862-.202a1.95 1.95 0 0 1-.652-.56 2.656 2.656 0 0 1-.415-.847 3.716 3.716 0 0 1-.146-1.066v-.103zm1.186.103c0 .234.022.454.066.661.044.207.114.388.21.545.096.156.22.279.369.368.15.09.332.135.547.135.267 0 .486-.06.657-.179.17-.118.306-.276.407-.47v-2.257a1.2 1.2 0 0 0-.41-.464 1.145 1.145 0 0 0-.644-.17 1.05 1.05 0 0 0-.55.136 1.094 1.094 0 0 0-.37.371 1.75 1.75 0 0 0-.213.55 3.16 3.16 0 0 0-.069.671v.103zm8.59 2.578h-1.231v-7.11h1.23v7.11zm2.753-2.642v2.642h-1.235v-7.11h2.72c.413 0 .78.056 1.1.169.321.112.592.27.814.471.221.202.39.441.505.718.116.276.173.578.173.903 0 .345-.057.654-.173.928a1.838 1.838 0 0 1-.505.693 2.299 2.299 0 0 1-.813.435 3.7 3.7 0 0 1-1.101.151h-1.485zm0-.991h1.485c.237 0 .441-.03.612-.088a1.13 1.13 0 0 0 .423-.249.956.956 0 0 0 .241-.383c.05-.148.076-.31.076-.486 0-.166-.025-.326-.076-.479a1.095 1.095 0 0 0-.241-.407 1.176 1.176 0 0 0-.423-.284 1.614 1.614 0 0 0-.612-.105h-1.485v2.48zm-32.577 16.351h-1.182v-5.708l-1.743.596v-1l2.774-1.021h.151v7.133zm7.105-2.993c0 .563-.056 1.041-.166 1.433-.111.393-.267.712-.47.957a1.756 1.756 0 0 1-.73.535c-.284.11-.602.166-.954.166-.348 0-.665-.055-.952-.166a1.789 1.789 0 0 1-.737-.535c-.205-.245-.364-.564-.476-.957-.113-.392-.169-.87-.169-1.433v-1.147c0-.563.056-1.04.166-1.43.111-.391.268-.708.471-.95.204-.243.449-.418.735-.525.287-.108.604-.162.953-.162.351 0 .67.054.957.162.286.107.531.282.734.524.204.243.36.56.472.95.11.39.166.868.166 1.43v1.148zm-1.187-1.328a4.57 4.57 0 0 0-.076-.91 1.747 1.747 0 0 0-.222-.596.87.87 0 0 0-.359-.327 1.127 1.127 0 0 0-.485-.1 1.12 1.12 0 0 0-.486.1.87.87 0 0 0-.36.327 1.77 1.77 0 0 0-.221.596c-.05.245-.076.549-.076.91v1.5c0 .357.026.662.078.912.052.25.127.454.225.61a.9.9 0 0 0 .361.342c.143.072.306.108.488.108.186 0 .349-.036.489-.108a.899.899 0 0 0 .354-.341 1.84 1.84 0 0 0 .217-.61 4.86 4.86 0 0 0 .073-.914v-1.499zm2.363 3.73c0-.188.06-.345.181-.47.12-.126.29-.189.508-.189.221 0 .392.063.513.188.12.126.18.283.18.472a.63.63 0 0 1-.18.461c-.12.122-.292.183-.513.183a.818.818 0 0 1-.29-.049.598.598 0 0 1-.352-.342.684.684 0 0 1-.047-.253zm7.3-2.402c0 .563-.055 1.041-.166 1.433-.11.393-.267.712-.469.957a1.756 1.756 0 0 1-.73.535c-.284.11-.603.166-.954.166-.348 0-.666-.055-.952-.166a1.789 1.789 0 0 1-.738-.535c-.205-.245-.363-.564-.476-.957-.112-.392-.168-.87-.168-1.433v-1.147c0-.563.055-1.04.166-1.43.11-.391.268-.708.471-.95.204-.243.448-.418.735-.525.286-.108.604-.162.952-.162.352 0 .67.054.957.162.287.107.532.282.735.524.203.243.36.56.471.95.11.39.166.868.166 1.43v1.148zm-1.186-1.328c0-.361-.026-.665-.076-.91a1.747 1.747 0 0 0-.222-.596.87.87 0 0 0-.36-.327 1.127 1.127 0 0 0-.485-.1c-.182 0-.344.033-.486.1a.87.87 0 0 0-.359.327 1.77 1.77 0 0 0-.222.596c-.05.245-.076.549-.076.91v1.5c0 .357.027.662.079.912.052.25.127.454.224.61.098.157.218.27.362.342.143.072.306.108.488.108.185 0 .348-.036.488-.108a.899.899 0 0 0 .354-.341 1.84 1.84 0 0 0 .217-.61 4.86 4.86 0 0 0 .074-.914v-1.499zm2.363 3.73c0-.188.06-.345.18-.47.121-.126.29-.189.508-.189.222 0 .393.063.513.188.12.126.18.283.18.472a.63.63 0 0 1-.18.461c-.12.122-.291.183-.513.183a.818.818 0 0 1-.29-.049.598.598 0 0 1-.352-.342.684.684 0 0 1-.046-.253zm7.3-2.402c0 .563-.056 1.041-.166 1.433-.111.393-.267.712-.469.957a1.756 1.756 0 0 1-.73.535c-.285.11-.603.166-.955.166-.348 0-.665-.055-.952-.166a1.789 1.789 0 0 1-.737-.535c-.205-.245-.364-.564-.476-.957-.112-.392-.169-.87-.169-1.433v-1.147c0-.563.056-1.04.166-1.43.111-.391.268-.708.472-.95.203-.243.448-.418.734-.525.287-.108.604-.162.953-.162.351 0 .67.054.957.162.286.107.531.282.735.524.203.243.36.56.47.95.111.39.167.868.167 1.43v1.148zm-1.187-1.328c0-.361-.025-.665-.075-.91a1.747 1.747 0 0 0-.223-.596.87.87 0 0 0-.359-.327 1.127 1.127 0 0 0-.485-.1 1.12 1.12 0 0 0-.486.1.87.87 0 0 0-.36.327 1.77 1.77 0 0 0-.221.596c-.05.245-.076.549-.076.91v1.5c0 .357.026.662.078.912.052.25.127.454.225.61a.9.9 0 0 0 .361.342c.143.072.306.108.488.108.186 0 .349-.036.489-.108a.899.899 0 0 0 .354-.341 1.84 1.84 0 0 0 .217-.61 4.86 4.86 0 0 0 .073-.914v-1.499zm2.363 3.73c0-.188.06-.345.181-.47.12-.126.29-.189.508-.189.221 0 .392.063.513.188.12.126.18.283.18.472a.63.63 0 0 1-.18.461c-.12.122-.292.183-.513.183a.818.818 0 0 1-.29-.049.598.598 0 0 1-.352-.342.684.684 0 0 1-.047-.253zm7.447.591h-4.78v-.815l2.314-2.524c.195-.215.357-.406.486-.574a3.76 3.76 0 0 0 .307-.46 1.448 1.448 0 0 0 .137-1.201 1.04 1.04 0 0 0-.205-.358.942.942 0 0 0-.33-.237 1.111 1.111 0 0 0-.449-.085c-.205 0-.383.032-.534.097a1.016 1.016 0 0 0-.376.271 1.16 1.16 0 0 0-.225.415c-.05.161-.076.338-.076.53h-1.186c0-.312.053-.606.158-.881a2.05 2.05 0 0 1 .467-.72c.205-.206.457-.368.757-.486.3-.12.64-.179 1.025-.179.355 0 .67.047.947.14.277.092.51.223.701.393.19.169.335.375.435.617.099.243.148.512.148.808 0 .222-.035.44-.107.657a3.28 3.28 0 0 1-.298.647c-.127.215-.278.43-.454.647a10.82 10.82 0 0 1-.576.652l-1.587 1.7h3.3v.946zm5.537-2.993c0 .563-.055 1.041-.166 1.433-.11.393-.267.712-.469.957a1.756 1.756 0 0 1-.73.535 2.63 2.63 0 0 1-.954.166 2.62 2.62 0 0 1-.953-.166 1.789 1.789 0 0 1-.737-.535c-.205-.245-.364-.564-.476-.957-.112-.392-.168-.87-.168-1.433v-1.147c0-.563.055-1.04.166-1.43.11-.391.267-.708.47-.95a1.75 1.75 0 0 1 .736-.525c.286-.108.603-.162.952-.162.351 0 .67.054.957.162.286.107.531.282.735.524.203.243.36.56.47.95.112.39.167.868.167 1.43v1.148zm-1.187-1.328c0-.361-.025-.665-.075-.91a1.747 1.747 0 0 0-.222-.596.87.87 0 0 0-.36-.327 1.127 1.127 0 0 0-.485-.1c-.183 0-.344.033-.486.1a.87.87 0 0 0-.359.327c-.098.151-.172.35-.222.596-.05.245-.076.549-.076.91v1.5c0 .357.026.662.078.912.052.25.127.454.225.61.098.157.218.27.361.342.144.072.306.108.489.108.185 0 .348-.036.488-.108a.899.899 0 0 0 .354-.341 1.84 1.84 0 0 0 .217-.61 4.86 4.86 0 0 0 .073-.914v-1.499zm5.45 4.321h-1.182v-5.708l-1.743.596v-1l2.773-1.021h.152v7.133z" fill="#000"/><path d="M462.29 94.773h-.943l-3.58-5.478v5.478h-.942v-7.109h.943l3.588 5.503v-5.503h.933v7.11zm1.283-2.69c0-.384.056-.74.169-1.067.112-.327.272-.611.478-.852.207-.24.458-.43.755-.566a2.35 2.35 0 0 1 .996-.205c.374 0 .71.068 1.008.205.298.136.55.325.76.566.208.241.367.525.478.852.11.327.166.683.166 1.067v.107c0 .385-.056.74-.166 1.067-.11.327-.27.61-.479.85a2.18 2.18 0 0 1-.757.561 2.37 2.37 0 0 1-1 .203c-.372 0-.705-.067-1.002-.203a2.202 2.202 0 0 1-.756-.561 2.527 2.527 0 0 1-.481-.85 3.266 3.266 0 0 1-.169-1.067v-.107zm.908.107c0 .264.031.513.093.748a1.9 1.9 0 0 0 .281.617c.125.178.282.318.469.423.187.104.406.156.656.156.248 0 .466-.052.655-.156.189-.105.345-.245.469-.423a1.97 1.97 0 0 0 .28-.617c.064-.235.095-.484.095-.748v-.107c0-.26-.031-.509-.095-.745a1.935 1.935 0 0 0-.283-.62 1.326 1.326 0 0 0-1.13-.583c-.248 0-.464.053-.65.158a1.436 1.436 0 0 0-.466.425 1.897 1.897 0 0 0-.28.62 2.926 2.926 0 0 0-.094.745v.107zm4.815-.102c0-.404.05-.77.149-1.101.1-.33.24-.614.422-.85a1.93 1.93 0 0 1 .657-.55 1.86 1.86 0 0 1 .857-.194c.322 0 .604.054.845.163.24.11.449.266.625.471v-2.754h.903v7.5h-.83l-.044-.566a1.75 1.75 0 0 1-.635.493 2.071 2.071 0 0 1-.874.171c-.31 0-.592-.067-.847-.2a1.96 1.96 0 0 1-.657-.56 2.663 2.663 0 0 1-.422-.849 3.677 3.677 0 0 1-.15-1.072v-.102zm.903.102c0 .264.027.512.08.745.054.233.138.435.252.608.114.173.259.31.435.41.176.101.386.152.63.152.16 0 .302-.02.43-.057a1.257 1.257 0 0 0 .617-.402c.08-.095.149-.199.208-.313v-2.427a1.727 1.727 0 0 0-.205-.298 1.26 1.26 0 0 0-.616-.393 1.5 1.5 0 0 0-.425-.056c-.247 0-.46.051-.637.154a1.276 1.276 0 0 0-.437.417c-.114.176-.198.38-.251.613-.054.233-.08.481-.08.745v.102zm7.149 2.681c-.368 0-.701-.063-.999-.19a2.229 2.229 0 0 1-1.252-1.338 2.973 2.973 0 0 1-.171-1.026v-.205c0-.43.064-.813.193-1.152.128-.339.3-.623.515-.855.215-.23.46-.407.737-.53.277-.121.565-.182.864-.182.378 0 .703.066.977.197.273.132.499.314.676.545.178.23.309.504.393.82.085.316.127.66.127 1.03v.406h-3.579c.007.244.046.472.12.683.073.212.177.396.312.552.135.156.298.28.489.371.19.091.406.137.646.137.32 0 .59-.065.811-.196.221-.13.415-.302.581-.517l.552.43c-.085.13-.187.256-.308.378-.12.122-.261.231-.422.327a2.222 2.222 0 0 1-.554.23 2.688 2.688 0 0 1-.708.085zm-.113-4.736c-.182 0-.35.033-.503.1-.153.067-.29.163-.41.29-.12.127-.22.285-.3.474a2.4 2.4 0 0 0-.164.65h2.647v-.069a2.5 2.5 0 0 0-.086-.522 1.419 1.419 0 0 0-.22-.464 1.132 1.132 0 0 0-.383-.332 1.208 1.208 0 0 0-.58-.127zm8.57 4.638h-.909v-6.02l-1.82.669v-.82l2.587-.972h.142v7.143z" fill="#757575"/><path d="M452.65 121.285l1.963-4.043h1.64l-2.858 5.39v3.141h-1.489v-3.14l-2.865-5.39h1.647l1.962 4.042zm3.745 1.26c0-.461.067-.888.202-1.28.134-.393.328-.734.58-1.023.252-.289.56-.515.923-.68a2.973 2.973 0 0 1 1.236-.246c.465 0 .88.082 1.248.247.367.164.677.39.929.68a3 3 0 0 1 .577 1.022c.133.392.2.819.2 1.28v.123c0 .46-.067.889-.2 1.283a2.963 2.963 0 0 1-.577 1.023c-.252.287-.56.511-.926.673a3.024 3.024 0 0 1-1.24.244 3.04 3.04 0 0 1-1.244-.244 2.637 2.637 0 0 1-.926-.673 3 3 0 0 1-.58-1.023 3.945 3.945 0 0 1-.202-1.283v-.123zm1.423.123c0 .285.03.555.088.809.059.253.15.475.276.665.125.19.284.338.477.448.194.11.423.164.689.164.261 0 .489-.055.682-.164.194-.11.352-.259.475-.448a2.11 2.11 0 0 0 .275-.665c.06-.254.091-.524.091-.809v-.123c0-.281-.03-.548-.09-.8a2.07 2.07 0 0 0-.279-.662 1.434 1.434 0 0 0-.478-.454 1.338 1.338 0 0 0-.688-.17 1.31 1.31 0 0 0-.683.17c-.19.113-.346.265-.471.454-.125.19-.217.41-.276.662a3.522 3.522 0 0 0-.088.8v.123zm9.516 2.484c-.2.235-.445.416-.738.545-.293.13-.64.194-1.043.194a2.61 2.61 0 0 1-.853-.132 1.65 1.65 0 0 1-.659-.416 1.923 1.923 0 0 1-.428-.733 3.357 3.357 0 0 1-.152-1.075v-4.101h1.424v4.113c0 .23.027.42.082.571.054.15.128.272.22.363a.761.761 0 0 0 .319.194c.121.037.248.055.38.055.368 0 .665-.066.891-.199a1.27 1.27 0 0 0 .51-.545v-4.552h1.424v6.34h-1.342l-.035-.622zm6.146-4.418a3.42 3.42 0 0 0-.58-.046c-.343 0-.623.066-.837.199a1.222 1.222 0 0 0-.481.55v4.336h-1.424v-6.34h1.36l.035.71c.16-.258.358-.46.594-.607a1.56 1.56 0 0 1 .835-.22 1.765 1.765 0 0 1 .504.082l-.006 1.336zm8.801 3.053h-3.304l-.692 1.986h-1.54l3.222-8.53h1.33l3.228 8.53h-1.546l-.698-1.986zm-2.888-1.195h2.472l-1.236-3.54-1.236 3.54zm11.232.076c0 .46-.054.889-.161 1.283a3.106 3.106 0 0 1-.475 1.023 2.244 2.244 0 0 1-.773.673 2.216 2.216 0 0 1-1.052.244c-.363 0-.682-.059-.955-.176a2.052 2.052 0 0 1-.715-.51v3.006h-1.424v-8.777h1.313l.058.644a2.08 2.08 0 0 1 .724-.565 2.29 2.29 0 0 1 .981-.197c.403 0 .758.079 1.067.235.308.156.567.376.776.659.21.283.367.623.475 1.02.107.396.161.834.161 1.315v.123zm-1.418-.123a3.61 3.61 0 0 0-.085-.803 2.107 2.107 0 0 0-.26-.656 1.303 1.303 0 0 0-.452-.442 1.29 1.29 0 0 0-.662-.162c-.312 0-.57.065-.773.194a1.363 1.363 0 0 0-.48.527v2.813c.116.222.276.401.477.536.2.135.464.202.788.202.258 0 .477-.056.659-.167.182-.111.331-.262.448-.451.117-.19.203-.411.258-.665.055-.254.082-.522.082-.803v-.123zm8.174.123c0 .46-.054.889-.161 1.283a3.106 3.106 0 0 1-.475 1.023 2.244 2.244 0 0 1-.773.673 2.216 2.216 0 0 1-1.052.244c-.363 0-.682-.059-.955-.176a2.052 2.052 0 0 1-.715-.51v3.006h-1.424v-8.777h1.313l.058.644c.203-.246.445-.434.724-.565a2.29 2.29 0 0 1 .981-.197c.403 0 .758.079 1.067.235.308.156.567.376.776.659.21.283.367.623.475 1.02.107.396.16.834.16 1.315v.123zm-1.418-.123a3.61 3.61 0 0 0-.085-.803 2.107 2.107 0 0 0-.26-.656 1.303 1.303 0 0 0-.452-.442 1.29 1.29 0 0 0-.662-.162c-.313 0-.57.065-.774.194a1.363 1.363 0 0 0-.48.527v2.813c.117.222.276.401.478.536.2.135.463.202.788.202.257 0 .477-.056.659-.167a1.37 1.37 0 0 0 .448-.451c.117-.19.203-.411.258-.665.055-.254.082-.522.082-.803v-.123zm-372.879 22.51l-.633.65v2.068h-1.424v-9h1.424v5.192l.445-.557 1.752-1.974h1.711l-2.355 2.642 2.607 3.697h-1.646l-1.881-2.718zm8.045 2.097c-.2.235-.445.416-.738.545-.293.13-.641.194-1.043.194a2.61 2.61 0 0 1-.853-.132 1.65 1.65 0 0 1-.66-.416 1.923 1.923 0 0 1-.427-.733 3.357 3.357 0 0 1-.152-1.075v-4.101h1.424v4.113c0 .23.027.42.082.571.054.15.128.272.22.363a.761.761 0 0 0 .319.194c.12.037.248.055.38.055.368 0 .665-.066.891-.199a1.27 1.27 0 0 0 .51-.545v-4.552h1.424v6.34h-1.342l-.035-.622zm8.39-2.484c0 .469-.053.9-.16 1.295a3.107 3.107 0 0 1-.472 1.02 2.193 2.193 0 0 1-.774.667c-.308.16-.664.24-1.066.24a2.29 2.29 0 0 1-1.008-.207 2.032 2.032 0 0 1-.726-.595l-.07.685h-1.29v-9h1.424v3.27c.2-.234.435-.414.706-.54.271-.124.589-.187.952-.187.41 0 .77.08 1.078.238.309.158.568.38.777.665.209.285.366.626.471 1.022.106.397.159.831.159 1.304v.123zm-1.423-.123c0-.277-.023-.541-.068-.791a1.99 1.99 0 0 0-.231-.656 1.263 1.263 0 0 0-.437-.449 1.295 1.295 0 0 0-.682-.167c-.332 0-.604.074-.815.22-.21.147-.373.343-.486.589v2.613c.113.246.276.446.49.598.212.152.487.228.822.228.262 0 .483-.053.663-.16.18-.108.325-.255.436-.44.111-.186.19-.403.237-.653.047-.25.07-.52.07-.809v-.123zm5.408 3.346c-.469 0-.89-.078-1.266-.235a2.786 2.786 0 0 1-.955-.644 2.82 2.82 0 0 1-.603-.973 3.444 3.444 0 0 1-.211-1.213v-.234c0-.5.074-.952.222-1.357a3.09 3.09 0 0 1 .61-1.03c.258-.284.561-.503.91-.657.35-.154.726-.232 1.129-.232.46 0 .861.078 1.201.232.34.154.621.37.844.647.222.278.388.608.498.99.11.383.164.803.164 1.26v.61h-4.143c.02.246.072.472.156.68.084.206.198.385.342.536a1.576 1.576 0 0 0 1.184.483c.352 0 .657-.07.917-.211.26-.14.485-.334.677-.58l.767.732a2.602 2.602 0 0 1-.905.824 3.034 3.034 0 0 1-.683.27 3.352 3.352 0 0 1-.855.102zm-.17-5.432c-.39 0-.706.137-.946.41-.24.274-.394.654-.46 1.143h2.713v-.106a2.598 2.598 0 0 0-.091-.542 1.382 1.382 0 0 0-.226-.463 1.09 1.09 0 0 0-.395-.322c-.162-.08-.36-.12-.595-.12zm6.58 2.262h-3.076v-1.149h3.076v1.149zm.908-.164c0-.48.058-.92.173-1.319a3.09 3.09 0 0 1 .498-1.025c.217-.285.48-.506.788-.662a2.276 2.276 0 0 1 1.043-.235c.352 0 .661.061.929.182s.5.295.7.522v-3.247h1.424v9h-1.29l-.07-.656a2.13 2.13 0 0 1-.723.571c-.28.135-.606.203-.981.203-.383 0-.728-.081-1.035-.244a2.34 2.34 0 0 1-.782-.67 3.187 3.187 0 0 1-.498-1.017 4.459 4.459 0 0 1-.176-1.28v-.123zm1.424.123c0 .28.026.546.08.794.052.248.136.465.251.653.115.187.263.335.443.442.18.108.398.161.656.161.32 0 .583-.07.788-.213a1.53 1.53 0 0 0 .49-.566v-2.707a1.45 1.45 0 0 0-.493-.556c-.207-.137-.465-.206-.773-.206-.258 0-.478.055-.66.164-.181.11-.33.258-.445.446a2.1 2.1 0 0 0-.255.659 3.77 3.77 0 0 0-.082.806v.123zm6.938-3.246l.04.732c.223-.27.49-.478.803-.627a2.4 2.4 0 0 1 1.043-.223c.305 0 .581.042.83.126.247.084.46.22.635.408.176.187.312.431.407.732.096.3.144.666.144 1.096v4.095h-1.424v-4.107a1.81 1.81 0 0 0-.073-.554.9.9 0 0 0-.214-.366.807.807 0 0 0-.349-.202 1.686 1.686 0 0 0-.477-.062c-.293 0-.548.07-.765.211-.217.141-.39.33-.518.569v4.511h-1.424v-6.34h1.342zm8.906 4.617a.798.798 0 0 0-.05-.284.58.58 0 0 0-.196-.246 1.576 1.576 0 0 0-.413-.214 4.803 4.803 0 0 0-.695-.188 6.17 6.17 0 0 1-.928-.264 2.863 2.863 0 0 1-.718-.383c-.2-.15-.355-.327-.466-.53a1.44 1.44 0 0 1-.167-.704c0-.258.057-.503.17-.735a1.83 1.83 0 0 1 .49-.612c.212-.176.47-.316.773-.42a3.13 3.13 0 0 1 1.016-.155c.395 0 .75.052 1.064.156.314.103.58.246.8.427a1.845 1.845 0 0 1 .673 1.439h-1.423a.933.933 0 0 0-.07-.355.885.885 0 0 0-.212-.307 1.02 1.02 0 0 0-.348-.214c-.139-.053-.3-.08-.484-.08-.18 0-.336.023-.468.068a1.041 1.041 0 0 0-.332.176.691.691 0 0 0-.26.554c0 .105.02.199.058.28.04.083.109.157.208.224.1.066.234.128.402.184.168.057.379.112.632.167.368.078.697.17.988.276.29.105.537.234.738.386.201.153.355.332.46.54.106.206.158.452.158.738 0 .28-.06.539-.181.773a1.782 1.782 0 0 1-.519.607c-.225.17-.495.301-.811.395a3.7 3.7 0 0 1-1.055.14 3.32 3.32 0 0 1-1.152-.184 2.64 2.64 0 0 1-.84-.483 2.014 2.014 0 0 1-.513-.677 1.835 1.835 0 0 1-.173-.77h1.383c.012.195.057.359.135.492.078.132.177.24.299.322.12.082.257.141.41.179.152.037.308.055.468.055.375 0 .66-.071.856-.214a.662.662 0 0 0 .293-.56z" fill="#212121"/><path d="M353.29 316h-.943l-3.58-5.479V316h-.942v-7.11h.943l3.588 5.504v-5.503h.933V316zm1.283-2.69c0-.385.056-.74.169-1.067.112-.327.272-.611.478-.852.207-.241.458-.43.755-.567a2.35 2.35 0 0 1 .996-.205c.374 0 .71.068 1.008.205.298.137.55.326.76.567.208.24.367.525.478.852.11.327.166.682.166 1.067v.107c0 .384-.056.74-.166 1.067-.11.327-.27.61-.479.85-.208.239-.46.426-.757.561-.296.135-.63.203-1 .203-.372 0-.705-.068-1.002-.203a2.202 2.202 0 0 1-.756-.562 2.527 2.527 0 0 1-.481-.85 3.266 3.266 0 0 1-.169-1.066v-.107zm.908.107c0 .264.031.513.093.747a1.9 1.9 0 0 0 .281.618c.125.177.282.318.469.422.187.104.406.156.656.156.248 0 .466-.052.655-.156.189-.104.345-.245.469-.422a1.97 1.97 0 0 0 .28-.618 2.82 2.82 0 0 0 .095-.747v-.107c0-.26-.031-.51-.095-.745a1.935 1.935 0 0 0-.283-.62 1.326 1.326 0 0 0-1.13-.583c-.248 0-.464.052-.65.158a1.436 1.436 0 0 0-.466.425 1.897 1.897 0 0 0-.28.62 2.926 2.926 0 0 0-.094.745v.107zm4.815-.103c0-.403.05-.77.149-1.1.1-.331.24-.614.422-.85a1.93 1.93 0 0 1 .657-.55 1.86 1.86 0 0 1 .857-.195c.322 0 .604.055.845.164.24.109.449.266.625.47V308.5h.903v7.5h-.83l-.044-.566a1.772 1.772 0 0 1-.635.493c-.247.114-.539.17-.874.17-.31 0-.592-.066-.847-.2a1.96 1.96 0 0 1-.657-.559 2.663 2.663 0 0 1-.422-.85 3.677 3.677 0 0 1-.15-1.071v-.103zm.903.103c0 .264.027.512.08.745.054.232.138.435.252.608.114.172.259.309.435.41.176.1.386.151.63.151.16 0 .302-.019.43-.056a1.257 1.257 0 0 0 .617-.403c.08-.094.149-.198.208-.312v-2.427a1.727 1.727 0 0 0-.205-.298 1.26 1.26 0 0 0-.616-.393 1.5 1.5 0 0 0-.425-.056c-.247 0-.46.051-.637.154a1.276 1.276 0 0 0-.437.417c-.114.176-.198.38-.251.613-.054.233-.08.48-.08.744v.103zm7.149 2.68c-.368 0-.701-.063-.999-.19a2.229 2.229 0 0 1-1.252-1.338 2.973 2.973 0 0 1-.171-1.025v-.205c0-.43.064-.814.193-1.152.128-.339.3-.624.515-.855.215-.231.46-.408.737-.53.277-.122.565-.183.864-.183.378 0 .703.066.977.198.273.132.499.313.676.544.178.231.309.505.393.82.085.316.127.66.127 1.03v.406h-3.579c.007.244.046.472.12.684.073.211.177.395.312.552a1.466 1.466 0 0 0 1.135.507c.32 0 .59-.065.811-.195.221-.13.415-.303.581-.518l.552.43c-.085.13-.187.256-.308.379-.12.122-.261.23-.422.327a2.222 2.222 0 0 1-.554.23 2.688 2.688 0 0 1-.708.085zm-.113-4.736c-.182 0-.35.034-.503.1-.153.067-.29.164-.41.291-.12.127-.22.285-.3.474a2.4 2.4 0 0 0-.164.649h2.647v-.068a2.5 2.5 0 0 0-.086-.523 1.419 1.419 0 0 0-.22-.464 1.132 1.132 0 0 0-.383-.332 1.208 1.208 0 0 0-.58-.127zm10.26 4.639h-4.66v-.65l2.33-2.587c.215-.238.393-.448.535-.63.141-.182.254-.35.337-.5.083-.152.14-.294.173-.425.033-.132.049-.267.049-.403a1.46 1.46 0 0 0-.083-.496 1.123 1.123 0 0 0-.625-.674 1.308 1.308 0 0 0-.528-.1c-.24 0-.45.036-.627.108-.177.071-.325.17-.442.297-.117.127-.205.28-.264.457a1.868 1.868 0 0 0-.087.588h-.904c0-.3.05-.582.15-.85.098-.266.246-.499.441-.697a2.09 2.09 0 0 1 .728-.472c.29-.115.625-.173 1.005-.173.336 0 .636.046.901.137.266.09.49.22.674.388.184.168.325.369.423.603a2 2 0 0 1 .039 1.406 3.575 3.575 0 0 1-.289.632c-.12.21-.262.419-.424.625-.163.207-.334.41-.513.608l-1.91 2.07h3.57V316zm192.795 0h-.943l-3.58-5.479V316h-.942v-7.11h.943l3.588 5.504v-5.503h.933V316zm1.283-2.69c0-.385.056-.74.169-1.067.112-.327.272-.611.478-.852.207-.241.458-.43.755-.567a2.35 2.35 0 0 1 .996-.205c.374 0 .71.068 1.008.205.298.137.55.326.76.567.208.24.367.525.478.852.11.327.166.682.166 1.067v.107c0 .384-.056.74-.166 1.067-.11.327-.27.61-.479.85-.208.239-.46.426-.757.561-.296.135-.63.203-1 .203-.372 0-.705-.068-1.002-.203a2.202 2.202 0 0 1-.756-.562 2.527 2.527 0 0 1-.481-.85 3.266 3.266 0 0 1-.169-1.066v-.107zm.908.107c0 .264.031.513.093.747a1.9 1.9 0 0 0 .281.618c.125.177.282.318.469.422.187.104.406.156.656.156.248 0 .466-.052.655-.156.189-.104.345-.245.469-.422a1.97 1.97 0 0 0 .28-.618 2.82 2.82 0 0 0 .095-.747v-.107c0-.26-.031-.51-.095-.745a1.935 1.935 0 0 0-.283-.62 1.326 1.326 0 0 0-1.13-.583c-.248 0-.464.052-.65.158a1.436 1.436 0 0 0-.466.425 1.897 1.897 0 0 0-.28.62 2.926 2.926 0 0 0-.094.745v.107zm4.815-.103c0-.403.05-.77.149-1.1.1-.331.24-.614.422-.85a1.93 1.93 0 0 1 .657-.55 1.86 1.86 0 0 1 .857-.195c.322 0 .604.055.845.164.24.109.449.266.625.47V308.5h.903v7.5h-.83l-.044-.566a1.772 1.772 0 0 1-.635.493c-.247.114-.539.17-.874.17-.31 0-.592-.066-.847-.2a1.96 1.96 0 0 1-.657-.559 2.663 2.663 0 0 1-.422-.85 3.677 3.677 0 0 1-.15-1.071v-.103zm.903.103c0 .264.027.512.08.745.054.232.138.435.252.608.114.172.259.309.435.41.176.1.386.151.63.151.16 0 .302-.019.43-.056a1.257 1.257 0 0 0 .617-.403c.08-.094.149-.198.208-.312v-2.427a1.727 1.727 0 0 0-.205-.298 1.26 1.26 0 0 0-.616-.393 1.5 1.5 0 0 0-.425-.056c-.247 0-.46.051-.637.154a1.276 1.276 0 0 0-.437.417c-.114.176-.198.38-.251.613-.054.233-.08.48-.08.744v.103zm7.149 2.68c-.368 0-.701-.063-.999-.19a2.229 2.229 0 0 1-1.252-1.338 2.973 2.973 0 0 1-.171-1.025v-.205c0-.43.064-.814.193-1.152.128-.339.3-.624.515-.855.215-.231.46-.408.737-.53.277-.122.565-.183.864-.183.378 0 .703.066.977.198.273.132.499.313.676.544.178.231.309.505.393.82.085.316.127.66.127 1.03v.406h-3.579c.007.244.046.472.12.684.073.211.177.395.312.552a1.466 1.466 0 0 0 1.135.507c.32 0 .59-.065.811-.195.221-.13.415-.303.581-.518l.552.43c-.085.13-.187.256-.308.379-.12.122-.261.23-.422.327a2.222 2.222 0 0 1-.554.23 2.688 2.688 0 0 1-.708.085zm-.113-4.736c-.182 0-.35.034-.503.1-.153.067-.29.164-.41.291-.12.127-.22.285-.3.474a2.4 2.4 0 0 0-.164.649h2.647v-.068a2.5 2.5 0 0 0-.086-.523 1.419 1.419 0 0 0-.22-.464 1.132 1.132 0 0 0-.383-.332 1.208 1.208 0 0 0-.58-.127zm6.914.645h.645c.234 0 .44-.031.615-.093.176-.062.322-.147.44-.256a1.05 1.05 0 0 0 .263-.386 1.31 1.31 0 0 0 .088-.486c0-.407-.102-.717-.307-.93-.206-.213-.518-.32-.938-.32-.192 0-.367.029-.525.086a1.087 1.087 0 0 0-.667.63c-.061.15-.092.32-.092.505h-.903a1.85 1.85 0 0 1 .6-1.39 2.12 2.12 0 0 1 .691-.42c.269-.102.567-.153.896-.153.322 0 .615.043.879.13.264.086.49.213.676.38.187.168.333.377.437.628.104.25.157.542.157.874 0 .133-.022.273-.066.42-.044.146-.111.29-.2.43a1.866 1.866 0 0 1-.852.698c.234.074.43.173.588.295a1.548 1.548 0 0 1 .579.881c.038.166.058.33.058.489 0 .332-.057.627-.171.886a1.827 1.827 0 0 1-.474.652c-.201.175-.439.31-.712.402-.274.093-.572.14-.894.14-.31 0-.6-.043-.874-.13a2.136 2.136 0 0 1-.718-.38 1.804 1.804 0 0 1-.486-.62 1.912 1.912 0 0 1-.178-.843h.908c0 .186.031.354.093.505.062.152.151.282.269.391.117.109.258.193.424.251.166.06.354.088.562.088.208 0 .395-.027.561-.08.167-.054.308-.136.425-.247.117-.11.207-.249.269-.415.062-.166.093-.36.093-.58 0-.222-.036-.414-.108-.577a1.048 1.048 0 0 0-.305-.403 1.32 1.32 0 0 0-.476-.237 2.312 2.312 0 0 0-.625-.078h-.645v-.737z" fill="#757575"/><path d="M261.255 110.448c0 .687-.11 1.279-.327 1.775-.218.497-.524.885-.918 1.165l1.27.996-.64.59-1.5-1.19a3.05 3.05 0 0 1-.742.087c-.42 0-.805-.078-1.157-.234a2.544 2.544 0 0 1-.908-.679 3.165 3.165 0 0 1-.59-1.077 4.533 4.533 0 0 1-.21-1.433V110c0-.53.07-1.008.21-1.433.14-.425.334-.785.585-1.082.25-.296.552-.523.903-.68a2.792 2.792 0 0 1 1.158-.238c.433 0 .826.08 1.179.237.353.158.655.385.906.681.25.297.443.657.578 1.082.135.425.203.902.203 1.433v.45zm-.938-.459a4.4 4.4 0 0 0-.129-1.123 2.387 2.387 0 0 0-.376-.82 1.607 1.607 0 0 0-.605-.503 1.88 1.88 0 0 0-.818-.17c-.29 0-.553.056-.789.17a1.658 1.658 0 0 0-.605.503 2.43 2.43 0 0 0-.389.82c-.09.326-.136.7-.136 1.123v.46c0 .426.046.802.139 1.127.093.326.223.6.39.823.168.223.37.391.608.505.238.114.502.171.791.171.306 0 .578-.057.816-.17.237-.115.439-.283.603-.506.164-.223.289-.497.373-.823.085-.325.127-.701.127-1.128v-.459zm5.503 3.262a1.683 1.683 0 0 1-.63.457 2.32 2.32 0 0 1-.918.163c-.26 0-.496-.037-.708-.11a1.378 1.378 0 0 1-.546-.346 1.578 1.578 0 0 1-.354-.61 2.866 2.866 0 0 1-.125-.902v-3.413h.903v3.423c0 .238.028.434.083.588a.955.955 0 0 0 .22.367c.091.09.195.151.313.185.117.034.237.052.36.052.369 0 .664-.07.887-.21.223-.14.387-.328.49-.562v-3.843h.904v5.283h-.86l-.019-.522zm4.444.62c-.368 0-.701-.063-.999-.19a2.229 2.229 0 0 1-1.252-1.338 2.973 2.973 0 0 1-.171-1.026v-.205c0-.43.064-.813.193-1.152.128-.339.3-.623.515-.855.215-.23.46-.407.737-.53.277-.121.565-.182.864-.182.378 0 .703.066.977.197.273.132.499.314.676.545.178.23.309.504.393.82.085.316.127.66.127 1.03v.406h-3.579c.007.244.047.472.12.683.073.212.177.396.312.552.135.156.298.28.489.371.19.091.406.137.647.137.319 0 .589-.065.81-.196.221-.13.415-.302.581-.517l.552.43c-.085.13-.187.256-.308.378-.12.122-.261.231-.422.327a2.222 2.222 0 0 1-.554.23 2.688 2.688 0 0 1-.708.085zm-.113-4.736c-.182 0-.35.033-.503.1-.153.067-.29.163-.41.29-.12.127-.22.285-.3.474a2.4 2.4 0 0 0-.164.65h2.647v-.069a2.5 2.5 0 0 0-.086-.522 1.419 1.419 0 0 0-.22-.464 1.132 1.132 0 0 0-.383-.332 1.208 1.208 0 0 0-.58-.127zm5.772.166a2.39 2.39 0 0 0-.444-.034c-.313 0-.568.068-.765.205-.197.136-.344.32-.442.551v3.75h-.903v-5.283h.879l.015.61a1.59 1.59 0 0 1 .512-.517c.205-.127.454-.19.747-.19a1.335 1.335 0 0 1 .4.068v.84zm2.558 3.15l1.23-3.96h.968l-2.124 6.098a4.14 4.14 0 0 1-.19.425c-.079.153-.18.295-.306.427a1.648 1.648 0 0 1-.452.332 1.35 1.35 0 0 1-.747.124 4.543 4.543 0 0 1-.38-.068v-.732c.013.003.03.005.053.007a14.86 14.86 0 0 0 .19.012c.154 0 .289-.014.406-.044a.887.887 0 0 0 .312-.144.9.9 0 0 0 .237-.266 2.12 2.12 0 0 0 .183-.41l.2-.537-1.884-5.225h.986l1.318 3.96zm2.974.849c0-.156.046-.287.14-.39.092-.105.231-.157.417-.157.185 0 .326.052.422.156a.554.554 0 0 1 .144.39c0 .15-.048.276-.144.377-.096.1-.237.151-.422.151-.186 0-.325-.05-.418-.151a.535.535 0 0 1-.139-.376zm.005-4.312a.56.56 0 0 1 .14-.39c.092-.105.231-.157.417-.157.185 0 .326.052.422.157a.554.554 0 0 1 .144.39c0 .15-.048.275-.144.376-.096.101-.237.152-.422.152-.186 0-.325-.05-.418-.152a.535.535 0 0 1-.139-.376zm5.771-.498l.025.586c.182-.215.403-.382.661-.503.26-.12.561-.18.906-.18.342 0 .644.067.906.202s.463.351.603.647c.176-.254.404-.459.686-.615.282-.156.614-.234.999-.234.283 0 .533.036.752.11.218.073.402.187.554.344.151.156.266.355.344.595.078.241.117.528.117.86v3.471h-.903v-3.476a1.62 1.62 0 0 0-.08-.552.86.86 0 0 0-.228-.351.81.81 0 0 0-.356-.184 1.956 1.956 0 0 0-.464-.05c-.186 0-.35.028-.493.087a1.117 1.117 0 0 0-.613.588c-.06.136-.098.28-.115.433v3.505h-.908v-3.471c0-.205-.027-.38-.08-.525a.905.905 0 0 0-.228-.354.893.893 0 0 0-.354-.2 1.592 1.592 0 0 0-.466-.064c-.322 0-.581.07-.776.21-.196.14-.342.322-.44.547v3.857h-.903v-5.283h.854zm9.644 3.96l1.23-3.96h.967l-2.124 6.099a4.14 4.14 0 0 1-.19.425c-.078.153-.18.295-.305.427a1.648 1.648 0 0 1-.452.332 1.35 1.35 0 0 1-.747.124 4.543 4.543 0 0 1-.381-.068v-.732a.427.427 0 0 0 .054.007 14.842 14.842 0 0 0 .19.012c.153 0 .288-.014.405-.044a.887.887 0 0 0 .313-.144.9.9 0 0 0 .237-.266 2.12 2.12 0 0 0 .183-.41l.2-.537-1.885-5.225h.987l1.318 3.96zm4.883-1.328h-2.383v-.737h2.383v.737zm3.955 1.25a.852.852 0 0 0-.044-.276.581.581 0 0 0-.173-.244 1.295 1.295 0 0 0-.369-.212 3.809 3.809 0 0 0-.63-.181 5.963 5.963 0 0 1-.79-.22 2.42 2.42 0 0 1-.6-.305 1.258 1.258 0 0 1-.378-.422 1.184 1.184 0 0 1-.131-.572c0-.208.046-.406.139-.593a1.53 1.53 0 0 1 .393-.493c.17-.142.374-.254.615-.337.241-.083.51-.124.806-.124.316 0 .598.043.847.129.249.086.46.204.635.354a1.515 1.515 0 0 1 .534 1.167h-.908a.79.79 0 0 0-.073-.325.885.885 0 0 0-.215-.293 1.108 1.108 0 0 0-.347-.21 1.29 1.29 0 0 0-.473-.08c-.189 0-.35.022-.481.066a.948.948 0 0 0-.325.175.675.675 0 0 0-.185.25.73.73 0 0 0-.01.549.5.5 0 0 0 .185.212c.091.064.216.122.374.176.158.054.362.108.613.164.322.074.602.16.84.253.237.095.434.205.59.33.157.125.273.27.35.432.076.163.114.352.114.567a1.4 1.4 0 0 1-.144.634 1.408 1.408 0 0 1-.412.494 2.025 2.025 0 0 1-.645.32c-.25.076-.529.114-.835.114a2.73 2.73 0 0 1-.93-.146 2.083 2.083 0 0 1-.676-.389 1.645 1.645 0 0 1-.415-.551 1.519 1.519 0 0 1-.142-.638h.903c.01.186.055.341.135.467.08.125.18.227.3.305.12.078.252.133.395.166.144.033.287.049.43.049.186 0 .348-.02.488-.059.14-.039.258-.093.354-.16a.694.694 0 0 0 .218-.243.635.635 0 0 0 .073-.3zm4.272 1.5c-.367 0-.7-.064-.998-.191a2.229 2.229 0 0 1-1.253-1.338 2.973 2.973 0 0 1-.17-1.026v-.205c0-.43.064-.813.192-1.152.129-.339.3-.623.515-.855.215-.23.461-.407.738-.53.276-.121.565-.182.864-.182.378 0 .703.066.977.197.273.132.498.314.676.545.177.23.308.504.393.82.085.316.127.66.127 1.03v.406h-3.58c.007.244.047.472.12.683.074.212.178.396.313.552.135.156.298.28.488.371.19.091.406.137.647.137.32 0 .59-.065.81-.196.222-.13.416-.302.582-.517l.552.43c-.085.13-.188.256-.308.378s-.261.231-.422.327a2.222 2.222 0 0 1-.555.23 2.688 2.688 0 0 1-.708.085zm-.112-4.737c-.182 0-.35.033-.503.1-.153.067-.29.163-.41.29-.12.127-.22.285-.3.474a2.4 2.4 0 0 0-.164.65h2.647v-.069a2.5 2.5 0 0 0-.086-.522 1.419 1.419 0 0 0-.22-.464 1.132 1.132 0 0 0-.383-.332 1.208 1.208 0 0 0-.581-.127zm5.772.166a2.39 2.39 0 0 0-.445-.034c-.312 0-.567.068-.764.205-.197.136-.344.32-.442.551v3.75h-.903v-5.283h.879l.014.61a1.59 1.59 0 0 1 .513-.517c.205-.127.454-.19.747-.19a1.335 1.335 0 0 1 .4.068v.84zm2.573 3.247l1.308-4.058h.923l-1.894 5.283h-.689l-1.914-5.283h.923l1.343 4.058zm4.082 1.225h-.904v-5.283h.904v5.283zm-.977-6.684a.54.54 0 0 1 .135-.371c.089-.101.222-.152.397-.152.176 0 .31.05.4.152.092.1.138.224.138.37a.516.516 0 0 1-.137.367c-.091.098-.225.147-.4.147-.176 0-.309-.05-.398-.147a.521.521 0 0 1-.135-.366zm4.541 6.045a1.36 1.36 0 0 0 .847-.293c.113-.091.204-.2.274-.325a1.01 1.01 0 0 0 .124-.408h.855a1.578 1.578 0 0 1-.193.672c-.116.213-.268.4-.457.561a2.247 2.247 0 0 1-1.45.53c-.397 0-.743-.07-1.037-.212a2.105 2.105 0 0 1-.735-.574 2.43 2.43 0 0 1-.437-.84 3.488 3.488 0 0 1-.144-1.01v-.206c0-.355.048-.691.144-1.01a2.43 2.43 0 0 1 .437-.84 2.12 2.12 0 0 1 .732-.574 2.355 2.355 0 0 1 1.035-.212c.31 0 .59.048.843.146.252.098.47.232.654.403.184.17.328.373.432.608.104.234.163.486.176.757h-.855a1.375 1.375 0 0 0-.114-.457 1.197 1.197 0 0 0-.64-.623 1.274 1.274 0 0 0-.496-.092c-.28 0-.512.055-.695.166a1.31 1.31 0 0 0-.445.437 1.83 1.83 0 0 0-.237.61 3.441 3.441 0 0 0-.068.681v.205c0 .235.023.465.068.691.046.227.124.43.235.608.11.18.259.324.444.435.186.11.42.166.703.166zm5.308.737c-.368 0-.7-.063-.999-.19a2.229 2.229 0 0 1-1.252-1.338 2.973 2.973 0 0 1-.171-1.026v-.205c0-.43.064-.813.193-1.152.128-.339.3-.623.515-.855.215-.23.46-.407.737-.53.277-.121.565-.182.865-.182.377 0 .703.066.976.197.274.132.499.314.676.545.178.23.309.504.393.82.085.316.127.66.127 1.03v.406h-3.579c.007.244.047.472.12.683.073.212.177.396.312.552.136.156.298.28.489.371.19.091.406.137.647.137.319 0 .589-.065.81-.196a2.02 2.02 0 0 0 .581-.517l.552.43c-.085.13-.187.256-.308.378a2.06 2.06 0 0 1-.422.327 2.222 2.222 0 0 1-.554.23 2.688 2.688 0 0 1-.708.085zm-.112-4.736c-.183 0-.35.033-.503.1-.153.067-.29.163-.41.29a1.538 1.538 0 0 0-.3.474 2.4 2.4 0 0 0-.164.65h2.646v-.069a2.5 2.5 0 0 0-.085-.522 1.419 1.419 0 0 0-.22-.464 1.132 1.132 0 0 0-.383-.332 1.208 1.208 0 0 0-.581-.127z" fill="#9E9E9E"/><path d="M386 155H220" stroke="#616262"/><path fill="#616262" d="M382.885 151.585l-.564.602 2.971 2.778-2.988 2.76.56.606 3.638-3.363z"/><text font-family="Roboto-Regular, Roboto" font-size="10" fill="#9E9E9E"><tspan x="277.092" y="172.773">Answer:</tspan> <tspan x="271.399" y="183.773">10.0.0.100</tspan> <tspan x="271.399" y="194.773">10.0.0.101</tspan></text><path d="M471.5 165v39" stroke="#616161" stroke-linecap="square"/><path stroke="#616161" d="M362 232v-28.117L580 204v28"/><path fill="#616161" d="M358 228.682l.732-.682 3.357 3.612 3.357-3.612.733.682-4.09 4.398zm218 0l.732-.682 3.357 3.612 3.357-3.612.733.682-4.09 4.398z"/></g></svg>