<svg width="736" height="414" viewBox="0 0 736 414" xmlns="http://www.w3.org/2000/svg"><title>Cluster IP Service</title><g fill="none" fill-rule="evenodd"><path d="M78 131.316c-1.105 0-2-.403-2-.902V79.902c0-.498.895-.902 2-.902h140c1.105 0 2 .404 2 .902v50.512c0 .499-.895.902-2 .902H78z" stroke="#E0E0E0" fill="#FFF"/><path d="M476 377c-1.105 0-2-.448-2-1v-88c0-.552.895-1 2-1h164c1.105 0 2 .448 2 1v88c0 .552-.895 1-2 1H476z" stroke="#FAFAFA" stroke-width="2" fill="#E1F6FE"/><path d="M488 349.316c-1.105 0-2-.403-2-.902v-50.512c0-.498.895-.902 2-.902h140c1.105 0 2 .404 2 .902v50.512c0 .499-.895.902-2 .902H488z" stroke="#E0E0E0" fill="#FFF"/><path d="M545.344 316.64v2.641h-1.236v-7.11h2.72c.413 0 .78.057 1.101.17.32.112.592.269.813.47.222.202.39.442.506.718.115.277.173.578.173.904 0 .345-.058.654-.173.927a1.838 1.838 0 0 1-.506.694 2.299 2.299 0 0 1-.813.434 3.66 3.66 0 0 1-1.1.152h-1.485zm0-.992h1.484c.238 0 .442-.029.613-.087.17-.059.312-.142.422-.25a.956.956 0 0 0 .242-.383c.05-.148.076-.31.076-.486 0-.166-.026-.325-.076-.478a1.095 1.095 0 0 0-.242-.408 1.176 1.176 0 0 0-.422-.283 1.614 1.614 0 0 0-.613-.105h-1.484v2.48zm4.756.943c0-.384.056-.74.168-1.067.112-.327.273-.611.483-.852.21-.241.467-.43.77-.567a2.477 2.477 0 0 1 1.03-.205c.387 0 .734.069 1.04.205.306.137.564.326.774.567.21.24.37.525.48.852.111.327.167.683.167 1.067v.102c0 .384-.056.74-.166 1.07a2.47 2.47 0 0 1-.481.852c-.21.239-.467.426-.772.561a2.52 2.52 0 0 1-1.032.203c-.388 0-.734-.068-1.038-.203a2.197 2.197 0 0 1-.772-.561 2.5 2.5 0 0 1-.483-.852 3.288 3.288 0 0 1-.168-1.07v-.102zm1.186.102c0 .238.025.463.073.674.05.212.126.397.23.554.104.158.237.283.398.374.16.091.352.137.574.137.218 0 .407-.046.568-.137.161-.091.293-.216.396-.374.102-.157.179-.342.23-.554.05-.211.075-.436.075-.674v-.102c0-.235-.025-.457-.076-.667a1.724 1.724 0 0 0-.232-.551 1.195 1.195 0 0 0-.398-.379 1.115 1.115 0 0 0-.573-.141c-.222 0-.411.047-.57.141-.157.095-.288.22-.392.379-.104.157-.18.341-.23.551-.048.21-.073.432-.073.667v.102zm4.507-.092c0-.4.048-.767.144-1.099a2.58 2.58 0 0 1 .415-.855c.18-.237.4-.421.657-.551a1.9 1.9 0 0 1 .869-.196c.293 0 .55.05.774.152.223.1.417.246.583.434v-2.705h1.187v7.5h-1.074l-.059-.547c-.17.205-.37.364-.603.476a1.863 1.863 0 0 1-.818.169c-.319 0-.606-.068-.862-.203a1.95 1.95 0 0 1-.652-.559 2.656 2.656 0 0 1-.415-.847 3.716 3.716 0 0 1-.146-1.067v-.102zm1.186.102c0 .235.022.455.066.662.044.206.114.388.21.544.096.156.22.28.369.369.15.09.332.134.547.134.267 0 .486-.06.657-.178.17-.119.306-.276.407-.471v-2.256a1.2 1.2 0 0 0-.41-.464 1.145 1.145 0 0 0-.644-.17 1.05 1.05 0 0 0-.55.136 1.094 1.094 0 0 0-.37.37 1.75 1.75 0 0 0-.213.55 3.16 3.16 0 0 0-.069.672v.102zm8.59 2.578h-1.231v-7.11h1.23v7.11zm2.753-2.641v2.641h-1.235v-7.11h2.72c.413 0 .78.057 1.1.17.321.112.592.269.814.47.221.202.39.442.505.718.116.277.173.578.173.904 0 .345-.057.654-.173.927a1.838 1.838 0 0 1-.505.694 2.299 2.299 0 0 1-.813.434 3.667 3.667 0 0 1-1.101.152h-1.485zm0-.992h1.485c.237 0 .441-.029.612-.087.171-.059.312-.142.423-.25a.956.956 0 0 0 .241-.383c.05-.148.076-.31.076-.486a1.5 1.5 0 0 0-.076-.478 1.095 1.095 0 0 0-.241-.408 1.176 1.176 0 0 0-.423-.283 1.614 1.614 0 0 0-.612-.105h-1.485v2.48zM536.745 332h-1.182v-5.708l-1.743.596v-1.001l2.774-1.02h.151V332zm7.105-2.993c0 .563-.056 1.04-.166 1.433-.111.392-.267.711-.47.957a1.756 1.756 0 0 1-.73.535c-.284.11-.602.166-.954.166-.348 0-.665-.056-.952-.166a1.789 1.789 0 0 1-.737-.535c-.205-.246-.364-.565-.476-.957-.113-.392-.169-.87-.169-1.433v-1.148c0-.563.056-1.04.166-1.43.111-.39.268-.707.471-.95.204-.243.449-.417.735-.525.287-.107.604-.161.953-.161.351 0 .67.054.957.161.286.108.531.282.734.525.204.243.36.56.472.95.11.39.166.867.166 1.43v1.148zm-1.187-1.328c0-.362-.025-.665-.076-.91a1.747 1.747 0 0 0-.222-.597.87.87 0 0 0-.359-.327 1.127 1.127 0 0 0-.485-.1 1.12 1.12 0 0 0-.486.1.87.87 0 0 0-.36.327c-.097.152-.17.35-.221.596a4.66 4.66 0 0 0-.076.91v1.5c0 .358.026.662.078.913.052.25.127.454.225.61.097.156.218.27.361.342.143.072.306.107.488.107.186 0 .349-.035.489-.107a.899.899 0 0 0 .354-.342 1.84 1.84 0 0 0 .217-.61 4.86 4.86 0 0 0 .073-.913v-1.5zm2.363 3.73a.65.65 0 0 1 .181-.471c.12-.125.29-.188.508-.188.221 0 .392.063.513.188.12.125.18.282.18.471a.63.63 0 0 1-.18.462c-.12.122-.292.183-.513.183a.818.818 0 0 1-.29-.05.598.598 0 0 1-.352-.342.684.684 0 0 1-.047-.253zm7.3-2.402c0 .563-.055 1.04-.166 1.433-.11.392-.267.711-.469.957a1.756 1.756 0 0 1-.73.535c-.284.11-.603.166-.954.166-.348 0-.666-.056-.952-.166a1.789 1.789 0 0 1-.738-.535c-.205-.246-.363-.565-.476-.957-.112-.392-.168-.87-.168-1.433v-1.148c0-.563.055-1.04.166-1.43.11-.39.268-.707.471-.95a1.75 1.75 0 0 1 .735-.525c.286-.107.604-.161.952-.161.352 0 .67.054.957.161.287.108.532.282.735.525.203.243.36.56.471.95.11.39.166.867.166 1.43v1.148zm-1.186-1.328c0-.362-.026-.665-.076-.91a1.747 1.747 0 0 0-.222-.597.87.87 0 0 0-.36-.327 1.127 1.127 0 0 0-.485-.1c-.182 0-.344.033-.486.1a.87.87 0 0 0-.359.327c-.097.152-.171.35-.222.596a4.66 4.66 0 0 0-.076.91v1.5c0 .358.027.662.079.913.052.25.127.454.224.61.098.156.218.27.362.342.143.072.306.107.488.107.185 0 .348-.035.488-.107a.899.899 0 0 0 .354-.342 1.84 1.84 0 0 0 .217-.61 4.86 4.86 0 0 0 .074-.913v-1.5zm2.363 3.73c0-.189.06-.346.18-.471.121-.125.29-.188.508-.188.222 0 .393.063.513.188s.18.282.18.471a.63.63 0 0 1-.18.462c-.12.122-.291.183-.513.183a.818.818 0 0 1-.29-.05.598.598 0 0 1-.352-.342.684.684 0 0 1-.046-.253zm7.3-2.402c0 .563-.056 1.04-.166 1.433-.111.392-.267.711-.469.957a1.756 1.756 0 0 1-.73.535c-.285.11-.603.166-.955.166-.348 0-.665-.056-.952-.166a1.789 1.789 0 0 1-.737-.535c-.205-.246-.364-.565-.476-.957-.112-.392-.169-.87-.169-1.433v-1.148c0-.563.056-1.04.166-1.43.111-.39.268-.707.472-.95.203-.243.448-.417.734-.525.287-.107.604-.161.953-.161.351 0 .67.054.957.161.286.108.531.282.735.525.203.243.36.56.47.95.111.39.167.867.167 1.43v1.148zm-1.187-1.328c0-.362-.025-.665-.075-.91a1.747 1.747 0 0 0-.223-.597.87.87 0 0 0-.359-.327 1.127 1.127 0 0 0-.485-.1 1.12 1.12 0 0 0-.486.1.87.87 0 0 0-.36.327c-.097.152-.17.35-.221.596a4.66 4.66 0 0 0-.076.91v1.5c0 .358.026.662.078.913.052.25.127.454.225.61.097.156.218.27.361.342.143.072.306.107.488.107.186 0 .349-.035.489-.107a.899.899 0 0 0 .354-.342 1.84 1.84 0 0 0 .217-.61 4.86 4.86 0 0 0 .073-.913v-1.5zm2.363 3.73a.65.65 0 0 1 .181-.471c.12-.125.29-.188.508-.188.221 0 .392.063.513.188.12.125.18.282.18.471a.63.63 0 0 1-.18.462c-.12.122-.292.183-.513.183a.818.818 0 0 1-.29-.05.598.598 0 0 1-.352-.342.684.684 0 0 1-.047-.253zm5.88.591h-1.182v-5.708l-1.743.596v-1.001l2.773-1.02h.151V332zm7.104-2.993c0 .563-.055 1.04-.166 1.433-.11.392-.267.711-.469.957a1.756 1.756 0 0 1-.73.535 2.63 2.63 0 0 1-.954.166 2.64 2.64 0 0 1-.953-.166 1.789 1.789 0 0 1-.737-.535c-.205-.246-.364-.565-.476-.957-.112-.392-.168-.87-.168-1.433v-1.148c0-.563.055-1.04.166-1.43.11-.39.267-.707.47-.95.204-.243.45-.417.736-.525.286-.107.603-.161.952-.161.351 0 .67.054.957.161.286.108.531.282.735.525.203.243.36.56.47.95.112.39.167.867.167 1.43v1.148zm-1.187-1.328c0-.362-.025-.665-.075-.91a1.747 1.747 0 0 0-.222-.597.87.87 0 0 0-.36-.327 1.127 1.127 0 0 0-.485-.1c-.183 0-.344.033-.486.1a.87.87 0 0 0-.359.327c-.098.152-.172.35-.222.596a4.66 4.66 0 0 0-.076.91v1.5c0 .358.026.662.078.913.052.25.127.454.225.61.098.156.218.27.361.342.144.072.306.107.489.107.185 0 .348-.035.488-.107a.899.899 0 0 0 .354-.342 1.84 1.84 0 0 0 .217-.61 4.86 4.86 0 0 0 .073-.913v-1.5zm5.45 4.321h-1.182v-5.708l-1.743.596v-1.001l2.773-1.02h.152V332z" fill="#000"/><path d="M288 377c-1.105 0-2-.447-2-1v-88c0-.553.895-1 2-1h164c1.105 0 2 .447 2 1v88c0 .553-.895 1-2 1H288z" stroke="#FAFAFA" stroke-width="2" fill="#E1F6FE"/><path d="M300 349.316c-1.105 0-2-.403-2-.902v-50.512c0-.498.895-.902 2-.902h140c1.105 0 2 .404 2 .902v50.512c0 .499-.895.902-2 .902H300z" stroke="#E0E0E0" fill="#FFF"/><path d="M357.344 316.64v2.641h-1.236v-7.11h2.72c.413 0 .78.057 1.101.17.32.112.592.269.813.47.222.202.39.442.506.718.115.277.173.578.173.904 0 .345-.058.654-.173.927a1.838 1.838 0 0 1-.506.694 2.299 2.299 0 0 1-.813.434 3.66 3.66 0 0 1-1.1.152h-1.485zm0-.992h1.484c.238 0 .442-.029.613-.087.17-.059.312-.142.422-.25a.956.956 0 0 0 .242-.383c.05-.148.076-.31.076-.486 0-.166-.026-.325-.076-.478a1.095 1.095 0 0 0-.242-.408 1.176 1.176 0 0 0-.422-.283 1.614 1.614 0 0 0-.613-.105h-1.484v2.48zm4.756.943c0-.384.056-.74.168-1.067.112-.327.273-.611.483-.852.21-.241.467-.43.77-.567a2.477 2.477 0 0 1 1.03-.205c.387 0 .734.069 1.04.205.306.137.564.326.774.567.21.24.37.525.48.852.111.327.167.683.167 1.067v.102c0 .384-.056.74-.166 1.07a2.47 2.47 0 0 1-.481.852c-.21.239-.467.426-.772.561a2.52 2.52 0 0 1-1.032.203c-.388 0-.734-.068-1.038-.203a2.197 2.197 0 0 1-.772-.561 2.5 2.5 0 0 1-.483-.852 3.288 3.288 0 0 1-.168-1.07v-.102zm1.186.102c0 .238.025.463.073.674.05.212.126.397.23.554.104.158.237.283.398.374.16.091.352.137.574.137.218 0 .407-.046.568-.137.161-.091.293-.216.396-.374.102-.157.179-.342.23-.554.05-.211.075-.436.075-.674v-.102c0-.235-.025-.457-.076-.667a1.724 1.724 0 0 0-.232-.551 1.195 1.195 0 0 0-.398-.379 1.115 1.115 0 0 0-.573-.141c-.222 0-.411.047-.57.141-.157.095-.288.22-.392.379-.104.157-.18.341-.23.551-.048.21-.073.432-.073.667v.102zm4.507-.092c0-.4.048-.767.144-1.099a2.58 2.58 0 0 1 .415-.855c.18-.237.4-.421.657-.551a1.9 1.9 0 0 1 .869-.196c.293 0 .55.05.774.152.223.1.417.246.583.434v-2.705h1.187v7.5h-1.074l-.059-.547c-.17.205-.37.364-.603.476a1.863 1.863 0 0 1-.818.169c-.319 0-.606-.068-.862-.203a1.95 1.95 0 0 1-.652-.559 2.656 2.656 0 0 1-.415-.847 3.716 3.716 0 0 1-.146-1.067v-.102zm1.186.102c0 .235.022.455.066.662.044.206.114.388.21.544.096.156.22.28.369.369.15.09.332.134.547.134.267 0 .486-.06.657-.178.17-.119.306-.276.407-.471v-2.256a1.2 1.2 0 0 0-.41-.464 1.145 1.145 0 0 0-.644-.17 1.05 1.05 0 0 0-.55.136 1.094 1.094 0 0 0-.37.37 1.75 1.75 0 0 0-.213.55 3.16 3.16 0 0 0-.069.672v.102zm8.59 2.578h-1.231v-7.11h1.23v7.11zm2.753-2.641v2.641h-1.235v-7.11h2.72c.413 0 .78.057 1.1.17.321.112.592.269.814.47.221.202.39.442.505.718.116.277.173.578.173.904 0 .345-.057.654-.173.927a1.838 1.838 0 0 1-.505.694 2.299 2.299 0 0 1-.813.434 3.667 3.667 0 0 1-1.101.152h-1.485zm0-.992h1.485c.237 0 .441-.029.612-.087.171-.059.312-.142.423-.25a.956.956 0 0 0 .241-.383c.05-.148.076-.31.076-.486a1.5 1.5 0 0 0-.076-.478 1.095 1.095 0 0 0-.241-.408 1.176 1.176 0 0 0-.423-.283 1.614 1.614 0 0 0-.612-.105h-1.485v2.48zM348.745 332h-1.182v-5.708l-1.743.596v-1.001l2.774-1.02h.151V332zm7.105-2.993c0 .563-.056 1.04-.166 1.433-.111.392-.267.711-.47.957a1.756 1.756 0 0 1-.73.535c-.284.11-.602.166-.954.166-.348 0-.665-.056-.952-.166a1.789 1.789 0 0 1-.737-.535c-.205-.246-.364-.565-.476-.957-.113-.392-.169-.87-.169-1.433v-1.148c0-.563.056-1.04.166-1.43.111-.39.268-.707.471-.95.204-.243.449-.417.735-.525.287-.107.604-.161.953-.161.351 0 .67.054.957.161.286.108.531.282.734.525.204.243.36.56.472.95.11.39.166.867.166 1.43v1.148zm-1.187-1.328c0-.362-.025-.665-.076-.91a1.747 1.747 0 0 0-.222-.597.87.87 0 0 0-.359-.327 1.127 1.127 0 0 0-.485-.1 1.12 1.12 0 0 0-.486.1.87.87 0 0 0-.36.327c-.097.152-.17.35-.221.596a4.66 4.66 0 0 0-.076.91v1.5c0 .358.026.662.078.913.052.25.127.454.225.61.097.156.218.27.361.342.143.072.306.107.488.107.186 0 .349-.035.489-.107a.899.899 0 0 0 .354-.342 1.84 1.84 0 0 0 .217-.61 4.86 4.86 0 0 0 .073-.913v-1.5zm2.363 3.73a.65.65 0 0 1 .181-.471c.12-.125.29-.188.508-.188.221 0 .392.063.513.188.12.125.18.282.18.471a.63.63 0 0 1-.18.462c-.12.122-.292.183-.513.183a.818.818 0 0 1-.29-.05.598.598 0 0 1-.352-.342.684.684 0 0 1-.047-.253zm7.3-2.402c0 .563-.055 1.04-.166 1.433-.11.392-.267.711-.469.957a1.756 1.756 0 0 1-.73.535c-.284.11-.603.166-.954.166-.348 0-.666-.056-.952-.166a1.789 1.789 0 0 1-.738-.535c-.205-.246-.363-.565-.476-.957-.112-.392-.168-.87-.168-1.433v-1.148c0-.563.055-1.04.166-1.43.11-.39.268-.707.471-.95a1.75 1.75 0 0 1 .735-.525c.286-.107.604-.161.952-.161.352 0 .67.054.957.161.287.108.532.282.735.525.203.243.36.56.471.95.11.39.166.867.166 1.43v1.148zm-1.186-1.328c0-.362-.026-.665-.076-.91a1.747 1.747 0 0 0-.222-.597.87.87 0 0 0-.36-.327 1.127 1.127 0 0 0-.485-.1c-.182 0-.344.033-.486.1a.87.87 0 0 0-.359.327c-.097.152-.171.35-.222.596a4.66 4.66 0 0 0-.076.91v1.5c0 .358.027.662.079.913.052.25.127.454.224.61.098.156.218.27.362.342.143.072.306.107.488.107.185 0 .348-.035.488-.107a.899.899 0 0 0 .354-.342 1.84 1.84 0 0 0 .217-.61 4.86 4.86 0 0 0 .074-.913v-1.5zm2.363 3.73c0-.189.06-.346.18-.471.121-.125.29-.188.508-.188.222 0 .393.063.513.188s.18.282.18.471a.63.63 0 0 1-.18.462c-.12.122-.291.183-.513.183a.818.818 0 0 1-.29-.05.598.598 0 0 1-.352-.342.684.684 0 0 1-.046-.253zm7.3-2.402c0 .563-.056 1.04-.166 1.433-.111.392-.267.711-.469.957a1.756 1.756 0 0 1-.73.535c-.285.11-.603.166-.955.166-.348 0-.665-.056-.952-.166a1.789 1.789 0 0 1-.737-.535c-.205-.246-.364-.565-.476-.957-.112-.392-.169-.87-.169-1.433v-1.148c0-.563.056-1.04.166-1.43.111-.39.268-.707.472-.95.203-.243.448-.417.734-.525.287-.107.604-.161.953-.161.351 0 .67.054.957.161.286.108.531.282.735.525.203.243.36.56.47.95.111.39.167.867.167 1.43v1.148zm-1.187-1.328c0-.362-.025-.665-.075-.91a1.747 1.747 0 0 0-.223-.597.87.87 0 0 0-.359-.327 1.127 1.127 0 0 0-.485-.1 1.12 1.12 0 0 0-.486.1.87.87 0 0 0-.36.327c-.097.152-.17.35-.221.596a4.66 4.66 0 0 0-.076.91v1.5c0 .358.026.662.078.913.052.25.127.454.225.61.097.156.218.27.361.342.143.072.306.107.488.107.186 0 .349-.035.489-.107a.899.899 0 0 0 .354-.342 1.84 1.84 0 0 0 .217-.61 4.86 4.86 0 0 0 .073-.913v-1.5zm2.363 3.73a.65.65 0 0 1 .181-.471c.12-.125.29-.188.508-.188.221 0 .392.063.513.188.12.125.18.282.18.471a.63.63 0 0 1-.18.462c-.12.122-.292.183-.513.183a.818.818 0 0 1-.29-.05.598.598 0 0 1-.352-.342.684.684 0 0 1-.047-.253zm5.88.591h-1.182v-5.708l-1.743.596v-1.001l2.773-1.02h.151V332zm7.104-2.993c0 .563-.055 1.04-.166 1.433-.11.392-.267.711-.469.957a1.756 1.756 0 0 1-.73.535 2.63 2.63 0 0 1-.954.166 2.64 2.64 0 0 1-.953-.166 1.789 1.789 0 0 1-.737-.535c-.205-.246-.364-.565-.476-.957-.112-.392-.168-.87-.168-1.433v-1.148c0-.563.055-1.04.166-1.43.11-.39.267-.707.47-.95.204-.243.45-.417.736-.525.286-.107.603-.161.952-.161.351 0 .67.054.957.161.286.108.531.282.735.525.203.243.36.56.47.95.112.39.167.867.167 1.43v1.148zm-1.187-1.328c0-.362-.025-.665-.075-.91a1.747 1.747 0 0 0-.222-.597.87.87 0 0 0-.36-.327 1.127 1.127 0 0 0-.485-.1c-.183 0-.344.033-.486.1a.87.87 0 0 0-.359.327c-.098.152-.172.35-.222.596a4.66 4.66 0 0 0-.076.91v1.5c0 .358.026.662.078.913.052.25.127.454.225.61.098.156.218.27.361.342.144.072.306.107.489.107.185 0 .348-.035.488-.107a.899.899 0 0 0 .354-.342 1.84 1.84 0 0 0 .217-.61 4.86 4.86 0 0 0 .073-.913v-1.5zm6.87 1.328c0 .563-.055 1.04-.166 1.433-.11.392-.266.711-.468.957a1.756 1.756 0 0 1-.73.535c-.285.11-.603.166-.955.166-.348 0-.666-.056-.952-.166a1.789 1.789 0 0 1-.737-.535c-.205-.246-.364-.565-.476-.957-.113-.392-.169-.87-.169-1.433v-1.148c0-.563.056-1.04.166-1.43.11-.39.268-.707.471-.95.204-.243.449-.417.735-.525.287-.107.604-.161.952-.161.352 0 .671.054.957.161.287.108.532.282.735.525.204.243.36.56.471.95.111.39.166.867.166 1.43v1.148zm-1.186-1.328c0-.362-.025-.665-.076-.91a1.747 1.747 0 0 0-.222-.597.87.87 0 0 0-.359-.327 1.127 1.127 0 0 0-.486-.1c-.182 0-.344.033-.485.1a.87.87 0 0 0-.36.327c-.097.152-.171.35-.222.596-.05.246-.075.55-.075.91v1.5c0 .358.026.662.078.913.052.25.127.454.225.61a.91.91 0 0 0 .36.342c.144.072.307.107.49.107.185 0 .347-.035.487-.107a.899.899 0 0 0 .354-.342 1.84 1.84 0 0 0 .218-.61 4.86 4.86 0 0 0 .073-.913v-1.5z" fill="#000"/><path d="M384 251c-1.105 0-2-1.064-2-2.378V39.378c0-1.314.895-2.378 2-2.378h164c1.105 0 2 1.064 2 2.378v209.244c0 1.314-.895 2.378-2 2.378H384z" stroke="#FAFAFA" stroke-width="2" fill="#E1F6FE"/><path d="M223.295 88.811l153.205.415" stroke="#616262"/><path fill="#616262" d="M225.935 85.53l.548.585-2.882 2.694 2.898 2.677-.544.588-3.528-3.262z"/><path d="M396 128c-1.105 0-2-.463-2-1.034V69.034c0-.571.895-1.034 2-1.034h140c1.105 0 2 .463 2 1.034v57.932c0 .571-.895 1.034-2 1.034H396z" stroke="#E0E0E0" fill="#FFF"/><path d="M463.5 220l.25 39" stroke="#616161" stroke-linecap="square"/><path d="M453.344 100.64v2.641h-1.236v-7.11h2.72c.413 0 .78.057 1.101.17.32.112.592.269.813.47.222.202.39.442.506.718.115.277.173.578.173.904 0 .345-.058.654-.173.927a1.838 1.838 0 0 1-.506.694 2.299 2.299 0 0 1-.813.434 3.66 3.66 0 0 1-1.1.152h-1.485zm0-.992h1.484c.238 0 .442-.029.613-.087.17-.059.312-.142.422-.25a.956.956 0 0 0 .242-.383c.05-.148.076-.31.076-.486 0-.166-.026-.325-.076-.478a1.095 1.095 0 0 0-.242-.408 1.176 1.176 0 0 0-.422-.283 1.614 1.614 0 0 0-.613-.105h-1.484v2.48zm4.756.943c0-.384.056-.74.168-1.067.112-.327.273-.611.483-.852.21-.241.467-.43.77-.567a2.477 2.477 0 0 1 1.03-.205c.387 0 .734.069 1.04.205.306.137.564.326.774.567.21.24.37.525.48.852.111.327.167.683.167 1.067v.102c0 .384-.056.74-.166 1.07a2.47 2.47 0 0 1-.481.852c-.21.239-.467.426-.772.561a2.52 2.52 0 0 1-1.032.203c-.388 0-.734-.068-1.038-.203a2.197 2.197 0 0 1-.772-.561 2.5 2.5 0 0 1-.483-.852 3.288 3.288 0 0 1-.168-1.07v-.102zm1.186.102c0 .238.025.463.073.674.05.212.126.397.23.554.104.158.237.283.398.374.16.091.352.137.574.137.218 0 .407-.046.568-.137.161-.091.293-.216.396-.374.102-.157.179-.342.23-.554.05-.211.075-.436.075-.674v-.102c0-.235-.025-.457-.076-.667a1.724 1.724 0 0 0-.232-.551 1.195 1.195 0 0 0-.398-.379 1.115 1.115 0 0 0-.573-.141c-.222 0-.411.047-.57.141-.157.095-.288.22-.392.379-.104.157-.18.341-.23.551-.048.21-.073.432-.073.667v.102zm4.507-.092c0-.4.048-.767.144-1.099a2.58 2.58 0 0 1 .415-.855c.18-.237.4-.421.657-.551a1.9 1.9 0 0 1 .869-.196c.293 0 .55.05.774.152.223.1.417.246.583.434v-2.705h1.187v7.5h-1.074l-.059-.547c-.17.205-.37.364-.603.476a1.863 1.863 0 0 1-.818.169c-.319 0-.606-.068-.862-.203a1.95 1.95 0 0 1-.652-.559 2.656 2.656 0 0 1-.415-.847 3.716 3.716 0 0 1-.146-1.067v-.102zm1.186.102c0 .235.022.455.066.662.044.206.114.388.21.544.096.156.22.28.369.369.15.09.332.134.547.134.267 0 .486-.06.657-.178.17-.119.306-.276.407-.471v-2.256a1.2 1.2 0 0 0-.41-.464 1.145 1.145 0 0 0-.644-.17 1.05 1.05 0 0 0-.55.136 1.094 1.094 0 0 0-.37.37 1.75 1.75 0 0 0-.213.55 3.16 3.16 0 0 0-.069.672v.102zm8.59 2.578h-1.231v-7.11h1.23v7.11zm2.753-2.641v2.641h-1.235v-7.11h2.72c.413 0 .78.057 1.1.17.321.112.592.269.814.47.221.202.39.442.505.718.116.277.173.578.173.904 0 .345-.057.654-.173.927a1.838 1.838 0 0 1-.505.694 2.299 2.299 0 0 1-.813.434 3.667 3.667 0 0 1-1.101.152h-1.485zm0-.992h1.485c.237 0 .441-.029.612-.087.171-.059.312-.142.423-.25a.956.956 0 0 0 .241-.383c.05-.148.076-.31.076-.486a1.5 1.5 0 0 0-.076-.478 1.095 1.095 0 0 0-.241-.408 1.176 1.176 0 0 0-.423-.283 1.614 1.614 0 0 0-.612-.105h-1.485v2.48zM444.745 116h-1.182v-5.708l-1.743.596v-1.001l2.774-1.02h.151V116zm7.105-2.993c0 .563-.056 1.04-.166 1.433-.111.392-.267.711-.47.957a1.756 1.756 0 0 1-.73.535c-.284.11-.602.166-.954.166-.348 0-.665-.056-.952-.166a1.789 1.789 0 0 1-.737-.535c-.205-.246-.364-.565-.476-.957-.113-.392-.169-.87-.169-1.433v-1.148c0-.563.056-1.04.166-1.43.111-.39.268-.707.471-.95.204-.243.449-.417.735-.525.287-.107.604-.161.953-.161.351 0 .67.054.957.161.286.108.531.282.734.525.204.243.36.56.472.95.11.39.166.867.166 1.43v1.148zm-1.187-1.328c0-.362-.025-.665-.076-.91a1.747 1.747 0 0 0-.222-.597.87.87 0 0 0-.359-.327 1.127 1.127 0 0 0-.485-.1 1.12 1.12 0 0 0-.486.1.87.87 0 0 0-.36.327c-.097.152-.17.35-.221.596a4.66 4.66 0 0 0-.076.91v1.5c0 .358.026.662.078.913.052.25.127.454.225.61.097.156.218.27.361.342.143.072.306.107.488.107.186 0 .349-.035.489-.107a.899.899 0 0 0 .354-.342 1.84 1.84 0 0 0 .217-.61 4.86 4.86 0 0 0 .073-.913v-1.5zm2.363 3.73a.65.65 0 0 1 .181-.471c.12-.125.29-.188.508-.188.221 0 .392.063.513.188.12.125.18.282.18.471a.63.63 0 0 1-.18.462c-.12.122-.292.183-.513.183a.818.818 0 0 1-.29-.05.598.598 0 0 1-.352-.342.684.684 0 0 1-.047-.253zm7.3-2.402c0 .563-.055 1.04-.166 1.433-.11.392-.267.711-.469.957a1.756 1.756 0 0 1-.73.535c-.284.11-.603.166-.954.166-.348 0-.666-.056-.952-.166a1.789 1.789 0 0 1-.738-.535c-.205-.246-.363-.565-.476-.957-.112-.392-.168-.87-.168-1.433v-1.148c0-.563.055-1.04.166-1.43.11-.39.268-.707.471-.95a1.75 1.75 0 0 1 .735-.525c.286-.107.604-.161.952-.161.352 0 .67.054.957.161.287.108.532.282.735.525.203.243.36.56.471.95.11.39.166.867.166 1.43v1.148zm-1.186-1.328c0-.362-.026-.665-.076-.91a1.747 1.747 0 0 0-.222-.597.87.87 0 0 0-.36-.327 1.127 1.127 0 0 0-.485-.1c-.182 0-.344.033-.486.1a.87.87 0 0 0-.359.327c-.097.152-.171.35-.222.596a4.66 4.66 0 0 0-.076.91v1.5c0 .358.027.662.079.913.052.25.127.454.224.61.098.156.218.27.362.342.143.072.306.107.488.107.185 0 .348-.035.488-.107a.899.899 0 0 0 .354-.342 1.84 1.84 0 0 0 .217-.61 4.86 4.86 0 0 0 .074-.913v-1.5zm2.363 3.73c0-.189.06-.346.18-.471.121-.125.29-.188.508-.188.222 0 .393.063.513.188s.18.282.18.471a.63.63 0 0 1-.18.462c-.12.122-.291.183-.513.183a.818.818 0 0 1-.29-.05.598.598 0 0 1-.352-.342.684.684 0 0 1-.046-.253zm7.3-2.402c0 .563-.056 1.04-.166 1.433-.111.392-.267.711-.469.957a1.756 1.756 0 0 1-.73.535c-.285.11-.603.166-.955.166-.348 0-.665-.056-.952-.166a1.789 1.789 0 0 1-.737-.535c-.205-.246-.364-.565-.476-.957-.112-.392-.169-.87-.169-1.433v-1.148c0-.563.056-1.04.166-1.43.111-.39.268-.707.472-.95.203-.243.448-.417.734-.525.287-.107.604-.161.953-.161.351 0 .67.054.957.161.286.108.531.282.735.525.203.243.36.56.47.95.111.39.167.867.167 1.43v1.148zm-1.187-1.328c0-.362-.025-.665-.075-.91a1.747 1.747 0 0 0-.223-.597.87.87 0 0 0-.359-.327 1.127 1.127 0 0 0-.485-.1 1.12 1.12 0 0 0-.486.1.87.87 0 0 0-.36.327c-.097.152-.17.35-.221.596a4.66 4.66 0 0 0-.076.91v1.5c0 .358.026.662.078.913.052.25.127.454.225.61.097.156.218.27.361.342.143.072.306.107.488.107.186 0 .349-.035.489-.107a.899.899 0 0 0 .354-.342 1.84 1.84 0 0 0 .217-.61 4.86 4.86 0 0 0 .073-.913v-1.5zm2.363 3.73a.65.65 0 0 1 .181-.471c.12-.125.29-.188.508-.188.221 0 .392.063.513.188.12.125.18.282.18.471a.63.63 0 0 1-.18.462c-.12.122-.292.183-.513.183a.818.818 0 0 1-.29-.05.598.598 0 0 1-.352-.342.684.684 0 0 1-.047-.253zm7.447.591h-4.78v-.815l2.314-2.525c.195-.215.357-.406.486-.574a3.76 3.76 0 0 0 .307-.459 1.448 1.448 0 0 0 .137-1.201 1.04 1.04 0 0 0-.205-.359.94.94 0 0 0-.33-.236 1.111 1.111 0 0 0-.449-.086c-.205 0-.383.033-.534.098a1.016 1.016 0 0 0-.376.27 1.16 1.16 0 0 0-.225.416c-.05.16-.076.338-.076.53h-1.186c0-.313.053-.607.158-.882a2.05 2.05 0 0 1 .467-.72c.205-.205.457-.367.757-.486s.64-.178 1.025-.178c.355 0 .67.046.947.14.277.092.51.223.701.392.19.17.335.375.435.618.099.242.148.512.148.808 0 .221-.035.44-.107.657-.072.216-.17.432-.298.647-.127.215-.278.43-.454.647a11.47 11.47 0 0 1-.576.652l-1.587 1.699h3.3V116zm5.537-2.993c0 .563-.055 1.04-.166 1.433-.11.392-.267.711-.469.957a1.756 1.756 0 0 1-.73.535 2.63 2.63 0 0 1-.954.166 2.64 2.64 0 0 1-.953-.166 1.789 1.789 0 0 1-.737-.535c-.205-.246-.364-.565-.476-.957-.112-.392-.168-.87-.168-1.433v-1.148c0-.563.055-1.04.166-1.43.11-.39.267-.707.47-.95.204-.243.45-.417.736-.525.286-.107.603-.161.952-.161.351 0 .67.054.957.161.286.108.531.282.735.525.203.243.36.56.47.95.112.39.167.867.167 1.43v1.148zm-1.187-1.328c0-.362-.025-.665-.075-.91a1.747 1.747 0 0 0-.222-.597.87.87 0 0 0-.36-.327 1.127 1.127 0 0 0-.485-.1c-.183 0-.344.033-.486.1a.87.87 0 0 0-.359.327c-.098.152-.172.35-.222.596a4.66 4.66 0 0 0-.076.91v1.5c0 .358.026.662.078.913.052.25.127.454.225.61.098.156.218.27.361.342.144.072.306.107.489.107.185 0 .348-.035.488-.107a.899.899 0 0 0 .354-.342 1.84 1.84 0 0 0 .217-.61 4.86 4.86 0 0 0 .073-.913v-1.5zm5.45 4.321h-1.182v-5.708l-1.743.596v-1.001l2.773-1.02h.152V116z" fill="#000"/><path d="M457.29 58h-.943l-3.58-5.479V58h-.942v-7.11h.943l3.588 5.504V50.89h.933V58zm1.283-2.69c0-.385.056-.74.169-1.067.112-.327.272-.611.478-.852.207-.241.458-.43.755-.567a2.35 2.35 0 0 1 .996-.205c.374 0 .71.068 1.008.205.298.137.55.326.76.567.208.24.367.525.478.852.11.327.166.682.166 1.067v.107c0 .384-.056.74-.166 1.067-.11.327-.27.61-.479.85-.208.239-.46.426-.757.561-.296.135-.63.203-1 .203-.372 0-.705-.068-1.002-.203a2.202 2.202 0 0 1-.756-.562 2.527 2.527 0 0 1-.481-.85 3.266 3.266 0 0 1-.169-1.066v-.107zm.908.107c0 .264.031.513.093.747a1.9 1.9 0 0 0 .281.618c.125.177.282.318.469.422.187.104.406.156.656.156.248 0 .466-.052.655-.156.189-.104.345-.245.469-.422a1.97 1.97 0 0 0 .28-.618 2.82 2.82 0 0 0 .095-.747v-.107c0-.26-.031-.51-.095-.745a1.935 1.935 0 0 0-.283-.62 1.326 1.326 0 0 0-1.13-.583c-.248 0-.464.052-.65.158a1.436 1.436 0 0 0-.466.425 1.897 1.897 0 0 0-.28.62 2.926 2.926 0 0 0-.094.745v.107zm4.815-.103c0-.403.05-.77.149-1.1.1-.331.24-.614.422-.85a1.93 1.93 0 0 1 .657-.55 1.86 1.86 0 0 1 .857-.195c.322 0 .604.055.845.164.24.109.449.266.625.47V50.5h.903V58h-.83l-.044-.566a1.772 1.772 0 0 1-.635.493c-.247.114-.539.17-.874.17-.31 0-.592-.066-.847-.2a1.96 1.96 0 0 1-.657-.559 2.663 2.663 0 0 1-.422-.85 3.677 3.677 0 0 1-.15-1.071v-.103zm.903.103c0 .264.027.512.08.745.054.232.138.435.252.608.114.172.259.309.435.41.176.1.386.151.63.151.16 0 .302-.019.43-.056a1.257 1.257 0 0 0 .617-.403c.08-.094.149-.198.208-.312v-2.427a1.727 1.727 0 0 0-.205-.298 1.26 1.26 0 0 0-.616-.393 1.5 1.5 0 0 0-.425-.056c-.247 0-.46.051-.637.154a1.276 1.276 0 0 0-.437.417c-.114.176-.198.38-.251.613-.054.233-.08.48-.08.744v.103zm7.149 2.68c-.368 0-.701-.063-.999-.19a2.229 2.229 0 0 1-1.252-1.338 2.973 2.973 0 0 1-.171-1.025v-.205c0-.43.064-.814.193-1.152.128-.339.3-.624.515-.855.215-.231.46-.408.737-.53.277-.122.565-.183.864-.183.378 0 .703.066.977.198.273.132.499.313.676.544.178.231.309.505.393.82.085.316.127.66.127 1.03v.406h-3.579c.007.244.046.472.12.684.073.211.177.395.312.552a1.466 1.466 0 0 0 1.135.507c.32 0 .59-.065.811-.195.221-.13.415-.303.581-.518l.552.43c-.085.13-.187.256-.308.379-.12.122-.261.23-.422.327a2.222 2.222 0 0 1-.554.23 2.688 2.688 0 0 1-.708.085zm-.113-4.736c-.182 0-.35.034-.503.1-.153.067-.29.164-.41.291-.12.127-.22.285-.3.474a2.4 2.4 0 0 0-.164.649h2.647v-.068a2.5 2.5 0 0 0-.086-.523 1.419 1.419 0 0 0-.22-.464 1.132 1.132 0 0 0-.383-.332 1.208 1.208 0 0 0-.58-.127zm8.57 4.639h-.909v-6.02l-1.82.668v-.82l2.587-.972h.142V58z" fill="#757575"/><path d="M444.65 84.512l1.963-4.043h1.64l-2.858 5.39V89h-1.489v-3.14l-2.865-5.391h1.647l1.962 4.043zm3.745 1.26c0-.461.067-.888.202-1.28.134-.393.328-.734.58-1.023.252-.29.56-.516.923-.68a2.973 2.973 0 0 1 1.236-.246c.465 0 .88.082 1.248.246.367.164.677.39.929.68a3 3 0 0 1 .577 1.022c.133.393.2.82.2 1.28v.124c0 .46-.067.888-.2 1.283a2.963 2.963 0 0 1-.577 1.022c-.252.287-.56.512-.926.674a3.024 3.024 0 0 1-1.24.243 3.04 3.04 0 0 1-1.244-.243 2.637 2.637 0 0 1-.926-.674 3 3 0 0 1-.58-1.022 3.945 3.945 0 0 1-.202-1.283v-.124zm1.423.123c0 .285.03.554.088.808.059.254.15.476.276.665.125.19.284.339.477.448.194.11.423.164.689.164.261 0 .489-.054.682-.164.194-.109.352-.258.475-.448s.215-.411.275-.665c.06-.254.091-.523.091-.808v-.124c0-.28-.03-.547-.09-.8a2.07 2.07 0 0 0-.279-.661 1.434 1.434 0 0 0-.478-.455 1.338 1.338 0 0 0-.688-.17 1.31 1.31 0 0 0-.683.17 1.45 1.45 0 0 0-.471.455c-.125.189-.217.41-.276.662a3.522 3.522 0 0 0-.088.8v.123zm9.516 2.484c-.2.234-.445.416-.738.545-.293.129-.64.193-1.043.193a2.61 2.61 0 0 1-.853-.132 1.65 1.65 0 0 1-.659-.416 1.923 1.923 0 0 1-.428-.732 3.357 3.357 0 0 1-.152-1.075V82.66h1.424v4.113c0 .23.027.421.082.572a.97.97 0 0 0 .22.363.761.761 0 0 0 .319.193c.121.037.248.056.38.056.368 0 .665-.066.891-.2a1.27 1.27 0 0 0 .51-.544V82.66h1.424V89h-1.342l-.035-.621zm6.146-4.418a3.42 3.42 0 0 0-.58-.047c-.343 0-.623.066-.837.2a1.222 1.222 0 0 0-.481.55V89h-1.424v-6.34h1.36l.035.71c.16-.259.358-.46.594-.607a1.55 1.55 0 0 1 .835-.22 1.754 1.754 0 0 1 .504.082l-.006 1.336zm8.801 3.053h-3.304L470.285 89h-1.54l3.222-8.531h1.33L476.525 89h-1.546l-.698-1.986zm-2.888-1.196h2.472l-1.236-3.539-1.236 3.54zm11.232.077c0 .46-.054.888-.161 1.283a3.106 3.106 0 0 1-.475 1.022 2.244 2.244 0 0 1-.773.674 2.216 2.216 0 0 1-1.052.243c-.363 0-.682-.058-.955-.176a2.052 2.052 0 0 1-.715-.51v3.006h-1.424V82.66h1.313l.058.645c.204-.246.445-.435.724-.566.28-.13.606-.196.981-.196.403 0 .758.078 1.067.234.308.157.567.376.776.66.21.283.367.623.475 1.02.107.396.161.834.161 1.314v.124zm-1.418-.124a3.6 3.6 0 0 0-.085-.802 2.107 2.107 0 0 0-.26-.656 1.303 1.303 0 0 0-.452-.443 1.29 1.29 0 0 0-.662-.161c-.312 0-.57.064-.773.193a1.363 1.363 0 0 0-.48.528v2.812c.116.223.276.402.477.536.2.135.464.202.788.202.258 0 .477-.055.659-.167a1.34 1.34 0 0 0 .448-.45c.117-.19.203-.412.258-.666a3.78 3.78 0 0 0 .082-.802v-.124zm8.174.124c0 .46-.054.888-.161 1.283a3.106 3.106 0 0 1-.475 1.022 2.244 2.244 0 0 1-.773.674 2.216 2.216 0 0 1-1.052.243c-.363 0-.682-.058-.955-.176a2.052 2.052 0 0 1-.715-.51v3.006h-1.424V82.66h1.313l.058.645c.203-.246.445-.435.724-.566.28-.13.606-.196.981-.196.403 0 .758.078 1.067.234.308.157.567.376.776.66.21.283.367.623.475 1.02.107.396.16.834.16 1.314v.124zm-1.418-.124a3.6 3.6 0 0 0-.085-.802 2.107 2.107 0 0 0-.26-.656 1.303 1.303 0 0 0-.452-.443 1.29 1.29 0 0 0-.662-.161c-.313 0-.57.064-.774.193a1.363 1.363 0 0 0-.48.528v2.812c.117.223.276.402.478.536.2.135.463.202.788.202.257 0 .477-.055.659-.167.181-.11.33-.261.448-.45.117-.19.203-.412.258-.666a3.78 3.78 0 0 0 .082-.802v-.124z" fill="#212121"/><path d="M396 238c-1.105 0-2-.404-2-.902v-50.512c0-.499.895-.902 2-.902h140c1.105 0 2 .403 2 .902v50.512c0 .498-.895.902-2 .902H396z" stroke="#E0E0E0" fill="#FFF"/><path d="M444.438 206.853c0-.144-.02-.271-.063-.384a.759.759 0 0 0-.232-.31 1.926 1.926 0 0 0-.464-.27 7.133 7.133 0 0 0-.76-.272 7.315 7.315 0 0 1-.937-.346 3.238 3.238 0 0 1-.74-.455 1.944 1.944 0 0 1-.485-.595 1.643 1.643 0 0 1-.176-.772c0-.286.061-.55.183-.79.122-.242.294-.45.515-.626.222-.176.487-.312.796-.41.31-.098.651-.146 1.026-.146.4 0 .76.057 1.079.173.319.115.588.273.808.471a2.028 2.028 0 0 1 .681 1.528h-1.23a1.36 1.36 0 0 0-.081-.476.989.989 0 0 0-.247-.376 1.135 1.135 0 0 0-.42-.246 1.84 1.84 0 0 0-.6-.088c-.218 0-.407.024-.567.073-.16.049-.292.117-.398.205a.809.809 0 0 0-.234.313 1 1 0 0 0-.076.39c0 .264.125.484.374.66.249.175.629.338 1.14.488.4.117.747.247 1.04.39.293.144.536.306.73.486.194.18.338.384.432.61.095.227.142.482.142.765 0 .3-.06.569-.178.808-.12.24-.288.443-.508.61-.22.168-.486.296-.799.386a3.79 3.79 0 0 1-1.044.134c-.342 0-.68-.046-1.011-.139a2.858 2.858 0 0 1-.894-.42 2.188 2.188 0 0 1-.637-.7 1.943 1.943 0 0 1-.242-.987h1.236c0 .225.04.418.12.579.08.16.188.293.326.395.139.103.302.178.491.225.189.047.392.07.61.07.43 0 .753-.086.97-.26a.843.843 0 0 0 .324-.691zm4.532 1.928c-.39 0-.742-.065-1.055-.195a2.322 2.322 0 0 1-.796-.537 2.35 2.35 0 0 1-.503-.81 2.855 2.855 0 0 1-.176-1.011v-.196c0-.416.062-.793.186-1.13a2.58 2.58 0 0 1 .508-.86c.215-.236.468-.418.76-.546.29-.129.604-.193.939-.193.384 0 .718.064 1.001.193.283.128.518.308.703.54.186.23.324.505.415.824.091.32.137.67.137 1.05v.508h-3.452c.016.205.06.394.13.566a1.313 1.313 0 0 0 1.272.85c.292 0 .547-.059.763-.176a1.79 1.79 0 0 0 .564-.483l.64.61a2.168 2.168 0 0 1-.755.686 2.528 2.528 0 0 1-.568.225 2.75 2.75 0 0 1-.713.085zm-.142-4.526a1 1 0 0 0-.788.342c-.2.228-.328.545-.384.952h2.261v-.088a2.165 2.165 0 0 0-.076-.452 1.151 1.151 0 0 0-.188-.385.909.909 0 0 0-.33-.269c-.134-.067-.3-.1-.495-.1zm5.947.23a2.85 2.85 0 0 0-.483-.04c-.286 0-.52.056-.698.166-.18.111-.313.264-.4.46v3.613h-1.187V203.4h1.133l.029.591c.133-.215.299-.383.496-.505a1.29 1.29 0 0 1 .695-.183 1.4 1.4 0 0 1 .42.068l-.005 1.113zm2.7 2.695l1.119-3.78h1.225l-1.83 5.284h-1.031l-1.846-5.284h1.23l1.134 3.78zm4.346 1.504h-1.186V203.4h1.186v5.284zm-1.26-6.656a.63.63 0 0 1 .174-.454c.115-.12.28-.18.495-.18.215 0 .381.06.499.18.117.12.175.272.175.454a.61.61 0 0 1-.175.447c-.118.119-.284.178-.499.178-.214 0-.38-.06-.495-.178a.615.615 0 0 1-.173-.447zm4.722 5.806c.143 0 .278-.022.403-.066a.94.94 0 0 0 .552-.471.876.876 0 0 0 .095-.361h1.118c-.01.253-.072.493-.188.717-.115.225-.27.421-.464.589a2.18 2.18 0 0 1-.676.395 2.34 2.34 0 0 1-.825.144c-.407 0-.761-.07-1.062-.21a2.128 2.128 0 0 1-.752-.571 2.37 2.37 0 0 1-.447-.845 3.517 3.517 0 0 1-.146-1.025v-.171c0-.361.048-.703.146-1.025.098-.323.247-.605.447-.848.2-.242.45-.433.75-.573.299-.14.652-.21 1.059-.21.319 0 .61.049.872.146a1.877 1.877 0 0 1 1.113 1.04c.106.244.163.513.173.806h-1.118a1.231 1.231 0 0 0-.085-.4.982.982 0 0 0-.535-.557 1.065 1.065 0 0 0-.43-.083c-.24 0-.44.05-.596.149a1.1 1.1 0 0 0-.37.388 1.64 1.64 0 0 0-.189.547 3.766 3.766 0 0 0-.05.62v.17c0 .216.016.425.05.628.035.204.097.385.188.545.092.16.214.288.37.386.154.097.353.146.597.146zm5.39.947c-.39 0-.741-.065-1.054-.195a2.322 2.322 0 0 1-.796-.537 2.35 2.35 0 0 1-.503-.81 2.855 2.855 0 0 1-.175-1.011v-.196c0-.416.061-.793.185-1.13a2.58 2.58 0 0 1 .508-.86c.215-.236.468-.418.76-.546.29-.129.604-.193.94-.193.383 0 .717.064 1 .193.283.128.518.308.703.54.186.23.324.505.415.824.091.32.137.67.137 1.05v.508h-3.452c.016.205.06.394.13.566a1.313 1.313 0 0 0 1.272.85c.292 0 .547-.059.763-.176a1.79 1.79 0 0 0 .564-.483l.64.61a2.168 2.168 0 0 1-.754.686 2.528 2.528 0 0 1-.57.225c-.21.057-.448.085-.712.085zm-.14-4.526a1 1 0 0 0-.79.342c-.2.228-.327.545-.383.952h2.261v-.088a2.165 2.165 0 0 0-.076-.452 1.151 1.151 0 0 0-.188-.385.909.909 0 0 0-.33-.269c-.134-.067-.3-.1-.495-.1zm7.09 4.429h-1.231v-7.11h1.23v7.11zm2.753-2.642v2.642h-1.235v-7.11h2.72c.413 0 .78.056 1.1.169.321.112.592.269.813.47.222.203.39.442.506.719.115.276.173.577.173.903 0 .345-.058.654-.173.928a1.838 1.838 0 0 1-.506.693 2.299 2.299 0 0 1-.813.435c-.32.1-.687.151-1.1.151h-1.485zm0-.991h1.484c.238 0 .442-.03.613-.088.171-.059.312-.142.423-.25a.956.956 0 0 0 .241-.382c.05-.149.076-.31.076-.486 0-.166-.025-.326-.076-.479a1.095 1.095 0 0 0-.241-.408 1.176 1.176 0 0 0-.423-.283 1.614 1.614 0 0 0-.613-.105h-1.484v2.48zm-30.631 16.633h-1.182v-5.708l-1.743.595v-1l2.774-1.021h.151v7.134zm2.598-.591c0-.189.06-.346.18-.471.12-.126.29-.188.508-.188.222 0 .393.062.513.188.12.125.18.282.18.47a.63.63 0 0 1-.18.462c-.12.122-.291.183-.513.183a.818.818 0 0 1-.29-.049.598.598 0 0 1-.352-.342.684.684 0 0 1-.046-.253zm7.446.59h-4.78v-.815l2.314-2.524c.196-.215.358-.406.486-.574a3.76 3.76 0 0 0 .308-.459c.076-.138.13-.268.16-.388a1.448 1.448 0 0 0-.024-.813 1.04 1.04 0 0 0-.205-.359.946.946 0 0 0-.33-.237 1.111 1.111 0 0 0-.448-.085c-.206 0-.384.032-.535.097a1.016 1.016 0 0 0-.376.271 1.16 1.16 0 0 0-.225.415c-.05.162-.075.338-.075.53h-1.187c0-.312.053-.606.159-.881.106-.275.261-.515.466-.72.205-.205.457-.367.757-.486s.641-.178 1.025-.178c.355 0 .67.046.948.139.276.092.51.224.7.393.19.17.336.375.435.617.1.243.149.512.149.809 0 .22-.036.44-.108.656-.071.217-.17.432-.298.647-.126.215-.278.43-.454.647-.175.217-.367.434-.576.652l-1.587 1.7h3.301v.947zm1.03-.59a.65.65 0 0 1 .181-.471c.12-.126.29-.188.508-.188.221 0 .392.062.513.188.12.125.18.282.18.47a.63.63 0 0 1-.18.462c-.12.122-.292.183-.513.183a.818.818 0 0 1-.29-.049.598.598 0 0 1-.352-.342.684.684 0 0 1-.047-.253zm4.038-3.506h.704c.205 0 .382-.027.532-.08.15-.054.275-.128.376-.223a.87.87 0 0 0 .224-.342c.05-.133.074-.281.074-.444 0-.338-.09-.601-.267-.789-.177-.187-.448-.28-.812-.28-.157 0-.302.023-.435.07a1.042 1.042 0 0 0-.347.2.916.916 0 0 0-.23.313.988.988 0 0 0-.082.413h-1.187c0-.28.056-.539.169-.777a1.87 1.87 0 0 1 .468-.617c.2-.174.44-.31.718-.408.279-.098.582-.146.91-.146.34 0 .649.043.929.129.28.086.52.214.72.383.2.17.355.38.466.633.11.252.166.544.166.876 0 .143-.023.288-.068.435a1.607 1.607 0 0 1-.205.422 1.956 1.956 0 0 1-.82.681c.217.075.402.17.554.286a1.573 1.573 0 0 1 .576.857c.044.166.066.337.066.512 0 .332-.06.629-.181.89-.12.26-.287.478-.5.656a2.223 2.223 0 0 1-.757.405c-.292.093-.607.14-.945.14-.31 0-.605-.043-.886-.128a2.25 2.25 0 0 1-.745-.378 1.837 1.837 0 0 1-.513-.628c-.127-.25-.19-.54-.19-.869h1.186c0 .157.028.3.083.43.056.13.134.242.235.334.1.093.223.165.366.215.143.05.303.076.478.076.368 0 .658-.098.87-.293.211-.195.317-.478.317-.85 0-.201-.03-.376-.093-.522a.95.95 0 0 0-.263-.364 1.092 1.092 0 0 0-.413-.212 2 2 0 0 0-.544-.069h-.704v-.937zm4.439 3.506c0-.189.06-.346.18-.471.121-.126.29-.188.508-.188.222 0 .393.062.513.188.12.125.18.282.18.47a.63.63 0 0 1-.18.462c-.12.122-.291.183-.513.183a.818.818 0 0 1-.29-.049.598.598 0 0 1-.352-.342.684.684 0 0 1-.046-.253zm6.68-1.944h.883v.953h-.883v1.582h-1.187v-1.582h-3.071l-.034-.723 3.066-4.805h1.226v4.575zm-3.047 0h1.86v-2.968l-.088.156-1.772 2.812z" fill="#000"/><path d="M126.084 108.281l-.633.65V111h-1.424v-9h1.424v5.191l.445-.556 1.752-1.975h1.711l-2.355 2.643L129.61 111h-1.646l-1.881-2.719zm8.045 2.098c-.2.234-.445.416-.738.545-.293.129-.641.193-1.043.193a2.61 2.61 0 0 1-.853-.132 1.65 1.65 0 0 1-.66-.416 1.923 1.923 0 0 1-.427-.732 3.357 3.357 0 0 1-.152-1.075v-4.102h1.424v4.113c0 .23.027.421.082.572a.97.97 0 0 0 .22.363.761.761 0 0 0 .319.193c.12.037.248.056.38.056.368 0 .665-.066.891-.2a1.27 1.27 0 0 0 .51-.544v-4.553h1.424V111h-1.342l-.035-.621zm8.39-2.484c0 .468-.053.9-.16 1.294a3.107 3.107 0 0 1-.472 1.02 2.193 2.193 0 0 1-.774.668c-.308.16-.664.24-1.066.24a2.29 2.29 0 0 1-1.008-.208 2.032 2.032 0 0 1-.726-.595l-.07.686h-1.29v-9h1.424v3.27c.2-.235.435-.415.706-.54.271-.125.589-.187.952-.187.41 0 .77.08 1.078.237.309.158.568.38.777.665.209.285.366.626.471 1.023.106.396.159.83.159 1.303v.124zm-1.423-.124c0-.277-.023-.54-.068-.79a1.99 1.99 0 0 0-.231-.657 1.263 1.263 0 0 0-.437-.448c-.181-.111-.409-.167-.682-.167-.332 0-.604.073-.815.22-.21.146-.373.342-.486.589v2.613c.113.246.276.445.49.598.212.152.487.228.822.228.262 0 .483-.054.663-.161a1.25 1.25 0 0 0 .436-.44c.111-.185.19-.403.237-.653.047-.25.07-.52.07-.808v-.124zm5.408 3.346c-.469 0-.89-.078-1.266-.234a2.786 2.786 0 0 1-.955-.645 2.82 2.82 0 0 1-.603-.972 3.444 3.444 0 0 1-.211-1.213v-.235c0-.5.074-.952.222-1.356.149-.404.352-.748.61-1.031a2.69 2.69 0 0 1 .91-.657 2.77 2.77 0 0 1 1.129-.231c.46 0 .861.077 1.201.231.34.155.621.37.844.648.222.277.388.607.498.99.11.383.164.803.164 1.26v.61h-4.143c.02.245.072.472.156.679.084.207.198.386.342.536a1.576 1.576 0 0 0 1.184.483c.352 0 .657-.07.917-.21a2.16 2.16 0 0 0 .677-.58l.767.732a2.602 2.602 0 0 1-.905.823 3.034 3.034 0 0 1-.683.27 3.308 3.308 0 0 1-.855.102zm-.17-5.431c-.39 0-.706.136-.946.41-.24.273-.394.654-.46 1.142h2.713v-.105a2.598 2.598 0 0 0-.091-.542 1.382 1.382 0 0 0-.226-.463 1.09 1.09 0 0 0-.395-.322c-.162-.08-.36-.12-.595-.12zm6.58 2.261h-3.076V106.8h3.076v1.148zm.908-.164c0-.48.058-.92.173-1.318.115-.399.281-.74.498-1.026.217-.285.48-.505.788-.662a2.276 2.276 0 0 1 1.043-.234c.352 0 .661.06.929.182.268.12.5.295.7.521V102h1.424v9h-1.29l-.07-.656a2.13 2.13 0 0 1-.723.571c-.28.135-.606.202-.981.202-.383 0-.728-.08-1.035-.243a2.34 2.34 0 0 1-.782-.67 3.187 3.187 0 0 1-.498-1.017 4.459 4.459 0 0 1-.176-1.28v-.124zm1.424.123c0 .282.026.546.08.794.052.248.136.466.251.654a1.3 1.3 0 0 0 .443.442c.18.107.398.161.656.161.32 0 .583-.071.788-.214a1.53 1.53 0 0 0 .49-.565v-2.707a1.45 1.45 0 0 0-.493-.557c-.207-.137-.465-.205-.773-.205-.258 0-.478.055-.66.164-.181.11-.33.258-.445.445a2.1 2.1 0 0 0-.255.66 3.76 3.76 0 0 0-.082.805v.123zm6.938-3.246l.04.733c.223-.27.49-.479.803-.627a2.4 2.4 0 0 1 1.043-.223c.305 0 .581.042.83.126.247.084.46.22.635.407.176.188.312.432.407.733.096.3.144.666.144 1.095V111h-1.424v-4.107c0-.22-.024-.404-.073-.554a.9.9 0 0 0-.214-.366.807.807 0 0 0-.349-.202 1.686 1.686 0 0 0-.477-.062c-.293 0-.548.07-.765.21-.217.142-.39.331-.518.57V111h-1.424v-6.34h1.342zm8.906 4.617a.798.798 0 0 0-.05-.284.58.58 0 0 0-.196-.246 1.576 1.576 0 0 0-.413-.214 4.803 4.803 0 0 0-.695-.187 6.17 6.17 0 0 1-.928-.264 2.863 2.863 0 0 1-.718-.384c-.2-.15-.355-.327-.466-.53a1.44 1.44 0 0 1-.167-.703c0-.258.057-.503.17-.736a1.83 1.83 0 0 1 .49-.612c.212-.176.47-.315.773-.419a3.13 3.13 0 0 1 1.016-.155c.395 0 .75.052 1.064.155.314.104.58.246.8.428a1.844 1.844 0 0 1 .673 1.438h-1.423a.933.933 0 0 0-.07-.354.885.885 0 0 0-.212-.308 1.02 1.02 0 0 0-.348-.214 1.376 1.376 0 0 0-.484-.079c-.18 0-.336.023-.468.068a1.041 1.041 0 0 0-.332.176.691.691 0 0 0-.26.553c0 .106.02.2.058.281.04.083.109.157.208.223.1.067.234.128.402.185.168.056.379.112.632.167.368.078.697.17.988.275.29.106.537.234.738.387.201.152.355.332.46.539a1.6 1.6 0 0 1 .158.738c0 .281-.06.54-.181.774a1.782 1.782 0 0 1-.519.606c-.225.17-.495.302-.811.396-.317.093-.668.14-1.055.14a3.32 3.32 0 0 1-1.152-.184 2.64 2.64 0 0 1-.84-.484 2.014 2.014 0 0 1-.513-.677 1.835 1.835 0 0 1-.173-.77h1.383c.012.195.057.36.135.492.078.133.177.24.299.322.12.082.257.142.41.18.152.036.308.055.468.055.375 0 .66-.072.856-.214a.662.662 0 0 0 .293-.56z" fill="#212121"/><path d="M361.29 366h-.943l-3.58-5.479V366h-.942v-7.11h.943l3.588 5.504v-5.503h.933V366zm1.283-2.69c0-.385.056-.74.169-1.067.112-.327.272-.611.478-.852.207-.241.458-.43.755-.567a2.35 2.35 0 0 1 .996-.205c.374 0 .71.068 1.008.205.298.137.55.326.76.567.208.24.367.525.478.852.11.327.166.682.166 1.067v.107c0 .384-.056.74-.166 1.067-.11.327-.27.61-.479.85-.208.239-.46.426-.757.561-.296.135-.63.203-1 .203-.372 0-.705-.068-1.002-.203a2.202 2.202 0 0 1-.756-.562 2.527 2.527 0 0 1-.481-.85 3.266 3.266 0 0 1-.169-1.066v-.107zm.908.107c0 .264.031.513.093.747a1.9 1.9 0 0 0 .281.618c.125.177.282.318.469.422.187.104.406.156.656.156.248 0 .466-.052.655-.156.189-.104.345-.245.469-.422a1.97 1.97 0 0 0 .28-.618 2.82 2.82 0 0 0 .095-.747v-.107c0-.26-.031-.51-.095-.745a1.935 1.935 0 0 0-.283-.62 1.326 1.326 0 0 0-1.13-.583c-.248 0-.464.052-.65.158a1.436 1.436 0 0 0-.466.425 1.897 1.897 0 0 0-.28.62 2.926 2.926 0 0 0-.094.745v.107zm4.815-.103c0-.403.05-.77.149-1.1.1-.331.24-.614.422-.85a1.93 1.93 0 0 1 .657-.55 1.86 1.86 0 0 1 .857-.195c.322 0 .604.055.845.164.24.109.449.266.625.47V358.5h.903v7.5h-.83l-.044-.566a1.772 1.772 0 0 1-.635.493c-.247.114-.539.17-.874.17-.31 0-.592-.066-.847-.2a1.96 1.96 0 0 1-.657-.559 2.663 2.663 0 0 1-.422-.85 3.677 3.677 0 0 1-.15-1.071v-.103zm.903.103c0 .264.027.512.08.745.054.232.138.435.252.608.114.172.259.309.435.41.176.1.386.151.63.151.16 0 .302-.019.43-.056a1.257 1.257 0 0 0 .617-.403c.08-.094.149-.198.208-.312v-2.427a1.727 1.727 0 0 0-.205-.298 1.26 1.26 0 0 0-.616-.393 1.5 1.5 0 0 0-.425-.056c-.247 0-.46.051-.637.154a1.276 1.276 0 0 0-.437.417c-.114.176-.198.38-.251.613-.054.233-.08.48-.08.744v.103zm7.149 2.68c-.368 0-.701-.063-.999-.19a2.229 2.229 0 0 1-1.252-1.338 2.973 2.973 0 0 1-.171-1.025v-.205c0-.43.064-.814.193-1.152.128-.339.3-.624.515-.855.215-.231.46-.408.737-.53.277-.122.565-.183.864-.183.378 0 .703.066.977.198.273.132.499.313.676.544.178.231.309.505.393.82.085.316.127.66.127 1.03v.406h-3.579c.007.244.046.472.12.684.073.211.177.395.312.552a1.466 1.466 0 0 0 1.135.507c.32 0 .59-.065.811-.195.221-.13.415-.303.581-.518l.552.43c-.085.13-.187.256-.308.379-.12.122-.261.23-.422.327a2.222 2.222 0 0 1-.554.23 2.688 2.688 0 0 1-.708.085zm-.113-4.736c-.182 0-.35.034-.503.1-.153.067-.29.164-.41.291-.12.127-.22.285-.3.474a2.4 2.4 0 0 0-.164.649h2.647v-.068a2.5 2.5 0 0 0-.086-.523 1.419 1.419 0 0 0-.22-.464 1.132 1.132 0 0 0-.383-.332 1.208 1.208 0 0 0-.58-.127zm10.26 4.639h-4.66v-.65l2.33-2.587c.215-.238.393-.448.535-.63.141-.182.254-.35.337-.5.083-.152.14-.294.173-.425.033-.132.049-.267.049-.403a1.46 1.46 0 0 0-.083-.496 1.123 1.123 0 0 0-.625-.674 1.308 1.308 0 0 0-.528-.1c-.24 0-.45.036-.627.108-.177.071-.325.17-.442.297-.117.127-.205.28-.264.457a1.868 1.868 0 0 0-.087.588h-.904c0-.3.05-.582.15-.85.098-.266.246-.499.441-.697a2.09 2.09 0 0 1 .728-.472c.29-.115.625-.173 1.005-.173.336 0 .636.046.901.137.266.09.49.22.674.388.184.168.325.369.423.603a2 2 0 0 1 .039 1.406 3.575 3.575 0 0 1-.289.632c-.12.21-.262.419-.424.625-.163.207-.334.41-.513.608l-1.91 2.07h3.57V366zm162.795 0h-.943l-3.58-5.479V366h-.942v-7.11h.943l3.588 5.504v-5.503h.933V366zm1.283-2.69c0-.385.056-.74.169-1.067.112-.327.272-.611.478-.852.207-.241.458-.43.755-.567a2.35 2.35 0 0 1 .996-.205c.374 0 .71.068 1.008.205.298.137.55.326.76.567.208.24.367.525.478.852.11.327.166.682.166 1.067v.107c0 .384-.056.74-.166 1.067-.11.327-.27.61-.479.85-.208.239-.46.426-.757.561-.296.135-.63.203-1 .203-.372 0-.705-.068-1.002-.203a2.202 2.202 0 0 1-.756-.562 2.527 2.527 0 0 1-.481-.85 3.266 3.266 0 0 1-.169-1.066v-.107zm.908.107c0 .264.031.513.093.747a1.9 1.9 0 0 0 .281.618c.125.177.282.318.469.422.187.104.406.156.656.156.248 0 .466-.052.655-.156.189-.104.345-.245.469-.422a1.97 1.97 0 0 0 .28-.618 2.82 2.82 0 0 0 .095-.747v-.107c0-.26-.031-.51-.095-.745a1.935 1.935 0 0 0-.283-.62 1.326 1.326 0 0 0-1.13-.583c-.248 0-.464.052-.65.158a1.436 1.436 0 0 0-.466.425 1.897 1.897 0 0 0-.28.62 2.926 2.926 0 0 0-.094.745v.107zm4.815-.103c0-.403.05-.77.149-1.1.1-.331.24-.614.422-.85a1.93 1.93 0 0 1 .657-.55 1.86 1.86 0 0 1 .857-.195c.322 0 .604.055.845.164.24.109.449.266.625.47V358.5h.903v7.5h-.83l-.044-.566a1.772 1.772 0 0 1-.635.493c-.247.114-.539.17-.874.17-.31 0-.592-.066-.847-.2a1.96 1.96 0 0 1-.657-.559 2.663 2.663 0 0 1-.422-.85 3.677 3.677 0 0 1-.15-1.071v-.103zm.903.103c0 .264.027.512.08.745.054.232.138.435.252.608.114.172.259.309.435.41.176.1.386.151.63.151.16 0 .302-.019.43-.056a1.257 1.257 0 0 0 .617-.403c.08-.094.149-.198.208-.312v-2.427a1.727 1.727 0 0 0-.205-.298 1.26 1.26 0 0 0-.616-.393 1.5 1.5 0 0 0-.425-.056c-.247 0-.46.051-.637.154a1.276 1.276 0 0 0-.437.417c-.114.176-.198.38-.251.613-.054.233-.08.48-.08.744v.103zm7.149 2.68c-.368 0-.701-.063-.999-.19a2.229 2.229 0 0 1-1.252-1.338 2.973 2.973 0 0 1-.171-1.025v-.205c0-.43.064-.814.193-1.152.128-.339.3-.624.515-.855.215-.231.46-.408.737-.53.277-.122.565-.183.864-.183.378 0 .703.066.977.198.273.132.499.313.676.544.178.231.309.505.393.82.085.316.127.66.127 1.03v.406h-3.579c.007.244.046.472.12.684.073.211.177.395.312.552a1.466 1.466 0 0 0 1.135.507c.32 0 .59-.065.811-.195.221-.13.415-.303.581-.518l.552.43c-.085.13-.187.256-.308.379-.12.122-.261.23-.422.327a2.222 2.222 0 0 1-.554.23 2.688 2.688 0 0 1-.708.085zm-.113-4.736c-.182 0-.35.034-.503.1-.153.067-.29.164-.41.291-.12.127-.22.285-.3.474a2.4 2.4 0 0 0-.164.649h2.647v-.068a2.5 2.5 0 0 0-.086-.523 1.419 1.419 0 0 0-.22-.464 1.132 1.132 0 0 0-.383-.332 1.208 1.208 0 0 0-.58-.127zm6.914.645h.645c.234 0 .44-.031.615-.093.176-.062.322-.147.44-.256a1.05 1.05 0 0 0 .263-.386 1.31 1.31 0 0 0 .088-.486c0-.407-.102-.717-.307-.93-.206-.213-.518-.32-.938-.32-.192 0-.367.029-.525.086a1.087 1.087 0 0 0-.667.63c-.061.15-.092.32-.092.505h-.903a1.85 1.85 0 0 1 .6-1.39 2.12 2.12 0 0 1 .691-.42c.269-.102.567-.153.896-.153.322 0 .615.043.879.13.264.086.49.213.676.38.187.168.333.377.437.628.104.25.157.542.157.874 0 .133-.022.273-.066.42-.044.146-.111.29-.2.43a1.866 1.866 0 0 1-.852.698c.234.074.43.173.588.295a1.548 1.548 0 0 1 .579.881c.038.166.058.33.058.489 0 .332-.057.627-.171.886a1.827 1.827 0 0 1-.474.652c-.201.175-.439.31-.712.402-.274.093-.572.14-.894.14-.31 0-.6-.043-.874-.13a2.136 2.136 0 0 1-.718-.38 1.804 1.804 0 0 1-.486-.62 1.912 1.912 0 0 1-.178-.843h.908c0 .186.031.354.093.505.062.152.151.282.269.391.117.109.258.193.424.251.166.06.354.088.562.088.208 0 .395-.027.561-.08.167-.054.308-.136.425-.247.117-.11.207-.249.269-.415.062-.166.093-.36.093-.58 0-.222-.036-.414-.108-.577a1.048 1.048 0 0 0-.305-.403 1.32 1.32 0 0 0-.476-.237 2.312 2.312 0 0 0-.625-.078h-.645v-.737z" fill="#757575"/><path d="M261.255 73.675c0 .687-.11 1.278-.327 1.775-.218.496-.524.884-.918 1.164l1.27.996-.64.591-1.5-1.191a3.05 3.05 0 0 1-.742.088c-.42 0-.805-.078-1.157-.235a2.544 2.544 0 0 1-.908-.678 3.165 3.165 0 0 1-.59-1.077c-.14-.422-.21-.9-.21-1.433v-.45c0-.53.07-1.008.21-1.433.14-.424.334-.785.585-1.081.25-.296.552-.523.903-.681a2.792 2.792 0 0 1 1.158-.237c.433 0 .826.079 1.179.237.353.158.655.385.906.68.25.297.443.658.578 1.082.135.425.203.903.203 1.434v.449zm-.938-.46a4.4 4.4 0 0 0-.129-1.122 2.387 2.387 0 0 0-.376-.82 1.607 1.607 0 0 0-.605-.503 1.88 1.88 0 0 0-.818-.171c-.29 0-.553.057-.789.17a1.658 1.658 0 0 0-.605.503 2.43 2.43 0 0 0-.389.82c-.09.326-.136.7-.136 1.124v.459c0 .426.046.802.139 1.128.093.325.223.6.39.822.168.223.37.392.608.506.238.114.502.17.791.17.306 0 .578-.056.816-.17.237-.114.439-.283.603-.506a2.37 2.37 0 0 0 .373-.822c.085-.326.127-.702.127-1.128v-.46zm5.503 3.263a1.683 1.683 0 0 1-.63.456 2.32 2.32 0 0 1-.918.164c-.26 0-.496-.037-.708-.11a1.378 1.378 0 0 1-.546-.347 1.578 1.578 0 0 1-.354-.61 2.866 2.866 0 0 1-.125-.901v-3.413h.903v3.423c0 .237.028.433.083.588a.955.955 0 0 0 .22.366c.091.09.195.152.313.186.117.034.237.051.36.051.369 0 .664-.07.887-.21.223-.14.387-.327.49-.561v-3.843h.904V77h-.86l-.019-.522zm4.444.62c-.368 0-.701-.064-.999-.19a2.229 2.229 0 0 1-1.252-1.339 2.973 2.973 0 0 1-.171-1.025v-.205c0-.43.064-.814.193-1.152.128-.339.3-.624.515-.855.215-.231.46-.408.737-.53.277-.122.565-.183.864-.183.378 0 .703.066.977.198.273.132.499.313.676.544.178.231.309.505.393.82.085.316.127.66.127 1.03v.406h-3.579c.007.244.047.472.12.684.073.211.177.395.312.552a1.466 1.466 0 0 0 1.136.507c.319 0 .589-.065.81-.195.221-.13.415-.303.581-.518l.552.43c-.085.13-.187.256-.308.379-.12.122-.261.23-.422.327a2.222 2.222 0 0 1-.554.23 2.688 2.688 0 0 1-.708.085zm-.113-4.737c-.182 0-.35.034-.503.1-.153.067-.29.164-.41.291-.12.127-.22.285-.3.474a2.4 2.4 0 0 0-.164.649h2.647v-.068a2.5 2.5 0 0 0-.086-.523 1.419 1.419 0 0 0-.22-.464 1.132 1.132 0 0 0-.383-.332 1.208 1.208 0 0 0-.58-.127zm5.772.166a2.39 2.39 0 0 0-.444-.034c-.313 0-.568.069-.765.205-.197.137-.344.32-.442.552V77h-.903v-5.283h.879l.015.61a1.59 1.59 0 0 1 .512-.517c.205-.127.454-.19.747-.19a1.335 1.335 0 0 1 .4.067v.84zm2.558 3.15l1.23-3.96h.968l-2.124 6.098a4.14 4.14 0 0 1-.19.425c-.079.153-.18.296-.306.427a1.648 1.648 0 0 1-.452.333 1.35 1.35 0 0 1-.747.124 4.544 4.544 0 0 1-.38-.068v-.733a.38.38 0 0 0 .053.008 14.994 14.994 0 0 0 .19.012c.154 0 .289-.015.406-.044a.887.887 0 0 0 .312-.144.9.9 0 0 0 .237-.266 2.12 2.12 0 0 0 .183-.41l.2-.538-1.884-5.224h.986l1.318 3.96zm2.974.85a.56.56 0 0 1 .14-.391c.092-.104.231-.157.417-.157.185 0 .326.053.422.157a.554.554 0 0 1 .144.39c0 .15-.048.275-.144.376-.096.101-.237.152-.422.152-.186 0-.325-.05-.418-.152a.535.535 0 0 1-.139-.376zm.005-4.312c0-.156.046-.287.14-.39.092-.105.231-.157.417-.157.185 0 .326.052.422.156a.554.554 0 0 1 .144.39c0 .15-.048.276-.144.377-.096.1-.237.151-.422.151-.186 0-.325-.05-.418-.151a.535.535 0 0 1-.139-.376zm5.771-.498l.025.586c.182-.215.403-.383.661-.503.26-.12.561-.18.906-.18.342 0 .644.067.906.202s.463.35.603.647c.176-.254.404-.46.686-.615.282-.157.614-.235.999-.235.283 0 .533.037.752.11.218.073.402.188.554.344.151.156.266.355.344.596.078.24.117.527.117.86V77h-.903v-3.477a1.62 1.62 0 0 0-.08-.551.86.86 0 0 0-.228-.352.81.81 0 0 0-.356-.183 1.956 1.956 0 0 0-.464-.051c-.186 0-.35.029-.493.088a1.117 1.117 0 0 0-.613.588c-.06.135-.098.28-.115.432V77h-.908v-3.472c0-.205-.027-.38-.08-.525a.905.905 0 0 0-.228-.354.893.893 0 0 0-.354-.2 1.592 1.592 0 0 0-.466-.063c-.322 0-.581.07-.776.21-.196.14-.342.322-.44.547V77h-.903v-5.283h.854zm9.644 3.96l1.23-3.96h.967l-2.124 6.098a4.14 4.14 0 0 1-.19.425c-.078.153-.18.296-.305.427A1.648 1.648 0 0 1 296 79a1.35 1.35 0 0 1-.747.124 4.544 4.544 0 0 1-.381-.068v-.733a.398.398 0 0 0 .054.008 14.975 14.975 0 0 0 .19.012c.153 0 .288-.015.405-.044a.887.887 0 0 0 .313-.144.9.9 0 0 0 .237-.266 2.12 2.12 0 0 0 .183-.41l.2-.538-1.885-5.224h.987l1.318 3.96zm4.883-1.328h-2.383v-.738h2.383v.738zm3.955 1.25a.852.852 0 0 0-.044-.276.581.581 0 0 0-.173-.244 1.295 1.295 0 0 0-.369-.213 3.809 3.809 0 0 0-.63-.18 5.964 5.964 0 0 1-.79-.22 2.42 2.42 0 0 1-.6-.305 1.258 1.258 0 0 1-.378-.423 1.184 1.184 0 0 1-.131-.571c0-.208.046-.406.139-.593a1.52 1.52 0 0 1 .393-.493c.17-.142.374-.254.615-.337.241-.083.51-.125.806-.125.316 0 .598.043.847.13.249.086.46.204.635.354a1.515 1.515 0 0 1 .534 1.167h-.908a.79.79 0 0 0-.073-.325.885.885 0 0 0-.215-.293 1.108 1.108 0 0 0-.347-.21 1.29 1.29 0 0 0-.473-.08c-.189 0-.35.021-.481.065a.948.948 0 0 0-.325.176.675.675 0 0 0-.185.25.73.73 0 0 0-.01.548.5.5 0 0 0 .185.213c.091.063.216.122.374.176.158.053.362.108.613.163.322.075.602.16.84.254.237.094.434.204.59.33.157.125.273.269.35.432.076.163.114.351.114.566a1.4 1.4 0 0 1-.144.635 1.408 1.408 0 0 1-.412.493 2.025 2.025 0 0 1-.645.32c-.25.076-.529.115-.835.115a2.73 2.73 0 0 1-.93-.147 2.083 2.083 0 0 1-.676-.388 1.645 1.645 0 0 1-.415-.552 1.519 1.519 0 0 1-.142-.637h.903c.01.186.055.341.135.466.08.126.18.227.3.306.12.078.252.133.395.166.144.032.287.048.43.048.186 0 .348-.02.488-.058.14-.04.258-.093.354-.161a.694.694 0 0 0 .218-.242.635.635 0 0 0 .073-.3zm4.272 1.499c-.367 0-.7-.064-.998-.19a2.229 2.229 0 0 1-1.253-1.339 2.973 2.973 0 0 1-.17-1.025v-.205c0-.43.064-.814.192-1.152.129-.339.3-.624.515-.855a2.23 2.23 0 0 1 .738-.53c.276-.122.565-.183.864-.183.378 0 .703.066.977.198.273.132.498.313.676.544.177.231.308.505.393.82.085.316.127.66.127 1.03v.406h-3.58c.007.244.047.472.12.684.074.211.178.395.313.552a1.467 1.467 0 0 0 1.135.507c.32 0 .59-.065.81-.195.222-.13.416-.303.582-.518l.552.43c-.085.13-.188.256-.308.379-.12.122-.261.23-.422.327a2.222 2.222 0 0 1-.555.23 2.688 2.688 0 0 1-.708.085zm-.112-4.737c-.182 0-.35.034-.503.1-.153.067-.29.164-.41.291-.12.127-.22.285-.3.474a2.4 2.4 0 0 0-.164.649h2.647v-.068a2.5 2.5 0 0 0-.086-.523 1.419 1.419 0 0 0-.22-.464 1.132 1.132 0 0 0-.383-.332 1.208 1.208 0 0 0-.581-.127zm5.772.166a2.39 2.39 0 0 0-.445-.034c-.312 0-.567.069-.764.205-.197.137-.344.32-.442.552V77h-.903v-5.283h.879l.014.61a1.59 1.59 0 0 1 .513-.517c.205-.127.454-.19.747-.19a1.335 1.335 0 0 1 .4.067v.84zm2.573 3.247l1.308-4.057h.923L318.555 77h-.689l-1.914-5.283h.923l1.343 4.057zM322.3 77h-.904v-5.283h.904V77zm-.977-6.685a.54.54 0 0 1 .135-.37c.089-.102.222-.152.397-.152.176 0 .31.05.4.151a.531.531 0 0 1 .138.371.516.516 0 0 1-.137.367c-.091.097-.225.146-.4.146-.176 0-.309-.049-.398-.146a.521.521 0 0 1-.135-.367zm4.541 6.045a1.36 1.36 0 0 0 .847-.293c.113-.09.204-.199.274-.324a1.01 1.01 0 0 0 .124-.408h.855a1.578 1.578 0 0 1-.193.671c-.116.214-.268.4-.457.562a2.247 2.247 0 0 1-1.45.53c-.397 0-.743-.071-1.037-.213a2.105 2.105 0 0 1-.735-.573 2.43 2.43 0 0 1-.437-.84 3.488 3.488 0 0 1-.144-1.011v-.205c0-.355.048-.692.144-1.01a2.43 2.43 0 0 1 .437-.84c.195-.242.44-.433.732-.574a2.355 2.355 0 0 1 1.035-.213c.31 0 .59.049.843.147.252.097.47.232.654.402.184.171.328.374.432.608.104.235.163.487.176.757h-.855a1.375 1.375 0 0 0-.114-.456 1.197 1.197 0 0 0-.64-.623 1.275 1.275 0 0 0-.496-.093c-.28 0-.512.056-.695.166a1.329 1.329 0 0 0-.445.437 1.83 1.83 0 0 0-.237.61 3.441 3.441 0 0 0-.068.682v.205c0 .234.023.465.068.69.046.227.124.43.235.609.11.179.259.324.444.434.186.111.42.166.703.166zm5.308.738c-.368 0-.7-.064-.999-.19a2.229 2.229 0 0 1-1.252-1.339 2.973 2.973 0 0 1-.171-1.025v-.205c0-.43.064-.814.193-1.152.128-.339.3-.624.515-.855.215-.231.46-.408.737-.53.277-.122.565-.183.865-.183.377 0 .703.066.976.198.274.132.499.313.676.544.178.231.309.505.393.82.085.316.127.66.127 1.03v.406h-3.579c.007.244.047.472.12.684.073.211.177.395.312.552a1.467 1.467 0 0 0 1.136.507c.319 0 .589-.065.81-.195.222-.13.415-.303.581-.518l.552.43c-.085.13-.187.256-.308.379-.12.122-.26.23-.422.327a2.222 2.222 0 0 1-.554.23 2.688 2.688 0 0 1-.708.085zm-.112-4.737c-.183 0-.35.034-.503.1-.153.067-.29.164-.41.291a1.538 1.538 0 0 0-.3.474 2.4 2.4 0 0 0-.164.649h2.646v-.068a2.5 2.5 0 0 0-.085-.523 1.419 1.419 0 0 0-.22-.464 1.132 1.132 0 0 0-.383-.332 1.208 1.208 0 0 0-.581-.127z" fill="#9E9E9E"/><path d="M376.5 117.811l-153.206.415" stroke="#616262"/><path fill="#616262" d="M373.86 114.53l-.548.585 2.881 2.694-2.898 2.677.544.588 3.528-3.262z"/><path d="M281.843 134.145h-2.978l-.67 1.855h-.966l2.715-7.11h.82l2.72 7.11h-.962l-.679-1.855zm-2.695-.772h2.417l-1.211-3.325-1.206 3.325zm6.006-2.656l.03.664a1.961 1.961 0 0 1 1.582-.762c.256 0 .489.035.697.105.209.07.386.182.533.337.146.155.26.353.339.596.08.242.12.536.12.881V136h-.904v-3.472c0-.205-.023-.38-.068-.525a.866.866 0 0 0-.203-.354.799.799 0 0 0-.332-.2 1.495 1.495 0 0 0-.456-.063c-.293 0-.55.078-.772.234a1.592 1.592 0 0 0-.517.615V136h-.904v-5.283h.855zm7.74 3.882a.852.852 0 0 0-.045-.276.581.581 0 0 0-.173-.244 1.295 1.295 0 0 0-.369-.213 3.809 3.809 0 0 0-.63-.18 5.964 5.964 0 0 1-.79-.22 2.42 2.42 0 0 1-.599-.305 1.258 1.258 0 0 1-.378-.423 1.184 1.184 0 0 1-.132-.571c0-.208.046-.406.139-.593a1.52 1.52 0 0 1 .393-.493c.17-.142.374-.254.615-.337.241-.083.51-.125.806-.125.316 0 .598.043.847.13.25.086.46.204.635.354a1.515 1.515 0 0 1 .535 1.167h-.909a.79.79 0 0 0-.073-.325.885.885 0 0 0-.215-.293 1.108 1.108 0 0 0-.346-.21 1.29 1.29 0 0 0-.474-.08c-.189 0-.35.021-.481.065a.948.948 0 0 0-.325.176.675.675 0 0 0-.185.25.73.73 0 0 0-.01.548.5.5 0 0 0 .186.213c.09.063.215.122.373.176.158.053.362.108.613.163.322.075.602.16.84.254.237.094.434.204.59.33.157.125.273.269.35.432.076.163.114.351.114.566a1.4 1.4 0 0 1-.144.635 1.408 1.408 0 0 1-.412.493 2.025 2.025 0 0 1-.645.32c-.25.076-.529.115-.835.115-.351 0-.661-.05-.93-.147a2.083 2.083 0 0 1-.676-.388 1.645 1.645 0 0 1-.415-.552 1.519 1.519 0 0 1-.142-.637h.903c.01.186.055.341.135.466.08.126.18.227.3.306.12.078.252.133.396.166.143.032.286.048.43.048.185 0 .348-.02.488-.058.14-.04.258-.093.354-.161a.694.694 0 0 0 .217-.242.635.635 0 0 0 .073-.3zm6.757.156l1.016-4.038h.903L300.032 136h-.733l-1.284-4.004-1.25 4.004h-.732l-1.533-5.283h.898l1.04 3.955 1.23-3.955h.728l1.255 4.038zm5.03 1.343c-.369 0-.702-.064-1-.19a2.229 2.229 0 0 1-1.252-1.339 2.973 2.973 0 0 1-.17-1.025v-.205c0-.43.064-.814.192-1.152.129-.339.3-.624.515-.855a2.22 2.22 0 0 1 .738-.53c.276-.122.564-.183.864-.183.377 0 .703.066.976.198.274.132.5.313.677.544.177.231.308.505.393.82.084.316.127.66.127 1.03v.406h-3.58c.007.244.047.472.12.684.073.211.178.395.313.552a1.467 1.467 0 0 0 1.135.507c.319 0 .59-.065.81-.195.222-.13.416-.303.582-.518l.551.43c-.084.13-.187.256-.307.379-.12.122-.261.23-.423.327a2.222 2.222 0 0 1-.554.23 2.688 2.688 0 0 1-.708.085zm-.113-4.737c-.182 0-.35.034-.503.1-.153.067-.29.164-.41.291-.12.127-.22.285-.3.474a2.4 2.4 0 0 0-.164.649h2.646v-.068a2.5 2.5 0 0 0-.085-.523 1.419 1.419 0 0 0-.22-.464 1.132 1.132 0 0 0-.383-.332 1.208 1.208 0 0 0-.581-.127zm5.771.166a2.39 2.39 0 0 0-.444-.034c-.312 0-.567.069-.764.205-.197.137-.344.32-.442.552V136h-.903v-5.283h.879l.014.61a1.59 1.59 0 0 1 .513-.517c.205-.127.454-.19.747-.19a1.335 1.335 0 0 1 .4.067v.84zm.801 4c0-.157.047-.287.14-.391.092-.104.231-.157.417-.157.185 0 .326.053.422.157a.554.554 0 0 1 .144.39c0 .15-.048.275-.144.376-.096.101-.237.152-.422.152-.186 0-.325-.05-.418-.152a.535.535 0 0 1-.139-.376zm.005-4.312c0-.156.046-.287.14-.39.092-.105.231-.157.417-.157.185 0 .326.052.422.156a.554.554 0 0 1 .144.39c0 .15-.048.276-.144.377-.096.1-.237.151-.422.151-.186 0-.325-.05-.418-.151a.535.535 0 0 1-.139-.376zM283.381 147h-.908v-6.02l-1.821.668v-.82l2.588-.972h.141V147zm2.76-.474c0-.156.046-.286.138-.39.093-.104.232-.157.418-.157.185 0 .326.053.422.157a.554.554 0 0 1 .144.39c0 .15-.048.275-.144.376-.096.101-.237.152-.422.152-.186 0-.325-.05-.418-.152a.535.535 0 0 1-.139-.376zm7.177.474h-4.658v-.65l2.329-2.587c.215-.238.393-.448.534-.63.142-.182.254-.35.337-.5.083-.152.141-.294.174-.425a1.71 1.71 0 0 0 .049-.403 1.46 1.46 0 0 0-.083-.496 1.123 1.123 0 0 0-.625-.674 1.308 1.308 0 0 0-.528-.1c-.24 0-.45.036-.627.108-.178.071-.325.17-.442.297-.117.127-.205.28-.264.457a1.868 1.868 0 0 0-.088.588h-.903c0-.3.05-.582.149-.85.1-.266.246-.499.442-.697a2.09 2.09 0 0 1 .727-.472c.29-.115.625-.173 1.006-.173.335 0 .636.046.901.137.265.09.49.22.674.388.184.168.325.369.422.603a2 2 0 0 1 .04 1.406 3.575 3.575 0 0 1-.289.632c-.12.21-.262.419-.425.625-.162.207-.333.41-.512.608l-1.91 2.07h3.57V147zm1.07-.474c0-.156.046-.286.138-.39.093-.104.232-.157.418-.157.185 0 .326.053.422.157a.554.554 0 0 1 .144.39c0 .15-.048.275-.144.376-.096.101-.237.152-.422.152-.186 0-.325-.05-.418-.152a.535.535 0 0 1-.139-.376zm3.832-3.52h.645c.234 0 .44-.031.615-.093.176-.062.322-.147.44-.256a1.05 1.05 0 0 0 .263-.386 1.31 1.31 0 0 0 .088-.486c0-.407-.103-.717-.308-.93-.205-.213-.517-.32-.937-.32-.192 0-.367.029-.525.086a1.087 1.087 0 0 0-.667.63c-.061.15-.092.32-.092.505h-.904c0-.274.052-.53.157-.767a1.85 1.85 0 0 1 .444-.622 2.12 2.12 0 0 1 .69-.42c.27-.103.568-.154.897-.154.322 0 .615.043.879.13.263.086.489.213.676.38.187.168.333.377.437.628.104.25.156.542.156.874 0 .133-.022.273-.066.42-.044.146-.11.29-.2.43a1.825 1.825 0 0 1-.852.698c.235.074.43.173.589.295a1.548 1.548 0 0 1 .579.881c.038.166.058.33.058.489 0 .332-.057.627-.171.886a1.827 1.827 0 0 1-.474.652c-.202.175-.44.31-.713.402-.273.093-.571.14-.893.14-.31 0-.6-.043-.874-.13a2.136 2.136 0 0 1-.718-.38 1.804 1.804 0 0 1-.486-.62 1.912 1.912 0 0 1-.178-.843h.908c0 .186.031.354.093.505.062.152.151.282.268.391.118.109.26.193.425.251.166.06.353.088.562.088.208 0 .395-.027.561-.08.166-.054.308-.136.425-.247.117-.11.207-.249.269-.415a1.68 1.68 0 0 0 .092-.58c0-.222-.035-.414-.107-.577a1.048 1.048 0 0 0-.305-.403 1.32 1.32 0 0 0-.476-.237 2.312 2.312 0 0 0-.625-.078h-.645v-.737zm4.414 3.52c0-.156.047-.286.14-.39.092-.104.231-.157.417-.157.185 0 .326.053.422.157a.554.554 0 0 1 .144.39c0 .15-.048.275-.144.376-.096.101-.237.152-.422.152-.186 0-.325-.05-.418-.152a.535.535 0 0 1-.139-.376zm6.333-1.914h.987v.738h-.987V147h-.908v-1.65h-3.237v-.533l3.183-4.926h.962v4.721zm-3.12 0h2.212v-3.486l-.107.195-2.105 3.291z" fill="#9E9E9E"/><path d="M463 128l.294 53.5" stroke="#616161" stroke-linecap="square"/><path fill="#616161" d="M459.245 178.682l.732-.682 3.357 3.612L466.69 178l.733.682-4.09 4.398z"/><path stroke="#616161" d="M369 283.117V259h188v25"/><path fill="#616161" d="M365 280.682l.732-.682 3.357 3.612 3.357-3.612.733.682-4.09 4.398zm188 0l.732-.682 3.357 3.612 3.357-3.612.733.682-4.09 4.398z"/></g></svg>