<svg xmlns="http://www.w3.org/2000/svg" viewBox="109 178 736 405" width="736pt" height="540"><g fill="none"><title>gke-01-project-network</title><title>Layer 1</title><path fill="#f5f5f5" d="M153 183h648v395H153z"/><path d="M163 564V218h622v346z" fill="#ede7f7"/><path d="M195.439 539.437c-.791 0-1.439-.91-1.439-2.022V314.022c0-1.112.648-2.022 1.439-2.022h270.626c.791 0 1.439.91 1.439 2.022v223.393c0 1.112-.648 2.022-1.44 2.022z" fill="#e1f6fe"/><path d="M293.612 330.331h-1.67v2.876H291v-7.11h2.353c.801 0 1.417.183 1.849.548.431.364.647.895.647 1.591 0 .443-.12.829-.36 1.158-.238.328-.571.574-.998.737l1.67 3.017v.059h-1.006zm-1.67-.767h1.44c.255 0 .477-.035.667-.105.19-.07.35-.164.476-.283a1.13 1.13 0 0 0 .286-.42 1.39 1.39 0 0 0 .095-.52c0-.205-.03-.391-.09-.559a1.1 1.1 0 0 0-.28-.432 1.277 1.277 0 0 0-.484-.278 2.217 2.217 0 0 0-.699-.098h-1.41zm7.27 3.74c-.367 0-.7-.063-.998-.19a2.229 2.229 0 0 1-1.252-1.338 2.973 2.973 0 0 1-.171-1.025v-.205c0-.43.064-.814.193-1.152.128-.339.3-.624.515-.855.215-.231.46-.408.737-.53.277-.122.565-.183.865-.183.377 0 .703.066.976.198.274.132.499.313.676.544.178.231.309.505.394.82.084.316.126.66.126 1.031v.405h-3.579c.007.244.047.472.12.684.073.211.177.395.312.552a1.467 1.467 0 0 0 1.136.507c.319 0 .589-.065.81-.195.222-.13.415-.303.581-.518l.552.43c-.085.13-.187.257-.308.379-.12.122-.26.23-.422.327a2.222 2.222 0 0 1-.554.23 2.688 2.688 0 0 1-.708.085zm-.111-4.736c-.183 0-.35.034-.503.1-.153.067-.29.164-.41.291-.12.127-.221.285-.3.474-.08.188-.135.405-.164.649h2.646v-.068a2.5 2.5 0 0 0-.085-.523 1.419 1.419 0 0 0-.22-.464 1.132 1.132 0 0 0-.383-.332 1.208 1.208 0 0 0-.581-.127zm3.002 1.954c0-.404.049-.771.145-1.102.096-.33.234-.613.415-.85.18-.235.4-.418.656-.548a1.9 1.9 0 0 1 .87-.196c.335 0 .626.059.873.176.248.117.46.286.635.508l.044-.586h.825v5.17c0 .349-.054.66-.163.93a1.907 1.907 0 0 1-1.17 1.117 2.684 2.684 0 0 1-1.379.1 2.833 2.833 0 0 1-.537-.152 2.409 2.409 0 0 1-.52-.28 1.686 1.686 0 0 1-.425-.435l.469-.542c.11.137.224.25.342.342.117.091.235.164.354.22.118.055.239.095.361.12a1.852 1.852 0 0 0 .94-.055c.172-.06.32-.15.442-.27.122-.121.215-.268.28-.442.066-.175.098-.377.098-.608v-.46a1.778 1.778 0 0 1-.627.465 2.089 2.089 0 0 1-.852.16c-.316 0-.602-.066-.857-.2a1.937 1.937 0 0 1-.655-.559 2.646 2.646 0 0 1-.417-.85 3.734 3.734 0 0 1-.147-1.071zm.909.102c0 .264.027.512.08.745.054.232.137.435.25.608.112.172.256.309.431.41.176.1.386.151.63.151.16 0 .304-.02.432-.059a1.249 1.249 0 0 0 .618-.405c.078-.094.147-.198.205-.312v-2.412a1.814 1.814 0 0 0-.205-.3 1.282 1.282 0 0 0-.615-.401 1.5 1.5 0 0 0-.425-.056c-.247 0-.459.051-.635.154a1.28 1.28 0 0 0-.434.417 1.91 1.91 0 0 0-.252.613c-.053.233-.08.48-.08.745zm5.898 2.583h-.903v-5.283h.903zm-.976-6.685a.54.54 0 0 1 .134-.37c.09-.102.222-.152.398-.152.176 0 .31.05.4.151a.535.535 0 0 1 .137.371.516.516 0 0 1-.137.367c-.09.097-.224.146-.4.146-.176 0-.309-.049-.398-.146a.521.521 0 0 1-.134-.367zm2.182 3.995c0-.385.056-.74.169-1.067.112-.327.271-.611.478-.852.207-.241.458-.43.755-.567a2.35 2.35 0 0 1 .996-.205c.374 0 .71.069 1.008.205.298.137.55.326.76.567.208.24.367.525.478.852.11.327.166.683.166 1.067v.107c0 .384-.056.74-.166 1.067-.11.327-.27.61-.479.85-.208.239-.46.426-.757.561-.296.135-.63.203-1 .203-.372 0-.705-.068-1.002-.203a2.202 2.202 0 0 1-.756-.561 2.527 2.527 0 0 1-.481-.85 3.265 3.265 0 0 1-.169-1.067zm.908.107c0 .264.031.513.093.747a1.9 1.9 0 0 0 .28.618c.126.177.283.318.47.422.187.104.406.156.656.156.248 0 .466-.052.655-.156.189-.104.345-.245.469-.422a1.97 1.97 0 0 0 .28-.618 2.82 2.82 0 0 0 .095-.747v-.107c0-.26-.031-.509-.095-.745a1.935 1.935 0 0 0-.283-.62 1.326 1.326 0 0 0-1.13-.584c-.248 0-.464.053-.65.16a1.436 1.436 0 0 0-.466.424 1.897 1.897 0 0 0-.28.62 2.926 2.926 0 0 0-.094.745zm5.89-2.7l.028.664c.19-.238.417-.424.684-.56.267-.134.566-.202.898-.202.258 0 .49.035.699.105.208.07.385.182.532.337.146.155.26.353.34.596.079.242.119.536.119.881v3.462h-.903v-3.472c0-.205-.023-.38-.069-.525a.866.866 0 0 0-.202-.354.799.799 0 0 0-.332-.2 1.495 1.495 0 0 0-.457-.063c-.293 0-.55.078-.772.234a1.592 1.592 0 0 0-.517.615v3.765h-.903v-5.283zm4.633 4.81c0-.157.046-.287.139-.391.093-.104.232-.156.418-.156.185 0 .326.052.422.156a.554.554 0 0 1 .144.39c0 .15-.048.275-.144.376-.096.101-.237.152-.423.152-.185 0-.324-.05-.417-.152a.535.535 0 0 1-.14-.376zm.005-4.312c0-.156.046-.287.139-.39.093-.105.232-.157.417-.157.186 0 .327.052.423.156a.554.554 0 0 1 .144.39c0 .15-.048.276-.144.377-.096.1-.237.151-.423.151-.185 0-.324-.05-.417-.151a.535.535 0 0 1-.14-.376zm8.183 4.263a1.683 1.683 0 0 1-.63.456 2.32 2.32 0 0 1-.918.164c-.26 0-.496-.037-.708-.11a1.378 1.378 0 0 1-.546-.347 1.579 1.579 0 0 1-.354-.61 2.867 2.867 0 0 1-.125-.901v-3.413h.903v3.423c0 .237.028.433.083.588a.955.955 0 0 0 .22.366c.091.09.195.152.313.186.117.034.237.051.361.051.368 0 .663-.07.886-.21.223-.14.387-.327.49-.561v-3.843h.904v5.283h-.86zm5.327-.88a.852.852 0 0 0-.043-.275.581.581 0 0 0-.174-.244 1.295 1.295 0 0 0-.368-.213 3.807 3.807 0 0 0-.63-.18 5.961 5.961 0 0 1-.791-.22 2.42 2.42 0 0 1-.598-.305 1.258 1.258 0 0 1-.379-.423 1.184 1.184 0 0 1-.132-.571c0-.208.047-.406.14-.593.092-.187.223-.352.392-.493.17-.142.375-.254.616-.337.24-.083.51-.125.805-.125.316 0 .599.043.848.13.249.086.46.204.634.354a1.514 1.514 0 0 1 .535 1.167h-.908a.79.79 0 0 0-.073-.325.885.885 0 0 0-.215-.293 1.108 1.108 0 0 0-.347-.21 1.289 1.289 0 0 0-.474-.08c-.188 0-.349.021-.48.065a.948.948 0 0 0-.325.176.675.675 0 0 0-.186.25.729.729 0 0 0-.01.548.5.5 0 0 0 .186.213c.091.063.216.122.374.176.157.053.362.108.612.163.323.075.602.16.84.254s.435.204.591.33c.156.125.273.269.35.432.076.163.114.351.114.566a1.4 1.4 0 0 1-.144.635 1.408 1.408 0 0 1-.413.493 2.025 2.025 0 0 1-.644.32c-.251.076-.53.115-.835.115-.352 0-.662-.05-.93-.147a2.083 2.083 0 0 1-.677-.388 1.645 1.645 0 0 1-.415-.552 1.519 1.519 0 0 1-.141-.637h.903c.01.186.054.341.134.466.08.126.18.227.3.306.12.078.253.133.396.166.143.032.286.048.43.048.185 0 .348-.02.488-.058.14-.04.258-.093.354-.161a.694.694 0 0 0 .217-.242.635.635 0 0 0 .074-.3zm3.96-1.25h-2.382v-.737h2.382zm5.557 1.407l1.016-4.038h.903l-1.538 5.283h-.732l-1.285-4.004-1.25 4.004h-.732l-1.533-5.283h.898l1.04 3.955 1.23-3.955h.728zm5.03 1.343a2.55 2.55 0 0 1-1-.19 2.229 2.229 0 0 1-1.252-1.339 2.973 2.973 0 0 1-.17-1.025v-.205c0-.43.064-.814.192-1.152.129-.339.3-.624.516-.855.214-.231.46-.408.737-.53.277-.122.565-.183.864-.183.378 0 .703.066.977.198.273.132.498.313.676.544.177.231.308.505.393.82.085.316.127.66.127 1.031v.405h-3.58c.007.244.047.472.12.684.074.211.178.395.313.552a1.467 1.467 0 0 0 1.135.507c.32 0 .59-.065.81-.195.222-.13.416-.303.582-.518l.552.43c-.085.13-.188.257-.308.379s-.261.23-.422.327a2.222 2.222 0 0 1-.555.23 2.688 2.688 0 0 1-.708.085zm-.113-4.737c-.182 0-.35.034-.503.1-.153.067-.29.164-.41.291-.12.127-.22.285-.3.474-.08.188-.135.405-.164.649h2.647v-.068a2.5 2.5 0 0 0-.086-.523 1.42 1.42 0 0 0-.22-.464 1.133 1.133 0 0 0-.383-.332 1.208 1.208 0 0 0-.58-.127zm6.294 3.238a.852.852 0 0 0-.044-.276.581.581 0 0 0-.173-.244 1.295 1.295 0 0 0-.369-.213 3.807 3.807 0 0 0-.63-.18 5.963 5.963 0 0 1-.79-.22 2.42 2.42 0 0 1-.599-.305 1.258 1.258 0 0 1-.378-.423 1.184 1.184 0 0 1-.132-.571c0-.208.046-.406.139-.593a1.52 1.52 0 0 1 .393-.493c.17-.142.374-.254.615-.337.241-.083.51-.125.806-.125.316 0 .598.043.847.13.25.086.46.204.635.354a1.515 1.515 0 0 1 .535 1.167h-.909a.79.79 0 0 0-.073-.325.885.885 0 0 0-.215-.293 1.108 1.108 0 0 0-.346-.21 1.289 1.289 0 0 0-.474-.08c-.189 0-.35.021-.481.065a.948.948 0 0 0-.325.176.676.676 0 0 0-.185.25.73.73 0 0 0-.01.548.5.5 0 0 0 .185.213c.092.063.216.122.374.176.158.053.362.108.613.163.322.075.602.16.84.254.237.094.434.204.59.33.157.125.273.269.35.432.076.163.114.351.114.566a1.4 1.4 0 0 1-.144.635 1.407 1.407 0 0 1-.412.493 2.024 2.024 0 0 1-.645.32c-.25.076-.529.115-.835.115-.351 0-.661-.05-.93-.147a2.082 2.082 0 0 1-.676-.388 1.645 1.645 0 0 1-.415-.552 1.519 1.519 0 0 1-.142-.637h.903c.01.186.055.341.135.466.08.126.18.227.3.306.12.078.252.133.396.166.143.032.286.048.43.048.185 0 .348-.02.488-.058.14-.04.257-.093.353-.161a.694.694 0 0 0 .218-.242.635.635 0 0 0 .073-.3zm3.306-5.161v1.279h.986v.698h-.986v3.276a.92.92 0 0 0 .049.33.473.473 0 0 0 .129.193.413.413 0 0 0 .185.09c.07.015.143.022.218.022.075 0 .154-.007.237-.022.083-.014.147-.027.192-.036v.732a4.3 4.3 0 0 1-.278.064 2.152 2.152 0 0 1-.415.034c-.166 0-.323-.024-.471-.071a.95.95 0 0 1-.388-.237 1.166 1.166 0 0 1-.264-.437 1.98 1.98 0 0 1-.098-.666v-3.272h-.962v-.698h.962v-1.28z" fill="#757575"/><path d="M216.253 519.683c-1.79 0-3.253-1.368-3.253-3.04V351.04c0-1.672 1.464-3.039 3.253-3.039h230.812c1.789 0 3.253 1.367 3.253 3.039v165.605c0 1.671-1.464 3.039-3.253 3.039z" fill="#b3e5fc"/><path d="M216.253 519.683c-1.79 0-3.253-1.368-3.253-3.04V351.04c0-1.672 1.464-3.039 3.253-3.039h230.812c1.789 0 3.253 1.367 3.253 3.039v165.605c0 1.671-1.464 3.039-3.253 3.039z" stroke="#fff" stroke-linejoin="round" stroke-width="2"/><path d="M309.5 362.203a1.2 1.2 0 0 0-.076-.44.876.876 0 0 0-.269-.348 2.14 2.14 0 0 0-.52-.298 7.6 7.6 0 0 0-.83-.286c-.351-.1-.67-.216-.954-.344a3.135 3.135 0 0 1-.728-.445 1.792 1.792 0 0 1-.461-.573 1.627 1.627 0 0 1-.161-.738c0-.276.057-.533.173-.769.115-.236.279-.44.49-.615.212-.174.466-.31.762-.408.297-.097.627-.146.991-.146.4 0 .757.06 1.07.18.312.121.575.28.788.48a2.04 2.04 0 0 1 .652 1.494h-.942c0-.2-.032-.383-.095-.552a1.16 1.16 0 0 0-.29-.44 1.34 1.34 0 0 0-.49-.288 2.102 2.102 0 0 0-.693-.103c-.25 0-.468.03-.654.088-.185.059-.338.14-.459.242a.96.96 0 0 0-.268.364 1.17 1.17 0 0 0-.088.459c0 .15.031.286.095.41.063.124.162.238.295.342.134.104.306.2.515.288.21.088.462.172.755.254.404.114.752.24 1.045.378.293.138.534.296.725.471.19.176.332.373.425.591.093.218.139.466.139.742 0 .29-.059.552-.176.786a1.72 1.72 0 0 1-.5.601 2.367 2.367 0 0 1-.782.383c-.304.09-.643.135-1.018.135a3.56 3.56 0 0 1-.654-.061 3.236 3.236 0 0 1-.627-.183 2.779 2.779 0 0 1-.557-.303c-.171-.12-.32-.26-.447-.42a1.88 1.88 0 0 1-.405-1.192h.942c0 .245.048.454.144.628.096.174.225.318.386.432.161.114.347.198.557.251.21.054.43.081.661.081.495 0 .874-.1 1.138-.303a.983.983 0 0 0 .396-.825zm5.263 1.275a1.684 1.684 0 0 1-.63.456 2.32 2.32 0 0 1-.918.164c-.26 0-.496-.037-.708-.11a1.378 1.378 0 0 1-.547-.347 1.578 1.578 0 0 1-.354-.61 2.866 2.866 0 0 1-.124-.901v-3.413h.903v3.423c0 .237.028.433.083.588a.955.955 0 0 0 .22.366c.091.09.195.152.313.186.117.034.237.051.36.051.369 0 .664-.07.887-.21.223-.14.387-.327.49-.561v-3.843h.904V364h-.86zm6.724-2.061c0 .387-.046.745-.137 1.072a2.62 2.62 0 0 1-.4.85c-.176.239-.39.425-.645.558a1.84 1.84 0 0 1-.869.2c-.348 0-.65-.06-.903-.182a1.778 1.778 0 0 1-.645-.525l-.044.61h-.83v-7.5h.903v2.798c.176-.218.388-.386.635-.503.248-.117.539-.176.874-.176.332 0 .626.065.882.195.255.13.47.314.644.55.174.236.307.519.398.85.091.33.137.697.137 1.1zm-.904-.103c0-.263-.024-.511-.073-.744a1.887 1.887 0 0 0-.237-.613 1.22 1.22 0 0 0-.427-.417 1.26 1.26 0 0 0-.644-.154c-.166 0-.316.02-.45.063a1.294 1.294 0 0 0-.634.44c-.078.1-.145.21-.2.327v2.285c.058.117.127.226.207.327a1.293 1.293 0 0 0 .637.44c.134.042.283.063.45.063.244 0 .452-.05.624-.151.173-.101.315-.238.425-.41.11-.173.192-.376.244-.608.052-.233.079-.481.079-.745zm2.896-2.597l.03.664a1.961 1.961 0 0 1 1.582-.762c.257 0 .49.035.698.105.208.07.385.182.532.337.146.155.26.353.34.596.079.242.119.536.119.881V364h-.904v-3.472c0-.205-.022-.38-.068-.525a.866.866 0 0 0-.203-.354.8.8 0 0 0-.332-.2 1.495 1.495 0 0 0-.456-.063c-.293 0-.55.078-.772.234a1.592 1.592 0 0 0-.517.615V364h-.904v-5.283zm6.855 5.38c-.367 0-.7-.063-.998-.19a2.229 2.229 0 0 1-1.252-1.338 2.973 2.973 0 0 1-.171-1.025v-.205c0-.43.064-.814.192-1.152.13-.339.3-.624.516-.855.214-.231.46-.408.737-.53.277-.122.565-.183.864-.183.378 0 .703.066.977.198.273.132.499.313.676.544.177.231.308.505.393.82.085.316.127.66.127 1.03v.406h-3.58c.007.244.047.472.12.684.074.211.178.395.313.552a1.467 1.467 0 0 0 1.135.507c.32 0 .59-.065.81-.195.222-.13.416-.303.582-.518l.552.43c-.085.13-.188.257-.308.379s-.261.23-.422.327a2.222 2.222 0 0 1-.555.23 2.688 2.688 0 0 1-.708.085zm-.112-4.736c-.182 0-.35.034-.503.1-.153.067-.29.164-.41.291-.12.127-.22.285-.3.474a2.4 2.4 0 0 0-.164.649h2.647v-.068a2.5 2.5 0 0 0-.086-.523 1.419 1.419 0 0 0-.22-.464 1.132 1.132 0 0 0-.383-.332 1.208 1.208 0 0 0-.58-.127zm4.444-1.923v1.279h.986v.698h-.986v3.276a.92.92 0 0 0 .048.33.473.473 0 0 0 .13.193.413.413 0 0 0 .185.09c.07.015.143.022.218.022.074 0 .153-.007.236-.022.083-.014.148-.027.193-.036V364c-.071.02-.164.04-.278.063a2.154 2.154 0 0 1-.415.035c-.166 0-.323-.024-.471-.071a.95.95 0 0 1-.388-.237 1.166 1.166 0 0 1-.264-.437 1.98 1.98 0 0 1-.098-.666v-3.272h-.962v-.698h.962v-1.28zm6.718 5.317l1.016-4.038h.903L341.765 364h-.732l-1.284-4.004-1.25 4.004h-.733l-1.533-5.283h.898l1.04 3.955 1.23-3.955h.728zm2.598-1.445c0-.385.056-.74.168-1.067.113-.327.272-.611.479-.852.207-.241.458-.43.754-.567a2.35 2.35 0 0 1 .996-.205c.375 0 .71.068 1.009.205.298.137.55.326.759.567.208.24.368.525.478.852.111.327.166.682.166 1.067v.107c0 .384-.055.74-.166 1.067-.11.327-.27.61-.478.85-.208.239-.46.426-.757.561-.296.135-.63.203-1 .203-.372 0-.706-.068-1.002-.203a2.201 2.201 0 0 1-.757-.561 2.527 2.527 0 0 1-.48-.85 3.266 3.266 0 0 1-.17-1.067zm.908.107c0 .264.031.513.093.747a1.9 1.9 0 0 0 .28.618c.126.177.282.318.47.422.187.104.406.156.656.156a1.33 1.33 0 0 0 1.124-.578 1.97 1.97 0 0 0 .28-.618c.063-.234.095-.483.095-.747v-.107c0-.26-.032-.51-.095-.745a1.935 1.935 0 0 0-.283-.62 1.326 1.326 0 0 0-1.13-.583c-.248 0-.464.052-.65.158a1.436 1.436 0 0 0-.466.425 1.898 1.898 0 0 0-.281.62 2.927 2.927 0 0 0-.093.745zm7.588-1.89a2.385 2.385 0 0 0-.444-.034c-.313 0-.568.069-.764.205-.197.137-.345.32-.442.552V364h-.904v-5.283h.88l.014.61a1.59 1.59 0 0 1 .513-.517c.205-.127.454-.19.747-.19a1.336 1.336 0 0 1 .4.067zm2.305 2.027l-.567.59V364h-.903v-7.5h.903v4.536l.484-.58 1.645-1.74h1.099l-2.056 2.208 2.295 3.076h-1.06zm3.564 1.972c0-.156.047-.286.14-.39.092-.104.231-.157.417-.157.185 0 .326.053.422.157a.554.554 0 0 1 .144.39c0 .15-.048.275-.144.376-.096.101-.237.152-.422.152-.186 0-.325-.05-.418-.152a.535.535 0 0 1-.139-.376zm.005-4.311c0-.156.046-.287.14-.39.092-.105.231-.157.417-.157.185 0 .326.052.422.156a.554.554 0 0 1 .144.39c0 .15-.048.276-.144.377-.096.1-.237.151-.422.151-.186 0-.325-.05-.418-.151a.535.535 0 0 1-.139-.376zm-42.822 13.202c0 .387-.046.745-.137 1.072-.091.327-.224.61-.398.85a1.845 1.845 0 0 1-.642.558 1.84 1.84 0 0 1-.87.2c-.331 0-.622-.051-.87-.156a1.777 1.777 0 0 1-.643-.454v2.544h-.903v-7.314h.825l.044.586c.18-.222.396-.39.65-.508a2.09 2.09 0 0 1 .883-.176c.332 0 .626.065.882.195.255.13.47.314.647.55.175.236.308.519.398.85.089.33.134.697.134 1.1zm-.904-.103c0-.263-.027-.511-.083-.744a1.877 1.877 0 0 0-.258-.613 1.312 1.312 0 0 0-.445-.417 1.266 1.266 0 0 0-.64-.154c-.152 0-.291.018-.417.053a1.26 1.26 0 0 0-.608.384c-.078.09-.146.186-.205.29v2.525c.059.104.127.2.205.29a1.208 1.208 0 0 0 .61.379c.128.035.27.053.425.053.245 0 .455-.052.633-.156.177-.104.324-.244.442-.42.117-.176.203-.382.258-.618.056-.236.083-.485.083-.749zm4.605-1.787a2.385 2.385 0 0 0-.444-.034c-.313 0-.568.069-.765.205-.196.137-.344.32-.441.552V375h-.904v-5.283h.88l.014.61a1.59 1.59 0 0 1 .512-.517c.206-.127.455-.19.748-.19a1.336 1.336 0 0 1 .4.067zm.493 1.783c0-.385.056-.74.169-1.067.112-.327.271-.611.478-.852.207-.241.458-.43.755-.567a2.35 2.35 0 0 1 .996-.205c.374 0 .71.068 1.008.205.298.137.55.326.76.567.208.24.367.525.478.852.11.327.166.682.166 1.067v.107c0 .384-.056.74-.166 1.067a2.5 2.5 0 0 1-.479.85c-.208.239-.46.426-.757.561-.296.135-.63.203-1 .203-.372 0-.705-.068-1.002-.203a2.201 2.201 0 0 1-.756-.561 2.527 2.527 0 0 1-.481-.85 3.266 3.266 0 0 1-.169-1.067zm.908.107c0 .264.031.513.093.747a1.9 1.9 0 0 0 .28.618c.126.177.282.318.47.422.187.104.406.156.656.156.248 0 .466-.052.655-.156.188-.104.345-.245.468-.422a1.97 1.97 0 0 0 .281-.618 2.82 2.82 0 0 0 .095-.747v-.107c0-.26-.031-.51-.095-.745a1.935 1.935 0 0 0-.283-.62 1.326 1.326 0 0 0-1.13-.583c-.248 0-.464.052-.65.158a1.436 1.436 0 0 0-.466.425 1.897 1.897 0 0 0-.28.62 2.926 2.926 0 0 0-.094.745zm4.815-.103c0-.403.05-.77.149-1.1.099-.331.24-.614.422-.85a1.93 1.93 0 0 1 .657-.55 1.86 1.86 0 0 1 .857-.195c.322 0 .604.055.844.164.241.109.45.266.625.47V367.5h.904v7.5h-.83l-.044-.566a1.781 1.781 0 0 1-.635.493c-.247.114-.539.17-.874.17-.31 0-.592-.066-.847-.2a1.96 1.96 0 0 1-.657-.559 2.664 2.664 0 0 1-.422-.85 3.676 3.676 0 0 1-.15-1.071zm.903.103c0 .264.027.512.08.745.054.232.138.435.252.608.114.172.259.309.435.41.175.1.385.151.63.151.16 0 .302-.019.43-.056a1.257 1.257 0 0 0 .617-.403c.08-.094.149-.199.207-.312v-2.427a1.728 1.728 0 0 0-.205-.298 1.26 1.26 0 0 0-.615-.393 1.5 1.5 0 0 0-.425-.056c-.247 0-.46.051-.637.154a1.276 1.276 0 0 0-.437.417c-.114.176-.198.38-.251.613-.054.233-.08.48-.08.744zm6.836-.068h-2.383v-.738h2.383zm5.557 1.406l1.015-4.038h.904L339.124 375h-.733l-1.284-4.004-1.25 4.004h-.733l-1.533-5.283h.899l1.04 3.955 1.23-3.955h.728zm5.029 1.343c-.368 0-.7-.064-.999-.19a2.229 2.229 0 0 1-1.252-1.339 2.973 2.973 0 0 1-.17-1.025v-.205c0-.43.063-.814.192-1.152.129-.339.3-.624.515-.855.215-.231.46-.408.737-.53.277-.122.565-.183.865-.183.377 0 .703.066.976.198.274.132.5.313.676.544.178.231.309.505.394.82.084.316.126.66.126 1.03v.406h-3.579c.007.244.047.472.12.684.073.211.177.395.313.552a1.463 1.463 0 0 0 1.135.507c.319 0 .589-.065.81-.195.222-.13.415-.303.581-.518l.552.43c-.084.13-.187.257-.307.379s-.262.23-.423.327a2.222 2.222 0 0 1-.554.23 2.688 2.688 0 0 1-.708.085zm-.112-4.737c-.183 0-.35.034-.503.1-.153.067-.29.164-.41.291-.12.127-.221.285-.3.474a2.4 2.4 0 0 0-.164.649h2.646v-.068a2.5 2.5 0 0 0-.085-.523 1.419 1.419 0 0 0-.22-.464 1.132 1.132 0 0 0-.383-.332 1.208 1.208 0 0 0-.581-.127zm6.294 3.238a.852.852 0 0 0-.044-.276.581.581 0 0 0-.174-.244 1.295 1.295 0 0 0-.368-.213 3.811 3.811 0 0 0-.63-.18 5.96 5.96 0 0 1-.791-.22 2.418 2.418 0 0 1-.598-.305 1.258 1.258 0 0 1-.379-.423 1.185 1.185 0 0 1-.132-.571c0-.208.047-.406.14-.593.092-.187.223-.352.393-.493.169-.142.374-.254.615-.337.24-.083.51-.125.805-.125.316 0 .599.043.848.13.249.086.46.204.634.354a1.515 1.515 0 0 1 .535 1.167h-.908a.79.79 0 0 0-.073-.325.885.885 0 0 0-.215-.293 1.108 1.108 0 0 0-.347-.21 1.29 1.29 0 0 0-.474-.08c-.188 0-.349.021-.48.065a.949.949 0 0 0-.325.176.675.675 0 0 0-.186.25.73.73 0 0 0-.01.548.5.5 0 0 0 .186.213c.091.063.216.122.374.176.157.053.362.108.612.163.323.075.603.16.84.254.238.094.435.204.591.33.156.125.273.269.35.432.076.163.114.351.114.566a1.4 1.4 0 0 1-.144.635 1.408 1.408 0 0 1-.413.493 2.026 2.026 0 0 1-.644.32c-.25.076-.53.115-.835.115-.352 0-.662-.05-.93-.147a2.084 2.084 0 0 1-.677-.388 1.646 1.646 0 0 1-.415-.552 1.519 1.519 0 0 1-.141-.637h.903c.01.186.055.341.134.466.08.126.18.227.3.306.121.078.253.133.396.166.143.032.287.048.43.048.185 0 .348-.02.488-.058.14-.04.258-.093.354-.161a.694.694 0 0 0 .217-.242.635.635 0 0 0 .074-.3zm3.305-5.161v1.279h.987v.698h-.987v3.276a.92.92 0 0 0 .05.33.474.474 0 0 0 .128.193.413.413 0 0 0 .186.09c.07.015.142.022.217.022.075 0 .154-.007.237-.022a5.82 5.82 0 0 0 .193-.036V375a4.21 4.21 0 0 1-.278.063 2.154 2.154 0 0 1-.415.035c-.166 0-.323-.024-.472-.071a.95.95 0 0 1-.388-.237 1.166 1.166 0 0 1-.263-.437 1.98 1.98 0 0 1-.098-.666v-3.272h-.962v-.698h.962v-1.28z" fill="#757575"/><path d="M486.439 539.437c-.792 0-1.439-.91-1.439-2.022V314.022c0-1.112.647-2.022 1.439-2.022h270.626c.791 0 1.439.91 1.439 2.022v223.393c0 1.112-.648 2.022-1.44 2.022z" fill="#e1f6fe"/><path d="M589.433 332.124h-1.67V335h-.943v-7.11h2.354c.8 0 1.417.183 1.848.548.431.364.647.895.647 1.591 0 .443-.12.829-.359 1.158-.24.328-.572.574-.998.737l1.67 3.017V335h-1.006zm-1.67-.767h1.44c.254 0 .476-.035.667-.105.19-.07.349-.164.476-.283a1.14 1.14 0 0 0 .285-.42 1.39 1.39 0 0 0 .096-.52c0-.205-.03-.391-.09-.559a1.1 1.1 0 0 0-.281-.432 1.277 1.277 0 0 0-.484-.278 2.218 2.218 0 0 0-.698-.098h-1.411zm7.27 3.74c-.368 0-.7-.063-.998-.19a2.228 2.228 0 0 1-1.253-1.338 2.974 2.974 0 0 1-.17-1.025v-.205c0-.43.064-.814.192-1.152.129-.339.3-.624.515-.855a2.23 2.23 0 0 1 .738-.53c.276-.122.564-.183.864-.183.377 0 .703.066.976.198.274.132.5.313.677.544.177.231.308.505.393.82.084.316.127.66.127 1.03v.406h-3.58c.007.244.047.472.12.684.073.211.178.395.313.552a1.467 1.467 0 0 0 1.135.507c.319 0 .59-.065.81-.195.222-.13.416-.303.582-.518l.551.43c-.084.13-.187.257-.307.379s-.261.23-.423.327a2.221 2.221 0 0 1-.554.23 2.687 2.687 0 0 1-.708.085zm-.112-4.736c-.182 0-.35.034-.503.1-.153.067-.29.164-.41.291-.12.127-.22.285-.3.474-.08.188-.135.405-.164.649h2.646v-.068a2.498 2.498 0 0 0-.085-.523 1.419 1.419 0 0 0-.22-.464 1.132 1.132 0 0 0-.383-.332 1.208 1.208 0 0 0-.581-.127zm3.003 1.953c0-.403.048-.77.144-1.1.096-.331.234-.614.415-.85.18-.236.4-.42.657-.55.257-.13.547-.195.869-.195.335 0 .626.059.874.176.247.117.459.286.635.508l.043-.586h.826v5.17c0 .349-.055.66-.164.93a1.906 1.906 0 0 1-1.17 1.117 2.684 2.684 0 0 1-1.379.1 2.835 2.835 0 0 1-.537-.152 2.409 2.409 0 0 1-.52-.28 1.687 1.687 0 0 1-.425-.435l.47-.542c.11.137.224.25.34.342.118.09.236.164.355.22.119.055.24.095.361.12a1.85 1.85 0 0 0 .94-.055c.173-.06.32-.15.442-.27.122-.121.216-.268.28-.442.066-.175.099-.377.099-.608v-.46a1.777 1.777 0 0 1-.628.465 2.089 2.089 0 0 1-.852.16c-.316 0-.601-.066-.857-.2a1.937 1.937 0 0 1-.654-.559 2.668 2.668 0 0 1-.418-.85 3.734 3.734 0 0 1-.146-1.071zm.908.103c0 .264.027.512.08.745.054.232.137.435.25.608.112.172.256.309.432.41.175.1.385.151.63.151.16 0 .303-.02.432-.059a1.25 1.25 0 0 0 .618-.405c.078-.094.146-.198.205-.312v-2.412a1.812 1.812 0 0 0-.206-.3 1.28 1.28 0 0 0-.615-.401 1.5 1.5 0 0 0-.425-.056 1.23 1.23 0 0 0-.634.154 1.275 1.275 0 0 0-.435.417c-.114.176-.198.38-.251.613-.054.233-.081.48-.081.744zm5.899 2.583h-.904v-5.283h.904zm-.977-6.685a.54.54 0 0 1 .134-.37c.09-.102.222-.152.398-.152.176 0 .31.05.4.151a.53.53 0 0 1 .137.371.516.516 0 0 1-.136.367c-.092.097-.225.146-.4.146-.177 0-.31-.049-.399-.146a.521.521 0 0 1-.134-.367zm2.183 3.995c0-.385.056-.74.168-1.067.112-.327.272-.611.478-.852a2.2 2.2 0 0 1 .755-.567 2.35 2.35 0 0 1 .996-.205c.374 0 .71.068 1.008.205.298.137.551.326.76.567.208.24.367.525.478.852.11.327.166.682.166 1.067v.107c0 .384-.055.74-.166 1.067-.11.327-.27.61-.478.85a2.212 2.212 0 0 1-.757.561 2.39 2.39 0 0 1-1.001.203c-.371 0-.705-.068-1.001-.203a2.201 2.201 0 0 1-.757-.561 2.527 2.527 0 0 1-.481-.85 3.266 3.266 0 0 1-.168-1.067zm.908.107c0 .264.03.513.092.747a1.9 1.9 0 0 0 .281.618c.126.177.282.318.469.422.187.104.406.156.657.156.247 0 .465-.052.654-.156.189-.104.345-.245.469-.422a1.97 1.97 0 0 0 .28-.618 2.82 2.82 0 0 0 .096-.747v-.107c0-.26-.032-.51-.095-.745a1.935 1.935 0 0 0-.284-.62 1.326 1.326 0 0 0-1.13-.583 1.29 1.29 0 0 0-.65.158 1.436 1.436 0 0 0-.466.425 1.897 1.897 0 0 0-.28.62 2.926 2.926 0 0 0-.093.745zm5.888-2.7l.03.664a1.961 1.961 0 0 1 1.582-.762c.257 0 .49.035.698.105.208.07.386.182.532.337.147.155.26.353.34.596.08.242.12.536.12.881V335h-.904v-3.472c0-.205-.023-.38-.068-.525a.866.866 0 0 0-.203-.354.799.799 0 0 0-.332-.2 1.495 1.495 0 0 0-.457-.063c-.293 0-.55.078-.771.234a1.592 1.592 0 0 0-.518.615V335h-.903v-5.283zm4.634 4.81c0-.157.047-.287.14-.391.092-.104.231-.157.417-.157.185 0 .326.053.422.157a.554.554 0 0 1 .144.39c0 .15-.048.275-.144.376-.096.101-.237.152-.422.152-.186 0-.325-.05-.418-.152a.535.535 0 0 1-.139-.376zm.005-4.312c0-.156.046-.287.14-.39.092-.105.231-.157.417-.157.185 0 .326.052.422.156a.554.554 0 0 1 .144.39c0 .15-.048.276-.144.377-.096.1-.237.151-.422.151-.186 0-.325-.05-.418-.151a.535.535 0 0 1-.139-.376zm8.184 4.263a1.684 1.684 0 0 1-.63.456 2.32 2.32 0 0 1-.918.164 2.16 2.16 0 0 1-.708-.11 1.378 1.378 0 0 1-.547-.347 1.578 1.578 0 0 1-.354-.61 2.866 2.866 0 0 1-.125-.901v-3.413h.904v3.423c0 .237.027.433.083.588a.955.955 0 0 0 .22.366c.09.09.195.152.312.186.117.034.238.051.361.051.368 0 .664-.07.886-.21.224-.14.387-.327.491-.561v-3.843h.904V335h-.86zm5.327-.88a.852.852 0 0 0-.044-.275.581.581 0 0 0-.174-.244 1.293 1.293 0 0 0-.368-.213 3.811 3.811 0 0 0-.63-.18 5.96 5.96 0 0 1-.791-.22 2.419 2.419 0 0 1-.598-.305 1.258 1.258 0 0 1-.379-.423 1.184 1.184 0 0 1-.131-.571c0-.208.046-.406.139-.593.092-.187.223-.352.393-.493.17-.142.374-.254.615-.337.24-.083.51-.125.806-.125.315 0 .598.043.847.13.249.086.46.204.635.354a1.514 1.514 0 0 1 .534 1.167h-.908a.79.79 0 0 0-.073-.325.885.885 0 0 0-.215-.293 1.108 1.108 0 0 0-.347-.21 1.29 1.29 0 0 0-.473-.08c-.19 0-.35.021-.481.065a.949.949 0 0 0-.325.176.675.675 0 0 0-.185.25.729.729 0 0 0-.01.548.5.5 0 0 0 .185.213c.091.063.216.122.374.176.158.053.362.108.613.163.322.075.602.16.84.254.237.094.434.204.59.33.157.125.273.269.35.432.076.163.114.351.114.566a1.4 1.4 0 0 1-.144.635 1.408 1.408 0 0 1-.413.493 2.023 2.023 0 0 1-.644.32c-.25.076-.529.115-.835.115-.352 0-.662-.05-.93-.147a2.084 2.084 0 0 1-.676-.388 1.646 1.646 0 0 1-.415-.552 1.519 1.519 0 0 1-.142-.637h.903c.01.186.055.341.135.466.08.126.18.227.3.306.12.078.252.133.395.166.144.032.287.048.43.048.186 0 .348-.02.488-.058.14-.04.258-.093.354-.161a.694.694 0 0 0 .218-.242.635.635 0 0 0 .073-.3zm3.96-1.25h-2.383v-.737h2.383zm3.071 2.75c-.368 0-.7-.064-.999-.19a2.229 2.229 0 0 1-1.252-1.339 2.972 2.972 0 0 1-.17-1.025v-.205c0-.43.063-.814.192-1.152.129-.339.3-.624.515-.855.215-.231.46-.408.737-.53.277-.122.565-.183.865-.183.377 0 .703.066.976.198.274.132.5.313.677.544.177.231.308.505.393.82.084.316.127.66.127 1.03v.406h-3.58c.007.244.047.472.12.684.073.211.178.395.313.552a1.467 1.467 0 0 0 1.135.507c.319 0 .59-.065.81-.195a2.04 2.04 0 0 0 .582-.518l.551.43a2.41 2.41 0 0 1-.307.379c-.12.122-.262.23-.423.327a2.223 2.223 0 0 1-.554.23 2.688 2.688 0 0 1-.708.085zm-.112-4.737c-.183 0-.35.034-.503.1-.153.067-.29.164-.41.291-.12.127-.22.285-.3.474-.08.188-.135.405-.164.649h2.646v-.068a2.503 2.503 0 0 0-.085-.523 1.419 1.419 0 0 0-.22-.464 1.132 1.132 0 0 0-.383-.332 1.208 1.208 0 0 0-.581-.127zm6.48 4.639a.98.98 0 0 1-.079-.247 4.27 4.27 0 0 1-.049-.31c-.084.088-.18.172-.285.252a2.047 2.047 0 0 1-.755.351 2.036 2.036 0 0 1-.464.052c-.27 0-.515-.041-.735-.122a1.712 1.712 0 0 1-.561-.332 1.463 1.463 0 0 1-.486-1.109c0-.283.055-.533.166-.75.11-.216.27-.397.476-.544.207-.146.457-.257.75-.332a3.96 3.96 0 0 1 .981-.112h.899v-.415c0-.316-.095-.567-.284-.755-.188-.187-.467-.28-.835-.28-.169 0-.323.022-.463.068-.14.046-.26.107-.36.183a.853.853 0 0 0-.231.266.65.65 0 0 0-.083.318h-.908c0-.19.05-.376.149-.562a1.65 1.65 0 0 1 .422-.5c.182-.149.403-.269.661-.362a2.58 2.58 0 0 1 .867-.139c.287 0 .551.037.794.11.242.073.45.184.622.332.173.148.308.333.405.554.098.222.147.48.147.777v2.456c0 .179.015.367.046.564.031.197.078.367.14.51V335zm-1.5-.688c.163 0 .316-.023.46-.069.142-.045.273-.105.39-.178.117-.073.219-.157.305-.252.086-.094.154-.192.203-.292v-1.084h-.752c-.518 0-.917.08-1.197.241a.79.79 0 0 0-.42.73.99.99 0 0 0 .064.357c.042.11.107.206.193.285a.96.96 0 0 0 .317.19c.126.048.271.072.437.072zm6.753-.713a.852.852 0 0 0-.044-.276.582.582 0 0 0-.173-.244 1.296 1.296 0 0 0-.369-.213 3.81 3.81 0 0 0-.63-.18 5.967 5.967 0 0 1-.79-.22 2.419 2.419 0 0 1-.599-.305 1.258 1.258 0 0 1-.378-.423 1.185 1.185 0 0 1-.132-.571c0-.208.046-.406.14-.593.092-.187.223-.352.392-.493.17-.142.375-.254.615-.337.241-.083.51-.125.806-.125.316 0 .598.043.847.13.25.086.46.204.635.354a1.515 1.515 0 0 1 .535 1.167h-.909a.79.79 0 0 0-.073-.325.884.884 0 0 0-.215-.293 1.108 1.108 0 0 0-.346-.21 1.29 1.29 0 0 0-.474-.08c-.189 0-.35.021-.48.065a.948.948 0 0 0-.326.176.676.676 0 0 0-.185.25.73.73 0 0 0-.01.548.5.5 0 0 0 .186.213c.09.063.215.122.373.176.158.053.362.108.613.163.322.075.602.16.84.254.237.094.434.204.59.33.157.125.273.269.35.432.076.163.115.351.115.566 0 .231-.048.443-.145.635a1.407 1.407 0 0 1-.412.493 2.025 2.025 0 0 1-.645.32c-.25.076-.529.115-.835.115-.351 0-.661-.05-.93-.147a2.083 2.083 0 0 1-.676-.388 1.645 1.645 0 0 1-.415-.552 1.519 1.519 0 0 1-.142-.637h.904c.01.186.054.341.134.466.08.126.18.227.3.306.12.078.252.133.396.166.143.032.286.048.43.048.185 0 .348-.02.488-.058.14-.04.258-.093.354-.161a.693.693 0 0 0 .217-.242.635.635 0 0 0 .073-.3zm3.306-5.161v1.279h.986v.698h-.986v3.276a.92.92 0 0 0 .049.33.473.473 0 0 0 .129.193.413.413 0 0 0 .186.09c.07.015.142.022.217.022.075 0 .154-.007.237-.022.083-.014.147-.027.193-.036V335c-.072.02-.165.04-.279.063a2.154 2.154 0 0 1-.415.035c-.166 0-.323-.024-.471-.071a.95.95 0 0 1-.388-.237 1.166 1.166 0 0 1-.264-.437 1.98 1.98 0 0 1-.097-.666v-3.272h-.962v-.698h.962v-1.28z" fill="#757575"/><path d="M507.253 519.683c-1.79 0-3.253-1.368-3.253-3.04V351.04c0-1.672 1.464-3.039 3.253-3.039h230.811c1.79 0 3.254 1.367 3.254 3.039v165.605c0 1.671-1.464 3.039-3.254 3.039z" fill="#b3e5fc"/><path d="M507.253 519.683c-1.79 0-3.253-1.368-3.253-3.04V351.04c0-1.672 1.464-3.039 3.253-3.039h230.811c1.79 0 3.254 1.367 3.254 3.039v165.605c0 1.671-1.464 3.039-3.254 3.039z" stroke="#fff" stroke-linejoin="round" stroke-width="2"/><path d="M600 362.203a1.2 1.2 0 0 0-.076-.44.876.876 0 0 0-.269-.348 2.14 2.14 0 0 0-.52-.298 7.6 7.6 0 0 0-.83-.286c-.351-.1-.67-.216-.954-.344a3.135 3.135 0 0 1-.728-.445 1.792 1.792 0 0 1-.461-.573 1.627 1.627 0 0 1-.162-.738c0-.276.058-.533.174-.769.115-.236.279-.44.49-.615.212-.174.466-.31.762-.408.296-.097.627-.146.991-.146.4 0 .757.06 1.07.18.312.121.575.28.788.48a2.04 2.04 0 0 1 .652 1.494h-.942a1.56 1.56 0 0 0-.095-.552 1.16 1.16 0 0 0-.29-.44 1.34 1.34 0 0 0-.49-.288 2.102 2.102 0 0 0-.692-.103 2.2 2.2 0 0 0-.655.088c-.185.059-.338.14-.459.242a.96.96 0 0 0-.268.364 1.17 1.17 0 0 0-.088.459c0 .15.032.286.095.41s.162.238.295.342c.134.104.306.2.516.288.21.088.46.172.754.254.404.114.752.24 1.045.378.293.138.534.296.725.471.19.176.332.373.425.591.092.218.139.466.139.742 0 .29-.059.552-.176.786a1.72 1.72 0 0 1-.5.601 2.367 2.367 0 0 1-.782.383c-.304.09-.643.135-1.018.135a3.56 3.56 0 0 1-.654-.061 3.236 3.236 0 0 1-.627-.183 2.78 2.78 0 0 1-.557-.303c-.171-.12-.32-.26-.447-.42a1.88 1.88 0 0 1-.405-1.192h.942c0 .245.048.454.144.628.096.174.225.318.386.432.161.114.347.198.557.251.21.054.43.081.661.081.495 0 .874-.1 1.138-.303a.983.983 0 0 0 .395-.825zm5.263 1.275a1.684 1.684 0 0 1-.63.456 2.32 2.32 0 0 1-.918.164c-.26 0-.496-.037-.708-.11a1.378 1.378 0 0 1-.547-.347 1.578 1.578 0 0 1-.354-.61 2.866 2.866 0 0 1-.124-.901v-3.413h.903v3.423c0 .237.028.433.083.588a.955.955 0 0 0 .22.366c.091.09.195.152.313.186.117.034.237.051.36.051.369 0 .664-.07.887-.21.223-.14.387-.327.49-.561v-3.843h.904V364h-.86zm6.724-2.061c0 .387-.046.745-.137 1.072a2.62 2.62 0 0 1-.4.85c-.176.239-.39.425-.645.558a1.84 1.84 0 0 1-.869.2c-.348 0-.65-.06-.903-.182a1.778 1.778 0 0 1-.645-.525l-.044.61h-.83v-7.5h.904v2.798c.175-.218.387-.386.634-.503.248-.117.539-.176.874-.176.332 0 .626.065.882.195.255.13.47.314.644.55.174.236.307.519.398.85.091.33.137.697.137 1.1zm-.904-.103c0-.263-.024-.511-.073-.744a1.888 1.888 0 0 0-.237-.613 1.22 1.22 0 0 0-.427-.417 1.26 1.26 0 0 0-.644-.154c-.166 0-.316.02-.45.063a1.294 1.294 0 0 0-.634.44c-.078.1-.145.21-.2.327v2.285c.058.117.127.226.207.327a1.293 1.293 0 0 0 .637.44c.134.042.283.063.45.063.244 0 .452-.05.624-.151.173-.101.315-.238.425-.41.11-.173.192-.376.244-.608.052-.233.078-.481.078-.745zm2.896-2.597l.03.664a1.961 1.961 0 0 1 1.582-.762c.256 0 .49.035.698.105.208.07.385.182.532.337.146.155.26.353.34.596.079.242.119.536.119.881V364h-.904v-3.472c0-.205-.022-.38-.068-.525a.867.867 0 0 0-.202-.354.8.8 0 0 0-.333-.2 1.495 1.495 0 0 0-.456-.063c-.293 0-.55.078-.772.234a1.592 1.592 0 0 0-.517.615V364h-.904v-5.283zm6.856 5.38c-.368 0-.701-.063-1-.19a2.229 2.229 0 0 1-1.252-1.338 2.973 2.973 0 0 1-.17-1.025v-.205c0-.43.064-.814.192-1.152.13-.339.3-.624.516-.855.214-.231.46-.408.737-.53a2.12 2.12 0 0 1 .864-.183c.378 0 .703.066.977.198.273.132.499.313.676.544.177.231.308.505.393.82.085.316.127.66.127 1.03v.406h-3.58c.007.244.047.472.12.684.074.211.178.395.313.552a1.467 1.467 0 0 0 1.135.507c.32 0 .59-.065.81-.195.222-.13.416-.303.582-.518l.552.43c-.085.13-.188.257-.308.379s-.261.23-.422.327a2.222 2.222 0 0 1-.554.23 2.688 2.688 0 0 1-.708.085zm-.113-4.736c-.182 0-.35.034-.503.1-.153.067-.29.164-.41.291-.12.127-.22.285-.3.474-.08.188-.135.405-.164.649h2.647v-.068a2.502 2.502 0 0 0-.086-.523 1.419 1.419 0 0 0-.22-.464 1.131 1.131 0 0 0-.383-.332 1.208 1.208 0 0 0-.58-.127zm4.443-1.923v1.279h.987v.698h-.987v3.276a.92.92 0 0 0 .05.33.473.473 0 0 0 .129.193.413.413 0 0 0 .185.09c.07.015.143.022.218.022.074 0 .153-.007.236-.022.083-.014.148-.027.193-.036V364c-.071.02-.164.04-.278.063a2.154 2.154 0 0 1-.415.035c-.166 0-.323-.024-.471-.071a.95.95 0 0 1-.388-.237 1.166 1.166 0 0 1-.264-.437 1.98 1.98 0 0 1-.098-.666v-3.272h-.962v-.698h.962v-1.28zm6.72 5.317l1.015-4.038h.903L632.265 364h-.732l-1.284-4.004-1.25 4.004h-.733l-1.533-5.283h.898l1.04 3.955 1.23-3.955h.728zm2.597-1.445c0-.385.056-.74.168-1.067.113-.327.272-.611.479-.852.207-.241.458-.43.754-.567a2.35 2.35 0 0 1 .996-.205c.375 0 .71.068 1.009.205.298.137.55.326.759.567.208.24.368.525.478.852.111.327.167.682.167 1.067v.107c0 .384-.056.74-.167 1.067-.11.327-.27.61-.478.85-.208.239-.46.426-.757.561-.296.135-.63.203-1 .203-.372 0-.706-.068-1.002-.203a2.201 2.201 0 0 1-.757-.561 2.527 2.527 0 0 1-.48-.85 3.266 3.266 0 0 1-.17-1.067zm.908.107c0 .264.031.513.093.747a1.9 1.9 0 0 0 .28.618c.126.177.282.318.47.422.187.104.406.156.656.156a1.33 1.33 0 0 0 1.124-.578 1.97 1.97 0 0 0 .28-.618c.063-.234.095-.483.095-.747v-.107c0-.26-.032-.51-.095-.745a1.936 1.936 0 0 0-.283-.62 1.326 1.326 0 0 0-1.13-.583c-.248 0-.465.052-.65.158a1.435 1.435 0 0 0-.466.425 1.897 1.897 0 0 0-.281.62 2.927 2.927 0 0 0-.093.745zm7.588-1.89a2.382 2.382 0 0 0-.444-.034c-.313 0-.567.069-.764.205-.197.137-.345.32-.442.552V364h-.904v-5.283h.88l.014.61a1.59 1.59 0 0 1 .513-.517c.205-.127.454-.19.747-.19a1.336 1.336 0 0 1 .4.067zm2.305 2.027l-.567.59V364h-.903v-7.5h.903v4.536l.484-.58 1.645-1.74h1.099l-2.056 2.208 2.295 3.076h-1.06zm3.564 1.972c0-.156.047-.286.14-.39.092-.104.231-.157.417-.157.185 0 .326.053.422.157a.554.554 0 0 1 .144.39c0 .15-.048.275-.144.376-.096.101-.237.152-.422.152-.186 0-.325-.05-.418-.152a.535.535 0 0 1-.139-.376zm.005-4.311c0-.156.046-.287.14-.39.092-.105.231-.157.417-.157.185 0 .326.052.422.156a.554.554 0 0 1 .144.39c0 .15-.048.276-.144.377-.096.1-.237.151-.422.151-.186 0-.325-.05-.418-.151a.534.534 0 0 1-.139-.376zm-41.785 13.202c0 .387-.045.745-.136 1.072-.091.327-.224.61-.398.85a1.854 1.854 0 0 1-.642.558 1.84 1.84 0 0 1-.87.2c-.332 0-.622-.051-.871-.156a1.777 1.777 0 0 1-.642-.454v2.544h-.904v-7.314h.826l.044.586c.179-.222.395-.39.649-.508a2.09 2.09 0 0 1 .884-.176c.332 0 .626.065.881.195.256.13.471.314.647.55.176.236.309.519.398.85.09.33.134.697.134 1.1zm-.903-.103a3.23 3.23 0 0 0-.083-.744 1.878 1.878 0 0 0-.259-.613 1.312 1.312 0 0 0-.444-.417 1.266 1.266 0 0 0-.64-.154c-.153 0-.292.018-.417.053a1.26 1.26 0 0 0-.608.384c-.078.09-.147.186-.205.29v2.525c.058.104.127.2.205.29a1.207 1.207 0 0 0 .61.379 1.6 1.6 0 0 0 .425.053c.244 0 .455-.052.632-.156.178-.104.325-.244.442-.42.117-.176.204-.382.26-.618.054-.236.082-.485.082-.749zm4.605-1.787a2.386 2.386 0 0 0-.445-.034c-.312 0-.567.069-.764.205-.197.137-.344.32-.442.552V375h-.903v-5.283h.879l.014.61a1.59 1.59 0 0 1 .513-.517c.205-.127.454-.19.747-.19a1.336 1.336 0 0 1 .4.067zm.493 1.783c0-.385.056-.74.168-1.067.113-.327.272-.611.479-.852.206-.241.458-.43.754-.567a2.35 2.35 0 0 1 .996-.205c.375 0 .71.068 1.009.205.297.137.55.326.759.567.208.24.368.525.478.852.111.327.166.682.166 1.067v.107c0 .384-.055.74-.166 1.067-.11.327-.27.61-.478.85-.209.239-.46.426-.757.561-.296.135-.63.203-1.001.203-.371 0-.705-.068-1.001-.203a2.202 2.202 0 0 1-.757-.561 2.527 2.527 0 0 1-.48-.85 3.266 3.266 0 0 1-.17-1.067zm.908.107c0 .264.03.513.093.747.062.234.155.44.28.618a1.323 1.323 0 0 0 1.126.578c.247 0 .465-.052.654-.156.189-.104.345-.245.469-.422a1.97 1.97 0 0 0 .28-.618 2.82 2.82 0 0 0 .096-.747v-.107c0-.26-.032-.51-.095-.745a1.934 1.934 0 0 0-.283-.62 1.326 1.326 0 0 0-1.13-.583c-.248 0-.465.052-.65.158a1.436 1.436 0 0 0-.467.425 1.897 1.897 0 0 0-.28.62 2.926 2.926 0 0 0-.093.745zm4.814-.103c0-.403.05-.77.15-1.1.099-.331.24-.614.422-.85a1.93 1.93 0 0 1 .656-.55 1.86 1.86 0 0 1 .857-.195c.323 0 .604.055.845.164.24.109.45.266.625.47V367.5h.903v7.5h-.83l-.044-.566a1.77 1.77 0 0 1-.634.493c-.248.114-.54.17-.874.17-.31 0-.592-.066-.848-.2a1.96 1.96 0 0 1-.656-.559 2.664 2.664 0 0 1-.423-.85 3.676 3.676 0 0 1-.149-1.071zm.904.103c0 .264.027.512.08.745.054.232.138.435.252.608.114.172.259.309.434.41.176.1.386.151.63.151.16 0 .303-.019.43-.056a1.257 1.257 0 0 0 .618-.403c.08-.094.149-.199.207-.312v-2.427a1.726 1.726 0 0 0-.205-.298 1.26 1.26 0 0 0-.615-.393 1.5 1.5 0 0 0-.425-.056c-.247 0-.46.051-.637.154a1.276 1.276 0 0 0-.437.417 1.91 1.91 0 0 0-.252.613 3.34 3.34 0 0 0-.08.744zm6.836-.068h-2.383v-.738h2.383zm3.07 2.749c-.367 0-.7-.064-.998-.19a2.228 2.228 0 0 1-1.252-1.339 2.973 2.973 0 0 1-.17-1.025v-.205c0-.43.063-.814.192-1.152.128-.339.3-.624.515-.855.215-.231.46-.408.737-.53.277-.122.565-.183.865-.183.377 0 .703.066.976.198.274.132.499.313.676.544.178.231.309.505.394.82.084.316.126.66.126 1.03v.406h-3.579c.007.244.047.472.12.684.073.211.177.395.313.552a1.463 1.463 0 0 0 1.135.507c.319 0 .589-.065.81-.195.222-.13.415-.303.581-.518l.552.43c-.085.13-.187.257-.308.379-.12.122-.26.23-.422.327a2.22 2.22 0 0 1-.554.23 2.687 2.687 0 0 1-.708.085zm-.111-4.737c-.183 0-.35.034-.503.1-.153.067-.29.164-.41.291-.12.127-.221.285-.3.474a2.4 2.4 0 0 0-.164.649h2.646v-.068a2.499 2.499 0 0 0-.085-.523 1.42 1.42 0 0 0-.22-.464 1.133 1.133 0 0 0-.383-.332 1.208 1.208 0 0 0-.581-.127zm6.48 4.639a.978.978 0 0 1-.079-.247 3.947 3.947 0 0 1-.049-.31c-.084.088-.18.172-.285.252a2.046 2.046 0 0 1-.755.351 2.037 2.037 0 0 1-.464.052c-.27 0-.515-.041-.735-.122a1.711 1.711 0 0 1-.561-.332 1.461 1.461 0 0 1-.359-.496 1.491 1.491 0 0 1-.127-.613c0-.283.055-.533.166-.75.11-.216.27-.397.476-.544.207-.146.457-.257.75-.332a3.96 3.96 0 0 1 .981-.112h.899v-.415c0-.316-.095-.567-.284-.755-.188-.187-.467-.28-.835-.28-.169 0-.324.022-.464.068-.14.046-.26.107-.358.183a.853.853 0 0 0-.232.266.65.65 0 0 0-.083.318h-.909c0-.19.05-.376.15-.562a1.65 1.65 0 0 1 .422-.5c.182-.149.403-.269.661-.362a2.58 2.58 0 0 1 .867-.139c.286 0 .551.037.793.11.243.073.45.184.623.332.173.148.308.333.405.554.098.222.147.48.147.777v2.456c0 .179.015.367.046.564.031.197.077.367.14.51V375zm-1.5-.688c.163 0 .316-.023.46-.069.142-.045.272-.105.39-.178.117-.073.219-.157.305-.252.086-.094.154-.192.202-.292v-1.084h-.751c-.518 0-.917.08-1.197.241a.789.789 0 0 0-.42.73.99.99 0 0 0 .064.357c.042.11.106.206.193.285a.96.96 0 0 0 .317.19c.125.048.271.072.437.072zm6.753-.713a.852.852 0 0 0-.044-.276.581.581 0 0 0-.173-.244 1.293 1.293 0 0 0-.369-.213 3.811 3.811 0 0 0-.63-.18 5.958 5.958 0 0 1-.79-.22 2.418 2.418 0 0 1-.599-.305 1.258 1.258 0 0 1-.378-.423 1.184 1.184 0 0 1-.132-.571c0-.208.046-.406.139-.593a1.52 1.52 0 0 1 .393-.493c.17-.142.374-.254.615-.337.241-.083.51-.125.806-.125.316 0 .598.043.847.13.25.086.46.204.635.354a1.515 1.515 0 0 1 .534 1.167h-.908a.79.79 0 0 0-.073-.325.886.886 0 0 0-.215-.293 1.108 1.108 0 0 0-.346-.21 1.29 1.29 0 0 0-.474-.08c-.189 0-.35.021-.481.065a.949.949 0 0 0-.325.176.675.675 0 0 0-.185.25.729.729 0 0 0-.01.548.5.5 0 0 0 .185.213c.092.063.216.122.374.176.158.053.362.108.613.163.322.075.602.16.84.254.237.094.434.204.59.33.157.125.273.269.35.432.076.163.114.351.114.566a1.4 1.4 0 0 1-.144.635 1.408 1.408 0 0 1-.412.493 2.026 2.026 0 0 1-.645.32c-.25.076-.529.115-.835.115-.351 0-.661-.05-.93-.147a2.084 2.084 0 0 1-.676-.388 1.646 1.646 0 0 1-.415-.552 1.519 1.519 0 0 1-.142-.637h.903c.01.186.055.341.135.466.08.126.18.227.3.306.12.078.252.133.396.166.143.032.286.048.43.048.185 0 .347-.02.487-.058.14-.04.258-.093.355-.161a.694.694 0 0 0 .217-.242.635.635 0 0 0 .073-.3zm3.306-5.161v1.279h.986v.698h-.986v3.276a.92.92 0 0 0 .048.33.474.474 0 0 0 .13.193.413.413 0 0 0 .185.09c.07.015.143.022.218.022.075 0 .154-.007.237-.022a5.82 5.82 0 0 0 .192-.036V375c-.071.02-.164.04-.278.063a2.154 2.154 0 0 1-.415.035c-.166 0-.323-.024-.471-.071a.95.95 0 0 1-.388-.237 1.166 1.166 0 0 1-.264-.437 1.98 1.98 0 0 1-.098-.666v-3.272h-.962v-.698h.962v-1.28z" fill="#757575"/><path d="M624.705 498c-.938 0-1.705-.684-1.705-1.52V385.52c0-.836.767-1.52 1.705-1.52h98.59c.938 0 1.705.684 1.705 1.52v110.96c0 .836-.767 1.52-1.705 1.52z" fill="#4fc3f8"/><path d="M624.705 498c-.938 0-1.705-.684-1.705-1.52V385.52c0-.836.767-1.52 1.705-1.52h98.59c.938 0 1.705.684 1.705 1.52v110.96c0 .836-.767 1.52-1.705 1.52z" stroke="#fff" stroke-linejoin="round" stroke-width="2"/><path d="M650.945 405.478a1.684 1.684 0 0 1-.63.456 2.32 2.32 0 0 1-.918.164c-.26 0-.496-.037-.708-.11a1.378 1.378 0 0 1-.546-.347 1.578 1.578 0 0 1-.354-.61 2.866 2.866 0 0 1-.125-.901v-3.413h.903v3.423c0 .237.028.433.083.588a.955.955 0 0 0 .22.366c.091.09.195.152.313.186.117.034.237.051.361.051.368 0 .663-.07.886-.21.223-.14.387-.327.49-.561v-3.843h.904V406h-.86zm5.327-.88a.852.852 0 0 0-.043-.275.582.582 0 0 0-.174-.244 1.296 1.296 0 0 0-.368-.213 3.81 3.81 0 0 0-.63-.18 5.963 5.963 0 0 1-.791-.22 2.418 2.418 0 0 1-.598-.305 1.257 1.257 0 0 1-.379-.423 1.185 1.185 0 0 1-.132-.571c0-.208.047-.406.14-.593.092-.187.223-.352.392-.493.17-.142.375-.254.616-.337.24-.083.51-.125.805-.125.316 0 .598.043.847.13.25.086.461.204.635.354a1.514 1.514 0 0 1 .535 1.167h-.908a.79.79 0 0 0-.074-.325.884.884 0 0 0-.214-.293 1.108 1.108 0 0 0-.347-.21 1.29 1.29 0 0 0-.474-.08c-.188 0-.349.021-.48.065a.948.948 0 0 0-.325.176.675.675 0 0 0-.186.25.73.73 0 0 0-.01.548.5.5 0 0 0 .186.213c.091.063.216.122.373.176.158.053.363.108.613.163.323.075.603.16.84.254.238.094.435.204.59.33.157.125.274.269.35.432.077.163.115.351.115.566a1.4 1.4 0 0 1-.144.635 1.407 1.407 0 0 1-.413.493 2.025 2.025 0 0 1-.644.32c-.251.076-.53.115-.835.115-.352 0-.662-.05-.93-.147a2.084 2.084 0 0 1-.677-.388 1.645 1.645 0 0 1-.415-.552 1.519 1.519 0 0 1-.141-.637h.903c.01.186.054.341.134.466.08.126.18.227.3.306.12.078.253.133.396.166.143.032.286.048.43.048.185 0 .348-.02.488-.058.14-.04.258-.093.354-.161a.693.693 0 0 0 .217-.242.635.635 0 0 0 .074-.3zm3.96-1.25h-2.382v-.737h2.382zm3.072 2.75c-.368 0-.701-.064-.999-.19a2.228 2.228 0 0 1-1.252-1.339 2.974 2.974 0 0 1-.171-1.025v-.205c0-.43.064-.814.193-1.152.128-.339.3-.624.515-.855.215-.231.46-.408.737-.53.277-.122.565-.183.864-.183.378 0 .703.066.977.198.273.132.499.313.676.544.178.231.309.505.393.82.085.316.127.66.127 1.03v.406h-3.579c.007.244.047.472.12.684.073.211.177.395.312.552a1.466 1.466 0 0 0 1.135.507c.32 0 .59-.065.811-.195.221-.13.415-.303.581-.518l.552.43c-.085.13-.187.257-.308.379-.12.122-.261.23-.422.327a2.22 2.22 0 0 1-.554.23 2.687 2.687 0 0 1-.708.085zm-.113-4.737c-.182 0-.35.034-.503.1-.153.067-.29.164-.41.291-.12.127-.22.285-.3.474-.08.188-.134.405-.164.649h2.647v-.068a2.495 2.495 0 0 0-.086-.523 1.42 1.42 0 0 0-.22-.464 1.133 1.133 0 0 0-.382-.332 1.208 1.208 0 0 0-.582-.127zm6.48 4.639a.977.977 0 0 1-.078-.247 3.947 3.947 0 0 1-.049-.31c-.085.088-.18.172-.286.252a2.045 2.045 0 0 1-.754.351 2.037 2.037 0 0 1-.464.052c-.27 0-.515-.041-.735-.122a1.712 1.712 0 0 1-.561-.332 1.49 1.49 0 0 1-.486-1.108c0-.284.055-.534.166-.75.11-.217.27-.398.476-.545.207-.146.456-.257.75-.332.292-.075.62-.112.98-.112h.9v-.415c0-.316-.095-.567-.284-.755-.189-.187-.467-.28-.835-.28-.17 0-.324.022-.464.068a1.2 1.2 0 0 0-.359.183.854.854 0 0 0-.232.266.65.65 0 0 0-.083.318h-.908c0-.19.05-.376.15-.562.098-.185.24-.352.422-.5.182-.149.402-.269.661-.362.259-.092.548-.139.867-.139.286 0 .55.037.793.11.243.073.45.184.623.332.172.148.308.333.405.554.098.222.147.48.147.777v2.456c0 .179.015.367.046.564.03.197.077.367.14.51V406zm-1.5-.688c.164 0 .317-.023.46-.069.143-.045.273-.105.39-.178a1.41 1.41 0 0 0 .306-.252c.086-.094.154-.192.202-.292v-1.084h-.752c-.517 0-.916.08-1.196.241a.79.79 0 0 0-.42.73.99.99 0 0 0 .064.357c.042.11.106.206.192.285.087.08.192.143.318.19.125.048.27.072.437.072zm6.754-.713a.852.852 0 0 0-.044-.276.58.58 0 0 0-.173-.244 1.294 1.294 0 0 0-.37-.213 3.811 3.811 0 0 0-.629-.18 5.957 5.957 0 0 1-.791-.22 2.418 2.418 0 0 1-.598-.305 1.258 1.258 0 0 1-.379-.423 1.184 1.184 0 0 1-.131-.571c0-.208.046-.406.139-.593a1.52 1.52 0 0 1 .393-.493c.17-.142.374-.254.615-.337.24-.083.51-.125.806-.125.315 0 .598.043.847.13.249.086.46.204.635.354a1.515 1.515 0 0 1 .534 1.167h-.908a.79.79 0 0 0-.073-.325.885.885 0 0 0-.215-.293 1.108 1.108 0 0 0-.347-.21 1.29 1.29 0 0 0-.473-.08c-.19 0-.35.021-.481.065a.95.95 0 0 0-.325.176.676.676 0 0 0-.186.25.729.729 0 0 0-.01.548.5.5 0 0 0 .186.213c.091.063.216.122.374.176.158.053.362.108.613.163.322.075.602.16.84.254.237.094.434.204.59.33.156.125.273.269.35.432.076.163.114.351.114.566a1.4 1.4 0 0 1-.144.635 1.408 1.408 0 0 1-.413.493 2.026 2.026 0 0 1-.644.32c-.25.076-.529.115-.835.115-.352 0-.662-.05-.93-.147a2.084 2.084 0 0 1-.676-.388 1.645 1.645 0 0 1-.416-.552 1.519 1.519 0 0 1-.141-.637h.903c.01.186.055.341.135.466.08.126.18.227.3.306.12.078.252.133.395.166.144.032.287.048.43.048.185 0 .348-.02.488-.058.14-.04.258-.093.354-.161a.695.695 0 0 0 .218-.242.635.635 0 0 0 .073-.3zm3.306-5.161v1.279h.986v.698h-.986v3.276a.92.92 0 0 0 .048.33.473.473 0 0 0 .13.193.413.413 0 0 0 .185.09c.07.015.143.022.217.022.075 0 .154-.007.237-.022.083-.014.148-.027.193-.036V406c-.071.02-.164.04-.278.063a2.156 2.156 0 0 1-.415.035c-.166 0-.323-.024-.471-.071a.95.95 0 0 1-.389-.237 1.166 1.166 0 0 1-.263-.437 1.98 1.98 0 0 1-.098-.666v-3.272h-.962v-.698h.962v-1.28zm4.917 6.562h-.909v-6.02l-1.821.668v-.82l2.588-.972h.142zm4.619-2.651h-2.383v-.738h2.383zm5.351.068c0 .387-.045.745-.137 1.072a2.58 2.58 0 0 1-.4.85 1.87 1.87 0 0 1-.644.558 1.84 1.84 0 0 1-.87.2c-.348 0-.649-.06-.903-.182a1.778 1.778 0 0 1-.644-.525l-.044.61h-.83v-7.5h.903v2.798c.176-.218.387-.386.635-.503.247-.117.538-.176.874-.176.332 0 .625.065.881.195.255.13.47.314.644.55.175.236.307.519.398.85.092.33.137.697.137 1.1zm-.903-.103c0-.263-.025-.511-.073-.744a1.888 1.888 0 0 0-.237-.613 1.22 1.22 0 0 0-.428-.417 1.26 1.26 0 0 0-.644-.154c-.166 0-.316.02-.45.063a1.293 1.293 0 0 0-.634.44c-.078.1-.145.21-.2.327v2.285c.058.117.128.226.207.327a1.294 1.294 0 0 0 .637.44c.134.042.284.063.45.063.244 0 .452-.05.625-.151.172-.101.314-.238.425-.41.11-.173.192-.376.244-.608.052-.233.078-.481.078-.745z" fill="#fff"/><path d="M621.295 498h-98.59c-.938 0-1.705-.684-1.705-1.52V385.52c0-.836.767-1.52 1.705-1.52h98.59c.938 0 1.705.684 1.705 1.52v110.96c0 .836-.767 1.52-1.705 1.52" fill="#4fc3f8"/><path d="M621.295 498h-98.59c-.938 0-1.705-.684-1.705-1.52V385.52c0-.836.767-1.52 1.705-1.52h98.59c.938 0 1.705.684 1.705 1.52v110.96c0 .836-.767 1.52-1.705 1.52" stroke="#fff" stroke-linejoin="round" stroke-width="2"/><path d="M548.945 405.478a1.683 1.683 0 0 1-.63.456 2.32 2.32 0 0 1-.918.164c-.26 0-.496-.037-.708-.11a1.378 1.378 0 0 1-.546-.347 1.578 1.578 0 0 1-.354-.61 2.866 2.866 0 0 1-.125-.901v-3.413h.903v3.423c0 .237.028.433.083.588a.955.955 0 0 0 .22.366c.091.09.195.152.313.186.117.034.237.051.361.051.368 0 .663-.07.886-.21.223-.14.387-.327.49-.561v-3.843h.904V406h-.86zm5.327-.88a.852.852 0 0 0-.043-.275.581.581 0 0 0-.174-.244 1.296 1.296 0 0 0-.368-.213 3.81 3.81 0 0 0-.63-.18 5.963 5.963 0 0 1-.791-.22 2.418 2.418 0 0 1-.598-.305 1.258 1.258 0 0 1-.379-.423 1.185 1.185 0 0 1-.132-.571c0-.208.047-.406.14-.593.092-.187.223-.352.392-.493.17-.142.375-.254.616-.337.24-.083.51-.125.805-.125.316 0 .598.043.847.13.25.086.461.204.635.354a1.515 1.515 0 0 1 .535 1.167h-.908a.79.79 0 0 0-.074-.325.884.884 0 0 0-.214-.293 1.108 1.108 0 0 0-.347-.21 1.29 1.29 0 0 0-.474-.08c-.188 0-.349.021-.48.065a.948.948 0 0 0-.325.176.675.675 0 0 0-.186.25.73.73 0 0 0-.01.548.5.5 0 0 0 .186.213c.091.063.216.122.373.176.158.053.363.108.613.163.323.075.602.16.84.254s.435.204.59.33c.157.125.274.269.35.432.077.163.115.351.115.566a1.4 1.4 0 0 1-.144.635 1.408 1.408 0 0 1-.413.493 2.025 2.025 0 0 1-.644.32c-.251.076-.53.115-.835.115-.352 0-.662-.05-.93-.147a2.084 2.084 0 0 1-.677-.388 1.645 1.645 0 0 1-.415-.552 1.519 1.519 0 0 1-.141-.637h.903c.01.186.054.341.134.466.08.126.18.227.3.306.12.078.253.133.396.166.143.032.286.048.43.048.185 0 .348-.02.488-.058.14-.04.258-.093.354-.161a.693.693 0 0 0 .217-.242.635.635 0 0 0 .073-.3zm3.96-1.25h-2.382v-.737h2.382zm3.072 2.75c-.368 0-.701-.064-.999-.19a2.228 2.228 0 0 1-1.252-1.339 2.973 2.973 0 0 1-.171-1.025v-.205c0-.43.064-.814.193-1.152.128-.339.3-.624.515-.855.215-.231.46-.408.737-.53.277-.122.565-.183.864-.183.378 0 .703.066.977.198.273.132.499.313.676.544.178.231.309.505.393.82.085.316.127.66.127 1.03v.406h-3.579c.007.244.047.472.12.684.073.211.177.395.312.552a1.466 1.466 0 0 0 1.136.507c.319 0 .589-.065.81-.195.221-.13.415-.303.581-.518l.552.43c-.085.13-.187.257-.308.379-.12.122-.261.23-.422.327a2.22 2.22 0 0 1-.554.23 2.687 2.687 0 0 1-.708.085zm-.113-4.737c-.182 0-.35.034-.503.1-.153.067-.29.164-.41.291-.12.127-.22.285-.3.474-.08.188-.134.405-.164.649h2.647v-.068a2.498 2.498 0 0 0-.086-.523 1.419 1.419 0 0 0-.22-.464 1.132 1.132 0 0 0-.383-.332 1.208 1.208 0 0 0-.58-.127zm6.48 4.639a.977.977 0 0 1-.078-.247 3.947 3.947 0 0 1-.049-.31c-.085.088-.18.172-.286.252a2.045 2.045 0 0 1-.754.351 2.037 2.037 0 0 1-.464.052c-.27 0-.515-.041-.735-.122a1.712 1.712 0 0 1-.561-.332 1.462 1.462 0 0 1-.36-.496 1.491 1.491 0 0 1-.126-.613c0-.283.055-.533.166-.75.11-.216.27-.397.476-.544.207-.146.456-.257.75-.332.292-.075.62-.112.98-.112h.9v-.415c0-.316-.095-.567-.284-.755-.189-.187-.467-.28-.835-.28-.17 0-.324.022-.464.068a1.2 1.2 0 0 0-.359.183.854.854 0 0 0-.232.266.65.65 0 0 0-.083.318h-.908c0-.19.05-.376.15-.562.098-.185.24-.352.422-.5.182-.149.402-.269.661-.362.259-.092.548-.139.867-.139.286 0 .55.037.793.11.243.073.45.184.623.332.172.148.308.333.405.554.098.222.147.48.147.777v2.456c0 .179.015.367.046.564.03.197.077.367.14.51V406zm-1.5-.688c.164 0 .317-.023.46-.069.143-.045.273-.105.39-.178a1.41 1.41 0 0 0 .306-.252c.086-.094.154-.192.202-.292v-1.084h-.752c-.517 0-.916.08-1.196.241a.79.79 0 0 0-.42.73.99.99 0 0 0 .064.357c.042.11.106.206.192.285.087.08.193.143.318.19.125.048.27.072.437.072zm6.754-.713a.852.852 0 0 0-.044-.276.581.581 0 0 0-.173-.244 1.294 1.294 0 0 0-.37-.213 3.812 3.812 0 0 0-.629-.18 5.957 5.957 0 0 1-.791-.22 2.418 2.418 0 0 1-.598-.305 1.258 1.258 0 0 1-.379-.423 1.184 1.184 0 0 1-.131-.571c0-.208.046-.406.139-.593a1.52 1.52 0 0 1 .393-.493c.17-.142.374-.254.615-.337.24-.083.51-.125.806-.125.315 0 .598.043.847.13.249.086.46.204.635.354a1.515 1.515 0 0 1 .534 1.167h-.908a.79.79 0 0 0-.073-.325.885.885 0 0 0-.215-.293 1.108 1.108 0 0 0-.347-.21 1.29 1.29 0 0 0-.473-.08c-.19 0-.35.021-.481.065a.95.95 0 0 0-.325.176.676.676 0 0 0-.186.25.729.729 0 0 0-.01.548.5.5 0 0 0 .186.213c.091.063.216.122.374.176.158.053.362.108.613.163.322.075.602.16.84.254.237.094.434.204.59.33.156.125.273.269.35.432.076.163.114.351.114.566a1.4 1.4 0 0 1-.144.635 1.408 1.408 0 0 1-.413.493 2.026 2.026 0 0 1-.644.32c-.25.076-.529.115-.835.115-.352 0-.662-.05-.93-.147a2.084 2.084 0 0 1-.676-.388 1.645 1.645 0 0 1-.416-.552 1.519 1.519 0 0 1-.141-.637h.903c.01.186.055.341.135.466.08.126.18.227.3.306.12.078.252.133.395.166.144.032.287.048.43.048.186 0 .348-.02.488-.058.14-.04.258-.093.354-.161a.694.694 0 0 0 .218-.242.635.635 0 0 0 .073-.3zm3.306-5.161v1.279h.986v.698h-.986v3.276a.92.92 0 0 0 .048.33.473.473 0 0 0 .13.193.413.413 0 0 0 .185.09c.07.015.143.022.217.022.075 0 .154-.007.237-.022.083-.014.148-.027.193-.036V406c-.071.02-.164.04-.278.063a2.156 2.156 0 0 1-.415.035c-.166 0-.323-.024-.471-.071a.95.95 0 0 1-.389-.237 1.166 1.166 0 0 1-.263-.437 1.98 1.98 0 0 1-.098-.666v-3.272h-.962v-.698h.962v-1.28zm4.916 6.562h-.908v-6.02l-1.821.668v-.82l2.588-.972h.141zm4.62-2.651h-2.383v-.738h2.383zm4.14 2.651a.98.98 0 0 1-.078-.247 4.27 4.27 0 0 1-.049-.31c-.084.088-.18.172-.285.252a2.045 2.045 0 0 1-.755.351 2.036 2.036 0 0 1-.464.052c-.27 0-.515-.041-.734-.122a1.712 1.712 0 0 1-.562-.332 1.462 1.462 0 0 1-.359-.496 1.492 1.492 0 0 1-.127-.613c0-.283.055-.533.166-.75.11-.216.27-.397.476-.544.207-.146.457-.257.75-.332a3.96 3.96 0 0 1 .981-.112h.899v-.415c0-.316-.095-.567-.284-.755-.188-.187-.467-.28-.835-.28-.169 0-.323.022-.463.068-.14.046-.26.107-.36.183a.853.853 0 0 0-.231.266.65.65 0 0 0-.083.318h-.908c0-.19.05-.376.149-.562a1.65 1.65 0 0 1 .422-.5c.182-.149.403-.269.662-.362.258-.092.547-.139.866-.139.287 0 .551.037.794.11.242.073.45.184.622.332.173.148.308.333.405.554.098.222.147.48.147.777v2.456c0 .179.015.367.046.564.031.197.078.367.14.51V406zm-1.499-.688c.163 0 .316-.023.46-.069.142-.045.273-.105.39-.178.117-.073.219-.157.305-.252.086-.094.154-.192.203-.292v-1.084h-.752c-.518 0-.917.08-1.197.241a.79.79 0 0 0-.42.73.99.99 0 0 0 .064.357c.042.11.107.206.193.285a.96.96 0 0 0 .317.19c.125.048.271.072.437.072z" fill="#fff"/><path d="M333.705 498c-.938 0-1.705-.684-1.705-1.52V385.52c0-.836.767-1.52 1.705-1.52h98.59c.938 0 1.705.684 1.705 1.52v110.96c0 .836-.767 1.52-1.705 1.52z" fill="#4fc3f8"/><path d="M333.705 498c-.938 0-1.705-.684-1.705-1.52V385.52c0-.836.767-1.52 1.705-1.52h98.59c.938 0 1.705.684 1.705 1.52v110.96c0 .836-.767 1.52-1.705 1.52z" stroke="#fff" stroke-linejoin="round" stroke-width="2"/><path d="M360.945 405.478a1.684 1.684 0 0 1-.63.456 2.32 2.32 0 0 1-.918.164c-.26 0-.496-.037-.708-.11a1.378 1.378 0 0 1-.546-.347 1.578 1.578 0 0 1-.354-.61 2.866 2.866 0 0 1-.125-.901v-3.413h.903v3.423c0 .237.028.433.083.588a.955.955 0 0 0 .22.366c.091.09.195.152.313.186.117.034.237.051.36.051.369 0 .664-.07.887-.21.223-.14.387-.327.49-.561v-3.843h.904V406h-.86zm5.327-.88a.852.852 0 0 0-.043-.275.581.581 0 0 0-.174-.244 1.295 1.295 0 0 0-.368-.213 3.811 3.811 0 0 0-.63-.18 5.96 5.96 0 0 1-.791-.22 2.418 2.418 0 0 1-.599-.305 1.258 1.258 0 0 1-.378-.423 1.185 1.185 0 0 1-.132-.571c0-.208.047-.406.14-.593.092-.187.223-.352.392-.493.17-.142.375-.254.616-.337.24-.083.51-.125.805-.125.316 0 .599.043.847.13.25.086.461.204.635.354a1.515 1.515 0 0 1 .535 1.167h-.908a.79.79 0 0 0-.073-.325.884.884 0 0 0-.215-.293 1.108 1.108 0 0 0-.347-.21 1.29 1.29 0 0 0-.474-.08c-.188 0-.349.021-.48.065a.948.948 0 0 0-.325.176.675.675 0 0 0-.186.25.73.73 0 0 0-.01.548.5.5 0 0 0 .186.213c.091.063.216.122.373.176.158.053.363.108.613.163.322.075.602.16.84.254s.435.204.59.33c.157.125.274.269.35.432.077.163.115.351.115.566a1.4 1.4 0 0 1-.144.635 1.408 1.408 0 0 1-.413.493 2.025 2.025 0 0 1-.644.32c-.251.076-.53.115-.835.115-.352 0-.662-.05-.93-.147a2.084 2.084 0 0 1-.677-.388 1.645 1.645 0 0 1-.415-.552 1.519 1.519 0 0 1-.141-.637h.903c.01.186.054.341.134.466.08.126.18.227.3.306.12.078.253.133.396.166.143.032.286.048.43.048.185 0 .348-.02.488-.058.14-.04.258-.093.354-.161a.693.693 0 0 0 .217-.242.635.635 0 0 0 .073-.3zm3.96-1.25h-2.382v-.737h2.382zm5.557 1.407l1.016-4.038h.903L376.17 406h-.733l-1.284-4.004-1.25 4.004h-.732l-1.533-5.283h.898l1.04 3.955 1.23-3.955h.728zm5.03 1.343c-.369 0-.701-.064-1-.19a2.228 2.228 0 0 1-1.252-1.339 2.972 2.972 0 0 1-.17-1.025v-.205c0-.43.064-.814.192-1.152.129-.339.3-.624.515-.855a2.23 2.23 0 0 1 .738-.53c.276-.122.565-.183.864-.183.378 0 .703.066.977.198.273.132.498.313.676.544.177.231.308.505.393.82.085.316.127.66.127 1.03v.406h-3.58c.007.244.047.472.12.684.074.211.178.395.313.552a1.467 1.467 0 0 0 1.135.507c.32 0 .59-.065.81-.195.222-.13.416-.303.582-.518l.552.43c-.085.13-.188.257-.308.379s-.261.23-.422.327a2.222 2.222 0 0 1-.555.23 2.688 2.688 0 0 1-.708.085zm-.113-4.737c-.182 0-.35.034-.503.1-.153.067-.29.164-.41.291-.12.127-.22.285-.3.474a2.4 2.4 0 0 0-.164.649h2.647v-.068a2.502 2.502 0 0 0-.086-.523 1.419 1.419 0 0 0-.22-.464 1.132 1.132 0 0 0-.383-.332 1.208 1.208 0 0 0-.58-.127zM387 404.6a.852.852 0 0 0-.044-.276.581.581 0 0 0-.173-.244 1.294 1.294 0 0 0-.369-.213 3.81 3.81 0 0 0-.63-.18 5.96 5.96 0 0 1-.79-.22 2.419 2.419 0 0 1-.599-.305 1.258 1.258 0 0 1-.378-.423 1.185 1.185 0 0 1-.132-.571c0-.208.046-.406.139-.593a1.52 1.52 0 0 1 .393-.493c.17-.142.374-.254.615-.337.241-.083.51-.125.806-.125.316 0 .598.043.847.13.25.086.46.204.635.354a1.515 1.515 0 0 1 .534 1.167h-.908a.79.79 0 0 0-.073-.325.885.885 0 0 0-.215-.293 1.108 1.108 0 0 0-.346-.21 1.29 1.29 0 0 0-.474-.08c-.189 0-.35.021-.481.065a.949.949 0 0 0-.325.176.675.675 0 0 0-.185.25.729.729 0 0 0-.01.548.5.5 0 0 0 .185.213c.092.063.216.122.374.176.158.053.362.108.613.163.322.075.602.16.84.254.237.094.434.204.59.33.157.125.273.269.35.432.076.163.114.351.114.566a1.4 1.4 0 0 1-.144.635 1.408 1.408 0 0 1-.412.493c-.18.137-.394.243-.645.32-.25.076-.529.115-.835.115-.351 0-.661-.05-.93-.147a2.084 2.084 0 0 1-.676-.388 1.645 1.645 0 0 1-.415-.552 1.519 1.519 0 0 1-.142-.637h.903c.01.186.055.341.135.466.08.126.18.227.3.306.12.078.252.133.396.166.143.032.286.048.43.048.185 0 .348-.02.487-.058.14-.04.258-.093.354-.161a.694.694 0 0 0 .218-.242.635.635 0 0 0 .073-.3zm3.306-5.161v1.279h.986v.698h-.986v3.276a.92.92 0 0 0 .048.33.473.473 0 0 0 .13.193.413.413 0 0 0 .185.09c.07.015.143.022.218.022.075 0 .154-.007.237-.022.083-.014.147-.027.192-.036V406c-.071.02-.164.04-.278.063a2.156 2.156 0 0 1-.415.035c-.166 0-.323-.024-.471-.071a.95.95 0 0 1-.388-.237 1.166 1.166 0 0 1-.264-.437 1.98 1.98 0 0 1-.098-.666v-3.272h-.962v-.698h.962v-1.28zm4.917 6.562h-.909v-6.02l-1.82.668v-.82l2.587-.972h.142zm4.619-2.651h-2.383v-.738h2.383zm5.351.068c0 .387-.045.745-.136 1.072a2.62 2.62 0 0 1-.4.85 1.882 1.882 0 0 1-.645.558 1.84 1.84 0 0 1-.87.2c-.348 0-.649-.06-.903-.182a1.778 1.778 0 0 1-.644-.525l-.044.61h-.83v-7.5h.903v2.798c.176-.218.387-.386.635-.503.247-.117.538-.176.874-.176.332 0 .626.065.881.195.256.13.47.314.645.55.174.236.307.519.398.85.09.33.136.697.136 1.1zm-.903-.103c0-.263-.024-.511-.073-.744a1.888 1.888 0 0 0-.237-.613 1.22 1.22 0 0 0-.427-.417 1.26 1.26 0 0 0-.645-.154c-.166 0-.316.02-.449.063a1.293 1.293 0 0 0-.635.44c-.078.1-.145.21-.2.327v2.285c.059.117.128.226.208.327a1.294 1.294 0 0 0 .637.44c.133.042.283.063.449.063.244 0 .452-.05.625-.151.173-.101.314-.238.425-.41.11-.173.192-.376.244-.608.052-.233.078-.481.078-.745z" fill="#fff"/><path d="M330.295 498h-98.59c-.938 0-1.705-.684-1.705-1.52V385.52c0-.836.767-1.52 1.705-1.52h98.59c.938 0 1.705.684 1.705 1.52v110.96c0 .836-.767 1.52-1.705 1.52" fill="#4fc3f8"/><path d="M330.295 498h-98.59c-.938 0-1.705-.684-1.705-1.52V385.52c0-.836.767-1.52 1.705-1.52h98.59c.938 0 1.705.684 1.705 1.52v110.96c0 .836-.767 1.52-1.705 1.52" stroke="#fff" stroke-linejoin="round" stroke-width="2"/><path d="M258.945 405.478a1.684 1.684 0 0 1-.63.456 2.32 2.32 0 0 1-.918.164c-.26 0-.496-.037-.708-.11a1.378 1.378 0 0 1-.546-.347 1.578 1.578 0 0 1-.354-.61 2.866 2.866 0 0 1-.125-.901v-3.413h.903v3.423c0 .237.028.433.083.588a.955.955 0 0 0 .22.366c.091.09.195.152.313.186.117.034.237.051.361.051.368 0 .663-.07.886-.21.223-.14.387-.327.49-.561v-3.843h.904V406h-.86zm5.327-.88a.852.852 0 0 0-.043-.275.581.581 0 0 0-.174-.244 1.295 1.295 0 0 0-.368-.213 3.81 3.81 0 0 0-.63-.18 5.96 5.96 0 0 1-.791-.22 2.418 2.418 0 0 1-.599-.305 1.258 1.258 0 0 1-.378-.423 1.185 1.185 0 0 1-.132-.571c0-.208.047-.406.14-.593.092-.187.223-.352.392-.493.17-.142.375-.254.616-.337.24-.083.51-.125.805-.125.316 0 .599.043.848.13.249.086.46.204.634.354a1.515 1.515 0 0 1 .535 1.167h-.908a.79.79 0 0 0-.073-.325.885.885 0 0 0-.215-.293 1.108 1.108 0 0 0-.347-.21 1.29 1.29 0 0 0-.474-.08c-.188 0-.349.021-.48.065a.948.948 0 0 0-.325.176.675.675 0 0 0-.186.25.73.73 0 0 0-.01.548.5.5 0 0 0 .186.213c.091.063.216.122.373.176.158.053.363.108.613.163.323.075.602.16.84.254s.435.204.59.33c.157.125.274.269.35.432.077.163.115.351.115.566a1.4 1.4 0 0 1-.144.635 1.408 1.408 0 0 1-.413.493 2.025 2.025 0 0 1-.644.32c-.251.076-.53.115-.835.115-.352 0-.662-.05-.93-.147a2.084 2.084 0 0 1-.677-.388 1.645 1.645 0 0 1-.415-.552 1.519 1.519 0 0 1-.141-.637h.903c.01.186.054.341.134.466.08.126.18.227.3.306.12.078.253.133.396.166.143.032.286.048.43.048.185 0 .348-.02.488-.058.14-.04.258-.093.354-.161a.694.694 0 0 0 .217-.242.635.635 0 0 0 .073-.3zm3.96-1.25h-2.382v-.737h2.382zm5.557 1.407l1.016-4.038h.903L274.17 406h-.733l-1.284-4.004-1.25 4.004h-.732l-1.533-5.283h.898l1.04 3.955 1.23-3.955h.728zm5.03 1.343a2.55 2.55 0 0 1-1-.19 2.228 2.228 0 0 1-1.252-1.339 2.973 2.973 0 0 1-.17-1.025v-.205c0-.43.064-.814.192-1.152.129-.339.3-.624.515-.855a2.23 2.23 0 0 1 .738-.53c.276-.122.565-.183.864-.183.378 0 .703.066.977.198.273.132.498.313.676.544.177.231.308.505.393.82.085.316.127.66.127 1.03v.406h-3.58c.007.244.047.472.12.684.074.211.178.395.313.552a1.467 1.467 0 0 0 1.135.507c.32 0 .59-.065.81-.195.222-.13.416-.303.582-.518l.552.43c-.085.13-.188.257-.308.379s-.261.23-.422.327a2.222 2.222 0 0 1-.555.23 2.688 2.688 0 0 1-.708.085zm-.113-4.737c-.182 0-.35.034-.503.1-.153.067-.29.164-.41.291-.12.127-.22.285-.3.474a2.4 2.4 0 0 0-.164.649h2.647v-.068a2.5 2.5 0 0 0-.086-.523 1.419 1.419 0 0 0-.22-.464 1.132 1.132 0 0 0-.383-.332 1.208 1.208 0 0 0-.58-.127zM285 404.6a.852.852 0 0 0-.044-.276.581.581 0 0 0-.173-.244 1.294 1.294 0 0 0-.369-.213 3.81 3.81 0 0 0-.63-.18 5.96 5.96 0 0 1-.79-.22 2.418 2.418 0 0 1-.599-.305 1.258 1.258 0 0 1-.378-.423 1.185 1.185 0 0 1-.132-.571c0-.208.046-.406.139-.593a1.52 1.52 0 0 1 .393-.493c.17-.142.374-.254.615-.337.241-.083.51-.125.806-.125.316 0 .598.043.847.13.25.086.46.204.635.354a1.515 1.515 0 0 1 .534 1.167h-.908a.79.79 0 0 0-.073-.325.885.885 0 0 0-.215-.293 1.108 1.108 0 0 0-.346-.21 1.29 1.29 0 0 0-.474-.08c-.189 0-.35.021-.481.065a.949.949 0 0 0-.325.176.675.675 0 0 0-.185.25.73.73 0 0 0-.01.548.5.5 0 0 0 .185.213c.092.063.216.122.374.176.158.053.362.108.613.163.322.075.602.16.84.254.237.094.434.204.59.33.157.125.273.269.35.432.076.163.114.351.114.566a1.4 1.4 0 0 1-.144.635 1.408 1.408 0 0 1-.412.493 2.025 2.025 0 0 1-.645.32c-.25.076-.529.115-.835.115-.351 0-.661-.05-.93-.147a2.084 2.084 0 0 1-.676-.388 1.645 1.645 0 0 1-.415-.552 1.519 1.519 0 0 1-.142-.637h.903c.01.186.055.341.135.466.08.126.18.227.3.306.12.078.252.133.396.166.143.032.286.048.43.048.185 0 .348-.02.487-.058.14-.04.258-.093.354-.161a.694.694 0 0 0 .218-.242.635.635 0 0 0 .073-.3zm3.306-5.161v1.279h.986v.698h-.986v3.276a.92.92 0 0 0 .048.33.473.473 0 0 0 .13.193.413.413 0 0 0 .185.09c.07.015.143.022.218.022.075 0 .154-.007.237-.022.083-.014.147-.027.192-.036V406a4.31 4.31 0 0 1-.278.063 2.156 2.156 0 0 1-.415.035c-.166 0-.323-.024-.471-.071a.95.95 0 0 1-.388-.237 1.166 1.166 0 0 1-.264-.437 1.98 1.98 0 0 1-.098-.666v-3.272h-.962v-.698h.962v-1.28zm4.917 6.562h-.909v-6.02l-1.82.668v-.82l2.587-.972h.142zm4.619-2.651h-2.383v-.738h2.383zm4.14 2.651a.978.978 0 0 1-.078-.247 4.27 4.27 0 0 1-.049-.31c-.084.088-.18.172-.285.252a2.045 2.045 0 0 1-.755.351 2.037 2.037 0 0 1-.463.052 2.11 2.11 0 0 1-.735-.122 1.712 1.712 0 0 1-.562-.332 1.462 1.462 0 0 1-.486-1.109c0-.283.056-.533.166-.75.111-.216.27-.397.476-.544.207-.146.457-.257.75-.332a3.96 3.96 0 0 1 .981-.112h.899v-.415c0-.316-.095-.567-.283-.755-.19-.187-.467-.28-.835-.28-.17 0-.324.022-.464.068-.14.046-.26.107-.36.183a.854.854 0 0 0-.231.266.65.65 0 0 0-.083.318h-.908c0-.19.05-.376.149-.562a1.65 1.65 0 0 1 .422-.5c.182-.149.403-.269.662-.362.258-.092.547-.139.866-.139.287 0 .551.037.794.11.242.073.45.184.622.332.173.148.308.333.406.554.097.222.146.48.146.777v2.456c0 .179.016.367.047.564.03.197.077.367.139.51V406zm-1.499-.688c.163 0 .316-.023.46-.069.143-.045.273-.105.39-.178.117-.073.219-.157.305-.252.086-.094.154-.192.203-.292v-1.084h-.752c-.518 0-.916.08-1.196.241a.79.79 0 0 0-.42.73.99.99 0 0 0 .063.357c.042.11.107.206.193.285a.96.96 0 0 0 .317.19c.126.048.271.072.437.072z" fill="#fff"/><path d="M446.635 245h-1.483l-3.802-6.053V245h-1.483v-8.531h1.483l3.814 6.076v-6.076h1.47zm4.406.117c-.469 0-.89-.078-1.266-.234a2.786 2.786 0 0 1-.955-.645 2.82 2.82 0 0 1-.603-.972 3.444 3.444 0 0 1-.211-1.213v-.235c0-.5.074-.952.223-1.356.148-.404.351-.748.609-1.031.258-.284.561-.502.911-.657a2.77 2.77 0 0 1 1.128-.231c.46 0 .861.077 1.201.231.34.155.621.37.844.648.223.277.389.607.498.99.11.383.164.803.164 1.26v.61h-4.143c.02.245.072.472.156.679.084.207.198.386.342.536a1.576 1.576 0 0 0 1.184.483c.352 0 .657-.07.917-.21a2.16 2.16 0 0 0 .677-.58l.767.732a2.603 2.603 0 0 1-.905.823 3.033 3.033 0 0 1-.683.27 3.303 3.303 0 0 1-.855.102zm-.17-5.431c-.39 0-.706.136-.946.41-.24.273-.394.654-.46 1.142h2.713v-.105a2.598 2.598 0 0 0-.091-.542 1.381 1.381 0 0 0-.226-.463 1.09 1.09 0 0 0-.395-.322c-.162-.08-.36-.12-.595-.12zm5.602-2.567v1.541h1.119v1.055h-1.12v3.539c0 .144.016.262.048.351a.46.46 0 0 0 .134.208.48.48 0 0 0 .208.1c.08.018.17.026.267.026.098 0 .192-.006.284-.02a2.93 2.93 0 0 0 .214-.038v1.101a5.35 5.35 0 0 1-.396.091c-.15.03-.33.044-.542.044-.234 0-.452-.031-.653-.094a1.297 1.297 0 0 1-.521-.304 1.417 1.417 0 0 1-.343-.551 2.458 2.458 0 0 1-.123-.832v-3.621h-1.043v-1.055h1.043v-1.54zm7.775 5.918l1.008-4.377h1.389l-1.729 6.34h-1.172l-1.36-4.354L461.05 245h-1.172l-1.734-6.34h1.388l1.026 4.33 1.3-4.33h1.073zm3.082-1.266c0-.46.067-.887.202-1.28.135-.392.328-.733.58-1.022.252-.29.56-.516.923-.68a2.973 2.973 0 0 1 1.236-.246c.465 0 .881.082 1.249.246.367.164.676.39.928.68.252.289.445.63.577 1.022.133.393.2.82.2 1.28v.124c0 .46-.067.888-.2 1.283a2.963 2.963 0 0 1-.577 1.022c-.252.287-.56.512-.926.674a3.024 3.024 0 0 1-1.239.243 3.04 3.04 0 0 1-1.245-.243 2.637 2.637 0 0 1-.926-.674 3.001 3.001 0 0 1-.58-1.022 3.946 3.946 0 0 1-.202-1.283zm1.424.124c0 .285.03.554.088.808.058.254.15.476.275.665.125.19.284.339.478.448.193.11.423.164.688.164.262 0 .49-.054.683-.164.193-.109.351-.258.474-.448s.215-.411.276-.665c.06-.254.09-.523.09-.808v-.124c0-.28-.03-.547-.09-.8a2.068 2.068 0 0 0-.279-.661 1.434 1.434 0 0 0-.477-.455 1.338 1.338 0 0 0-.688-.17c-.266 0-.494.057-.683.17-.19.114-.347.265-.472.455-.125.189-.217.41-.275.662a3.522 3.522 0 0 0-.088.8zm8.994-1.934a3.418 3.418 0 0 0-.58-.047c-.344 0-.623.066-.838.2a1.222 1.222 0 0 0-.48.55V245h-1.424v-6.34h1.36l.034.71c.16-.259.359-.46.595-.607.236-.147.515-.22.835-.22a1.732 1.732 0 0 1 .504.082zm2.959 2.32l-.633.65V245h-1.424v-9h1.424v5.191l.446-.556 1.752-1.975h1.71l-2.355 2.643 2.607 3.697h-1.646zm8.813-.45V245h-1.483v-8.531h3.264c.496 0 .936.067 1.321.202.385.135.71.323.976.565.265.243.467.53.606.862.139.332.208.693.208 1.084 0 .414-.07.785-.208 1.113-.139.328-.34.605-.606.832-.266.227-.591.4-.976.521a4.401 4.401 0 0 1-1.321.182zm0-1.19h1.78c.286 0 .531-.036.736-.106.205-.07.374-.17.507-.299.133-.129.23-.282.29-.46.06-.177.09-.372.09-.583 0-.199-.03-.39-.09-.574a1.313 1.313 0 0 0-.29-.49 1.411 1.411 0 0 0-.507-.339 1.937 1.937 0 0 0-.735-.126h-1.781zm9.369-.68a3.42 3.42 0 0 0-.58-.047c-.344 0-.623.066-.838.2a1.222 1.222 0 0 0-.48.55V245h-1.425v-6.34h1.36l.035.71c.16-.259.358-.46.595-.607.236-.147.514-.22.835-.22a1.743 1.743 0 0 1 .504.082zm.422 1.81c0-.46.067-.887.202-1.28.134-.392.328-.733.58-1.022.252-.29.56-.516.923-.68a2.973 2.973 0 0 1 1.236-.246c.465 0 .88.082 1.248.246.367.164.677.39.929.68a3 3 0 0 1 .577 1.022c.133.393.2.82.2 1.28v.124c0 .46-.067.888-.2 1.283a2.963 2.963 0 0 1-.577 1.022c-.252.287-.56.512-.926.674a3.024 3.024 0 0 1-1.24.243 3.04 3.04 0 0 1-1.244-.243 2.636 2.636 0 0 1-.926-.674 3 3 0 0 1-.58-1.022 3.944 3.944 0 0 1-.202-1.283zm1.423.124c0 .285.03.554.088.808.059.254.15.476.276.665.125.19.284.339.477.448.194.11.423.164.689.164.261 0 .489-.054.682-.164.194-.109.352-.258.475-.448s.215-.411.275-.665c.06-.254.091-.523.091-.808v-.124c0-.28-.03-.547-.09-.8a2.07 2.07 0 0 0-.279-.661 1.434 1.434 0 0 0-.478-.455 1.338 1.338 0 0 0-.688-.17 1.31 1.31 0 0 0-.683.17 1.45 1.45 0 0 0-.471.455c-.125.189-.217.41-.276.662a3.523 3.523 0 0 0-.088.8zm5.409-.112c0-.48.057-.92.172-1.318.116-.399.282-.74.498-1.026.217-.285.48-.505.789-.662a2.276 2.276 0 0 1 1.043-.234c.351 0 .66.06.928.182.268.12.501.295.7.521V236h1.424v9h-1.289l-.07-.656a2.13 2.13 0 0 1-.724.571 2.229 2.229 0 0 1-.981.202c-.383 0-.728-.08-1.034-.243a2.34 2.34 0 0 1-.783-.67 3.187 3.187 0 0 1-.498-1.017 4.46 4.46 0 0 1-.175-1.28zm1.423.123c0 .281.027.546.08.794.052.248.136.466.251.654.116.187.263.334.443.442.18.107.398.161.656.161.32 0 .583-.071.788-.214a1.53 1.53 0 0 0 .49-.565v-2.707a1.45 1.45 0 0 0-.493-.557c-.207-.137-.465-.205-.773-.205-.258 0-.478.055-.66.164-.181.11-.33.258-.445.445a2.1 2.1 0 0 0-.255.66c-.054.251-.082.52-.082.805zM442.35 202.83V206h-1.483v-8.531h3.264c.496 0 .936.067 1.321.202.385.135.71.323.976.565.265.243.468.53.606.862.139.332.208.693.208 1.084 0 .414-.07.785-.208 1.113-.138.328-.34.605-.606.832-.266.227-.591.4-.976.521a4.401 4.401 0 0 1-1.321.182zm0-1.19h1.78c.286 0 .531-.035.736-.105.205-.07.374-.17.507-.299.133-.129.23-.282.29-.46.06-.177.09-.372.09-.583 0-.199-.03-.39-.09-.574a1.314 1.314 0 0 0-.29-.49 1.411 1.411 0 0 0-.507-.339 1.937 1.937 0 0 0-.735-.126h-1.781zm9.369-.68a3.42 3.42 0 0 0-.58-.046c-.344 0-.623.066-.838.2a1.222 1.222 0 0 0-.48.55V206h-1.425v-6.34h1.36l.035.71c.16-.259.358-.46.595-.607.236-.147.514-.22.835-.22a1.732 1.732 0 0 1 .504.082zm.422 1.811c0-.46.067-.887.202-1.28.135-.392.328-.733.58-1.022.252-.29.56-.516.923-.68a2.973 2.973 0 0 1 1.236-.246c.465 0 .88.082 1.248.246.367.164.677.39.929.68a3 3 0 0 1 .577 1.022c.133.393.2.82.2 1.28v.124c0 .46-.067.888-.2 1.283a2.964 2.964 0 0 1-.577 1.022c-.252.287-.56.512-.926.674a3.024 3.024 0 0 1-1.24.243 3.04 3.04 0 0 1-1.244-.243 2.637 2.637 0 0 1-.926-.674 3 3 0 0 1-.58-1.022 3.945 3.945 0 0 1-.202-1.283zm1.423.124c0 .285.03.554.088.808.059.254.15.476.276.665.125.19.284.339.477.448.194.11.423.164.689.164.261 0 .489-.054.682-.164a1.34 1.34 0 0 0 .475-.448 2.11 2.11 0 0 0 .275-.665c.06-.254.091-.523.091-.808v-.124c0-.28-.03-.547-.09-.8a2.07 2.07 0 0 0-.279-.661 1.434 1.434 0 0 0-.477-.455 1.338 1.338 0 0 0-.689-.17 1.31 1.31 0 0 0-.683.17 1.46 1.46 0 0 0-.471.455c-.125.189-.217.41-.276.662a3.522 3.522 0 0 0-.088.8zm7.16-3.235v6.903c0 .648-.16 1.143-.483 1.485-.322.342-.794.513-1.415.513a2.947 2.947 0 0 1-.756-.1v-1.125a2.516 2.516 0 0 0 .504.053c.235 0 .414-.064.54-.19.124-.128.187-.34.187-.637v-6.902zm-1.546-1.646c0-.22.07-.4.208-.545.138-.145.337-.217.594-.217.258 0 .457.072.598.217a.75.75 0 0 1 .211.545c0 .215-.07.393-.21.536-.142.142-.34.214-.599.214-.257 0-.456-.072-.594-.214a.738.738 0 0 1-.208-.536zm5.86 8.103a3.27 3.27 0 0 1-1.267-.234 2.786 2.786 0 0 1-.955-.645 2.82 2.82 0 0 1-.603-.972 3.444 3.444 0 0 1-.211-1.213v-.235c0-.5.074-.952.223-1.356.148-.404.351-.748.609-1.031.258-.284.562-.502.911-.657a2.77 2.77 0 0 1 1.128-.231c.461 0 .861.077 1.201.231.34.155.621.37.844.648.223.277.389.607.498.99.11.383.164.803.164 1.26v.61h-4.142c.019.245.07.472.155.679.084.207.198.386.343.536a1.576 1.576 0 0 0 1.183.483c.352 0 .657-.07.917-.21.26-.141.486-.334.677-.58l.767.732a2.602 2.602 0 0 1-.905.823 3.034 3.034 0 0 1-.682.27c-.254.068-.54.102-.856.102zm-.17-5.431c-.391 0-.707.136-.947.41-.24.273-.394.654-.46 1.142h2.713v-.105a2.598 2.598 0 0 0-.091-.542 1.38 1.38 0 0 0-.226-.463 1.09 1.09 0 0 0-.395-.322c-.162-.08-.36-.12-.595-.12zm6.421 4.294c.172 0 .333-.026.483-.079a1.128 1.128 0 0 0 .662-.565 1.05 1.05 0 0 0 .115-.434h1.342a2.03 2.03 0 0 1-.226.862c-.139.27-.324.505-.557.706-.232.2-.503.36-.811.474a2.808 2.808 0 0 1-.99.173c-.489 0-.913-.084-1.275-.252a2.554 2.554 0 0 1-.902-.685 2.866 2.866 0 0 1-.536-1.014 4.22 4.22 0 0 1-.176-1.23v-.206c0-.433.059-.843.176-1.23.117-.387.296-.726.536-1.017.24-.29.54-.52.9-.688.359-.168.783-.252 1.27-.252.384 0 .732.059 1.047.176.314.117.584.281.808.492.225.21.4.463.528.756.127.293.196.615.208.967h-1.342a1.477 1.477 0 0 0-.103-.48 1.179 1.179 0 0 0-.642-.668 1.278 1.278 0 0 0-.515-.1c-.289 0-.527.06-.715.178-.187.12-.336.275-.445.466-.11.191-.185.41-.226.656a4.52 4.52 0 0 0-.061.744v.206c0 .257.02.508.061.752.041.245.117.462.226.654.11.191.257.345.442.463.186.117.425.175.718.175zm5.461-6.86v1.54h1.12v1.055h-1.12v3.539c0 .144.016.262.047.351a.46.46 0 0 0 .135.208.48.48 0 0 0 .208.1c.08.018.169.026.266.026.098 0 .193-.006.284-.02a2.97 2.97 0 0 0 .214-.038v1.101a5.353 5.353 0 0 1-.395.091c-.15.03-.331.044-.542.044-.235 0-.452-.031-.654-.094a1.297 1.297 0 0 1-.521-.304 1.417 1.417 0 0 1-.343-.551 2.46 2.46 0 0 1-.123-.832v-3.621h-1.043v-1.055h1.043v-1.54zm6.814 4.71V206h-1.482v-8.531h3.264c.496 0 .936.067 1.321.202.385.135.71.323.976.565.265.243.467.53.606.862.139.332.208.693.208 1.084 0 .414-.07.785-.208 1.113-.139.328-.34.605-.606.832-.266.227-.591.4-.976.521a4.402 4.402 0 0 1-1.321.182zm0-1.19h1.782c.285 0 .53-.035.735-.105.205-.07.374-.17.507-.299.133-.129.23-.282.29-.46.06-.177.09-.372.09-.583 0-.199-.03-.39-.09-.574a1.313 1.313 0 0 0-.29-.49 1.411 1.411 0 0 0-.507-.339 1.936 1.936 0 0 0-.735-.126h-1.782zm9.37-.68a3.423 3.423 0 0 0-.58-.046c-.344 0-.624.066-.838.2a1.222 1.222 0 0 0-.48.55V206h-1.425v-6.34h1.36l.035.71c.16-.259.358-.46.595-.607.236-.147.514-.22.835-.22a1.743 1.743 0 0 1 .503.082zm.421 1.811c0-.46.068-.887.203-1.28.134-.392.328-.733.58-1.022.252-.29.56-.516.923-.68a2.973 2.973 0 0 1 1.236-.246c.465 0 .88.082 1.248.246.367.164.677.39.929.68a3 3 0 0 1 .577 1.022c.133.393.199.82.199 1.28v.124c0 .46-.066.888-.2 1.283a2.963 2.963 0 0 1-.576 1.022c-.252.287-.56.512-.926.674a3.024 3.024 0 0 1-1.24.243 3.04 3.04 0 0 1-1.245-.243 2.637 2.637 0 0 1-.925-.674 3.001 3.001 0 0 1-.58-1.022 3.946 3.946 0 0 1-.203-1.283zm1.424.124c0 .285.03.554.088.808.059.254.15.476.276.665.125.19.284.339.477.448.193.11.423.164.689.164.261 0 .489-.054.682-.164.194-.109.352-.258.475-.448s.215-.411.275-.665c.06-.254.091-.523.091-.808v-.124c0-.28-.03-.547-.09-.8a2.07 2.07 0 0 0-.28-.661 1.434 1.434 0 0 0-.477-.455 1.338 1.338 0 0 0-.688-.17 1.31 1.31 0 0 0-.683.17 1.45 1.45 0 0 0-.471.455c-.125.189-.217.41-.276.662a3.522 3.522 0 0 0-.088.8zm5.409-.112c0-.48.057-.92.172-1.318.116-.399.282-.74.498-1.026.217-.285.48-.505.788-.662a2.276 2.276 0 0 1 1.043-.234c.352 0 .662.06.93.182.267.12.5.295.7.521V197h1.423v9h-1.289l-.07-.656a2.13 2.13 0 0 1-.724.571c-.28.135-.606.202-.981.202-.383 0-.728-.08-1.034-.243a2.34 2.34 0 0 1-.783-.67 3.187 3.187 0 0 1-.498-1.017 4.458 4.458 0 0 1-.175-1.28zm1.423.123c0 .281.027.546.08.794.052.248.136.466.251.654.116.187.263.334.443.442.18.107.398.161.656.161.32 0 .583-.071.788-.214a1.53 1.53 0 0 0 .49-.565v-2.707a1.45 1.45 0 0 0-.493-.557c-.207-.137-.465-.205-.773-.205-.258 0-.478.055-.66.164-.181.11-.33.258-.445.445a2.1 2.1 0 0 0-.255.66c-.054.251-.082.52-.082.805z" fill="#000"/><path d="M669 380v-80l-193 .213H281V380" stroke="#616161" stroke-linejoin="round"/><path d="M572 380v-80H383v80" stroke="#616161" stroke-linejoin="round"/><path d="M285.179 376.682l-.732-.682-3.357 3.612-3.357-3.612-.733.682 4.09 4.398zm102 0l-.732-.682-3.357 3.612-3.357-3.612-.733.682 4.09 4.398zm189 0l-.732-.682-3.357 3.612-3.357-3.612-.733.682 4.09 4.398zm97 0l-.732-.682-3.357 3.612-3.357-3.612-.733.682 4.09 4.398z" fill="#616161"/><path stroke="#616161" stroke-linejoin="round" d="M476 300v-18"/><path d="M217.136 291.913c-2.83 0-5.132-.463-5.132-1.032v-30.263c0-.57 2.303-1.032 5.132-1.032H735.38c2.83 0 5.132.463 5.132 1.032v30.263c0 .569-2.303 1.032-5.132 1.032z" fill="#fff"/><path d="M217.136 291.913c-2.83 0-5.132-.463-5.132-1.032v-30.263c0-.57 2.303-1.032 5.132-1.032H735.38c2.83 0 5.132.463 5.132 1.032v30.263c0 .569-2.303 1.032-5.132 1.032z" stroke="#e0e0e0" stroke-linejoin="round"/><path d="M428.547 279h-1.131v-3.943h-4.3V279h-1.126v-8.531h1.125v3.668h4.301v-3.668h1.13zm7.731-7.605h-2.742V279h-1.12v-7.605h-2.736v-.926h6.598zm7.263 0h-2.743V279h-1.119v-7.605h-2.736v-.926h6.598zm2.399 4.265V279h-1.125v-8.531h3.146c.485 0 .912.064 1.283.193.372.129.683.31.935.542a2.3 2.3 0 0 1 .574.826c.131.319.197.667.197 1.046a2.9 2.9 0 0 1-.197 1.099 2.09 2.09 0 0 1-.574.811 2.564 2.564 0 0 1-.935.501 4.332 4.332 0 0 1-1.283.173zm0-.92h2.021c.328 0 .61-.04.847-.123a1.54 1.54 0 0 0 .58-.343c.15-.146.26-.32.331-.521.07-.201.106-.423.106-.665 0-.219-.036-.43-.106-.636a1.451 1.451 0 0 0-.331-.542 1.62 1.62 0 0 0-.58-.375 2.294 2.294 0 0 0-.847-.14h-2.021zm6.243.797c0-.566.045-1.099.135-1.597.09-.498.21-.958.36-1.38a7.102 7.102 0 0 1 1.137-2.074c.212-.265.425-.492.638-.68a3.39 3.39 0 0 1 .6-.433l.224.715a3.848 3.848 0 0 0-.7.726 5.399 5.399 0 0 0-.648 1.14 8.081 8.081 0 0 0-.478 1.567 9.913 9.913 0 0 0-.184 2.004v.082c0 .743.061 1.41.184 2.004.123.594.282 1.118.478 1.57.195.454.411.839.647 1.155.237.316.47.568.7.756l-.222.662a3.537 3.537 0 0 1-.598-.434 5.198 5.198 0 0 1-.641-.682 7.341 7.341 0 0 1-.616-.917 7.082 7.082 0 0 1-.521-1.149c-.15-.422-.27-.88-.36-1.377a8.978 8.978 0 0 1-.135-1.6zm8.868 1.307c0-.2-.03-.375-.091-.528a1.051 1.051 0 0 0-.322-.419 2.567 2.567 0 0 0-.624-.357 9.117 9.117 0 0 0-.997-.343 8.462 8.462 0 0 1-1.145-.413 3.764 3.764 0 0 1-.873-.533 2.15 2.15 0 0 1-.554-.688 1.952 1.952 0 0 1-.193-.885c0-.332.07-.64.208-.923a2.2 2.2 0 0 1 .589-.738c.254-.21.558-.372.914-.49a3.785 3.785 0 0 1 1.19-.175c.48 0 .907.072 1.282.216a2.9 2.9 0 0 1 .947.575 2.448 2.448 0 0 1 .782 1.793h-1.13c0-.239-.039-.46-.115-.663a1.392 1.392 0 0 0-.349-.527 1.608 1.608 0 0 0-.586-.346 2.523 2.523 0 0 0-.832-.123c-.3 0-.562.036-.785.106a1.55 1.55 0 0 0-.55.29 1.152 1.152 0 0 0-.323.436 1.42 1.42 0 0 0-.105.551c0 .18.038.344.114.492.076.149.194.286.354.41.16.125.366.24.618.346.252.106.554.207.906.305.484.137.902.288 1.254.454.351.166.641.354.87.565.228.211.398.448.51.71.11.261.167.558.167.89 0 .348-.07.662-.211.943a2.059 2.059 0 0 1-.601.721c-.26.2-.572.353-.938.46a4.322 4.322 0 0 1-1.221.161c-.262 0-.524-.024-.785-.073a3.887 3.887 0 0 1-.753-.22 3.335 3.335 0 0 1-.668-.363 2.582 2.582 0 0 1-.536-.504 2.256 2.256 0 0 1-.358-.644 2.3 2.3 0 0 1-.129-.786h1.131c0 .293.058.544.173.753.115.21.27.382.463.519s.416.237.668.302c.252.064.517.096.794.096.594 0 1.049-.12 1.365-.363.316-.242.475-.572.475-.99zm4.913-1.248a8.98 8.98 0 0 1-.135 1.6c-.09.495-.21.954-.36 1.376a7.167 7.167 0 0 1-1.137 2.066 5.2 5.2 0 0 1-.642.682 3.537 3.537 0 0 1-.598.434l-.228-.662a3.82 3.82 0 0 0 .703-.736c.238-.314.454-.7.647-1.157a8.43 8.43 0 0 0 .475-1.582 9.997 9.997 0 0 0 .185-2.01v-.082c0-.742-.066-1.414-.197-2.015a8.514 8.514 0 0 0-.495-1.588 5.841 5.841 0 0 0-.65-1.157 4.11 4.11 0 0 0-.668-.73l.228-.662c.184.102.383.246.598.434.215.187.429.414.642.68a7.259 7.259 0 0 1 1.136 2.074 8.963 8.963 0 0 1 .496 2.976zm5.958 2.484h4.043v.92h-5.174v-8.531h1.131zm4.878-2.308c0-.461.067-.888.202-1.28.135-.393.326-.734.574-1.023.248-.29.55-.516.905-.68a2.82 2.82 0 0 1 1.196-.246c.449 0 .852.082 1.21.246.357.164.66.39.91.68.25.289.442.63.575 1.022.133.393.2.82.2 1.28v.13c0 .46-.067.887-.2 1.28a2.994 2.994 0 0 1-.574 1.02 2.67 2.67 0 0 1-.908.673 2.863 2.863 0 0 1-1.202.243c-.445 0-.845-.08-1.2-.243a2.642 2.642 0 0 1-.909-.674 3.032 3.032 0 0 1-.577-1.02 3.92 3.92 0 0 1-.202-1.28zm1.09.128c0 .317.037.616.111.897.074.281.187.528.337.741.15.213.338.382.562.507.225.125.488.187.788.187a1.6 1.6 0 0 0 .786-.187c.226-.125.414-.294.562-.507.149-.213.26-.46.337-.741.076-.281.114-.58.114-.897v-.128c0-.313-.038-.61-.114-.894a2.322 2.322 0 0 0-.34-.744 1.591 1.591 0 0 0-1.356-.7c-.297 0-.557.063-.78.19a1.738 1.738 0 0 0-.56.51c-.15.213-.262.46-.336.744a3.511 3.511 0 0 0-.111.894zm9.963 3.1a1.175 1.175 0 0 1-.093-.296 5.132 5.132 0 0 1-.06-.372 2.89 2.89 0 0 1-.342.302 2.368 2.368 0 0 1-1.462.483c-.324 0-.618-.049-.882-.146a2.054 2.054 0 0 1-.673-.399 1.755 1.755 0 0 1-.431-.594 1.79 1.79 0 0 1-.152-.736c0-.34.066-.64.199-.9.133-.259.323-.477.571-.653.248-.175.548-.308.9-.398.351-.09.744-.135 1.177-.135h1.078v-.498c0-.379-.113-.68-.34-.905-.226-.225-.56-.337-1.001-.337a1.79 1.79 0 0 0-.557.082 1.418 1.418 0 0 0-.43.22c-.12.092-.213.198-.28.32a.781.781 0 0 0-.099.38h-1.09c0-.227.06-.451.18-.674a1.94 1.94 0 0 1 .506-.6c.219-.178.483-.323.794-.434a3.07 3.07 0 0 1 1.04-.167c.344 0 .661.044.952.132.291.088.54.22.747.398.207.178.37.4.487.665.117.266.175.576.175.932v2.947c0 .215.019.44.056.677.037.236.093.44.167.612V279zm-1.799-.826c.196 0 .38-.027.551-.082.172-.055.328-.126.469-.214a1.76 1.76 0 0 0 .366-.302 1.44 1.44 0 0 0 .243-.351v-1.301h-.902c-.621 0-1.1.097-1.435.29a.947.947 0 0 0-.504.876c0 .152.025.295.076.428a.89.89 0 0 0 .231.342c.104.096.23.172.381.229.15.057.325.085.524.085zm4.158-2.397c0-.484.059-.924.178-1.32.12-.397.288-.737.507-1.02.219-.284.481-.503.788-.66.307-.156.65-.234 1.028-.234.387 0 .725.065 1.014.196.29.131.54.32.75.566V270h1.084v9h-.996l-.053-.68c-.21.258-.465.455-.761.592a2.487 2.487 0 0 1-1.05.205c-.37 0-.71-.08-1.016-.24a2.353 2.353 0 0 1-.788-.671 3.196 3.196 0 0 1-.507-1.02 4.411 4.411 0 0 1-.178-1.286zm1.083.123c0 .317.033.615.097.894.065.28.165.522.302.73.137.206.31.37.521.492.211.12.463.181.756.181.192 0 .363-.022.516-.067a1.508 1.508 0 0 0 .741-.483c.096-.114.179-.239.25-.375v-2.913a2.072 2.072 0 0 0-.247-.357 1.512 1.512 0 0 0-.738-.472 1.8 1.8 0 0 0-.51-.067c-.297 0-.552.061-.765.184a1.53 1.53 0 0 0-.524.501 2.288 2.288 0 0 0-.302.736c-.064.28-.097.577-.097.893zm9.106 3.1v-8.531h2.789c.437 0 .828.044 1.171.132.344.087.636.224.876.41.24.185.424.42.551.706.127.285.19.627.19 1.025 0 .399-.113.751-.34 1.058a2.204 2.204 0 0 1-.925.712c.238.066.45.164.636.293a1.933 1.933 0 0 1 .759 1.048c.066.22.1.448.1.686 0 .399-.068.751-.203 1.058a2.116 2.116 0 0 1-.571.773 2.46 2.46 0 0 1-.89.472 3.987 3.987 0 0 1-1.161.158zm1.125-3.99v3.07h1.857c.27 0 .509-.036.718-.108a1.53 1.53 0 0 0 .53-.305c.145-.13.255-.291.331-.48a1.69 1.69 0 0 0 .114-.636 2.05 2.05 0 0 0-.094-.639 1.188 1.188 0 0 0-.295-.486 1.352 1.352 0 0 0-.513-.308 2.246 2.246 0 0 0-.738-.108zm0-.903h1.699c.242 0 .463-.03.662-.093s.37-.153.512-.27a1.2 1.2 0 0 0 .332-.43c.078-.17.117-.363.117-.578 0-.468-.137-.81-.41-1.022-.274-.213-.69-.32-1.248-.32h-1.664zM511.624 279a1.174 1.174 0 0 1-.094-.296 5.116 5.116 0 0 1-.058-.372 2.887 2.887 0 0 1-.343.302 2.369 2.369 0 0 1-1.462.483c-.324 0-.618-.049-.882-.146a2.054 2.054 0 0 1-.674-.399 1.755 1.755 0 0 1-.43-.594 1.79 1.79 0 0 1-.153-.736c0-.34.067-.64.2-.9a1.8 1.8 0 0 1 .57-.653 2.73 2.73 0 0 1 .9-.398c.352-.09.744-.135 1.178-.135h1.078v-.498c0-.379-.113-.68-.34-.905-.226-.225-.56-.337-1.002-.337a1.79 1.79 0 0 0-.556.082 1.418 1.418 0 0 0-.431.22c-.12.092-.212.198-.278.32a.781.781 0 0 0-.1.38h-1.09c0-.227.06-.451.179-.674.119-.223.288-.423.507-.6.218-.178.483-.323.794-.434a3.07 3.07 0 0 1 1.04-.167c.343 0 .66.044.952.132.29.088.54.22.747.398.207.178.369.4.486.665.117.266.176.576.176.932v2.947c0 .215.019.44.056.677.037.236.092.44.167.612V279zm-1.799-.826c.195 0 .379-.027.55-.082a2.06 2.06 0 0 0 .47-.214c.14-.088.262-.189.366-.302.103-.113.184-.23.243-.351v-1.301h-.902c-.621 0-1.1.097-1.436.29a.947.947 0 0 0-.504.876c0 .152.026.295.076.428a.893.893 0 0 0 .232.342c.103.096.23.172.38.229.151.057.326.085.525.085zm5.599.826h-1.084v-9h1.083zm5.657 0a1.175 1.175 0 0 1-.094-.296 5.121 5.121 0 0 1-.059-.372 2.887 2.887 0 0 1-.343.302 2.369 2.369 0 0 1-1.462.483c-.324 0-.618-.049-.881-.146a2.054 2.054 0 0 1-.674-.399 1.755 1.755 0 0 1-.43-.594 1.79 1.79 0 0 1-.153-.736c0-.34.066-.64.199-.9.133-.259.323-.477.571-.653.248-.175.548-.308.9-.398.351-.09.744-.135 1.177-.135h1.079v-.498c0-.379-.114-.68-.34-.905-.227-.225-.56-.337-1.002-.337a1.79 1.79 0 0 0-.557.082 1.418 1.418 0 0 0-.43.22c-.12.092-.212.198-.279.32a.781.781 0 0 0-.1.38h-1.09c0-.227.06-.451.18-.674.119-.223.288-.423.506-.6a2.68 2.68 0 0 1 .794-.434 3.07 3.07 0 0 1 1.04-.167c.344 0 .661.044.952.132.291.088.54.22.747.398.207.178.37.4.487.665.117.266.176.576.176.932v2.947c0 .215.018.44.055.677.037.236.093.44.167.612V279zm-1.8-.826c.196 0 .38-.027.551-.082a2.08 2.08 0 0 0 .47-.214c.14-.088.262-.189.365-.302.104-.113.185-.23.244-.351v-1.301h-.903c-.62 0-1.1.097-1.435.29a.947.947 0 0 0-.504.876c0 .152.025.295.076.428a.89.89 0 0 0 .231.342c.104.096.23.172.381.229.15.057.325.085.525.085zm5.447-5.514l.035.797a2.353 2.353 0 0 1 1.898-.914c.309 0 .588.042.838.126.25.084.463.219.639.404.176.186.311.424.407.715.096.291.144.644.144 1.058V279h-1.084v-4.166a2.14 2.14 0 0 0-.082-.63 1.04 1.04 0 0 0-.244-.425.958.958 0 0 0-.398-.24 1.794 1.794 0 0 0-.548-.076c-.351 0-.66.094-.926.281a1.91 1.91 0 0 0-.62.738V279h-1.085v-6.34zm8.147 5.572a1.632 1.632 0 0 0 1.017-.351c.134-.11.244-.24.328-.39.084-.15.134-.313.15-.489h1.024c-.015.281-.092.55-.23.806-.14.255-.322.48-.549.673a2.697 2.697 0 0 1-1.74.636c-.477 0-.892-.085-1.245-.255a2.53 2.53 0 0 1-.882-.688 2.916 2.916 0 0 1-.524-1.008 4.187 4.187 0 0 1-.173-1.213v-.246c0-.426.057-.83.173-1.213.115-.383.29-.719.524-1.008.234-.289.527-.518.879-.688.352-.17.766-.255 1.242-.255.371 0 .708.059 1.01.176.304.117.565.278.786.483.22.205.394.448.519.73.125.28.195.584.21.908h-1.025a1.65 1.65 0 0 0-.138-.548 1.436 1.436 0 0 0-.768-.747 1.53 1.53 0 0 0-.594-.111c-.336 0-.614.066-.835.199a1.58 1.58 0 0 0-.533.524c-.135.217-.23.461-.284.733a4.129 4.129 0 0 0-.082.817v.246c0 .281.027.558.082.83a2.2 2.2 0 0 0 .281.729c.133.215.31.388.533.521.223.133.504.2.844.2zm6.378.885c-.442 0-.841-.076-1.199-.228a2.675 2.675 0 0 1-.917-.636 2.81 2.81 0 0 1-.585-.97 3.568 3.568 0 0 1-.206-1.23v-.246c0-.516.078-.977.232-1.383.154-.406.36-.748.618-1.026.258-.277.553-.489.885-.635.332-.147.678-.22 1.037-.22.453 0 .844.08 1.172.237.328.158.598.376.811.654.213.277.37.605.472.984.102.379.152.791.152 1.236v.487h-4.295c.008.293.056.566.144.82s.213.475.375.662c.162.188.357.336.586.445.228.11.487.164.776.164.383 0 .707-.078.973-.234.266-.156.498-.363.697-.621l.662.516a2.895 2.895 0 0 1-.369.454 2.52 2.52 0 0 1-.507.392 2.666 2.666 0 0 1-.665.276c-.25.068-.533.102-.85.102zm-.135-5.683c-.219 0-.42.04-.604.12-.183.08-.347.196-.492.348a1.877 1.877 0 0 0-.36.569 2.88 2.88 0 0 0-.196.779h3.175v-.082a3 3 0 0 0-.102-.627 1.702 1.702 0 0 0-.264-.557 1.359 1.359 0 0 0-.46-.398 1.45 1.45 0 0 0-.697-.152zm6.934.199a2.874 2.874 0 0 0-.533-.041c-.375 0-.68.082-.917.246a1.495 1.495 0 0 0-.53.662v4.5h-1.084v-6.34h1.054l.018.733c.164-.262.37-.47.615-.621.246-.153.545-.229.897-.229a1.602 1.602 0 0 1 .48.082z" fill="#000"/><path fill="#fff" d="M241 425h182v60H241z"/><path stroke="#dfdfdf" stroke-linecap="round" stroke-linejoin="round" d="M241 425h182v60H241z"/><path d="M284.666 453.797l-5.754-10.006c-.461-.799-1.297-1.286-2.158-1.286h-11.508c-.922 0-1.727.54-2.158 1.285l-5.754 9.986a2.51 2.51 0 0 0 0 2.502l5.754 10.052c.46.799 1.297 1.331 2.158 1.331h11.508c.922 0 1.727-.58 2.158-1.325l5.754-10.007a2.566 2.566 0 0 0 0-2.532" fill="#4285f4"/><path d="M276.606 451.68L271 449.177l-5.36 2.912-.224 6.417 9.156 9.155h2.182c.922 0 1.727-.58 2.158-1.325l4.509-7.842z" fill="#000" fill-opacity=".07"/><path d="M275.764 457.5l-1.807-1.042v-2.748l-2.669 1.54v3.08l2.38-1.372 1.807 1.042-4.475 2.584-4.475-2.584 1.807-1.042 2.38 1.373v-3.081l-2.67-1.54v2.748l-1.806 1.043v-5.167l4.475-2.584v2.086l-2.38 1.374 2.669 1.54 2.668-1.54-2.38-1.374v-2.086l4.476 2.584zm.71-5.918l-5.18-2.99a.595.595 0 0 0-.59 0l-5.179 2.99a.591.591 0 0 0-.295.512v5.98c0 .211.113.406.295.51l5.18 2.991a.59.59 0 0 0 .59 0l5.179-2.99a.588.588 0 0 0 .295-.511v-5.98a.592.592 0 0 0-.295-.512z" fill="#fff"/><text transform="translate(292.958 444.17)" fill="#757575"><tspan font-family="Roboto" font-size="10" font-weight="500" x="0" y="15">GKE Cluster West</tspan></text><path fill="#fff" d="M533 425h182v60H533z"/><path stroke="#dfdfdf" stroke-linecap="round" stroke-linejoin="round" d="M533 425h182v60H533z"/><path d="M576.666 453.797l-5.754-10.006c-.461-.799-1.297-1.286-2.158-1.286h-11.508c-.922 0-1.727.54-2.158 1.285l-5.754 9.986a2.51 2.51 0 0 0 0 2.502l5.754 10.052c.46.799 1.297 1.331 2.158 1.331h11.508c.922 0 1.727-.58 2.158-1.325l5.754-10.007a2.566 2.566 0 0 0 0-2.532" fill="#4285f4"/><path d="M568.606 451.68L563 449.177l-5.36 2.912-.224 6.417 9.156 9.155h2.182c.922 0 1.727-.58 2.158-1.325l4.509-7.842z" fill="#000" fill-opacity=".07"/><path d="M567.764 457.5l-1.807-1.042v-2.748l-2.669 1.54v3.08l2.38-1.372 1.807 1.042-4.475 2.584-4.475-2.584 1.807-1.042 2.38 1.373v-3.081l-2.67-1.54v2.748l-1.806 1.043v-5.167l4.475-2.584v2.086l-2.38 1.374 2.669 1.54 2.668-1.54-2.38-1.374v-2.086l4.476 2.584zm.71-5.918l-5.18-2.99a.595.595 0 0 0-.59 0l-5.179 2.99a.591.591 0 0 0-.295.512v5.98c0 .211.113.406.295.51l5.18 2.991a.59.59 0 0 0 .59 0l5.179-2.99a.588.588 0 0 0 .295-.511v-5.98a.592.592 0 0 0-.295-.512z" fill="#fff"/><text transform="translate(584.565 444.17)" fill="#757575"><tspan font-family="Roboto" font-size="10" font-weight="500" x="0" y="15">GKE Cluster East</tspan></text></g></svg>